<?xml version="1.0" encoding="utf-8"?>
<!-- Generator: Adobe Illustrator 25.2.1, SVG Export Plug-In . SVG Version: 6.00 Build 0)  -->
<svg version="1.1" xmlns="http://www.w3.org/2000/svg" xmlns:xlink="http://www.w3.org/1999/xlink" x="0px" y="0px"
	 viewBox="0 0 750 500" style="enable-background:new 0 0 750 500;" xml:space="preserve">
<style type="text/css">
	.st0{opacity:0.35;fill:#DEF2FC;}
	.st1{fill:#FFFFFF;}
	.st2{fill:#DEF2FC;}
	.st3{opacity:0.6;fill:#DEF2FC;}
	.st4{opacity:0.7;fill:#FFDF82;}
	.st5{clip-path:url(#SVGID_2_);}
	.st6{fill:#FFDF82;}
	.st7{fill:#FFCC31;}
	.st8{opacity:0.5;fill:none;stroke:#E6E6E6;stroke-width:0.3089;stroke-linecap:round;stroke-linejoin:round;stroke-miterlimit:10;}
	.st9{fill:#263447;}
	.st10{fill:#1B2433;}
	.st11{fill:#355FFC;}
	.st12{fill:#302DB8;}
	.st13{fill:#F36543;}
	.st14{fill:#F53102;}
	.st15{fill:#F0FAFF;}
	.st16{fill:#92CEFF;}
	.st17{fill:#F9E3AA;}
	.st18{opacity:0.8;fill:#DEF2FC;}
	.st19{opacity:0.55;fill:#F9E3AA;}
	.st20{fill:#BBE4FF;}
	.st21{opacity:0.75;}
	.st22{fill:none;stroke:#BBE4FF;stroke-width:0.9948;stroke-miterlimit:10;}
	.st23{opacity:0.5;fill:#BBE4FF;}
	.st24{opacity:0.55;}
	.st25{opacity:0.5;}
	.st26{opacity:0.2;fill:#1B2433;}
	.st27{fill:#FFAB88;}
	.st28{fill:#FCD575;}
	.st29{fill:none;stroke:#FFCC31;stroke-width:0.9661;stroke-linecap:round;stroke-linejoin:round;stroke-miterlimit:10;}
	.st30{opacity:0.5;fill:none;stroke:#355FFC;stroke-width:0.9414;stroke-miterlimit:10;}
	.st31{fill:#5E83EA;}
	.st32{opacity:0.2;fill:#5E83EA;}
	.st33{fill:none;stroke:#355FFC;stroke-width:0.8804;stroke-linecap:round;stroke-linejoin:round;}
	.st34{fill:none;stroke:#355FFC;stroke-width:0.8804;stroke-linecap:round;stroke-linejoin:round;stroke-dasharray:2.9098,4.6557;}
	
		.st35{fill:none;stroke:#355FFC;stroke-width:0.8804;stroke-linecap:round;stroke-linejoin:round;stroke-miterlimit:10;stroke-dasharray:2.9347,4.6955;}
	.st36{fill:#D12B0B;}
	.st37{opacity:0.1;fill:#D3835B;}
	.st38{fill:#D3835B;}
	.st39{opacity:0.2;}
	.st40{opacity:0.5;fill:#B3B3B3;}
	.st41{opacity:0.2;fill:#D3835B;}
	.st42{opacity:0.75;fill:#F53102;}
	.st43{opacity:0.8;fill:#F53102;}
	.st44{fill:#211D19;}
	.st45{opacity:0.3;fill:#FFAB88;}
	.st46{fill:none;stroke:#E9B0A7;stroke-width:0.6231;stroke-linecap:round;stroke-linejoin:round;stroke-miterlimit:10;}
	.st47{opacity:0.3;}
	.st48{fill:#35302B;}
	.st49{fill:none;stroke:#D12B0B;stroke-width:0.6901;stroke-miterlimit:10;}
	.st50{opacity:0.2;fill:#3ABBC7;}
	.st51{fill:#DCF3FF;}
	.st52{fill:#438FF3;}
	.st53{fill:#73AAF3;}
	.st54{fill:#96C1F3;}
	.st55{fill:#F38B73;}
	.st56{fill:#F3A796;}
	.st57{opacity:0.9;fill:#4368F3;}
	.st58{fill:#738FF3;}
	.st59{fill:#96ABF3;}
	.st60{opacity:0.85;fill:#F3C743;}
	.st61{fill:#F3D373;}
	.st62{fill:#F3DB96;}
	.st63{fill:#E5A173;}
	.st64{fill:#E95B15;}
	.st65{fill:none;stroke:#E95B15;stroke-width:0.8438;stroke-miterlimit:10;}
	.st66{opacity:0.6;fill:#5E83EA;}
	.st67{opacity:0.4;fill:#92CEFF;}
	.st68{fill:none;stroke:#355FFC;stroke-width:0.9519;stroke-linecap:round;stroke-linejoin:round;stroke-miterlimit:10;}
	.st69{opacity:0.15;fill:#E5A173;}
	.st70{fill:#11111E;}
	.st71{opacity:0.3;fill:#E5A173;}
	.st72{fill:none;stroke:#E9B0A7;stroke-width:0.581;stroke-linecap:round;stroke-linejoin:round;stroke-miterlimit:10;}
	.st73{fill:#F97F8B;}
	.st74{fill:#FFA733;}
	.st75{opacity:0.6;fill:none;stroke:#E9B0A7;stroke-width:0.581;stroke-linecap:round;stroke-linejoin:round;stroke-miterlimit:10;}
	.st76{opacity:0.5;fill:#FFCC31;}
	.st77{fill:none;stroke:#FFA733;stroke-width:0.2655;stroke-miterlimit:10;}
	.st78{opacity:0.35;fill:#FFCC31;}
	.st79{fill:none;stroke:#FFA733;stroke-width:0.6329;stroke-miterlimit:10;}
	.st80{opacity:0.1;}
	.st81{fill:#A0C7FF;}
	.st82{fill:none;stroke:#FFFFFF;stroke-width:0.6098;stroke-miterlimit:10;}
	.st83{fill:#CAEAFC;}
	.st84{opacity:0.08;fill:#263447;}
	.st85{opacity:0.25;fill:#263447;}
	.st86{opacity:0.45;fill:#263447;}
	.st87{opacity:0.65;fill:#263447;}
	.st88{opacity:0.85;fill:#263447;}
	.st89{fill:#DEF4FC;}
	.st90{opacity:0.08;fill:#355FFC;}
	.st91{opacity:0.25;fill:#355FFC;}
	.st92{opacity:0.45;fill:#355FFC;}
	.st93{opacity:0.65;fill:#355FFC;}
	.st94{opacity:0.85;fill:#355FFC;}
	.st95{opacity:0.08;fill:#F53102;}
	.st96{opacity:0.25;fill:#F53102;}
	.st97{opacity:0.45;fill:#F53102;}
	.st98{opacity:0.65;fill:#F53102;}
	.st99{opacity:0.85;fill:#F53102;}
</style>
<g id="BACKGROUND">
	<g>
		<rect class="st0" width="750" height="500"/>
		<path class="st1" d="M486.84,431.15c66.81-16.11,131.98-46.35,178.69-96.76c46.71-50.41,72.43-123.04,55.99-189.77
			C705.07,77.9,641.03,22.69,572.43,26.95c-33.72,2.09-65.2,17.19-98.35,23.73C363.86,72.42,247.07-1.45,140.88,35.24
			c-153.76,53.13-143.42,246.69-39.7,323.7C199.36,431.84,370.82,459.12,486.84,431.15z"/>
		<rect y="419.98" class="st2" width="750" height="80.02"/>
		<path class="st3" d="M611.09,442.07c-20.26,0-39.06,1.08-54.59,2.92c-24.51-6.74-96.5-11.62-181.5-11.62
			c-90.97,0-167.04,5.59-185.95,13.06c-17.17-2.71-40.02-4.37-65.12-4.37c-53.32,0-96.54,7.47-96.54,16.69s43.22,16.69,96.54,16.69
			c51.29,0,93.23-6.92,96.35-15.65c34.58,4.21,90.99,6.95,154.72,6.95c55.72,0,105.85-2.1,140.68-5.44
			c7.12,8,47.13,14.13,95.41,14.13c53.32,0,96.54-7.47,96.54-16.69S664.41,442.07,611.09,442.07z"/>
	</g>
</g>
<g id="OBJECTS">
	<g>
		<g>
			<g>
				<rect x="622.54" y="321.47" class="st4" width="98.49" height="98.51"/>
				<rect x="622.54" y="321.47" class="st4" width="33.62" height="98.51"/>
			</g>
			<g>
				<defs>
					<rect id="SVGID_1_" x="622.54" y="237.72" width="98.49" height="83.75"/>
				</defs>
				<clipPath id="SVGID_2_">
					<use xlink:href="#SVGID_1_"  style="overflow:visible;"/>
				</clipPath>
				<g class="st5">
					<g>
						<polygon class="st6" points="659.38,418.2 656.31,266.56 674.93,265.44 678,417.08 						"/>
						<path class="st7" d="M665.84,269.7c-5.16,0.31-9.43-1-9.54-2.91c-0.11-1.92,3.97-3.72,9.13-4.03c5.16-0.31,9.43,1,9.54,2.91
							C675.08,267.58,670.99,269.39,665.84,269.7z"/>
						<path class="st8" d="M671.28,267.07c0.54,0.1,1.07-0.42,1.09-0.98c0.03-0.55-0.34-1.07-0.81-1.36
							c-0.47-0.3-1.02-0.41-1.57-0.5c-2.98-0.47-6.07-0.24-8.95,0.66c-0.74,0.23-1.59,0.66-1.64,1.44c-0.03,0.43,0.23,0.84,0.57,1.1
							c0.34,0.26,0.76,0.4,1.18,0.51c2.14,0.58,4.43,0.63,6.6,0.12c0.59-0.14,1.19-0.33,1.65-0.72c0.27-0.24,0.49-0.6,0.4-0.94
							c-0.1-0.36-0.5-0.54-0.86-0.66c-1.45-0.46-3.01-0.52-4.49-0.17c-0.38,0.09-0.86,0.38-0.72,0.75c0.08,0.2,0.31,0.29,0.52,0.33
							c0.63,0.14,1.29,0.12,1.91-0.05"/>
					</g>
				</g>
				<g class="st5">
					<g>
						<polygon class="st9" points="680.57,395.96 698.95,245.41 717.55,246.94 699.16,397.49 						"/>
						<path class="st10" d="M707.94,249.87c-5.15-0.42-9.19-2.32-9.04-4.23c0.16-1.91,4.46-3.12,9.61-2.7
							c5.15,0.42,9.19,2.32,9.04,4.23C717.39,249.08,713.09,250.29,707.94,249.87z"/>
						<path class="st8" d="M713.7,248.03c0.53,0.17,1.12-0.27,1.22-0.81c0.1-0.54-0.18-1.1-0.61-1.46
							c-0.42-0.36-0.96-0.55-1.49-0.71c-2.89-0.89-5.98-1.1-8.95-0.61c-0.76,0.12-1.67,0.43-1.82,1.19
							c-0.09,0.42,0.1,0.86,0.41,1.17c0.3,0.31,0.7,0.5,1.09,0.68c2.04,0.88,4.3,1.25,6.51,1.05c0.6-0.05,1.22-0.16,1.73-0.48
							c0.3-0.2,0.57-0.52,0.53-0.88c-0.05-0.37-0.42-0.61-0.75-0.77c-1.37-0.66-2.91-0.94-4.42-0.81c-0.39,0.03-0.9,0.26-0.81,0.64
							c0.05,0.21,0.26,0.33,0.46,0.4c0.6,0.23,1.26,0.3,1.9,0.22"/>
					</g>
				</g>
				<g class="st5">
					<g>
						<polygon class="st11" points="676.32,436.14 678.22,284.48 696.87,283.97 694.97,435.63 						"/>
						<path class="st12" d="M687.63,287.93c-5.16,0.14-9.39-1.3-9.44-3.22c-0.05-1.92,4.09-3.59,9.26-3.73
							c5.16-0.14,9.39,1.3,9.44,3.22C696.94,286.12,692.8,287.79,687.63,287.93z"/>
						<path class="st8" d="M693.17,285.48c0.54,0.12,1.08-0.39,1.13-0.94c0.04-0.55-0.3-1.08-0.76-1.39
							c-0.46-0.31-1.01-0.44-1.55-0.55c-2.96-0.57-6.06-0.44-8.97,0.37c-0.75,0.21-1.61,0.61-1.68,1.38
							c-0.04,0.43,0.2,0.85,0.53,1.12c0.33,0.27,0.75,0.43,1.16,0.55c2.12,0.65,4.41,0.77,6.59,0.34c0.59-0.12,1.2-0.29,1.67-0.67
							c0.28-0.23,0.51-0.58,0.43-0.93c-0.09-0.36-0.48-0.56-0.83-0.68c-1.43-0.5-3-0.62-4.48-0.32c-0.39,0.08-0.87,0.36-0.74,0.73
							c0.07,0.2,0.3,0.3,0.51,0.35c0.62,0.16,1.29,0.17,1.91,0.01"/>
					</g>
				</g>
				<g class="st5">
					<g>
						<polygon class="st13" points="681.83,442.07 701.66,291.7 720.24,293.41 700.4,443.78 						"/>
						<path class="st14" d="M710.6,296.24c-5.14-0.47-9.17-2.41-9-4.32s4.49-3.08,9.63-2.61c5.14,0.47,9.17,2.41,9,4.32
							C720.06,295.55,715.75,296.72,710.6,296.24z"/>
						<path class="st8" d="M716.39,294.47c0.52,0.18,1.12-0.26,1.23-0.8c0.11-0.54-0.17-1.11-0.59-1.47
							c-0.42-0.36-0.95-0.56-1.48-0.73c-2.88-0.91-5.97-1.15-8.95-0.7c-0.77,0.12-1.67,0.42-1.84,1.17
							c-0.09,0.42,0.1,0.87,0.39,1.18c0.3,0.31,0.69,0.51,1.08,0.69c2.03,0.9,4.29,1.29,6.5,1.11c0.6-0.05,1.23-0.14,1.74-0.47
							c0.3-0.19,0.58-0.52,0.53-0.87c-0.05-0.37-0.41-0.61-0.75-0.78c-1.36-0.67-2.9-0.97-4.41-0.85c-0.39,0.03-0.91,0.25-0.82,0.63
							c0.05,0.21,0.26,0.33,0.46,0.41c0.6,0.24,1.26,0.32,1.9,0.24"/>
					</g>
				</g>
			</g>
		</g>
		<g>
			<g>
				<g>
					<g>
						<g>
							<path class="st15" d="M629.29,394.34l-1.56,26.47c-0.04,0.73-0.52,1.36-1.21,1.6c-1.88,0.64-5.89,1.8-10.57,1.83
								c-4.81,0.04-8.99-1.1-10.96-1.72c-0.72-0.23-1.22-0.86-1.26-1.61l-1.57-26.58H629.29z"/>
						</g>
					</g>
				</g>
				<g>
					<g>
						<g>
							<path class="st16" d="M630.64,390.24l-0.47,5.32c-0.17,0.04-7.14,1.85-14.2,1.9c-7.11,0.05-14.3-1.65-14.68-1.75l-0.49-5.47
								H630.64z"/>
							<path class="st9" d="M628.77,403.17l-0.55,9.21c-2.59,0.55-7.4,1.42-12.26,1.45c-5.01,0.04-10.07-0.79-12.74-1.33l-0.55-9.21
								c3.24,0.59,8.3,1.32,13.32,1.28C620.84,404.54,625.65,403.79,628.77,403.17z"/>
							<path class="st9" d="M630.64,390.27c0,1.61-6.69,2.92-14.94,2.92s-14.94-1.31-14.94-2.92c0-1.61,6.69-2.92,14.94-2.92
								S630.64,388.66,630.64,390.27z"/>
						</g>
					</g>
				</g>
			</g>
			<g>
				<g>
					<g>
						<g>
							<path class="st15" d="M701.39,396.3l-1.56,26.47c-0.04,0.73-0.52,1.36-1.21,1.6c-1.88,0.64-5.89,1.8-10.57,1.83
								c-4.81,0.04-8.99-1.1-10.96-1.72c-0.72-0.22-1.22-0.86-1.26-1.61l-1.57-26.58H701.39z"/>
						</g>
					</g>
				</g>
				<g>
					<g>
						<g>
							<path class="st16" d="M702.74,392.19l-0.47,5.32c-0.17,0.04-7.14,1.85-14.2,1.9c-7.11,0.05-14.3-1.65-14.68-1.75l-0.49-5.47
								H702.74z"/>
							<path class="st14" d="M700.87,405.13l-0.55,9.21c-2.59,0.55-7.4,1.42-12.26,1.45c-5.01,0.04-10.07-0.79-12.74-1.33
								l-0.55-9.21c3.24,0.59,8.3,1.32,13.32,1.28C692.95,406.49,697.76,405.74,700.87,405.13z"/>
							<path class="st14" d="M702.75,392.23c0,1.61-6.69,2.92-14.94,2.92c-8.25,0-14.94-1.31-14.94-2.92
								c0-1.61,6.69-2.92,14.94-2.92C696.06,389.31,702.75,390.62,702.75,392.23z"/>
						</g>
					</g>
				</g>
			</g>
			<g>
				<g>
					<g>
						<g>
							<path class="st15" d="M728.09,403.21l-1.56,26.47c-0.04,0.73-0.52,1.36-1.21,1.6c-1.88,0.64-5.89,1.8-10.57,1.83
								c-4.81,0.04-8.99-1.1-10.96-1.72c-0.72-0.23-1.22-0.86-1.26-1.61l-1.57-26.58H728.09z"/>
						</g>
					</g>
				</g>
				<g>
					<g>
						<g>
							<path class="st16" d="M729.44,399.1l-0.47,5.32c-0.17,0.04-7.14,1.85-14.2,1.9c-7.11,0.05-14.3-1.65-14.68-1.75l-0.49-5.47
								H729.44z"/>
							<path class="st7" d="M727.57,412.04l-0.55,9.21c-2.59,0.55-7.4,1.42-12.26,1.45c-5.01,0.04-10.07-0.79-12.74-1.33l-0.55-9.21
								c3.24,0.59,8.3,1.32,13.32,1.28C719.64,413.41,724.45,412.65,727.57,412.04z"/>
							<path class="st7" d="M729.44,399.14c0,1.61-6.69,2.92-14.94,2.92c-8.25,0-14.94-1.31-14.94-2.92c0-1.61,6.69-2.92,14.94-2.92
								C722.75,396.22,729.44,397.53,729.44,399.14z"/>
						</g>
					</g>
				</g>
			</g>
		</g>
		<g>
			<g>
				<rect x="30.56" y="269.51" class="st17" width="150.44" height="150.47"/>
				<rect x="45.37" y="282.15" class="st18" width="120.84" height="108.22"/>
				<rect x="45.37" y="322.79" class="st19" width="120.84" height="10.67"/>
				<rect x="45.37" y="379.7" class="st19" width="120.84" height="10.67"/>
			</g>
			<g>
				<g>
					<g>
						<g>
							<g>
								<path class="st20" d="M78.29,301.25l-1.43,24.24c-0.04,0.67-0.48,1.25-1.11,1.46c-1.72,0.59-5.39,1.65-9.68,1.68
									c-4.4,0.03-8.23-1-10.04-1.57c-0.65-0.21-1.11-0.79-1.15-1.48l-1.44-24.34H78.29z"/>
							</g>
						</g>
					</g>
					<g>
						<g>
							<g>
								<path class="st16" d="M79.52,297.49l-0.43,4.87c-0.15,0.04-6.54,1.69-13.01,1.74c-6.51,0.05-13.1-1.51-13.44-1.6l-0.45-5.01
									H79.52z"/>
								<path class="st14" d="M77.81,309.34l-0.5,8.44c-2.37,0.51-6.78,1.3-11.22,1.33c-4.59,0.03-9.22-0.73-11.67-1.22l-0.5-8.44
									c2.97,0.54,7.6,1.2,12.2,1.17C70.55,310.59,74.96,309.9,77.81,309.34z"/>
								<path class="st14" d="M79.52,297.53c0,1.47-6.13,2.67-13.68,2.67c-7.56,0-13.68-1.2-13.68-2.67s6.13-2.67,13.68-2.67
									C73.4,294.86,79.52,296.05,79.52,297.53z"/>
							</g>
						</g>
					</g>
				</g>
				<g>
					<g>
						<g>
							<g>
								<path class="st20" d="M78.29,355.47l-1.43,24.24c-0.04,0.67-0.48,1.25-1.11,1.46c-1.72,0.59-5.39,1.65-9.68,1.68
									c-4.4,0.03-8.23-1-10.04-1.57c-0.65-0.21-1.11-0.79-1.15-1.48l-1.44-24.34H78.29z"/>
							</g>
						</g>
					</g>
					<g>
						<g>
							<g>
								<path class="st16" d="M79.52,351.71l-0.43,4.87c-0.15,0.04-6.54,1.69-13.01,1.74c-6.51,0.05-13.1-1.51-13.44-1.6l-0.45-5.01
									H79.52z"/>
								<path class="st11" d="M77.81,363.56l-0.5,8.44c-2.37,0.51-6.78,1.3-11.22,1.33c-4.59,0.03-9.22-0.73-11.67-1.22l-0.5-8.44
									c2.97,0.54,7.6,1.2,12.2,1.17C70.55,364.81,74.96,364.12,77.81,363.56z"/>
								<path class="st11" d="M79.52,351.74c0,1.47-6.13,2.67-13.68,2.67c-7.56,0-13.68-1.2-13.68-2.67c0-1.47,6.13-2.67,13.68-2.67
									C73.4,349.07,79.52,350.27,79.52,351.74z"/>
							</g>
						</g>
					</g>
				</g>
				<g>
					<g>
						<g>
							<g>
								<path class="st20" d="M158.17,301.25l-1.43,24.24c-0.04,0.67-0.48,1.25-1.11,1.46c-1.72,0.59-5.39,1.65-9.68,1.68
									c-4.4,0.03-8.23-1-10.04-1.57c-0.65-0.21-1.11-0.79-1.15-1.48l-1.44-24.34H158.17z"/>
							</g>
						</g>
					</g>
					<g>
						<g>
							<g>
								<path class="st16" d="M159.41,297.49l-0.43,4.87c-0.15,0.04-6.54,1.69-13.01,1.74c-6.51,0.05-13.1-1.51-13.44-1.6
									l-0.45-5.01H159.41z"/>
								<path class="st7" d="M157.69,309.34l-0.5,8.44c-2.37,0.51-6.78,1.3-11.22,1.33c-4.59,0.03-9.22-0.73-11.67-1.22l-0.5-8.44
									c2.97,0.54,7.6,1.2,12.2,1.17C150.44,310.59,154.84,309.9,157.69,309.34z"/>
								<path class="st7" d="M159.41,297.53c0,1.47-6.13,2.67-13.68,2.67s-13.68-1.2-13.68-2.67s6.13-2.67,13.68-2.67
									S159.41,296.05,159.41,297.53z"/>
							</g>
						</g>
					</g>
				</g>
				<g>
					<g>
						<g>
							<g>
								<path class="st20" d="M158.17,355.47l-1.43,24.24c-0.04,0.67-0.48,1.25-1.11,1.46c-1.72,0.59-5.39,1.65-9.68,1.68
									c-4.4,0.03-8.23-1-10.04-1.57c-0.65-0.21-1.11-0.79-1.15-1.48l-1.44-24.34H158.17z"/>
							</g>
						</g>
					</g>
					<g>
						<g>
							<g>
								<path class="st16" d="M159.41,351.71l-0.43,4.87c-0.15,0.04-6.54,1.69-13.01,1.74c-6.51,0.05-13.1-1.51-13.44-1.6
									l-0.45-5.01H159.41z"/>
								<path class="st9" d="M157.69,363.56l-0.5,8.44c-2.37,0.51-6.78,1.3-11.22,1.33c-4.59,0.03-9.22-0.73-11.67-1.22l-0.5-8.44
									c2.97,0.54,7.6,1.2,12.2,1.17C150.44,364.81,154.84,364.12,157.69,363.56z"/>
								<path class="st9" d="M159.41,351.74c0,1.47-6.13,2.67-13.68,2.67s-13.68-1.2-13.68-2.67c0-1.47,6.13-2.67,13.68-2.67
									S159.41,350.27,159.41,351.74z"/>
							</g>
						</g>
					</g>
				</g>
			</g>
		</g>
	</g>
	<g>
		<g>
			<g>
				<rect x="491.47" y="208.36" class="st20" width="8.51" height="19.9"/>
				<rect x="491.47" y="208.36" class="st20" width="3.6" height="19.9"/>
			</g>
			<g>
				<g>
					<path class="st20" d="M520.79,209.6h-49.66c-1.1,0-1.99-0.89-1.99-1.99v-32.1c0-1.1,0.89-1.99,1.99-1.99h49.66
						c1.1,0,1.99,0.89,1.99,1.99v32.1C522.78,208.71,521.89,209.6,520.79,209.6z"/>
					<rect x="475.25" y="176.16" class="st10" width="45.48" height="30.82"/>
					<path class="st20" d="M473.62,209.6h-2.48c-1.1,0-1.99-0.89-1.99-1.99v-32.1c0-1.1,0.89-1.99,1.99-1.99h2.48V209.6z"/>
				</g>
				<g class="st21">
					<rect x="477.32" y="179.19" class="st20" width="19.13" height="1.34"/>
					<rect x="477.32" y="182.6" class="st20" width="19.13" height="1.34"/>
					<rect x="477.32" y="189.41" class="st20" width="13.28" height="1.34"/>
					<rect x="477.32" y="192.82" class="st20" width="13.28" height="1.34"/>
					<rect x="477.32" y="196.22" class="st20" width="11.65" height="1.34"/>
					<rect x="477.32" y="186" class="st20" width="29.71" height="1.34"/>
				</g>
			</g>
		</g>
		<g>
			<g>
				<g>
					<rect x="214.93" y="303.78" class="st20" width="37.08" height="134.97"/>
					<rect x="214.93" y="303.78" class="st20" width="15.68" height="134.97"/>
				</g>
				<g>
					<path class="st16" d="M265.54,452.59H201.4v-11.77c0-3.06,2.48-5.55,5.55-5.55h53.04c3.06,0,5.55,2.48,5.55,5.55V452.59z"/>
					<path class="st20" d="M228.52,452.59H201.4v-11.77c0-3.06,2.48-5.55,5.55-5.55h21.57V452.59z"/>
				</g>
			</g>
			<g>
				<g>
					<rect x="505.63" y="303.78" class="st20" width="37.08" height="134.97"/>
					<rect x="505.63" y="303.78" class="st20" width="15.68" height="134.97"/>
				</g>
				<g>
					<path class="st16" d="M556.23,452.59H492.1v-11.77c0-3.06,2.48-5.55,5.55-5.55h53.04c3.06,0,5.55,2.48,5.55,5.55V452.59z"/>
					<path class="st20" d="M519.21,452.59H492.1v-11.77c0-3.06,2.48-5.55,5.55-5.55h21.57V452.59z"/>
				</g>
			</g>
		</g>
		<g>
			<g>
				<path class="st20" d="M554.5,321.33h-96.39v-91.82c0-2.42,1.96-4.38,4.38-4.38h63.76l32.63,30.36v61.46
					C558.88,319.37,556.92,321.33,554.5,321.33z"/>
				<path class="st20" d="M558.88,255.49v61.46c0,2.42-1.96,4.38-4.38,4.38h-96.39V229.5c0-2.42,1.96-4.38,4.38-4.38h63.76
					l32.51,30.26L558.88,255.49z"/>
				<path class="st20" d="M558.88,255.38v61.57c0,2.42-1.96,4.38-4.38,4.38h-70.08v-65.95H558.88z"/>
				<path class="st22" d="M550.01,269.97v36.76c0,2.32-1.88,4.21-4.21,4.21h-42.59c-2.32,0-4.21-1.88-4.21-4.21v-36.76
					c0-2.32,1.88-4.21,4.21-4.21h42.59C548.12,265.77,550.01,267.65,550.01,269.97z"/>
				<path class="st23" d="M558.88,255.38h-74.39l-26.38-24.47v-1.41c0-2.42,1.96-4.38,4.38-4.38h63.76L558.88,255.38z"/>
			</g>
			<g>
				<path class="st20" d="M290.27,244.85h-91.5V222.6c0-2.41,1.95-4.36,4.36-4.36h82.78c2.41,0,4.36,1.95,4.36,4.36V244.85z"/>
				<path class="st20" d="M217.58,244.85h-18.81V222.6c0-2.41,1.95-4.36,4.36-4.36h10.09c2.41,0,4.36,1.95,4.36,4.36V244.85z"/>
			</g>
			<path class="st20" d="M260.68,321.33h-57.54c-2.42,0-4.38-1.96-4.38-4.38v-75.66h61.91V321.33z"/>
			<path class="st20" d="M260.29,321.33h-57.16c-2.42,0-4.38-1.96-4.38-4.38v-75.66h35.72l25.81,24.02V321.33z"/>
			<rect x="260.3" y="265.32" class="st20" width="224.02" height="56.01"/>
			<polygon class="st20" points="484.32,265.31 458.51,241.29 234.48,241.29 260.29,265.31 260.3,265.31 260.3,321.33 
				484.59,321.33 484.59,265.31 			"/>
			<g class="st24">
				<polygon class="st20" points="458.51,241.29 484.32,265.31 260.29,265.31 234.48,241.29 				"/>
			</g>
			<g>
				<g>
					<path class="st7" d="M525.19,232.63h-8.69c-0.25,0-0.49-0.09-0.68-0.26l-2.95-2.74c-0.66-0.61-0.23-1.72,0.68-1.72h8.69
						c0.25,0,0.49,0.09,0.68,0.27l2.95,2.74C526.53,231.52,526.1,232.63,525.19,232.63z"/>
					<path class="st11" d="M532.05,239.07h-8.69c-0.25,0-0.49-0.09-0.68-0.26l-2.95-2.74c-0.66-0.61-0.23-1.72,0.68-1.72h8.69
						c0.25,0,0.49,0.09,0.68,0.27l2.95,2.74C533.39,237.96,532.96,239.07,532.05,239.07z"/>
					<path class="st6" d="M539.32,245.83h-8.69c-0.25,0-0.49-0.09-0.68-0.26l-2.95-2.74c-0.66-0.61-0.23-1.72,0.68-1.72h8.69
						c0.25,0,0.49,0.09,0.68,0.27l2.95,2.74C540.66,244.72,540.22,245.83,539.32,245.83z"/>
					<path class="st14" d="M546.49,252.43h-8.69c-0.25,0-0.49-0.09-0.68-0.26l-2.95-2.74c-0.66-0.61-0.23-1.72,0.68-1.72h8.69
						c0.25,0,0.49,0.09,0.68,0.27l2.95,2.74C547.82,251.32,547.39,252.43,546.49,252.43z"/>
				</g>
				<g>
					<path class="st7" d="M506.86,232.63h-8.69c-0.25,0-0.49-0.09-0.68-0.26l-2.95-2.74c-0.66-0.61-0.23-1.72,0.68-1.72h8.69
						c0.25,0,0.49,0.09,0.68,0.27l2.95,2.74C508.2,231.52,507.77,232.63,506.86,232.63z"/>
					<path class="st11" d="M513.72,239.07h-8.69c-0.25,0-0.49-0.09-0.68-0.26l-2.95-2.74c-0.66-0.61-0.23-1.72,0.68-1.72h8.69
						c0.25,0,0.49,0.09,0.68,0.27l2.95,2.74C515.06,237.96,514.63,239.07,513.72,239.07z"/>
					<path class="st6" d="M520.99,245.83h-8.69c-0.25,0-0.49-0.09-0.68-0.26l-2.95-2.74c-0.66-0.61-0.23-1.72,0.68-1.72h8.69
						c0.25,0,0.49,0.09,0.68,0.27l2.95,2.74C522.33,244.72,521.89,245.83,520.99,245.83z"/>
					<path class="st14" d="M528.16,252.43h-8.69c-0.25,0-0.49-0.09-0.68-0.26l-2.95-2.74c-0.66-0.61-0.23-1.72,0.68-1.72h8.69
						c0.25,0,0.49,0.09,0.68,0.27l2.95,2.74C529.49,251.32,529.06,252.43,528.16,252.43z"/>
				</g>
				<g>
					<path class="st20" d="M504.9,244.34c-0.11,0.96-2.38,1.5-5.07,1.2c-2.69-0.3-4.79-1.33-4.68-2.29c0.11-0.96,2.38-1.5,5.07-1.2
						C502.91,242.35,505.01,243.38,504.9,244.34z"/>
					<path class="st20" d="M497.42,237.5c-0.11,0.96-2.38,1.5-5.07,1.2c-2.69-0.3-4.79-1.33-4.68-2.29c0.11-0.96,2.38-1.5,5.07-1.2
						C495.43,235.5,497.53,236.53,497.42,237.5z"/>
					<path class="st20" d="M490.36,230.86c-0.11,0.96-2.38,1.5-5.07,1.2c-2.69-0.3-4.79-1.33-4.68-2.29c0.11-0.96,2.38-1.5,5.07-1.2
						C488.37,228.87,490.47,229.89,490.36,230.86z"/>
					<path class="st20" d="M512.28,251.09c-0.11,0.96-2.38,1.5-5.07,1.2c-2.69-0.3-4.79-1.33-4.68-2.29c0.11-0.96,2.38-1.5,5.07-1.2
						C510.29,249.1,512.39,250.12,512.28,251.09z"/>
				</g>
				<g>
					<path class="st6" d="M490.58,244.34c-0.11,0.96-2.38,1.5-5.07,1.2c-2.69-0.3-4.79-1.33-4.68-2.29s2.38-1.5,5.07-1.2
						C488.59,242.35,490.69,243.38,490.58,244.34z"/>
					<path class="st6" d="M483.1,237.5c-0.11,0.96-2.38,1.5-5.07,1.2c-2.69-0.3-4.79-1.33-4.68-2.29c0.11-0.96,2.38-1.5,5.07-1.2
						C481.11,235.5,483.21,236.53,483.1,237.5z"/>
					
						<ellipse transform="matrix(0.1116 -0.9938 0.9938 0.1116 189.7294 672.8389)" class="st6" cx="471.16" cy="230.31" rx="1.76" ry="4.91"/>
					<path class="st6" d="M497.95,251.09c-0.11,0.96-2.38,1.5-5.07,1.2c-2.69-0.3-4.79-1.33-4.68-2.29c0.11-0.96,2.38-1.5,5.07-1.2
						C495.97,249.1,498.06,250.12,497.95,251.09z"/>
				</g>
			</g>
			<g>
				<path class="st20" d="M232.66,237.73h-2.9c-1.35,0-2.44-1.09-2.44-2.44v-10.44c0-1.35,1.09-2.44,2.44-2.44h2.9
					c1.35,0,2.44,1.09,2.44,2.44v10.44C235.09,236.64,234,237.73,232.66,237.73z"/>
				<path class="st11" d="M247.95,237.73h-2.9c-1.35,0-2.44-1.09-2.44-2.44v-10.44c0-1.35,1.09-2.44,2.44-2.44h2.9
					c1.35,0,2.44,1.09,2.44,2.44v10.44C250.39,236.64,249.3,237.73,247.95,237.73z"/>
				<path class="st14" d="M263.24,237.73h-2.9c-1.35,0-2.44-1.09-2.44-2.44v-10.44c0-1.35,1.09-2.44,2.44-2.44h2.9
					c1.35,0,2.44,1.09,2.44,2.44v10.44C265.68,236.64,264.59,237.73,263.24,237.73z"/>
				<path class="st7" d="M278.53,237.73h-2.9c-1.35,0-2.44-1.09-2.44-2.44v-10.44c0-1.35,1.09-2.44,2.44-2.44h2.9
					c1.35,0,2.44,1.09,2.44,2.44v10.44C280.97,236.64,279.88,237.73,278.53,237.73z"/>
			</g>
			<g>
				<polygon class="st10" points="475.19,284.25 270.63,284.25 270.63,284.25 270.63,321.33 475.19,321.33 475.19,284.25 				"/>
				<polygon class="st12" points="475.19,284.25 270.63,284.25 270.63,284.25 270.63,291.88 475.19,291.88 475.19,284.25 				"/>
			</g>
		</g>
		<g>
			<path class="st11" d="M328.9,453.78c0,0-20.67,1.58-25-4.54c-3.55-5.01-2.72-12.03,0.9-16.98c3.62-4.95,8.97-8.31,13.42-12.54
				c4.45-4.23,8.19-10.15,7.01-16.17c-1.55-7.97-10.7-11.95-18.78-12.73c-8.08-0.78-16.68,0.18-23.92-3.5
				c-2.43-1.23-4.63-3-6.08-5.3c-3.64-5.81-1.62-13.68,2.5-19.15c4.12-5.47,9.99-9.31,15.08-13.89c2.88-2.59,5.59-5.55,6.92-9.19
				c1.1-3.02,1.18-6.34,0.7-9.51c-1.94-12.88-13.83-23.53-26.84-24.06h174.41c13.02,0.53,24.9,11.18,26.84,24.06
				c0.48,3.18,0.4,6.49-0.7,9.51c-1.33,3.64-4.04,6.59-6.92,9.19c-5.09,4.58-10.96,8.42-15.08,13.89
				c-4.12,5.47-6.14,13.35-2.5,19.15c1.44,2.31,3.65,4.07,6.08,5.3c7.24,3.68,15.84,2.71,23.92,3.5
				c8.08,0.78,17.23,4.76,18.78,12.73c1.17,6.02-2.57,11.94-7.01,16.17c-4.45,4.23-9.8,7.58-13.42,12.54
				c-3.62,4.95-5.09,12.5-0.9,16.98c3.63,3.88,9.45,4.54,9.45,4.54H328.9z"/>
			<g>
				<path class="st14" d="M328.9,453.78c0,0-20.67,1.58-25-4.54c-3.55-5.01-2.72-12.03,0.9-16.98c3.62-4.95,8.97-8.31,13.42-12.54
					c4.45-4.23,8.19-10.15,7.01-16.17c-1.55-7.97-10.7-11.95-18.78-12.73c-8.08-0.78-16.68,0.18-23.92-3.5
					c-2.43-1.23-4.63-3-6.08-5.3c-3.64-5.81-1.62-13.68,2.5-19.15c4.12-5.47,9.99-9.31,15.08-13.89c2.88-2.59,5.59-5.55,6.92-9.19
					c1.1-3.02,1.18-6.34,0.7-9.51c-1.94-12.88-13.83-23.53-26.84-24.06h59.23c13.01,0.53,24.9,11.18,26.84,24.06
					c0.48,3.18,0.4,6.49-0.7,9.51c-1.33,3.64-4.04,6.59-6.92,9.19c-5.09,4.58-10.96,8.42-15.08,13.89
					c-4.12,5.47-6.14,13.35-2.5,19.15c1.44,2.31,3.65,4.07,6.08,5.3c7.24,3.68,15.84,2.71,23.92,3.5
					c8.08,0.78,17.23,4.76,18.78,12.73c1.17,6.02-2.57,11.94-7.01,16.17c-4.45,4.23-9.8,7.58-13.42,12.54
					c-3.62,4.95-5.09,12.5-0.9,16.98c3.63,3.88,9.45,4.54,9.45,4.54H328.9z"/>
				<path class="st7" d="M378.79,453.78c0,0-20.67,1.58-25-4.54c-3.55-5.01-2.72-12.03,0.9-16.98c3.62-4.95,8.97-8.31,13.42-12.54
					c4.45-4.23,8.19-10.15,7.01-16.17c-1.55-7.97-10.7-11.95-18.78-12.73c-8.08-0.78-16.68,0.18-23.92-3.5
					c-2.43-1.23-4.63-3-6.08-5.3c-3.64-5.81-1.62-13.68,2.5-19.15c4.12-5.47,9.99-9.31,15.08-13.89c2.88-2.59,5.59-5.55,6.92-9.19
					c1.1-3.02,1.18-6.34,0.7-9.51c-1.94-12.88-13.83-23.53-26.84-24.06h59.23c13.02,0.53,24.9,11.18,26.84,24.06
					c0.48,3.18,0.4,6.49-0.7,9.51c-1.33,3.64-4.04,6.59-6.92,9.19c-5.09,4.58-10.96,8.42-15.08,13.89
					c-4.12,5.47-6.14,13.35-2.5,19.15c1.44,2.31,3.65,4.07,6.08,5.3c7.24,3.68,15.84,2.71,23.92,3.5
					c8.08,0.78,17.23,4.76,18.78,12.73c1.17,6.02-2.57,11.94-7.01,16.17c-4.45,4.23-9.8,7.58-13.42,12.54
					c-3.62,4.95-5.09,12.5-0.9,16.98c3.63,3.88,9.45,4.54,9.45,4.54H378.79z"/>
				<path class="st9" d="M438.23,453.78c0,0-20.67,1.58-25-4.54c-3.55-5.01-2.72-12.03,0.9-16.98c3.62-4.95,8.97-8.31,13.42-12.54
					c4.45-4.23,8.19-10.15,7.01-16.17c-1.55-7.97-10.7-11.95-18.78-12.73c-8.08-0.78-16.68,0.18-23.92-3.5
					c-2.43-1.23-4.63-3-6.08-5.3c-3.64-5.81-1.62-13.68,2.5-19.15c4.12-5.47,9.99-9.31,15.08-13.89c2.88-2.59,5.59-5.55,6.92-9.19
					c1.1-3.02,1.18-6.34,0.7-9.51c-1.94-12.88-13.83-23.53-26.84-24.06h29.9c13.01,0.53,24.9,11.18,26.84,24.06
					c0.48,3.18,0.4,6.49-0.7,9.51c-1.33,3.64-4.04,6.59-6.92,9.19c-5.09,4.58-10.96,8.42-15.08,13.89
					c-4.12,5.47-6.14,13.35-2.5,19.15c1.44,2.31,3.65,4.07,6.08,5.3c7.24,3.68,15.84,2.71,23.92,3.5
					c8.08,0.78,17.23,4.76,18.78,12.73c1.17,6.02-2.57,11.94-7.01,16.17c-4.45,4.23-9.8,7.58-13.42,12.54
					c-3.62,4.95-5.09,12.5-0.9,16.98c3.63,3.88,9.45,4.54,9.45,4.54H438.23z"/>
			</g>
			<g class="st25">
				<path class="st26" d="M469.96,390.26H295.55c-4.55-0.27-9-0.88-13.03-2.93c-2.43-1.23-4.63-2.99-6.07-5.3
					c-3.63-5.81-1.63-13.68,2.49-19.15c2.14-2.84,4.74-5.23,7.48-7.53h174.41c-2.73,2.3-5.34,4.69-7.48,7.53
					c-4.12,5.47-6.14,13.34-2.49,19.15c1.44,2.31,3.64,4.07,6.07,5.3C460.96,389.38,465.42,389.98,469.96,390.26z"/>
				<path class="st26" d="M487.76,453.78H328.9c0,0-20.66,1.58-25-4.54c-3.54-5.01-2.72-12.03,0.9-16.98c1.06-1.45,2.27-2.77,3.56-4
					h174.41c-1.29,1.23-2.49,2.55-3.56,4c-3.62,4.95-5.09,12.5-0.9,16.98C481.94,453.12,487.76,453.78,487.76,453.78z"/>
				<path class="st26" d="M464.92,312.07h-174.4c-4.53-3.45-10-5.62-15.7-5.85h174.41C454.92,306.45,460.39,308.62,464.92,312.07z"
					/>
			</g>
		</g>
	</g>
	<g>
		<g>
			<g>
				<path class="st16" d="M651.87,428.87c6.42-0.15,12.84-0.09,19.26,0.17c0.06,0.72,0.12,1.44,0.18,2.14
					c3.22,19.32-18.61,14.62-19.45,2.11C651.98,432.12,651.97,430.57,651.87,428.87z"/>
				<path class="st27" d="M650.02,416.49c-0.14-0.48,20.32-2.14,20.33-1.67c0,3.43,0.35,9.03,0.77,14.22
					c-6.42-0.26-12.84-0.31-19.26-0.17C651.61,424.56,650.78,419.24,650.02,416.49z"/>
			</g>
			<g>
				<path class="st7" d="M676.94,446.83c0.61,1.34,0.93,2.81,0.91,4.28c-0.01,0.88-0.21,1.89-0.97,2.34c0,0-36.64,8.18-42.03,9.14
					c-5.17,0.91-11.02,0.7-13.84-0.11c-0.82-0.24-1.43-0.93-1.57-1.77l-0.36-2.25c-0.06-0.4,0.25-0.77,0.66-0.76l0,0
					c0,0,13.37,0.65,23.27-2.23C652.91,452.58,676.94,446.83,676.94,446.83z"/>
				<g>
					<path class="st6" d="M627.25,451.8l0.01-0.01c0.29,0.02,0.57,0.02,0.85-0.01c1.32-0.14,22.89-13.96,24.06-14.4
						c1.09-0.4,2.9,1.76,3.99,1.36c0.05,0.04,3.44,2.81,6.69,2.48c8.3-0.85,8.79-8.53,8.79-8.53c3.41,4.11,5.04,8.86,5.44,14.19
						c0,0-22.69,5.7-29.21,7.6c-6.52,1.9-23.76,5.29-28.12,3.2c0,0-1.31-2.57,5.43-4.88C625.72,452.61,626.78,452.13,627.25,451.8z"
						/>
					<path class="st28" d="M636.25,448.23c-1.47,0.74-2.93,1.47-4.4,2.21c-1.19,0.6-2.41,1.2-3.73,1.34
						c-0.28,0.03-0.57,0.03-0.85,0.01c3.66-2.61,19.8-14.22,24.99-19.56c0,0,3.12-0.3,5.95,3.87c0,0,0.71,1.64-2.04,2.65
						c0,0,0,0,0,0c-1.09,0.4-4.8-0.02-5.89,0.38C649.1,439.55,637.94,447.38,636.25,448.23z"/>
				</g>
				<g>
					<path class="st29" d="M642.85,444.23c-1.06-0.95-2.59-1.4-4.04-1.2"/>
					<path class="st29" d="M637.85,447.55c-1.06-0.95-2.59-1.4-4.04-1.2"/>
					<path class="st29" d="M640.64,445.73c-1.06-0.95-2.59-1.4-4.04-1.2"/>
					<path class="st29" d="M645.24,442.34c-1.06-0.95-2.59-1.4-4.04-1.2"/>
					<path class="st29" d="M647.68,440.64c-1.06-0.95-2.59-1.4-4.04-1.2"/>
				</g>
			</g>
			<line class="st30" x1="671.3" y1="431.18" x2="652.12" y2="431.3"/>
		</g>
		<g>
			<g>
				<g>
					<g>
						<g>
							<g>
								<g>
									<g>
										<g>
											<g>
												<path class="st16" d="M584.57,429.87c6.35,0.93,12.67,2.07,18.96,3.4c-0.06,0.72-0.12,1.44-0.18,2.14
													c-0.07,19.59-20.8,11.29-19.53-1.19C584.14,433.09,584.39,431.56,584.57,429.87z"/>
												<path class="st27" d="M584.84,417.36c-0.05-0.49,20.39,1.31,20.32,1.77c-0.58,3.38-1.17,8.96-1.63,14.15
													c-6.28-1.33-12.6-2.46-18.96-3.4C585.05,425.57,585.12,420.19,584.84,417.36z"/>
											</g>
											<g>
												<path class="st7" d="M606.28,451.78c0.38,1.42,0.44,2.92,0.18,4.37c-0.16,0.87-0.52,1.83-1.35,2.14
													c0,0-37.49,1.91-42.97,1.95c-5.25,0.03-10.98-1.16-13.63-2.44c-0.77-0.37-1.25-1.15-1.25-2.01l0.02-2.28
													c0.01-0.41,0.38-0.71,0.78-0.64l0,0c0,0,13.07,2.89,23.31,1.71C581.62,453.42,606.28,451.78,606.28,451.78z"/>
												<g>
													<path class="st6" d="M556.45,448.34l0.02-0.01c0.28,0.07,0.56,0.12,0.84,0.14c1.33,0.09,24.91-9.92,26.14-10.15
														c1.14-0.21,2.56,2.22,3.7,2.01c0.04,0.05,2.92,3.35,6.17,3.57c8.32,0.56,10.09-6.94,10.09-6.94
														c2.67,4.63,3.48,9.58,2.98,14.9c0,0-23.32,1.81-30.07,2.59s-24.31,1.23-28.26-1.56c0,0-0.86-2.75,6.18-3.9
														C554.81,448.88,555.94,448.59,556.45,448.34z"/>
													<path class="st28" d="M565.92,446.33c-1.57,0.48-3.14,0.96-4.71,1.44c-1.27,0.39-2.58,0.78-3.9,0.69
														c-0.28-0.02-0.57-0.07-0.84-0.14c4.04-1.96,21.91-10.7,27.92-15.09c0,0,3.12,0.23,5.22,4.81c0,0,0.42,1.74-2.45,2.27
														c0,0,0,0,0,0c-1.14,0.21-4.73-0.83-5.87-0.61C580.06,439.94,567.74,445.78,565.92,446.33z"/>
												</g>
												<g>
													<path class="st29" d="M573.1,443.5c-0.89-1.11-2.32-1.82-3.79-1.86"/>
													<path class="st29" d="M567.62,445.93c-0.89-1.11-2.32-1.82-3.79-1.86"/>
													<path class="st29" d="M570.67,444.61c-0.89-1.11-2.32-1.82-3.79-1.86"/>
													<path class="st29" d="M575.79,442.03c-0.89-1.11-2.32-1.82-3.79-1.86"/>
													<path class="st29" d="M578.47,440.76c-0.89-1.11-2.32-1.82-3.79-1.86"/>
												</g>
											</g>
											<line class="st30" x1="603.35" y1="435.41" x2="584.42" y2="432.31"/>
										</g>
										<g>
											<path class="st31" d="M579.75,424.91c0,0.47,31.35,2.84,31.35,2.84s2.16-79.23,2.09-79.74
												c-0.14-0.99,7.86-42.25,14.4-65.71c0.01-0.04,0.02-0.1,0.04-0.14c2.06-7.4,3.87-13.49,5.56-19.01
												c0.89-2.87,1.73-5.59,2.56-8.27c1.64-5.31,3.21-10.43,4.81-16.2c0.12-0.42,0.23-0.81,0.34-1.22l-37.3,0.57
												c-1.7,4.79-3.38,9.61-5.02,14.43c-0.82,2.42-1.64,4.84-2.43,7.25c-5.16,15.62-12.68,69.39-14.44,83.14
												C578.35,368.91,579.85,396.92,579.75,424.91z"/>
											<path class="st31" d="M626.38,238.61c0.15,6.36,0.4,11.5,0.64,16.62c0.12,2.64,0.24,5.28,0.34,8.07
												c0.19,5.33,0.31,11.23,0.27,18.85v0.24c-0.1,14.78,0.6,56.22,1.65,66.07c2.11,19.74,16.11,77.78,16.11,77.78
												s22.37-2.29,27.38-3.17c0.96-0.17,2.07-0.38,2.13-0.4c0.01-0.01-12.79-73.9-12.8-73.97c-0.02-0.04,3.69-63.4,1.69-90.73
												c-0.18-2.57-0.42-5.09-0.71-7.54c-0.49-4.15-1.13-8.08-1.95-11.67h-0.16l-20.41-0.09L626.38,238.61z"/>
											<g>
												<path class="st32" d="M659.7,355.54l10.61,67.89c1.03-0.14,1.87-0.26,2.47-0.37c0.95-0.17,2.07-0.39,2.13-0.4
													c0.01-0.01-12.79-73.9-12.8-73.97c-0.02-0.03,2.67-46.03,2.23-76.54c0-0.12,0-0.25-0.01-0.37
													c-0.02-1.76-0.06-3.47-0.11-5.11c-0.01-0.14-0.01-0.28-0.01-0.42c-0.03-1.19-0.08-2.35-0.13-3.46
													c-0.03-0.51-0.05-1.01-0.08-1.5c-0.04-0.76-0.08-1.5-0.13-2.21c-0.02-0.38-0.05-0.75-0.08-1.11
													c-0.08-1.17-0.18-2.34-0.29-3.49c-0.01-0.11-0.01-0.21-0.03-0.32l-0.61-7.68c-0.09,0.08-0.18,0.14-0.27,0.22l-0.01,0.01
													c-0.26-1.74-0.54-3.43-0.85-5.07c-0.07-0.36-0.14-0.71-0.21-1.06c-0.06-0.29-0.12-0.59-0.19-0.87
													c-0.06-0.32-0.14-0.63-0.21-0.95h-0.16c2.39,31.49-1.52,91.7-2.64,107.74C658.15,348.89,659.17,353.19,659.7,355.54z"/>
												<path class="st32" d="M604.84,427.23c4.25,0.24,6.27,0.52,6.27,0.52s2.16-79.24,2.08-79.75
													c-0.13-0.99,7.86-42.25,14.39-65.72c-0.55-1.27-1.03-2.29-1.45-3c0,0,0-0.01-0.02-0.01c-0.69-1.23-1.21-1.6-1.43-0.96
													C617.27,298.4,605.36,422.88,604.84,427.23z"/>
											</g>
											<g>
												<g>
													<line class="st33" x1="670.18" y1="423.16" x2="669.93" y2="421.72"/>
													<path class="st34" d="M669.17,417.12l-11.15-66.78c0,0,4.31-82.75,2.33-111.49"/>
													<path class="st33" d="M660.16,236.54c-0.05-0.51-0.1-0.99-0.15-1.46"/>
												</g>
											</g>
											<polyline class="st35" points="624.87,276.82 609.77,348.27 604.43,424.12 											"/>
										</g>
									</g>
								</g>
							</g>
						</g>
					</g>
					<g>
						<g>
							<path class="st36" d="M522.19,222.46c0,0-2.15,9.23,3.93,18.86c0,0,2.05-3.51,0.46-9.91
								C524.98,225,522.19,222.46,522.19,222.46z"/>
							<g>
								<path class="st27" d="M522.15,225.76c0.72,4.18,1.86,8.31,2.41,12.51c-1.55,1.73-4.05,3.98-6.14,4.73
									c-0.52,0.19-1.03,0.34-1.54,0.47c-0.15,0.04-0.51,0.04-1.02,0.01c-2.75-0.14-9.84-1.07-11.2-1.7l0.83-16.78
									c1.4-0.55,7.02-1.83,9.01-1.45C516.84,223.99,519.93,224.93,522.15,225.76z"/>
								<polygon class="st27" points="520.66,226.21 529.79,223.83 532.23,236.98 521.74,238.78 								"/>
								<path class="st37" d="M511.11,241.41c-1.09-1.84-1.61-5.68-1.75-7.82c0.46-0.3,0.93-0.57,1.4-0.8
									c0.14-0.07,0.49-0.15,0.99-0.24c0.22,0.9,0.37,1.81,0.5,2.21c0.93,3.07,2.04,6.11,3.97,8.72
									C514.09,243.4,512.22,243.28,511.11,241.41z"/>
								<g>
									<path class="st27" d="M498.58,227.13c-1.1,0.7-1.96,1.92-1.83,3.2c0.13,1.28,1.56,2.37,2.77,1.88
										c-1.14,0.18-1.98,1.4-1.81,2.52c0.18,1.13,1.27,2.01,2.42,2.04c-0.94,0.54-1.38,1.79-0.99,2.78
										c0.4,0.99,1.58,1.6,2.63,1.35c-0.85,0.33-1.46,1.2-1.46,2.11c0,0.9,0.61,1.77,1.46,2.09c0.59,0.22,1.25,0.18,1.88,0.15
										c0.66-0.04,7.78-1.37,8.55-1.81c0.76-0.44,1.31-1.38,1-2.19c-0.4-1.05-2.48-0.9-5.33-0.98c1.4-0.21,2.76-0.62,4.05-1.21
										c0.51-0.23,1.03-0.52,1.32-0.99c0.53-0.86,0.07-2.04-0.74-2.64c-0.81-0.6-3.24-0.71-4.24-0.87
										c1.76,0.15,4.81-1.73,4.46-3.45c-0.35-1.71-2.76-2.53-5.45-1.72c1.44-0.55,3.03-1.14,3.56-1.96
										c0.42-0.66,0.12-1.59-0.5-2.08c-0.61-0.49-1.44-0.62-2.23-0.63C505.77,224.67,500.55,225.88,498.58,227.13z"/>
									<path class="st27" d="M494.56,233.42c-1.5,0.37-3.14,0.79-4.04,0.42c-0.73-0.3-1.01-1.24-0.78-1.99
										c0.23-0.75,0.83-1.33,1.47-1.79c1.88-1.36,6.54-3.09,9.66-3.94c1.26-0.34,2,0.16,2.62,1.29c0.62,1.13,0.04,3.78-1.23,4.06
										L494.56,233.42z"/>
									<path class="st38" d="M501.78,240.9c0,0,1.54-0.05,6.09-0.64C507.87,240.26,504.81,241.55,501.78,240.9z"/>
									<path class="st38" d="M500.13,236.77c0,0,4.13-1.68,8.12-2.23C508.25,234.55,501.73,236.74,500.13,236.77z"/>
									<path class="st38" d="M499.13,232.31c0,0,4.13-1.68,8.12-2.23C507.25,230.09,500.72,232.28,499.13,232.31z"/>
									<g class="st39">
										<path class="st38" d="M509.84,241.34c-0.01-0.2,0.01-0.44,0.19-0.53c0.06-0.03,0.13-0.04,0.2-0.05
											c0.47-0.05,0.94-0.05,1.4,0.01c0.3,0.04,0.6,0.1,0.86,0.25c0.26,0.15,0.47,0.4,0.5,0.7c0.05,0.45-0.31,0.85-0.69,1.11
											c-0.58,0.4-1.26,0.67-1.95,0.76C509.81,243.66,509.85,241.63,509.84,241.34z"/>
										<path class="st38" d="M509.08,236.48c-0.01-0.22,0.01-0.5,0.21-0.6c0.07-0.04,0.15-0.05,0.23-0.06
											c0.53-0.06,1.07-0.06,1.59,0.01c0.34,0.04,0.68,0.11,0.98,0.28c0.29,0.17,0.58,0.38,0.65,1.22
											c0.04,0.52-0.55,0.95-0.98,1.25c-0.66,0.46-1.27,0.48-2.11,0.45C509.05,239.01,509.09,236.8,509.08,236.48z"/>
										<path class="st38" d="M508.44,230.97c-0.01-0.22,0.01-0.5,0.21-0.6c0.07-0.04,0.15-0.05,0.23-0.06
											c0.53-0.06,1.07-0.06,1.59,0.01c0.34,0.04,0.68,0.11,0.97,0.28c0.29,0.17,0.58,0.38,0.65,1.22
											c0.04,0.52-0.55,0.95-0.98,1.25c-0.66,0.46-1.27,0.48-2.11,0.45C508.4,233.5,508.45,231.3,508.44,230.97z"/>
									</g>
									<path class="st40" d="M514.79,225.99c-0.23,1.15,0.53,6.78-0.71,5.6c-1.17-1.11-2.2-1.3-3.57-0.87
										c-1.21,0.38-1.21,2.14-1.61,3.33c-0.32,0.95-0.8,1.84-1.42,2.62c-0.4,0.5-1.25,0.94-1.85,1.16
										c-0.6,0.22-1.35,0.14-1.78-0.34c-0.23-0.26-0.34-0.58-0.38-0.93c-0.04-0.3-0.02-0.62,0-0.92c0.11-1.46,0.3-2.91,0.57-4.35
										c0.26-1.39,1.2-6.23,2.79-7.24c1.65-1.04,5.04-0.54,6.26-0.37C516.02,224.08,514.99,224.94,514.79,225.99z"/>
									<g>
										<path class="st27" d="M517.06,225.34c0.01,0.6-1.71,7.57-2.92,6.42c-1.14-1.07-2.59-2.01-3.93-1.58
											c-1.18,0.37-1.19,2.09-1.59,3.26c-0.31,0.92-0.79,1.8-1.4,2.56c-0.39,0.49-0.86,0.95-1.44,1.17
											c-0.59,0.22-1.33,0.14-1.74-0.32c-0.23-0.25-0.33-0.57-0.36-0.91c-0.03-0.29-0.02-0.6,0.01-0.9
											c0.12-1.42,0.31-2.84,0.58-4.24c0.26-1.36,1.2-6.08,2.76-7.06c1.62-1.02,4.93-0.55,6.12-0.39
											C516,223.72,517.06,224.6,517.06,225.34z"/>
										<path class="st41" d="M506.12,234.16c-0.25,0.88-1.52,1.91-2.45,1.78c-0.03-0.29-0.02-0.6,0.01-0.9
											c0.12-1.42,0.31-2.84,0.58-4.24c0.34,0.04,0.68,0.22,0.93,0.44C506.01,231.95,506.42,233.12,506.12,234.16z"/>
									</g>
								</g>
							</g>
							<g>
								<path class="st14" d="M526.13,241.31c0.8-0.11,47.3-2.12,55.5-9.11c10.01-8.54,26.21-48.16,26.21-48.16l2.58-23.12
									c0,0-10.45,0.78-16.57,6.02c-12.55,10.75-27.35,47.18-27.35,47.18c-21.21,4.63-43.37,7.84-44.29,8.34
									C525.79,228.47,526.56,239.62,526.13,241.31z"/>
								<path class="st42" d="M526.13,241.31c0.96-0.04,3.3-0.16,4.57-0.27c0,0,0.02-4.76-0.96-10.48
									c-0.85-4.95-2.96-8.99-2.96-8.99c-1.25,0.21-3.42,0.54-4.58,0.88C525.17,226.38,526.79,239.54,526.13,241.31z"/>
							</g>
							<g>
								<g>
									<path class="st14" d="M594.48,266.33c13.59,2.03,37.83,2.07,55.84,2.03c20.14-0.86,15.12,1.84,13.64-12.96
										c-5.82-30.39-5.23-72.32-9.09-97.33c-7.81-1.61-20.22-0.81-34.04,0.91c-8.14,1.01-19.97,4.04-19.97,4.04
										c0,0.28-1.95,63.1-1.95,63.1S595.49,256.84,594.48,266.33z"/>
								</g>
								<path class="st43" d="M614.19,267.91c11.8,0.47,25.12,0.48,36.12,0.45c20.14-0.86,15.13,1.84,13.64-12.96
									c-3.59-18.76-5.05-41.73-6.32-62.59c-0.14-0.06-1.79,5.35-2.05,7.22c-1.32,9.56,1.31,17.55-4.05,26.29
									c-2.24,3.64-25.93,31.24-28.64,33.79c-1.81,1.72-4.22,2.69-6.1,4.34C615.7,265.42,614.83,266.6,614.19,267.91z"/>
								<g>
									<path class="st44" d="M605.57,122.24c15.38,4.05,13.37-5.29,26.02,9.03c6.92,1.76,8.26-21.12-0.66-20.68
										c0.25-1.61,0.05-3.31-0.6-4.8c-0.86-1.99-2.51-3.64-4.5-4.51c-3.2-1.39-8.82-1.3-10.41,2.17c-1.13-0.85-2.4-1.45-3.75-1.83
										c-5.53-1.55-11.53,0.83-13.87,6.08c-0.36,0.81-0.63,1.67-0.78,2.55c-0.31-0.14-0.63-0.24-0.97-0.3
										c-1.51-0.29-2.89,0.98-2.81,2.51C593.59,118.49,599.95,120.76,605.57,122.24z"/>
									<path class="st44" d="M596.46,117.02c0,0,35.79-12.89,36.93,3.32c0.16,2.25,1.66,18.79-2.31,20.06
										c-2.26,0.72-17.06,5.2-20.62,4.38c-1.66-0.38-13.58-10.11-14.32-14.73C595.71,128.06,596.46,117.02,596.46,117.02z"/>
									<g>
										<path class="st27" d="M613.4,161.6c-0.43-6.87-0.78-17.04-0.78-17.04s13.43-4.97,17.72-6.66
											c0.59,2.6,2.24,14.73,2.93,19.69c0.2,1.46-0.31,2.94-1.39,3.95c-1.68,1.57-4.11,3.11-7.25,3.72
											C621.07,165.96,613.62,165,613.4,161.6z"/>
										<path class="st45" d="M613.19,157.6c-0.33-6.61-0.57-13.04-0.57-13.04s13.51-5.14,17.79-6.82
											C630.72,154.4,613.43,157.47,613.19,157.6z"/>
									</g>
									<path class="st27" d="M631.57,134.7c0.06,6.43-1.26,11.44-7,14.4c-5.73,2.96-12.72,3.47-18.83,1.36
										c-3.27-1.13-6.44-3.14-7.9-6.24c0,0,0,0,0-0.01c-0.38-0.8-0.62-1.65-0.8-2.52c-0.19-0.96-0.28-1.93-0.36-2.9
										c-0.06-0.78-0.1-1.57-0.14-2.34c-0.03-0.9-0.05-2.06-0.05-3.41c0.01-6.62,0.45-13.21,1.34-17.55l34.21,0.76L631.57,134.7z"
										/>
									<path class="st44" d="M601.42,127.22c0.74-0.37,1.64-0.43,2.41-0.12c0.47,0.19,0.93,0.56,0.97,1.07
										c0.01,0.14-0.02,0.3-0.14,0.38c-0.07,0.05-0.16,0.05-0.25,0.06c-0.69,0.03-1.38-0.03-2.06,0.05
										c-0.55,0.07-1.08,0.23-1.57,0.48c-0.26,0.13-1.33,0.56-0.78-0.5C600.31,128,600.74,127.55,601.42,127.22z"/>
									<path class="st44" d="M619.71,127.22c-0.74-0.37-1.64-0.43-2.41-0.12c-0.47,0.19-0.93,0.56-0.97,1.07
										c-0.01,0.14,0.02,0.3,0.14,0.38c0.07,0.05,0.16,0.05,0.25,0.06c0.69,0.03,1.38-0.03,2.06,0.05
										c0.55,0.07,1.08,0.23,1.57,0.48c0.26,0.13,1.33,0.56,0.78-0.5C620.82,128,620.38,127.55,619.71,127.22z"/>
									<path class="st44" d="M602.21,131.83c0.12,0.31,0.4,0.52,0.7,0.65c0.6,0.25,1.39,0.18,1.76-0.38
										c0.59-0.89,0.35-2.14-1.08-2.32C602.6,129.66,601.87,130.93,602.21,131.83z"/>
									<path class="st44" d="M616.14,131.83c0.12,0.31,0.4,0.52,0.7,0.65c0.6,0.25,1.39,0.18,1.76-0.38
										c0.59-0.89,0.35-2.14-1.08-2.32C616.53,129.66,615.8,130.93,616.14,131.83z"/>
									<path class="st46" d="M610.16,127.69c-0.49,2.17-0.77,3.25-1.36,6.07c-0.14,0.65-0.42,1.17-0.04,1.83
										c0.33,0.58,1.63,0.98,2.42-0.08"/>
									<g class="st47">
										<path class="st27" d="M626.84,132.56c1.42,0.48,2.27,1.84,2.45,3.19c0.21,1.55-0.39,3.22-1.7,4.25
											c-1.31,1.04-3.33,1.36-4.89,0.65c-1.33-0.61-2.2-1.9-2.33-3.24c-0.12-1.3,0.5-3.09,1.53-4.06
											C623.04,132.28,625.38,132.06,626.84,132.56z"/>
									</g>
									<path class="st45" d="M599.66,140.68c-0.72,0.57-1.65,0.92-2.61,1c-0.19-0.96-0.28-1.93-0.36-2.9
										c-0.06-0.78-0.1-1.57-0.14-2.34c-0.03-0.9-0.05-2.06-0.05-3.41c0.85-0.09,1.73-0.02,2.41,0.21
										c1.41,0.48,2.27,1.84,2.45,3.18C601.56,137.98,600.97,139.64,599.66,140.68z"/>
									<path class="st48" d="M596.42,130.26c0.47-5.79,2.2-12.61,10.22-12.98c7.96-0.37,15.3-0.27,18.44,4.52
										c0.74,1.13,1.14,2.45,1.25,3.8c0.17,1.97,0.68,5.98,2.16,7.09c2.33,1.75,4.05-8.46,4.05-8.46l-0.03-8.82l-35.83-1.81
										l-0.51,10.2L596.42,130.26z"/>
									<path class="st44" d="M593.77,113.17c2.07,12.68,15.06,0.39,27.42,5.49c5.9,2.44,6.56,7.6,8.31,9.52
										c1.08,1.19,5.2-0.45,5.64-2.33c4.64-19.88-29.38-19.94-31.16-20.4c-1.66-0.43-3.42-0.32-5.03,0.23
										c-0.97,1.36-1.65,2.92-1.93,4.57c-0.01,0-0.02-0.01-0.03-0.01c-1.69-0.73-3.51,0.78-3.27,2.61
										C593.74,112.95,593.75,113.06,593.77,113.17z"/>
									<path class="st1" d="M607.87,139.85c0.8,2.3,5.29,2,5.72-0.6L607.87,139.85z"/>
									<g>
										<path class="st27" d="M629.29,133.82c0.8,1.11,2.27,1.67,3.66,1.59c1.38-0.07,2.71-0.82,3.47-1.96
											c0.8-1.2,0.94-2.7,0.93-4.13c-0.02-1.58-0.25-3.25-1.26-4.47c-0.22-0.27-0.47-0.51-0.79-0.66
											c-0.32-0.15-0.69-0.19-1.04-0.2c-2.49-0.06-4.61,1.67-5.43,4.89C628.83,128.87,627.82,131.79,629.29,133.82z"/>
										<g>
											<path class="st46" d="M631.69,133.04c0.27-0.87,0.67-1.71,1.27-2.4c0.6-0.69,1.41-1.23,2.31-1.42"/>
											<path class="st46" d="M632.78,127.99c-0.33,0.81-0.21,1.78,0.3,2.49"/>
										</g>
									</g>
								</g>
							</g>
							<path class="st49" d="M657.26,192.82l3.1,36.62l5.17,35.69c0,0,0.58,2.53-1.84,2.7"/>
							<g>
								<g>
									<path class="st14" d="M657.07,188.78c0,0,1.37,20.91,4.94,34.12c1.13,3.7,17.25,25.52,24.07,10.53
										c4.79-10.52-11.73-54.87-13.91-60.15c-4.1-9.96-10.34-14.88-20.2-15.61L657.07,188.78z"/>
								</g>
								<g>
									<path class="st36" d="M641.31,273.9c0,0-12.85-7.76-13.7-15.05c0,0,5.48,2.83,8.1,5.33
										C638.32,266.68,640.81,271.48,641.31,273.9z"/>
									<g>
										<g>
											<g>
												<path class="st38" d="M621.06,265.05c-3.49,1.55-5.98,4.65-8.32,7.63c-0.34,0.44-0.56,1.85-0.55,2.42
													c0,0.01,0,0.01,0.01,0.02c0.43,0.28,2.28,1.32,2.76,1.18c1.05-0.29,0.62-2.71,1.67-3c4.66-1.31,9.6-2.8,12.76-6.42
													c0.42-0.48,0.81-1.03,0.84-1.66c0.03-0.81-0.57-1.54-1.21-1.98c-0.83-0.57-1.44-0.09-2.38,0.17
													C624.77,263.93,622.84,264.26,621.06,265.05z"/>
											</g>
											<path class="st27" d="M627.63,262.53c3.62,2.52,6.98,6.18,10.5,8.84c0.01,0,0.01,0.01,0.01,0.02
												c-0.32,2.32-0.4,4.12-2.58,7.26c-1.61,2.32-8.43,9.4-9.92,9.95c-0.01,0-0.02,0-0.02,0l-14.75-13.37
												c-0.01-0.01-0.01-0.02,0-0.03c1.46-1.57,4.85-6.24,6.62-7.43c1.36-0.91,1.88-1.6,3.38-2.27
												c2.25-0.99,4.49-1.98,6.74-2.97C627.61,262.52,627.62,262.53,627.63,262.53z"/>
											<polygon class="st27" points="637.11,272.89 642.5,266.71 631.54,257.4 625.02,265.58 											"/>
											<g>
												<path class="st27" d="M609.45,277.86c-0.44,1.26-0.33,2.79,0.62,3.74c0.95,0.94,2.82,0.92,3.48-0.24
													c-0.81,0.87-0.69,2.38,0.19,3.17c0.87,0.78,2.3,0.81,3.25,0.14c0.02-0.01,0.03,0,0.03,0.02
													c-0.37,1.02,0.09,2.27,1.05,2.8c0.92,0.52,2.19,0.3,2.91-0.46c0.02-0.02,0.04,0,0.03,0.02
													c-0.39,0.79-0.28,1.79,0.27,2.47c0.59,0.73,1.65,1.04,2.55,0.75c0.62-0.2,1.13-0.64,1.62-1.08
													c0.51-0.45,5.42-6.04,5.75-6.87c0.33-0.84,0.16-1.94-0.63-2.39c-0.99-0.57-2.53,0.78-4.8,2.47
													c-0.02,0.01-0.04-0.01-0.03-0.03c0.93-1.02,1.73-2.16,2.35-3.38c0.26-0.51,0.49-1.07,0.42-1.63
													c-0.14-1.03-1.28-1.68-2.33-1.65c-0.95,0.02-2.72,1.22-3.73,1.82c-0.02,0.01-0.04-0.02-0.02-0.03
													c1.4-1.19,2.41-4.31,1.09-5.4c-1.34-1.1-3.66-0.37-5.3,1.73c-0.02,0.02-0.05,0-0.03-0.02c0.75-1.25,1.49-2.56,1.38-3.46
													c-0.09-0.8-0.95-1.35-1.77-1.36c-0.82,0-1.58,0.42-2.23,0.91C613.67,271.32,610.23,275.61,609.45,277.86z"/>
												<path class="st38" d="M621.08,286.9c0,0,1.22-1.02,4.53-4.38C625.61,282.52,623.98,285.5,621.08,286.9z"/>
												<path class="st38" d="M617.04,284.63c0,0,2.25-3.97,5.13-6.94C622.17,277.69,618.31,283.59,617.04,284.63z"/>
												<path class="st38" d="M613.26,281.77c0,0,3.1-6.24,4.9-7.9C618.16,273.87,614.64,280.74,613.26,281.77z"/>
											</g>
										</g>
									</g>
								</g>
								<path class="st14" d="M685.09,235.26c-11.53,14.39-34.62,31.21-43.78,38.64c-3.79-9.06-13.5-15-13.71-15.05
									c9.77-9.07,30.49-31.25,37.92-39.11"/>
								<line class="st49" x1="657.26" y1="192.82" x2="659.33" y2="217.17"/>
							</g>
						</g>
						<path class="st42" d="M627.61,258.85c0.21,0.06,9.92,5.99,13.7,15.05c0.95-0.77,2.04-1.64,3.26-2.59
							c-1.99-4.49-5.98-11.43-13.1-16.16C630.06,256.54,628.75,257.78,627.61,258.85z"/>
					</g>
					<g>
						<path class="st49" d="M599.41,192.3l-0.52,33.82c0,0-3.7,32.5-4.38,39.59"/>
					</g>
				</g>
			</g>
		</g>
		<line class="st50" x1="660.96" y1="238.76" x2="661.12" y2="238.76"/>
	</g>
	<g>
		<rect x="198.76" y="40.82" class="st51" width="247.47" height="155.89"/>
		<g>
			<g>
				<g>
					<rect x="219.87" y="157.6" class="st1" width="91.74" height="24.06"/>
					<g>
						<rect x="224.14" y="162.02" class="st9" width="15.23" height="15.22"/>
						<rect x="246.23" y="162.02" class="st52" width="15.23" height="15.22"/>
						<rect x="268.32" y="162.02" class="st53" width="15.23" height="15.22"/>
						<rect x="290.4" y="162.02" class="st54" width="15.23" height="15.22"/>
					</g>
				</g>
				<g>
					<rect x="221.3" y="126.52" class="st9" width="26.55" height="26.55"/>
					<g>
						<polygon class="st16" points="248.68,132.21 242.26,125.8 248.68,125.8 						"/>
						<polygon class="st16" points="219.87,148.18 226.29,154.6 219.87,154.6 						"/>
					</g>
				</g>
				<g>
					
						<rect x="292.45" y="126.52" transform="matrix(-1 -1.224647e-16 1.224647e-16 -1 598.0222 279.591)" class="st9" width="13.13" height="26.55"/>
					
						<rect x="253.32" y="126.52" transform="matrix(-1 -1.224647e-16 1.224647e-16 -1 519.7701 279.591)" class="st54" width="13.13" height="26.55"/>
					
						<rect x="266.43" y="126.52" transform="matrix(-1 -1.224647e-16 1.224647e-16 -1 545.9864 279.591)" class="st53" width="13.13" height="26.55"/>
					
						<rect x="279.43" y="126.52" transform="matrix(-1 -1.224647e-16 1.224647e-16 -1 572.0002 279.591)" class="st52" width="13.13" height="26.55"/>
				</g>
			</g>
			<g>
				<g>
					<rect x="220.99" y="88.64" class="st1" width="91.74" height="24.06"/>
					<g>
						<rect x="225.26" y="93.06" class="st14" width="15.23" height="15.22"/>
						<rect x="247.35" y="93.06" class="st13" width="15.23" height="15.22"/>
						<rect x="269.44" y="93.06" class="st55" width="15.23" height="15.22"/>
						<rect x="291.52" y="93.06" class="st56" width="15.23" height="15.22"/>
					</g>
				</g>
				<g>
					<rect x="221.3" y="57.17" class="st14" width="26.55" height="26.55"/>
					<g>
						<polygon class="st16" points="248.68,62.39 242.26,55.97 248.68,55.97 						"/>
						<polygon class="st16" points="219.87,78.35 226.29,84.77 219.87,84.77 						"/>
					</g>
				</g>
				<g>
					<rect x="253.32" y="57.1" class="st56" width="13.13" height="26.55"/>
					<rect x="292.45" y="57.1" class="st14" width="13.13" height="26.55"/>
					<rect x="279.34" y="57.1" class="st13" width="13.13" height="26.55"/>
					<rect x="266.33" y="57.1" class="st55" width="13.13" height="26.55"/>
				</g>
			</g>
			<g>
				<g>
					<rect x="333.38" y="157.6" class="st1" width="91.74" height="24.06"/>
					<g>
						<rect x="337.65" y="162.02" class="st11" width="15.23" height="15.22"/>
						<rect x="359.74" y="162.02" class="st57" width="15.23" height="15.22"/>
						<rect x="381.82" y="162.02" class="st58" width="15.23" height="15.22"/>
						<rect x="403.91" y="162.02" class="st59" width="15.23" height="15.22"/>
					</g>
				</g>
				<g>
					<rect x="397.38" y="126.52" class="st11" width="26.55" height="26.55"/>
					<g>
						<polygon class="st16" points="425.12,132.21 418.71,125.8 425.12,125.8 						"/>
						<polygon class="st16" points="396.32,148.18 402.74,154.6 396.32,154.6 						"/>
					</g>
				</g>
				<g>
					
						<rect x="377.11" y="126.52" transform="matrix(-1 -1.224647e-16 1.224647e-16 -1 767.3605 279.591)" class="st59" width="13.13" height="26.55"/>
					
						<rect x="337.99" y="126.52" transform="matrix(-1 -1.224647e-16 1.224647e-16 -1 689.1084 279.591)" class="st11" width="13.13" height="26.55"/>
					
						<rect x="351.1" y="126.52" transform="matrix(-1 -1.224647e-16 1.224647e-16 -1 715.3247 279.591)" class="st57" width="13.13" height="26.55"/>
					
						<rect x="364.1" y="126.52" transform="matrix(-1 -1.224647e-16 1.224647e-16 -1 741.3385 279.591)" class="st58" width="13.13" height="26.55"/>
				</g>
			</g>
			<g>
				<g>
					<rect x="333.38" y="88.64" class="st1" width="91.74" height="24.06"/>
					<g>
						<rect x="337.65" y="93.06" class="st7" width="15.23" height="15.22"/>
						<rect x="359.74" y="93.06" class="st60" width="15.23" height="15.22"/>
						<rect x="381.82" y="93.06" class="st61" width="15.23" height="15.22"/>
						<rect x="403.91" y="93.06" class="st62" width="15.23" height="15.22"/>
					</g>
				</g>
				<g>
					<rect x="397.38" y="57.07" class="st7" width="26.55" height="26.55"/>
					<g>
						<polygon class="st16" points="425.12,62.29 418.71,55.87 425.12,55.87 						"/>
						<polygon class="st16" points="396.32,78.26 402.74,84.67 396.32,84.67 						"/>
					</g>
				</g>
				<g>
					<rect x="337.99" y="57.1" class="st7" width="13.13" height="26.55"/>
					<rect x="377.11" y="57.1" class="st62" width="13.13" height="26.55"/>
					<rect x="364.01" y="57.1" class="st61" width="13.13" height="26.55"/>
					<rect x="351" y="57.1" class="st60" width="13.13" height="26.55"/>
				</g>
			</g>
		</g>
	</g>
	<g>
		<g>
			<g>
				<path class="st63" d="M156.34,372.43l-7.45,73.77l-14-2.41c0,0-4.45-53.16-5.56-80.15c-0.04-0.9-2.83-38.21-9.94-58.65
					c-5.87-16.87-9.8-25.88-14.27-38.82l34.96-1.72c10.31,27.84,14.69,63.97,16.4,83.26C157.21,355.94,157.17,364.21,156.34,372.43z
					"/>
				<g>
					<path class="st64" d="M134.65,441.04l0.65,2.82l13.58,2.33c0,0,0.74-5.98,1.79-18.32l-17.08,0.36L134.65,441.04z"/>
					<line class="st65" x1="150.27" y1="431.31" x2="134" y2="431.77"/>
				</g>
				<g>
					<path class="st11" d="M187.17,461.28c-0.08,0.13-0.17,0.26-0.28,0.39c-1.2,1.52-3.74,2.74-6.07,3.61
						c-0.41,0.15-0.82,0.3-1.21,0.43c-2.15,0.72-4.44,0.98-6.7,0.77l-39.83-3.6c-1.42-0.23-4.53-1.34-4.96-3
						c-0.14-0.55-0.14-1.13-0.03-1.69c0.17-0.79,0.48-1.54,0.73-2.31c0.13-0.41,0.25-0.82,0.32-1.24c0.09-0.55,0.1-1.13,0.31-1.65
						c0.21-0.52,0.68-0.98,1.23-0.96c0.01,0,0.01,0,0.02,0c0,0,7.2,0.47,16.46,1.12c13.76,0.97,32.08,2.36,38.09,3.26
						c1.07,0.16,1.75,0.3,1.95,0.43c0.01,0.01,0.02,0.01,0.03,0.02C188.69,458.15,187.17,461.28,187.17,461.28z"/>
					<path class="st16" d="M187.31,459.74c-0.87,1.65-3.11,1.86-4.98,1.85c-5.17-0.04-10.38-0.24-15.45-1.24
						c-0.53-0.11-1.06-0.22-1.59-0.34c-2.19-0.51-4.34-1.2-6.56-1.55c-1.8-0.29-3.64-0.35-5.43-0.7c-1.76-0.35-3.46-0.97-5.19-1.47
						c-0.44-0.13-0.89-0.25-1.33-0.37c-3.35-0.87-6.8-1.32-10.26-1.35c-1.96-0.02-4.27-0.06-5.41-1.66
						c-0.19-0.26-0.32-0.55-0.42-0.84c-0.41-1.28-0.06-2.79,0.32-4.14c0.78-2.77,1.56-5.55,2.34-8.32c0.26-0.93,0.67-3.83,2.04-3.14
						c0.93,0.47,0.96,2.34,1.16,3.2c0.36,1.55,1.48,2.88,2.9,3.57c0.43,0.21,0.9,0.36,1.38,0.44c1.86,0.3,3.85-0.5,5.01-1.98
						c0.11-0.15,0.22-0.3,0.32-0.46c0.18-0.3,0.34-0.64,0.33-0.99c-0.01-0.42-0.26-0.79-0.32-1.2c-0.09-0.65,0.27-1.26,0.62-1.81
						c0.4-0.62,0.84-1.28,1.54-1.52c0.89-0.3,1.83,0.18,2.64,0.65c1.38,0.8,2.76,1.6,3.97,2.63c0.9,0.76,1.69,1.64,2.54,2.45
						c0.23,0.22,0.47,0.44,0.71,0.65c0.45,0.39,0.93,0.75,1.41,1.08c0.69,0.48,1.41,0.92,2.14,1.34c0.18,0.1,0.35,0.21,0.53,0.31
						c0.75,0.44,1.5,0.87,2.26,1.3c2.48,1.4,5.01,2.74,7.6,3.94c3.04,1.41,6.16,2.63,9.4,3.53c1.27,0.35,2.58,0.67,3.71,1.31
						c0.27,0.15,0.53,0.33,0.78,0.52c0.48,0.38,0.89,0.88,1.18,1.44C187.66,457.79,187.79,458.85,187.31,459.74z"/>
					<path class="st66" d="M187.31,459.74c-0.87,1.65-3.11,1.86-4.98,1.85c-5.17-0.04-10.38-0.24-15.45-1.24
						c1.4-0.19,2.78-0.47,4.12-0.91c1.29-0.42,2.52-1,3.82-1.41c2.34-0.75,4.84-0.98,7.3-0.85c0.72,0.04,1.45,0.1,2.13-0.12
						c0.5-0.16,0.82-0.37,1-0.61c0.33-0.43,0.22-0.97-0.01-1.53c0.27,0.15,0.53,0.33,0.78,0.52c0.48,0.38,0.89,0.88,1.18,1.44
						C187.66,457.79,187.79,458.85,187.31,459.74z"/>
					<path class="st66" d="M147.06,455.44c-0.08,0.17-0.18,0.33-0.29,0.48c-3.35-0.87-6.8-1.32-10.26-1.35
						c-1.96-0.02-4.27-0.06-5.41-1.66c-0.99-1.41-0.57-3.33-0.1-4.98c0.78-2.77,1.56-5.55,2.34-8.32c0.26-0.93,0.67-3.83,2.04-3.14
						c0.93,0.47,0.96,2.34,1.16,3.2c0.36,1.55,1.48,2.88,2.9,3.57c0.46,0.75,1.02,1.43,0.9,2.42c-0.1,0.82-0.57,1.66-0.27,2.44
						c0.3,0.77,1.21,1.07,2.01,1.3c1.43,0.41,2.89,0.94,3.96,1.98C147.11,452.41,147.69,454.09,147.06,455.44z"/>
					<path class="st67" d="M172.13,450.07c-0.48,0.29-1.05,0.47-1.59,0.63c-1.47,0.45-3.02,0.89-4.52,0.55
						c-2.41-0.55-3.94-2.92-6.12-4.08c-1.57-0.83-3.41-0.99-5.19-1.05c-1.78-0.07-3.6-0.06-5.29-0.62c-1.9-0.63-3.03-2.07-3.59-3.81
						c0.11-0.15,0.22-0.3,0.32-0.46c0.18-0.3,0.34-0.64,0.33-0.99c-0.01-0.42-0.26-0.79-0.32-1.2c-0.09-0.65,0.27-1.26,0.62-1.81
						c0.4-0.62,0.84-1.28,1.54-1.52c0.89-0.3,1.83,0.18,2.64,0.65c1.38,0.8,2.76,1.6,3.97,2.63c1.15,0.97,2.12,2.13,3.26,3.1
						c1.24,1.07,2.66,1.91,4.08,2.74C165.48,446.7,168.76,448.5,172.13,450.07z"/>
					<g>
						<path class="st68" d="M156.83,444.59c0.98-1.01,2.45-1.56,3.89-1.46"/>
						<path class="st68" d="M161.98,447.5c0.98-1.01,2.45-1.56,3.89-1.46"/>
						<path class="st68" d="M159.11,445.91c0.98-1.01,2.45-1.56,3.89-1.46"/>
						<path class="st68" d="M154.35,442.89c0.98-1.01,2.45-1.56,3.89-1.46"/>
						<path class="st68" d="M151.83,441.4c0.98-1.01,2.45-1.56,3.89-1.46"/>
					</g>
				</g>
				<path class="st63" d="M121.64,303.01c0.88,13.04-9.31,54.4-9.31,54.4S93.37,442,93.14,443.49c-0.02,0.13-11.21,1.47-12.34-0.69
					c-0.17-0.32-0.37-7.17-0.47-9c-0.19-3.31-0.29-8.82-0.32-15.56c-0.13-28.34,3.58-62.63,3.58-62.63s2.03-58.96,6.06-89.25
					l3.38-0.22l14.83-0.96l12.54-0.81C120.92,278.51,120.5,285.89,121.64,303.01z"/>
				<g>
					<path class="st64" d="M80.8,442.8c1.13,2.16,12.32,0.83,12.33,0.69c0.07-0.45,1.17-5.3,3.56-16.06l-16.64-1.26
						c0.05,4.56,0.13,5.15,0.28,7.64C80.44,435.63,80.64,442.47,80.8,442.8z"/>
					<line class="st65" x1="96.05" y1="429.89" x2="80.21" y2="428.88"/>
				</g>
				<g>
					<path class="st11" d="M131.03,460.32c-0.09,0.13-0.19,0.25-0.3,0.38c-1.28,1.45-3.88,2.54-6.26,3.28
						c-0.42,0.13-0.84,0.25-1.23,0.36c-2.19,0.6-4.48,0.74-6.73,0.41L76.93,459c-1.41-0.31-4.55-1.83-4.79-3.26
						c-0.1-0.56-0.08-1.13,0.06-1.68c0.21-0.78,0.56-1.51,0.86-2.26c0.16-0.4,0.3-0.8,0.39-1.22c0.12-0.55,0.16-1.12,0.4-1.63
						c0.23-0.5,0.73-0.94,1.28-0.89c0.01,0,0.01,0,0.02,0c0,0,7.16,0.86,16.37,2.01c13.69,1.72,31.9,4.1,37.86,5.32
						c1.06,0.22,1.73,0.4,1.92,0.53c0.01,0.01,0.02,0.01,0.03,0.02C132.72,457.27,131.03,460.32,131.03,460.32z"/>
					<path class="st16" d="M131.26,458.79c-0.96,1.6-3.21,1.69-5.08,1.58c-5.16-0.32-10.35-0.8-15.36-2.08
						c-0.53-0.13-1.05-0.28-1.57-0.43c-2.16-0.63-4.27-1.43-6.47-1.9c-1.78-0.38-3.61-0.55-5.38-0.99c-1.74-0.44-3.4-1.15-5.1-1.75
						c-0.43-0.15-0.87-0.3-1.31-0.44c-3.3-1.05-6.72-1.69-10.18-1.91c-1.96-0.12-4.26-0.29-5.31-1.95
						c-0.17-0.27-0.29-0.56-0.37-0.87c-0.34-1.3,0.09-2.79,0.54-4.12c0.93-2.73,1.86-5.45,2.79-8.18c0.31-0.92,0.88-3.79,2.21-3.03
						c0.91,0.52,0.84,2.39,0.99,3.26c0.27,1.56,1.32,2.96,2.7,3.72c0.42,0.23,0.88,0.41,1.35,0.52c1.84,0.4,3.87-0.29,5.11-1.71
						c0.12-0.14,0.24-0.29,0.34-0.44c0.2-0.29,0.38-0.62,0.38-0.97c0.01-0.42-0.22-0.8-0.25-1.22c-0.06-0.65,0.34-1.24,0.72-1.78
						c0.43-0.6,0.91-1.23,1.62-1.43c0.9-0.26,1.82,0.28,2.6,0.79c1.33,0.87,2.67,1.75,3.82,2.84c0.86,0.81,1.6,1.73,2.41,2.59
						c0.22,0.24,0.45,0.47,0.68,0.69c0.43,0.41,0.88,0.79,1.35,1.16c0.66,0.52,1.36,0.99,2.06,1.46c0.17,0.11,0.34,0.23,0.51,0.34
						c0.73,0.48,1.46,0.95,2.19,1.42c2.41,1.53,4.86,3,7.37,4.34c2.96,1.57,6.01,2.96,9.19,4.03c1.25,0.42,2.54,0.81,3.63,1.51
						c0.26,0.17,0.52,0.35,0.75,0.56c0.46,0.41,0.84,0.93,1.1,1.5C131.72,456.85,131.78,457.92,131.26,458.79z"/>
					<path class="st66" d="M131.26,458.79c-0.96,1.6-3.21,1.69-5.08,1.58c-5.16-0.32-10.35-0.8-15.36-2.08
						c1.41-0.12,2.8-0.32,4.17-0.69c1.31-0.35,2.57-0.86,3.89-1.21c2.38-0.63,4.88-0.71,7.33-0.45c0.71,0.07,1.44,0.18,2.14-0.01
						c0.51-0.14,0.84-0.32,1.03-0.55c0.36-0.42,0.27-0.95,0.07-1.53c0.26,0.17,0.52,0.35,0.75,0.56c0.46,0.41,0.84,0.93,1.1,1.5
						C131.72,456.85,131.78,457.92,131.26,458.79z"/>
					<path class="st66" d="M91.29,452.31c-0.09,0.17-0.2,0.32-0.31,0.47c-3.3-1.05-6.72-1.69-10.18-1.91
						c-1.96-0.12-4.26-0.29-5.31-1.95c-0.92-1.46-0.39-3.35,0.17-4.98c0.93-2.73,1.86-5.45,2.79-8.18c0.31-0.92,0.88-3.79,2.21-3.03
						c0.91,0.52,0.84,2.39,0.99,3.26c0.27,1.56,1.32,2.96,2.7,3.72c0.42,0.77,0.94,1.48,0.77,2.47c-0.14,0.82-0.66,1.63-0.4,2.42
						c0.26,0.78,1.15,1.13,1.93,1.4c1.41,0.49,2.83,1.1,3.84,2.19C91.51,449.29,92,451,91.29,452.31z"/>
					<path class="st67" d="M116.62,448.31c-0.5,0.26-1.07,0.41-1.62,0.54c-1.49,0.36-3.07,0.73-4.55,0.31
						c-2.38-0.68-3.77-3.13-5.89-4.41c-1.53-0.92-3.35-1.17-5.12-1.33c-1.77-0.16-3.59-0.26-5.25-0.91
						c-1.86-0.73-2.91-2.23-3.38-3.99c0.12-0.14,0.24-0.29,0.34-0.44c0.2-0.29,0.38-0.62,0.38-0.97c0.01-0.42-0.22-0.8-0.25-1.22
						c-0.06-0.65,0.34-1.24,0.72-1.78c0.43-0.6,0.91-1.23,1.62-1.43c0.9-0.26,1.82,0.28,2.6,0.79c1.33,0.87,2.67,1.75,3.82,2.84
						c1.09,1.03,2,2.24,3.08,3.28c1.18,1.14,2.55,2.06,3.92,2.96C110.17,444.59,113.34,446.56,116.62,448.31z"/>
					<g>
						<path class="st68" d="M101.65,442.01c1.03-0.95,2.53-1.42,3.96-1.25"/>
						<path class="st68" d="M106.62,445.19c1.03-0.95,2.53-1.42,3.96-1.25"/>
						<path class="st68" d="M103.85,443.45c1.03-0.95,2.53-1.42,3.96-1.25"/>
						<path class="st68" d="M99.25,440.18c1.03-0.95,2.53-1.42,3.96-1.25"/>
						<path class="st68" d="M96.82,438.55c1.03-0.95,2.53-1.42,3.96-1.25"/>
					</g>
				</g>
			</g>
		</g>
		<g>
			<g>
				<g>
					<path class="st10" d="M103.43,163.5c-4.89-1.07-7.46-6.54-5.09-10.94c0.18-0.34,0.38-0.67,0.59-0.99
						c0.63-0.97,1.38-1.89,1.73-2.99c0.63-2.01-0.21-4.16-0.16-6.27c0.03-1.37,0.46-2.73,1.22-3.88c0.62-0.94,1.45-1.73,1.98-2.72
						c0.96-1.79,0.8-3.93,0.96-5.95c0.47-6.05,4.22-11.01,9.55-13.9c5.34-2.89,12.19-2.43,17.51,0.49
						c5.26-0.66,10.59-0.12,14.16,3.79c6.42,7.03,4.14,11.96,5.49,17.3c0.71,2.8,2.5,5.41,2.28,8.29c-0.13,1.65-0.93,3.21-0.97,4.86
						c-0.05,1.92,0.92,3.69,1.56,5.5c0.01,0.03,0.02,0.06,0.03,0.09c1.72,4.96-1.79,10.22-7.01,10.76
						c-5.95,0.62-14.95,1.03-25.03-0.29C113.74,165.56,107.58,164.41,103.43,163.5z"/>
					<g>
						<g>
							<g>
								<g>
									<path class="st63" d="M131.4,172.25c-0.07-6.72,0.36-16.72,0.36-16.72s-14.05-10.02-18.29-11.57
										c-0.51,2.56-1.38,24.27-2.18,31.01c0.13,15.34,14.58,23.49,21.44,24.82C132.33,199.7,131.44,175.59,131.4,172.25z"/>
									<path class="st69" d="M131.4,172.25c-0.07-6.72,0.36-16.72,0.36-16.72s-14.04-10-18.28-11.55
										c-0.51,2.56-1.38,24.25-2.19,30.99c0.13,15.34,14.58,23.49,21.44,24.82C132.33,199.7,131.44,175.59,131.4,172.25z"/>
								</g>
								<g>
									<path class="st63" d="M112.39,146.26c0.27,7.76,1.46,12,7.43,14.89c5.97,2.91,13.17,3.25,19.41,0.93
										c3.34-1.24,5.67-3.37,7.09-6.59c0,0,0,0,0-0.01c0.37-0.84,0.6-1.72,0.77-2.62c0.01-0.04,0.02-0.1,0.02-0.14
										c0.15-0.95,0.22-1.9,0.28-2.85c0.04-0.8,0.07-1.61,0.08-2.42c0.01-0.93,0-2.12-0.03-3.51l0-0.04
										c-0.17-6.82,0.08-14.12-0.95-18.55L111.28,126L112.39,146.26z"/>
									<path class="st70" d="M142.8,137.88c-0.84-0.39-1.84-0.43-2.69-0.07c-0.52,0.22-1.02,0.65-1.05,1.21
										c-0.01,0.16,0.03,0.34,0.17,0.42c0.08,0.05,0.19,0.06,0.28,0.06c0.77,0.02,1.54-0.07,2.3,0c0.61,0.06,1.21,0.23,1.77,0.49
										c0.29,0.14,1.5,0.59,0.86-0.58C144.05,138.71,143.56,138.23,142.8,137.88z"/>
									<path class="st70" d="M123.75,138.33c0.82-0.43,1.82-0.52,2.68-0.2c0.53,0.19,1.05,0.6,1.11,1.16
										c0.02,0.16-0.02,0.34-0.15,0.43c-0.08,0.05-0.18,0.07-0.28,0.07c-0.77,0.06-1.54,0-2.3,0.11c-0.61,0.09-1.2,0.29-1.74,0.58
										c-0.28,0.15-1.47,0.66-0.89-0.54C122.54,139.23,123.01,138.72,123.75,138.33z"/>
									<path class="st70" d="M142.36,142.83c-0.11,0.33-0.4,0.55-0.7,0.68c-0.61,0.28-1.42,0.22-1.82-0.35
										c-0.63-0.9-0.42-2.19,1.05-2.41C141.91,140.61,142.69,141.9,142.36,142.83z"/>
									<path class="st70" d="M127.67,143.19c-0.11,0.33-0.4,0.55-0.7,0.68c-0.61,0.28-1.42,0.22-1.82-0.35
										c-0.63-0.9-0.42-2.19,1.05-2.41C127.22,140.96,128,142.25,127.67,143.19z"/>
									<g class="st47">
										<path class="st63" d="M117.08,144.19c-1.45,0.53-2.29,1.95-2.44,3.34c-0.17,1.61,0.48,3.3,1.85,4.34
											c1.37,1.04,3.46,1.32,5.05,0.54c1.36-0.66,2.22-2.01,2.31-3.39c0.09-1.35-0.59-3.17-1.68-4.14
											C120.99,143.81,118.57,143.64,117.08,144.19z"/>
									</g>
									<path class="st71" d="M145.26,151.88c0.53,0.4,1.17,0.69,1.85,0.85c0.15-0.95,0.22-1.9,0.28-2.85
										c0.04-0.8,0.07-1.61,0.08-2.42c0.01-0.93,0-2.12-0.03-3.51l0-0.04c-0.58,0.02-1.13,0.13-1.59,0.29
										c-1.44,0.53-2.29,1.95-2.44,3.34C143.23,149.14,143.88,150.84,145.26,151.88z"/>
									<path class="st72" d="M133.47,137.56c0,0-0.07,3.13,2.32,6.86c1.47,2.3-1.4,3.02-2.63,2.71"/>
									<g>
										<path class="st10" d="M130.38,149.56c0.04,0.23,0.09,0.44,0.17,0.63c0.14,0.35,0.34,0.65,0.58,0.9
											c0.11,0.12,0.24,0.22,0.37,0.32c0.06,0.04,0.12,0.08,0.19,0.12c1.15,0.71,2.81,0.67,3.93-0.07
											c0.02-0.01,0.04-0.02,0.05-0.04c0.13-0.08,0.24-0.17,0.35-0.28c0.26-0.24,0.48-0.54,0.62-0.88
											c0.09-0.21,0.15-0.44,0.18-0.68c0.04-0.25-0.16-0.47-0.41-0.46l-5.63-0.05C130.54,149.09,130.34,149.31,130.38,149.56z"/>
										<path class="st73" d="M131.5,151.42c0.06,0.04,0.12,0.08,0.19,0.12c1.15,0.71,2.81,0.67,3.93-0.07
											c0.02-0.01,0.04-0.02,0.05-0.04c-0.44-0.13-1.19-0.26-1.94-0.27c-0.02,0-0.05,0-0.08,0c-0.02,0-0.05-0.01-0.07-0.01
											C132.84,151.16,131.98,151.29,131.5,151.42z"/>
									</g>
								</g>
							</g>
							<g>
								<path class="st74" d="M180.19,188.7c0,0,2.68,0.27,6.96,2.81c4.28,2.55,5.93,4.45,5.93,4.45s-4.74-0.11-7.57-1.99
									C182.67,192.09,180.19,188.7,180.19,188.7z"/>
								<g>
									<path class="st63" d="M176.36,195.99c0,0,4.34-6.16,6.78-9.62c3.12,2.06,5.15,2.58,9.71,5.63
										c-1.31,2.68-5.14,11.03-5.14,11.03"/>
								</g>
								<g>
									<path class="st63" d="M182.7,187.03c3.37,1.63,6.59,3.6,10.02,5.1c1.85-0.89,4.36-2.46,5.51-4.06
										c0.28-0.39,0.54-0.79,0.77-1.19c0.07-0.12,0.16-0.42,0.26-0.86c0.56-2.37,1.49-8.6,1.29-9.91l-14.43-3.39
										c-0.81,1.06-3.26,5.51-3.43,7.29C182.5,182.09,182.55,184.95,182.7,187.03z"/>
									<path class="st37" d="M198.68,181.49c-1.29-1.38-4.43-2.76-6.21-3.39c-0.37,0.32-0.71,0.65-1.02,0.99
										c-0.09,0.1-0.25,0.38-0.45,0.78c0.71,0.4,1.44,0.76,1.76,0.96c2.38,1.54,4.69,3.22,6.43,5.49
										C199.63,184.49,199.99,182.88,198.68,181.49z"/>
									<g>
										<path class="st63" d="M189.61,167.37c0.86-0.77,2.11-1.2,3.16-0.77c1.05,0.43,1.63,1.9,0.92,2.81
											c0.43-0.93,1.67-1.34,2.58-0.92c0.91,0.42,1.39,1.56,1.14,2.55c0.69-0.66,1.85-0.73,2.6-0.16
											c0.74,0.58,0.97,1.73,0.5,2.56c0.49-0.64,1.38-0.95,2.14-0.73c0.77,0.22,1.35,0.95,1.41,1.75
											c0.04,0.56-0.15,1.1-0.34,1.63c-0.19,0.55-3.06,6.27-3.62,6.81c-0.56,0.54-1.49,0.77-2.1,0.31
											c-0.79-0.6-0.16-2.32,0.47-4.76c-0.52,1.13-1.2,2.19-2.01,3.14c-0.32,0.37-0.69,0.74-1.16,0.87
											c-0.86,0.24-1.74-0.44-2.06-1.27c-0.32-0.83,0.18-2.93,0.3-3.81c-0.3,1.53-2.64,3.65-4.01,2.94
											c-1.37-0.71-1.48-2.96-0.13-5.04c-0.82,1.09-1.71,2.3-2.53,2.54c-0.67,0.2-1.38-0.29-1.64-0.93
											c-0.26-0.64-0.17-1.38,0.01-2.05C185.77,172.87,188.08,168.74,189.61,167.37z"/>
										<path class="st63" d="M195.93,165.49c0.68-1.18,1.44-2.47,1.34-3.32c-0.08-0.69-0.81-1.16-1.5-1.15
											c-0.69,0.01-1.33,0.38-1.88,0.81c-1.61,1.27-4.21,4.8-5.69,7.23c-0.6,0.98-0.35,1.74,0.45,2.54
											c0.81,0.8,3.19,0.96,3.75-0.05L195.93,165.49z"/>
										<path class="st38" d="M200.51,173.44c0,0-0.42,1.3-2.03,5.01C198.49,178.45,200.33,176.18,200.51,173.44z"/>
										<path class="st38" d="M197.42,171.04c0,0-2.43,3.09-3.87,6.34C193.55,177.38,197,172.38,197.42,171.04z"/>
										<path class="st38" d="M193.88,169.1c0,0-2.43,3.09-3.87,6.34C190.01,175.44,193.46,170.44,193.88,169.1z"/>
										<g class="st39">
											<path class="st38" d="M198.92,180.38c-0.17-0.05-0.37-0.1-0.5,0.03c-0.04,0.04-0.07,0.1-0.09,0.16
												c-0.16,0.38-0.27,0.78-0.34,1.19c-0.04,0.26-0.06,0.53,0,0.79c0.06,0.26,0.23,0.5,0.47,0.59
												c0.37,0.15,0.8-0.06,1.11-0.32c0.48-0.39,0.87-0.9,1.12-1.47C200.89,180.93,199.16,180.46,198.92,180.38z"/>
											<path class="st38" d="M194.98,178.56c-0.19-0.06-0.42-0.11-0.56,0.03c-0.05,0.05-0.08,0.12-0.1,0.18
												c-0.18,0.44-0.31,0.89-0.38,1.35c-0.05,0.3-0.07,0.61,0,0.9c0.07,0.29,0.18,0.58,0.88,0.85c0.43,0.16,0.94-0.24,1.3-0.53
												c0.55-0.45,0.72-0.96,0.9-1.68C197.14,179.15,195.26,178.65,194.98,178.56z"/>
											<path class="st38" d="M190.47,176.67c-0.19-0.06-0.42-0.11-0.56,0.03c-0.05,0.05-0.08,0.12-0.1,0.18
												c-0.18,0.43-0.31,0.89-0.38,1.36c-0.05,0.3-0.07,0.6,0,0.9c0.07,0.29,0.18,0.58,0.88,0.85c0.43,0.16,0.94-0.24,1.3-0.53
												c0.55-0.45,0.72-0.96,0.9-1.68C192.62,177.25,190.74,176.76,190.47,176.67z"/>
										</g>
										<path class="st40" d="M184.69,180.84c1.03,0.09,5.62,2.11,4.92,0.77c-0.65-1.26-0.57-2.19,0.13-3.24
											c0.61-0.93,2.11-0.5,3.22-0.55c0.88-0.04,1.76-0.23,2.57-0.56c0.52-0.21,1.1-0.83,1.44-1.29
											c0.33-0.46,0.45-1.12,0.15-1.59c-0.16-0.26-0.41-0.43-0.7-0.55c-0.25-0.1-0.52-0.17-0.78-0.22
											c-1.27-0.26-2.54-0.45-3.83-0.58c-1.25-0.12-5.58-0.5-6.82,0.6c-1.29,1.15-1.69,4.15-1.84,5.22
											C182.78,181.42,183.75,180.76,184.69,180.84z"/>
										<g>
											<path class="st63" d="M183.59,182.61c0.51,0.15,6.84,0.39,6.16-0.91c-0.63-1.23-1.07-2.69-0.39-3.72
												c0.6-0.91,2.07-0.5,3.15-0.55c0.86-0.04,1.72-0.23,2.52-0.56c0.51-0.21,1.02-0.49,1.35-0.94
												c0.33-0.45,0.44-1.09,0.15-1.55c-0.16-0.25-0.4-0.42-0.68-0.53c-0.24-0.1-0.51-0.16-0.76-0.21
												c-1.23-0.25-2.48-0.43-3.74-0.55c-1.22-0.11-5.45-0.46-6.67,0.62c-1.26,1.12-1.67,4.05-1.82,5.1
												C182.48,181.32,182.96,182.43,183.59,182.61z"/>
											<path class="st41" d="M193.74,175.48c0.81,0,1.99-0.82,2.11-1.64c-0.24-0.1-0.51-0.16-0.76-0.21
												c-1.23-0.25-2.48-0.43-3.74-0.55c-0.05,0.29,0.02,0.63,0.15,0.9C191.89,174.85,192.78,175.48,193.74,175.48z"/>
										</g>
									</g>
								</g>
							</g>
						</g>
						<g>
							<path class="st7" d="M138.97,176.24c0,0,12.71,2.93,17.66,22.98c1.03,4.19,3.91,19.49,3.91,19.49l19.64-30.01
								c0,0,2.61,3.26,5.25,4.77c3.75,2.15,7.64,2.49,7.64,2.49s-20.37,53.21-34.36,51.63c-2.84-0.32-12.18-0.61-18.34-31.22
								L138.97,176.24z"/>
						</g>
					</g>
					<path class="st10" d="M147.47,141.05c-0.11-3.18-0.79-6.57-2.47-9.17c-2.78-4.29-8.99-1.77-10.65-6.3
						c-2.59,3.45-2.73,3.52-9.25,4.28c-6.57,0.77-8.02,10-10.28,10.7c0.04-2.64-3.17-3.02-4.41-5.35
						c-1.52-2.88-0.18-8.11,1.65-10.81c1.83-2.69,4.81-4.46,7.95-5.31c3.14-0.85,6.45-0.87,9.7-0.62c3.84,0.29,7.73,0.95,11.15,2.72
						c3.42,1.77,6,1.67,7.32,8.5c0.28,1.44,0.45,2.9,0.42,4.37C148.54,136.33,148.04,138.86,147.47,141.05z"/>
					<g>
						<g>
							<path class="st63" d="M114.95,140.44c-0.56-3.37-3.14-5.02-5.71-4.9c-0.37,0.02-0.74,0.06-1.07,0.23
								c-0.32,0.16-0.58,0.42-0.8,0.69c-1,1.29-1.2,3.01-1.18,4.64c0.02,1.47,0.21,3.02,1.06,4.23c0.81,1.15,2.19,1.9,3.61,1.94
								c1.42,0.04,2.85-0.62,3.72-1.73C114.59,145.54,115.48,143.66,114.95,140.44z"/>
							<g>
								<path class="st75" d="M112.1,144.8c-0.3-0.89-0.73-1.75-1.37-2.44c-0.63-0.7-1.48-1.23-2.41-1.4"/>
								<path class="st75" d="M110.86,139.63c0.36,0.82,0.26,1.83-0.25,2.57"/>
							</g>
						</g>
					</g>
					<path class="st7" d="M94.06,237.93c-0.35-7.71-1.24-27.35-2.69-36.21c0,0,12.56-15.72,6.65-31.28
						c-0.07-0.16,2.15-0.34,4.96-0.4c3.82-0.09,8.49,0.1,8.71,0.14c4.87,7.01,9.31,9.92,12.97,9.82c2.4-0.06,5.59-1.08,6.87-6.67
						l8.16,3.23l4.43,25.45c0.97,3.29,1.18,7.07,0.04,10.29c-0.68,1.88-3.29,5.01-3.29,5.01s-1.53,20.45-1.71,24.67
						c29.31,87.25,29.58,168.52,29.58,168.52s-20.67,0.94-25.07,0.82c-7.58-0.2-15.1-1.85-22.69-1.66
						c-7.26,0.17-14.35,2.45-21.59,3.16c-5.75,0.56-24.35-0.78-32.47-2.06c-1.5-0.24-2.82-0.47-3.86-0.68
						C63.56,356.59,90.22,246.81,94.06,237.93z"/>
					<g>
						<path class="st76" d="M114.69,216.98c-0.9-0.04-1.84-0.09-2.68,0c-0.84,0.09-1.57,0.34-1.57,0.67
							c0.01,0.26,0.45,0.51,0.88,0.73c1.3,0.69,2.61,1.38,4.27,1.96c1.66,0.58,3.71,1.04,5.89,1.14c1.91,0.09,3.76-0.1,5.49-0.33
							c2.56-0.34,11.07-1.42,6.02-2.94c-1.96-0.59-5.79-0.55-8.1-0.68C121.49,217.33,118.09,217.15,114.69,216.98z"/>
						<g>
							<path class="st7" d="M110.88,165.07l-1.41,5.47c0,0,5.75,11.71,13.84,11.92c8.09,0.21,9.5-8.28,9.5-8.28l-0.21-6.82
								L110.88,165.07z"/>
							<g>
								<path class="st77" d="M132.81,174.19c0,0-2.16,1.46-10.24,1.34c-8.41-0.13-13-5.12-13-5.12"/>
								<g>
									<line class="st77" x1="131.88" y1="167.28" x2="131.75" y2="174.7"/>
									<line class="st77" x1="129.34" y1="167.02" x2="128.97" y2="175.24"/>
									<line class="st77" x1="126.79" y1="166.75" x2="126.28" y2="175.44"/>
									<line class="st77" x1="124.25" y1="166.48" x2="123.46" y2="175.55"/>
									<line class="st77" x1="121.7" y1="166.22" x2="120.63" y2="175.44"/>
									<line class="st77" x1="119.15" y1="165.95" x2="117.88" y2="174.9"/>
									<line class="st77" x1="116.61" y1="165.68" x2="115.21" y2="174.05"/>
									<line class="st77" x1="114.06" y1="165.41" x2="112.48" y2="172.64"/>
									<line class="st77" x1="111.52" y1="165.15" x2="110.09" y2="171"/>
								</g>
							</g>
						</g>
					</g>
					<path class="st78" d="M93.93,238.22c-0.52-11.93-1.41-29.46-2.55-36.46l0.35-0.52c0.23-0.31,0.56-0.77,0.95-1.37l5.53-7.94
						l0.39,5.56c-0.09,7.44-0.28,29.51,0.59,29.74c2.77,0.74,19.73,0.37,27.07-0.58c2.43-0.32,6.04-0.36,7.62,1.78
						c1.15,1.57,5.48,14.67,5.48,14.67c-7.45,6.99-46.19,9.6-46.19,9.6s-25.2,128.84-26.25,158.07c-1.5-0.24-2.82-0.47-3.86-0.68
						C63.56,357.14,89.72,248.01,93.93,238.22z"/>
					<path class="st79" d="M63.05,410.1c0.51-53.51,27.17-163.28,31-172.17c-0.35-7.71-1.24-27.35-2.69-36.21"/>
					<path class="st79" d="M139.16,241.99c29.31,87.25,29.58,168.52,29.58,168.52"/>
				</g>
				<g>
					<g class="st80">
						<path class="st81" d="M137.26,142.25c0.21,3.28,3.03,5.77,6.31,5.56c3.28-0.21,5.77-3.03,5.56-6.31
							c-0.21-3.28-3.03-5.77-6.31-5.56C139.55,136.15,137.06,138.97,137.26,142.25z"/>
						<path class="st81" d="M119.57,143.37c0.21,3.28,3.03,5.77,6.31,5.56c3.28-0.21,5.77-3.03,5.56-6.31
							c-0.21-3.28-3.03-5.77-6.31-5.56C121.85,137.27,119.36,140.09,119.57,143.37z"/>
					</g>
					<g>
						<path class="st82" d="M137.26,142.25c0.2,3.28,3.03,5.77,6.3,5.56c3.28-0.2,5.77-3.03,5.56-6.3c-0.2-3.28-3.03-5.77-6.3-5.56
							C139.55,136.15,137.06,138.98,137.26,142.25z"/>
						<path class="st82" d="M119.57,143.35c0.2,3.28,3.03,5.77,6.3,5.56c3.28-0.2,5.77-3.03,5.56-6.3c-0.2-3.28-3.03-5.77-6.3-5.56
							C121.86,137.26,119.36,140.08,119.57,143.35z"/>
					</g>
					<path class="st82" d="M137.47,140.47c-2.19-0.92-4.43-0.75-6.47,0.46"/>
				</g>
				<path class="st79" d="M143.65,195.07c0,0-0.1-0.74,1.36,8.84c1.46,9.57-4.22,13.86-4.22,13.86l-0.46,6.15"/>
				<g>
					<g>
						<path class="st83" d="M147.96,252.36l-5.18-7.3c-0.3-0.42-0.2-1,0.22-1.3l24.96-17.69c0.42-0.3,1-0.2,1.3,0.22l5.18,7.3
							c0.3,0.42,0.2,1-0.22,1.3l-24.96,17.69C148.84,252.88,148.26,252.79,147.96,252.36z"/>
						<g>
							
								<rect x="165.24" y="230.1" transform="matrix(0.5782 0.8159 -0.8159 0.5782 260.5793 -40.1534)" class="st9" width="7.78" height="3.69"/>
							
								<rect x="144.92" y="244.5" transform="matrix(0.5782 0.8159 -0.8159 0.5782 263.7528 -17.5052)" class="st84" width="7.78" height="3.69"/>
							
								<rect x="148.98" y="241.62" transform="matrix(0.5782 0.8159 -0.8159 0.5782 263.12 -22.034)" class="st85" width="7.78" height="3.69"/>
							
								<rect x="153.05" y="238.74" transform="matrix(0.5782 0.8159 -0.8159 0.5782 262.4842 -26.564)" class="st86" width="7.78" height="3.69"/>
							
								<rect x="157.11" y="235.86" transform="matrix(0.5782 0.8159 -0.8159 0.5782 261.8486 -31.094)" class="st87" width="7.78" height="3.69"/>
							
								<rect x="161.17" y="232.98" transform="matrix(0.5782 0.8159 -0.8159 0.5782 261.2148 -35.6233)" class="st88" width="7.78" height="3.69"/>
						</g>
					</g>
					<g>
						<path class="st89" d="M151.13,249.7l-7.78-4.44c-0.45-0.26-0.6-0.83-0.35-1.28l15.17-26.57c0.26-0.45,0.83-0.6,1.28-0.35
							l7.78,4.44c0.45,0.26,0.6,0.83,0.35,1.28l-15.17,26.57C152.15,249.8,151.58,249.96,151.13,249.7z"/>
						<g>
							
								<rect x="157.82" y="220.42" transform="matrix(0.8685 0.4958 -0.4958 0.8685 131.4605 -50.9332)" class="st11" width="7.78" height="3.69"/>
							
								<rect x="145.48" y="242.04" transform="matrix(0.8685 0.4958 -0.4958 0.8685 140.5552 -41.9678)" class="st90" width="7.78" height="3.69"/>
							
								<rect x="147.94" y="237.72" transform="matrix(0.8685 0.4958 -0.4958 0.8685 138.7357 -43.7608)" class="st91" width="7.78" height="3.69"/>
							
								<rect x="150.41" y="233.39" transform="matrix(0.8685 0.4958 -0.4958 0.8685 136.9175 -45.5539)" class="st92" width="7.78" height="3.69"/>
							
								<rect x="152.88" y="229.07" transform="matrix(0.8685 0.4958 -0.4958 0.8685 135.0966 -47.3468)" class="st93" width="7.78" height="3.69"/>
							
								<rect x="155.35" y="224.74" transform="matrix(0.8685 0.4958 -0.4958 0.8685 133.277 -49.1399)" class="st94" width="7.78" height="3.69"/>
						</g>
					</g>
					<g>
						<path class="st15" d="M152.7,245.5h-8.95c-0.52,0-0.93-0.42-0.93-0.93v-30.6c0-0.52,0.42-0.93,0.93-0.93h8.95
							c0.52,0,0.93,0.42,0.93,0.93v30.6C153.64,245.09,153.22,245.5,152.7,245.5z"/>
						<g>
							<rect x="144.4" y="214.59" class="st14" width="7.78" height="3.69"/>
							<rect x="144.4" y="239.49" class="st95" width="7.78" height="3.69"/>
							<rect x="144.4" y="234.51" class="st96" width="7.78" height="3.69"/>
							<rect x="144.4" y="229.53" class="st97" width="7.78" height="3.69"/>
							<rect x="144.4" y="224.55" class="st98" width="7.78" height="3.69"/>
							<rect x="144.4" y="219.57" class="st99" width="7.78" height="3.69"/>
						</g>
					</g>
				</g>
				<g>
					<g>
						<g>
							<g>
								<g>
									<path class="st63" d="M117.63,231.86c3.59-0.82,10.96-2.03,17.08-3.48c0.58,3.28,1.3,5.67,3.02,12.38
										c-11.36,3.39-17.68,3.77-17.68,3.77S118.67,237.17,117.63,231.86z"/>
								</g>
							</g>
							<g>
								<g>
									<path class="st38" d="M138.19,225.64c2.88-1.89,5.22-2.29,8.62-2.61c0.5-0.05,1.69,0.49,2.11,0.77
										c0.01,0.45-0.11,2.38-0.45,2.68c-0.73,0.65-2.35-0.85-3.09-0.2c-3.27,2.89-5.58,5.93-9.87,6.56
										c-0.57,0.08-1.94-3.2-1.29-3.78C135.53,227.9,136.73,226.6,138.19,225.64z"/>
								</g>
								<path class="st63" d="M133.27,228.99c0.14,3.98,1.08,8.71,1.38,12.68c1.92,0.89,3.32,1.71,6.77,1.59
									c2.55-0.09,10.06-1.83,11.17-2.69l-2.94-17.73c-1.89,0.34-7.11,0.63-8.88,1.4c-1.36,0.59-0.91,0.66-2.15,1.48
									C136.78,226.93,135.12,227.77,133.27,228.99z"/>
								<g>
									<path class="st63" d="M152.35,223.06c1.17,0.28,2.28,1.11,2.53,2.29c0.25,1.18-0.68,2.59-1.89,2.52
										c1.05-0.19,2.14,0.64,2.31,1.69c0.17,1.05-0.53,2.17-1.53,2.55c0.98,0.19,1.73,1.17,1.67,2.17c-0.06,1-0.93,1.9-1.92,2
										c0.84,0.03,1.63,0.62,1.89,1.43c0.26,0.8-0.02,1.76-0.68,2.3c-0.46,0.38-1.04,0.54-1.61,0.7
										c-0.59,0.17-7.22,1.16-8.02,1.01c-0.79-0.16-1.55-0.83-1.51-1.64c0.05-1.05,1.91-1.56,4.39-2.5
										c-1.28,0.24-2.6,0.3-3.9,0.16c-0.51-0.05-1.05-0.15-1.44-0.48c-0.71-0.6-0.65-1.79-0.11-2.58
										c0.53-0.78,2.64-1.63,3.47-2.07c-1.5,0.68-4.72-0.07-4.9-1.71c-0.19-1.63,1.69-3.1,4.28-3.19
										c-1.43-0.05-2.99-0.09-3.69-0.65c-0.56-0.46-0.56-1.38-0.17-2c0.4-0.62,1.09-0.99,1.78-1.25
										C145.33,223.07,150.26,222.56,152.35,223.06z"/>
									<path class="st38" d="M153.52,236.29c0,0-1.37,0.42-5.53,1.29C147.99,237.59,151.04,237.8,153.52,236.29z"/>
									<path class="st38" d="M153.77,232.12c0,0-4.11-0.23-7.76,0.5C146.01,232.62,152.36,232.58,153.77,232.12z"/>
									<path class="st38" d="M153.45,227.86c0,0-6.24-0.69-8.38-0.14C145.07,227.72,151.99,228.41,153.45,227.86z"/>
								</g>
							</g>
						</g>
						<path class="st7" d="M93.41,202.91c0,0,10.69-17.68,7.73-32.83c0,0-22.37-1.2-28.29,32.36c-2.04,11.54-7.18,35.69-2.5,43.42
							c5.8,9.58,50.84,0.14,63.57-2.49c0,0,0.43-11.27-1.97-14.81c-0.83-1.23-43.07,2.93-43.07,2.93L93.41,202.91z"/>
					</g>
					<path class="st79" d="M97.95,193.48c-1.54,4.03-4.54,9.43-4.54,9.43l-4.39,28.49c0,0,21.36-1.79,27.71-2.32"/>
				</g>
			</g>
		</g>
	</g>
</g>
</svg>
