<?xml version="1.0" encoding="utf-8"?>
<!-- Generator: Adobe Illustrator 25.2.1, SVG Export Plug-In . SVG Version: 6.00 Build 0)  -->
<svg version="1.1" id="Illustration" xmlns="http://www.w3.org/2000/svg" xmlns:xlink="http://www.w3.org/1999/xlink" x="0px"
	 y="0px" viewBox="0 0 1200 800" style="enable-background:new 0 0 1200 800;" xml:space="preserve">
<style type="text/css">
	.st0{opacity:0.5;fill:url(#SVGID_1_);}
	.st1{opacity:0.5;fill:url(#SVGID_2_);}
	.st2{fill:url(#SVGID_3_);}
	.st3{opacity:0.43;fill:#FFFFFF;}
	.st4{fill:url(#SVGID_4_);}
	.st5{opacity:0.45;fill:#FFFFFF;}
	.st6{opacity:0.72;}
	.st7{fill:url(#SVGID_5_);}
	.st8{opacity:0.86;fill:#FFFFFF;}
	.st9{fill:url(#SVGID_6_);}
	.st10{fill:url(#SVGID_7_);}
	.st11{fill:url(#SVGID_8_);}
	.st12{fill:url(#SVGID_9_);}
	.st13{fill:url(#SVGID_10_);}
	.st14{fill:url(#SVGID_11_);}
	.st15{fill:url(#SVGID_12_);}
	.st16{fill:url(#SVGID_13_);}
	.st17{opacity:0.2;fill:#FFFFFF;}
	.st18{opacity:0.63;fill:url(#SVGID_14_);}
	.st19{opacity:0.63;fill:url(#SVGID_15_);}
	.st20{opacity:0.63;fill:url(#SVGID_16_);}
	.st21{fill:url(#SVGID_17_);}
	.st22{opacity:0.63;fill:url(#SVGID_18_);}
	.st23{opacity:0.63;fill:url(#SVGID_19_);}
	.st24{opacity:0.63;fill:url(#SVGID_20_);}
	.st25{fill:url(#SVGID_21_);}
	.st26{opacity:0.63;fill:url(#SVGID_22_);}
	.st27{opacity:0.63;fill:url(#SVGID_23_);}
	.st28{opacity:0.63;fill:url(#SVGID_24_);}
	.st29{opacity:0.63;fill:url(#SVGID_25_);}
	.st30{opacity:0.63;fill:url(#SVGID_26_);}
	.st31{opacity:0.63;fill:url(#SVGID_27_);}
	.st32{fill:url(#SVGID_28_);}
	.st33{opacity:0.7;}
	.st34{fill:#FFFFFF;}
	.st35{fill:url(#SVGID_29_);}
	.st36{fill:url(#SVGID_30_);}
	.st37{opacity:0.6;fill:#FFFFFF;}
	.st38{fill:url(#SVGID_31_);}
	.st39{fill:url(#SVGID_32_);}
	.st40{fill:url(#SVGID_33_);}
	.st41{opacity:0.9;}
	.st42{fill:url(#SVGID_34_);}
	.st43{fill:url(#SVGID_35_);}
	.st44{opacity:0.78;fill:#FFFFFF;}
	.st45{fill:url(#SVGID_36_);}
	.st46{fill:url(#SVGID_37_);}
	.st47{fill:url(#SVGID_38_);}
	.st48{fill:url(#SVGID_39_);}
	.st49{fill:url(#SVGID_40_);}
	.st50{fill:url(#SVGID_41_);}
	.st51{fill:url(#SVGID_42_);}
	.st52{fill:url(#SVGID_43_);}
	.st53{fill:url(#SVGID_44_);}
	.st54{fill:url(#SVGID_45_);}
	.st55{fill:url(#SVGID_46_);}
	.st56{opacity:0.6;}
	.st57{fill:url(#SVGID_47_);}
	.st58{fill:url(#SVGID_48_);}
	.st59{fill:url(#SVGID_49_);}
	.st60{fill:url(#SVGID_50_);}
	.st61{fill:url(#SVGID_51_);}
	.st62{fill:url(#SVGID_52_);}
	.st63{fill:url(#SVGID_53_);}
	.st64{fill:url(#SVGID_54_);}
	.st65{fill:url(#SVGID_55_);}
	.st66{fill:url(#SVGID_56_);}
	.st67{fill:url(#SVGID_57_);}
	.st68{fill:url(#SVGID_58_);}
	.st69{fill:url(#SVGID_59_);}
	.st70{fill:url(#SVGID_60_);}
	.st71{fill:url(#SVGID_61_);}
	.st72{fill:url(#SVGID_62_);}
	.st73{fill:url(#SVGID_63_);}
	.st74{fill:url(#SVGID_64_);}
	.st75{fill:url(#SVGID_65_);}
	.st76{fill:url(#SVGID_66_);}
	.st77{fill:url(#SVGID_67_);}
	.st78{fill:url(#SVGID_68_);}
	.st79{fill:url(#SVGID_69_);}
	.st80{fill:url(#SVGID_70_);}
	.st81{fill:url(#SVGID_71_);}
	.st82{fill:url(#SVGID_72_);}
	.st83{fill:url(#SVGID_73_);}
	.st84{fill:url(#SVGID_74_);}
	.st85{fill:url(#SVGID_75_);}
	.st86{fill:url(#SVGID_76_);}
	.st87{fill:url(#SVGID_77_);}
	.st88{fill:url(#SVGID_78_);}
	.st89{fill:url(#SVGID_79_);}
	.st90{fill:url(#SVGID_80_);}
	.st91{fill:url(#SVGID_81_);}
	.st92{fill:url(#SVGID_82_);}
</style>
<g>
	<g>
		<linearGradient id="SVGID_1_" gradientUnits="userSpaceOnUse" x1="134.371" y1="406.7247" x2="1079.6876" y2="406.7247">
			<stop  offset="0" style="stop-color:#B37CFF"/>
			<stop  offset="1" style="stop-color:#F895E7"/>
		</linearGradient>
		<path class="st0" d="M382.34,109c-14.8,4.75-36.94,26.36-56.35,60.83c-23.88,42.4-38.07,46.11-71.85,25.22
			c-33.78-20.89-73.46-6.86-102.18,48.76c-28.72,55.62,21.59,98.86,68.22,166.62c46.63,67.76-46.47,50.23-76.63,129.37
			s12.38,167.92,152.33,166.87c140.15-1.06,352,0.97,352,0.97s196.47,18.71,268.01-29.63c71.54-48.34-16.46-71.85,50.09-102.76
			c66.54-30.91,136-32.99,106.9-112.89s-70.27-63.35-96.85-84.71c-26.57-21.36-42.56-44.55-4.56-82.57
			c38-38.02,67.09-63.63,47.88-114c-27.56-72.27-94.44-81.59-167.92-50.96c-73.48,30.63-142.19,154.42-203.46,123.09
			C586.71,221.89,508.39,68.52,382.34,109z"/>
		<linearGradient id="SVGID_2_" gradientUnits="userSpaceOnUse" x1="113.3689" y1="393.1954" x2="1100.6897" y2="393.1954">
			<stop  offset="0" style="stop-color:#B37CFF"/>
			<stop  offset="1" style="stop-color:#F895E7"/>
		</linearGradient>
		<path class="st1" d="M372.35,82.24c-15.46,4.96-38.58,27.54-58.86,63.53c-24.94,44.28-39.76,48.16-75.04,26.34
			c-35.28-21.82-76.73-7.16-106.72,50.93c-30,58.09,22.55,103.25,71.25,174.02c48.7,70.77-48.54,52.46-80.04,135.12
			c-31.5,82.66,12.93,175.38,159.1,174.28c146.37-1.1,367.64,1.01,367.64,1.01s205.2,19.54,279.92-30.95
			c74.72-50.49-17.19-75.04,52.31-107.32c69.5-32.28,142.04-34.46,111.65-117.9s-73.4-66.16-101.15-88.47
			c-27.76-22.31-44.45-46.53-4.76-86.24c39.69-39.71,70.07-66.46,50-119.07c-28.78-75.48-98.64-85.22-175.38-53.22
			c-76.74,31.99-148.51,161.28-212.5,128.56S504.01,39.96,372.35,82.24z"/>
	</g>
	<g>
		
			<linearGradient id="SVGID_3_" gradientUnits="userSpaceOnUse" x1="5536.481" y1="1314.6616" x2="5783.3804" y2="1314.6616" gradientTransform="matrix(0.9989 -0.0482 0.0366 0.7594 -4820.6255 -290.2393)">
			<stop  offset="0" style="stop-color:#CB236D"/>
			<stop  offset="1" style="stop-color:#4C246D"/>
		</linearGradient>
		<path class="st2" d="M974.58,225.3c-1.08-3.38-7.45-3.29-8.58,0.13c-10.93,33-43.11,118.91-95.45,165.89
			c-85.22,76.5-139.63,197.4-81.47,256.62C789.09,647.94,1092.33,593.29,974.58,225.3z"/>
		<path class="st3" d="M967.4,272.06c-0.09,1.14-0.27,2.03-0.42,3.03l-0.51,2.91c-0.36,1.94-0.71,3.88-1.1,5.81
			c-0.76,3.86-1.59,7.71-2.44,11.56c-1.68,7.69-3.56,15.34-5.46,22.99c-3.9,15.26-8.25,30.41-12.95,45.45
			c-9.34,30.1-20.52,59.62-33.19,88.49c-6.34,14.44-13.31,28.59-20.62,42.56l-5.61,10.41c-1.88,3.46-3.9,6.86-5.84,10.29l-2.94,5.13
			l-3.08,5.05c-2.07,3.36-4.06,6.76-6.21,10.06c-8.49,13.3-17.64,26.16-27.27,38.64c-4.99,6.11-9.89,12.29-15.2,18.11
			c-5.1,6.01-10.72,11.56-16.17,17.24c-0.19,0.2-0.51,0.21-0.71,0.01c-0.2-0.19-0.21-0.5-0.02-0.7l0.01-0.01
			c10.73-11.48,20.94-23.42,30.45-35.92c9.42-12.56,18.36-25.47,26.64-38.81c8.22-13.37,16.12-26.94,23.36-40.88
			c7.23-13.93,14.03-28.09,20.45-42.42c6.37-14.35,12.35-28.88,17.94-43.56l4.11-11.04l3.95-11.1c2.59-7.42,5.15-14.84,7.56-22.32
			c4.86-14.94,9.33-30.01,13.45-45.18c2.04-7.59,4.05-15.19,5.87-22.83c0.92-3.82,1.8-7.65,2.65-11.48
			c0.44-1.92,0.83-3.84,1.24-5.76l0.58-2.89c0.17-0.94,0.37-1.97,0.47-2.8l0.02-0.15c0.03-0.27,0.28-0.46,0.55-0.43
			C967.23,271.56,967.42,271.8,967.4,272.06z"/>
	</g>
	<g>
		
			<linearGradient id="SVGID_4_" gradientUnits="userSpaceOnUse" x1="6252.3457" y1="1028.5165" x2="6381.9287" y2="1028.5165" gradientTransform="matrix(0.2512 0.968 -0.9015 0.2339 205.2908 -5731.0972)">
			<stop  offset="0" style="stop-color:#A737D5"/>
			<stop  offset="1" style="stop-color:#EF497A"/>
		</linearGradient>
		<path class="st4" d="M639.57,692.03c0,0,29.98-53.72,111.73-75.93c75.86-20.6,258.39-63.86,320.75-112.04
			c2.76-2.13,6.43,1.3,4.78,4.49c-17.71,34.19-68.5,115.86-169.73,165.3C776.55,737.61,639.57,692.03,639.57,692.03z"/>
		<path class="st5" d="M1020.76,552.99c-4.75,6.72-10.34,12.81-16.23,18.54l-2.2,2.17l-2.28,2.08l-4.57,4.15
			c-1.56,1.35-3.16,2.64-4.74,3.96c-1.59,1.3-3.15,2.66-4.8,3.89l-4.96,3.69l-2.48,1.85c-0.82,0.62-1.65,1.23-2.52,1.79
			c-3.42,2.29-6.82,4.63-10.27,6.89l-10.58,6.4l-1.32,0.8l-1.36,0.74l-2.72,1.47l-5.45,2.93c-14.67,7.53-29.81,14.22-45.49,19.36
			l-5.86,2l-2.93,1c-0.98,0.33-1.98,0.58-2.97,0.87l-11.9,3.37c-1.99,0.55-3.96,1.14-5.96,1.67l-5.99,1.46l-11.97,2.93
			c-3.99,0.97-8.01,1.86-12.01,2.79c-4.01,0.91-8,1.88-12.02,2.73c-8.03,1.76-16.06,3.48-24.12,5.09
			c-8.05,1.67-16.11,3.2-24.18,4.78l-24.23,4.45c-16.15,2.95-32.3,5.86-48.3,9.33c-4.02,0.81-7.98,1.83-11.96,2.78
			c-2,0.45-3.95,1.04-5.92,1.58c-1.96,0.56-3.95,1.07-5.9,1.68c-3.86,1.31-7.79,2.47-11.55,4.06l-2.85,1.12
			c-0.47,0.19-0.96,0.36-1.42,0.57l-1.38,0.66l-5.52,2.65l-0.03,0.01c-0.25,0.12-0.55,0.01-0.67-0.24
			c-0.11-0.24-0.02-0.52,0.21-0.65c7.21-4.03,14.86-7.21,22.67-9.86c1.95-0.66,3.93-1.23,5.9-1.85c1.97-0.6,3.93-1.24,5.93-1.74
			c3.98-1.06,7.94-2.18,11.95-3.1c16-3.86,32.15-6.92,48.24-10.13c16.1-3.19,32.2-6.36,48.25-9.73c16.05-3.35,32.05-6.96,48-10.72
			l11.94-2.93l5.97-1.46l5.91-1.63l11.81-3.27c0.98-0.28,1.98-0.52,2.94-0.84l2.9-0.97l5.81-1.95l5.81-1.95l2.9-0.97
			c0.96-0.34,1.9-0.74,2.86-1.1l11.41-4.46l2.85-1.12l2.79-1.26l5.58-2.52l5.58-2.52c0.94-0.4,1.85-0.87,2.75-1.34l2.73-1.39
			l5.46-2.78l2.73-1.39l1.36-0.7l1.33-0.76l10.63-6.1c3.46-2.16,6.89-4.4,10.33-6.59c0.87-0.54,1.71-1.12,2.54-1.72l2.5-1.77l5-3.55
			c1.67-1.18,3.23-2.5,4.87-3.73c1.61-1.26,3.25-2.48,4.85-3.76l4.69-3.96l2.34-1.99l2.26-2.08c1.49-1.4,3.05-2.74,4.49-4.19
			c1.44-1.45,2.91-2.88,4.33-4.35c2.8-2.98,5.62-5.97,8.1-9.24c0.02-0.03,0.06-0.04,0.09-0.02
			C1020.77,552.93,1020.78,552.97,1020.76,552.99z"/>
	</g>
	<g class="st6">
		
			<linearGradient id="SVGID_5_" gradientUnits="userSpaceOnUse" x1="2670.3687" y1="-2136.0051" x2="2947.1467" y2="-2136.0051" gradientTransform="matrix(0.4804 -0.877 0.877 0.4804 829.894 3866.3352)">
			<stop  offset="0" style="stop-color:#A737D5"/>
			<stop  offset="1" style="stop-color:#EF497A"/>
		</linearGradient>
		<path class="st7" d="M216.09,175.61c-10.68,45.28-62.04,311.3,178.93,404.35c0,0,78.9-166.43-172.39-406.3
			C220.43,171.55,216.79,172.65,216.09,175.61z"/>
		<path class="st8" d="M236.09,218.27c2.59,14.61,5.48,29.18,8.49,43.71c3.02,14.54,6.21,29.04,9.57,43.5
			c6.72,28.92,14.08,57.69,22.32,86.21c8.26,28.5,17.35,56.78,27.96,84.46c5.26,13.86,11.02,27.52,17.28,40.93
			c6.28,13.39,13.1,26.54,20.9,39.06l0,0.01c0.58,0.94,0.3,2.17-0.64,2.76c-0.94,0.58-2.17,0.3-2.76-0.64l-0.01-0.01
			c-7.84-12.75-14.63-26.07-20.87-39.61c-6.22-13.55-11.92-27.32-17.12-41.27c-10.47-27.88-19.4-56.28-27.49-84.89
			c-8.07-28.62-15.26-57.48-21.79-86.48c-3.27-14.5-6.37-29.04-9.3-43.61c-2.92-14.57-5.72-29.16-8.22-43.83
			c-0.08-0.46,0.23-0.9,0.69-0.98C235.57,217.5,236.01,217.8,236.09,218.27L236.09,218.27z"/>
	</g>
	<g>
		
			<linearGradient id="SVGID_6_" gradientUnits="userSpaceOnUse" x1="9243.4893" y1="-1033.228" x2="9373.0684" y2="-1033.228" gradientTransform="matrix(-0.6825 0.7309 0.7309 0.6825 7350.9507 -5564.6128)">
			<stop  offset="0" style="stop-color:#A737D5"/>
			<stop  offset="1" style="stop-color:#EF497A"/>
		</linearGradient>
		<path class="st9" d="M421.39,712.36c0,0-3.01-63.66-68.84-126.44c-61.08-58.25-210.98-192.78-246.71-268.52
			c-1.58-3.35-6.59-2.22-6.53,1.49c0.64,39.79,10.08,139.31,81.42,236.61C272.73,680.98,421.39,712.36,421.39,712.36z"/>
		<path class="st5" d="M131.04,387.98c0.8,4.32,2.08,8.53,3.32,12.73l2.05,6.25c0.7,2.08,1.52,4.11,2.27,6.17
			c0.39,1.02,0.76,2.06,1.16,3.07l1.28,3.03l2.56,6.05l2.81,5.94c0.96,1.97,1.8,3.99,2.85,5.91c7.87,15.64,17.01,30.64,27.4,44.71
			c10.33,14.1,21.4,27.7,33.55,40.29l4.5,4.78l2.25,2.38l2.36,2.28l9.45,9.1c1.59,1.51,3.13,3.05,4.75,4.53l4.87,4.43l9.73,8.86
			c13.08,11.7,26.26,23.29,39.62,34.68c13.35,11.4,26.82,22.66,40.3,33.94c13.46,11.29,27.03,22.48,40.09,34.29
			c3.3,2.92,6.45,6,9.65,9.02c1.62,1.49,3.14,3.09,4.69,4.66c1.54,1.58,3.12,3.12,4.62,4.73c6.02,6.45,11.65,13.29,16.5,20.67
			c0.15,0.23,0.09,0.54-0.14,0.69c-0.22,0.15-0.52,0.09-0.68-0.12l-0.02-0.02l-3.91-5.26l-0.98-1.31c-0.33-0.44-0.7-0.84-1.05-1.26
			l-2.13-2.49c-2.76-3.39-5.87-6.48-8.85-9.67c-1.53-1.56-3.13-3.06-4.7-4.59c-1.58-1.52-3.12-3.07-4.77-4.51
			c-3.26-2.93-6.46-5.91-9.82-8.74c-13.25-11.48-26.9-22.54-40.53-33.62l-20.44-16.65c-6.76-5.62-13.54-11.21-20.24-16.91
			c-6.73-5.66-13.4-11.39-20.04-17.16c-3.34-2.86-6.6-5.81-9.9-8.72l-9.86-8.77l-9.76-8.88l-4.88-4.44
			c-1.63-1.48-3.17-3.06-4.77-4.58l-9.48-9.23l-2.37-2.31l-2.26-2.41l-4.51-4.84l-4.51-4.84c-1.49-1.63-3.05-3.19-4.43-4.92
			l-8.5-10.15c-2.91-3.32-5.45-6.94-8.15-10.43c-2.64-3.53-5.42-6.97-7.81-10.68c-10.18-14.42-19.07-29.74-26.65-45.65
			c-1.02-1.96-1.82-4.01-2.72-6.03l-2.62-6.07l-2.37-6.17l-1.18-3.09c-0.37-1.04-0.71-2.09-1.06-3.13
			c-2.89-8.31-5.33-16.82-6.69-25.51c-0.01-0.03,0.02-0.07,0.05-0.07C131.01,387.92,131.04,387.95,131.04,387.98z"/>
	</g>
	<g>
		
			<linearGradient id="SVGID_7_" gradientUnits="userSpaceOnUse" x1="1094.6774" y1="290.7782" x2="550.0278" y2="1005.8054" gradientTransform="matrix(0.9999 -0.0105 0.0105 0.9999 -18.2842 -44.5455)">
			<stop  offset="0" style="stop-color:#FDF53F"/>
			<stop  offset="1" style="stop-color:#D93C65"/>
		</linearGradient>
		<path class="st10" d="M880.24,260.95l17.57,0.92c8.69,0.45,15.5,7.65,15.46,16.36l-1.77,417c-0.04,9.5-7.8,17.14-17.3,17.04
			l-120.67-1.31L880.24,260.95z"/>
		
			<linearGradient id="SVGID_8_" gradientUnits="userSpaceOnUse" x1="1046.455" y1="517.5222" x2="617.2382" y2="549.1782" gradientTransform="matrix(0.9999 -0.0105 0.0105 0.9999 -18.2842 -44.5455)">
			<stop  offset="0" style="stop-color:#53D8FF"/>
			<stop  offset="1" style="stop-color:#3840F7"/>
		</linearGradient>
		<path class="st11" d="M669.54,263.5l222.61-13.1c4.6-0.27,8.46,3.44,8.36,8.06l-9.24,429.77c-0.2,9.17-7.83,16.43-17,16.15
			l-156.61-4.65L669.54,263.5z"/>
		
			<linearGradient id="SVGID_9_" gradientUnits="userSpaceOnUse" x1="935.5818" y1="523.3895" x2="577.1239" y2="541.0797" gradientTransform="matrix(0.9999 -0.0105 0.0105 0.9999 -18.2842 -44.5455)">
			<stop  offset="0" style="stop-color:#53D8FF"/>
			<stop  offset="1" style="stop-color:#3840F7"/>
		</linearGradient>
		<path class="st12" d="M681.52,272.41l195.63-27.05c5.03-0.7,9.5,3.24,9.44,8.32l-4.99,433.42c-0.07,6.11-4.92,11.1-11.02,11.34
			l-144.07,5.72L681.52,272.41z"/>
		
			<linearGradient id="SVGID_10_" gradientUnits="userSpaceOnUse" x1="913.4838" y1="491.0372" x2="460.9953" y2="615.3318" gradientTransform="matrix(0.9999 -0.0105 0.0105 0.9999 -18.2842 -44.5455)">
			<stop  offset="0" style="stop-color:#FDF53F"/>
			<stop  offset="1" style="stop-color:#D93C65"/>
		</linearGradient>
		<path class="st13" d="M629.81,251.41l214.63-15.62c10.7-0.78,19.83,7.63,19.94,18.35l4.63,442.5c0.09,8.97-7.1,16.32-16.08,16.42
			l-198.01,2.07c-9.34,0.1-17.13-7.13-17.73-16.45l-27.31-424.41C609.13,262.47,618.02,252.27,629.81,251.41z"/>
		
			<linearGradient id="SVGID_11_" gradientUnits="userSpaceOnUse" x1="887.1934" y1="395.5359" x2="437.6876" y2="519.0112" gradientTransform="matrix(0.9999 -0.0105 0.0105 0.9999 -18.2842 -44.5455)">
			<stop  offset="0" style="stop-color:#FDF53F"/>
			<stop  offset="1" style="stop-color:#D93C65"/>
		</linearGradient>
		<path class="st14" d="M872.93,409.78l-13.84,0.15c-5.4,0.06-9.82-4.27-9.88-9.67l-1.18-112.5c-0.06-5.4,4.27-9.82,9.67-9.88
			l13.84-0.14c5.4-0.06,9.82,4.27,9.88,9.67l1.18,112.5C882.66,405.3,878.33,409.72,872.93,409.78z"/>
	</g>
	<g>
		<g>
			<g>
				<linearGradient id="SVGID_12_" gradientUnits="userSpaceOnUse" x1="890.9238" y1="435.3463" x2="885.2565" y2="959.5615">
					<stop  offset="0" style="stop-color:#53D8FF"/>
					<stop  offset="1" style="stop-color:#3840F7"/>
				</linearGradient>
				<path class="st15" d="M785.48,485.85c-1.12,40.12-4.77,178.51-3.03,227.55c0.18,5.2,4.89,9.37,10.76,9.54
					c29.02,0.84,135.42,2.97,182.89,1.21c9.89-0.37,17.75-7.46,17.96-16.22c0.99-42.11,3.16-160.55-2.01-214.81
					c-0.62-6.5-6.38-11.68-13.72-12.33c-31.61-2.8-138.46-9.64-179.48-7.29C791.46,473.92,785.67,479.28,785.48,485.85z"/>
				<linearGradient id="SVGID_13_" gradientUnits="userSpaceOnUse" x1="873.7205" y1="580.6443" x2="893.8224" y2="497.3187">
					<stop  offset="0" style="stop-color:#2B3582"/>
					<stop  offset="1" style="stop-color:#150E42"/>
				</linearGradient>
				<path class="st16" d="M798.43,495.19c-1.56,9.38-6.49,40.57-4.93,52.11c0.23,1.69,5.41,3.05,11.98,3.15
					c27.05,0.41,119.33,1.3,159,0.49c7.14-0.15,12.75-1.63,13.14-3.46c2.01-9.57,7.78-38.61,6.28-50.02
					c-0.24-1.82-5.74-3.31-12.81-3.47c-29.26-0.67-127.32-2.28-161.04-1.8C803.74,492.27,798.7,493.57,798.43,495.19z"/>
				<path class="st17" d="M971.59,503.34c-1.44-1.48-3.4-2.34-5.47-2.37l-152-2.42c-4.06-0.06-7.49,3.01-7.87,7.05l-3.16,33.72
					c-0.26,2.76,4.28,5.09,10.08,5.16l149.44,1.81c5.78,0.07,10.56-2.14,10.61-4.89l0.56-32.52
					C973.81,506.82,973.02,504.82,971.59,503.34z"/>
			</g>
			<g>
				<linearGradient id="SVGID_14_" gradientUnits="userSpaceOnUse" x1="800" y1="584" x2="835" y2="584">
					<stop  offset="0" style="stop-color:#2B3582"/>
					<stop  offset="1" style="stop-color:#150E42"/>
				</linearGradient>
				<path class="st18" d="M835,584.14c0,6-4.86,10.86-10.86,10.86h-13.28c-6,0-10.86-4.86-10.86-10.86v-0.28
					c0-6,4.86-10.86,10.86-10.86h13.28c6,0,10.86,4.86,10.86,10.86V584.14z"/>
				<linearGradient id="SVGID_15_" gradientUnits="userSpaceOnUse" x1="849" y1="584" x2="884" y2="584">
					<stop  offset="0" style="stop-color:#2B3582"/>
					<stop  offset="1" style="stop-color:#150E42"/>
				</linearGradient>
				<path class="st19" d="M884,584.14c0,6-4.86,10.86-10.86,10.86h-13.28c-6,0-10.86-4.86-10.86-10.86v-0.28
					c0-6,4.86-10.86,10.86-10.86h13.28c6,0,10.86,4.86,10.86,10.86V584.14z"/>
				<linearGradient id="SVGID_16_" gradientUnits="userSpaceOnUse" x1="896" y1="584" x2="931" y2="584">
					<stop  offset="0" style="stop-color:#2B3582"/>
					<stop  offset="1" style="stop-color:#150E42"/>
				</linearGradient>
				<path class="st20" d="M931,584.14c0,6-4.86,10.86-10.86,10.86h-13.28c-6,0-10.86-4.86-10.86-10.86v-0.28
					c0-6,4.86-10.86,10.86-10.86h13.28c6,0,10.86,4.86,10.86,10.86V584.14z"/>
				<linearGradient id="SVGID_17_" gradientUnits="userSpaceOnUse" x1="972.308" y1="572.2562" x2="894.2925" y2="664.2447">
					<stop  offset="0" style="stop-color:#E40045"/>
					<stop  offset="1" style="stop-color:#5C0E16"/>
				</linearGradient>
				<path class="st21" d="M979,585c0,6.08-4.92,11-11,11h-13c-6.08,0-11-4.92-11-11l0,0c0-6.08,4.92-11,11-11h13
					C974.08,574,979,578.92,979,585L979,585z"/>
			</g>
			<g>
				<linearGradient id="SVGID_18_" gradientUnits="userSpaceOnUse" x1="800" y1="618" x2="835" y2="618">
					<stop  offset="0" style="stop-color:#2B3582"/>
					<stop  offset="1" style="stop-color:#150E42"/>
				</linearGradient>
				<path class="st22" d="M835,618.14c0,6-4.86,10.86-10.86,10.86h-13.28c-6,0-10.86-4.86-10.86-10.86v-0.28
					c0-6,4.86-10.86,10.86-10.86h13.28c6,0,10.86,4.86,10.86,10.86V618.14z"/>
				<linearGradient id="SVGID_19_" gradientUnits="userSpaceOnUse" x1="849" y1="618" x2="884" y2="618">
					<stop  offset="0" style="stop-color:#2B3582"/>
					<stop  offset="1" style="stop-color:#150E42"/>
				</linearGradient>
				<path class="st23" d="M884,618.14c0,6-4.86,10.86-10.86,10.86h-13.28c-6,0-10.86-4.86-10.86-10.86v-0.28
					c0-6,4.86-10.86,10.86-10.86h13.28c6,0,10.86,4.86,10.86,10.86V618.14z"/>
				<linearGradient id="SVGID_20_" gradientUnits="userSpaceOnUse" x1="896" y1="618" x2="931" y2="618">
					<stop  offset="0" style="stop-color:#2B3582"/>
					<stop  offset="1" style="stop-color:#150E42"/>
				</linearGradient>
				<path class="st24" d="M931,618.14c0,6-4.86,10.86-10.86,10.86h-13.28c-6,0-10.86-4.86-10.86-10.86v-0.28
					c0-6,4.86-10.86,10.86-10.86h13.28c6,0,10.86,4.86,10.86,10.86V618.14z"/>
				<linearGradient id="SVGID_21_" gradientUnits="userSpaceOnUse" x1="945" y1="618" x2="980" y2="618">
					<stop  offset="0" style="stop-color:#2B3582"/>
					<stop  offset="1" style="stop-color:#150E42"/>
				</linearGradient>
				<path class="st25" d="M980,618.14c0,6-4.86,10.86-10.86,10.86h-13.28c-6,0-10.86-4.86-10.86-10.86v-0.28
					c0-6,4.86-10.86,10.86-10.86h13.28c6,0,10.86,4.86,10.86,10.86V618.14z"/>
			</g>
			<g>
				<linearGradient id="SVGID_22_" gradientUnits="userSpaceOnUse" x1="800" y1="650" x2="835" y2="650">
					<stop  offset="0" style="stop-color:#2B3582"/>
					<stop  offset="1" style="stop-color:#150E42"/>
				</linearGradient>
				<path class="st26" d="M835,650.14c0,6-4.86,10.86-10.86,10.86h-13.28c-6,0-10.86-4.86-10.86-10.86v-0.28
					c0-6,4.86-10.86,10.86-10.86h13.28c6,0,10.86,4.86,10.86,10.86V650.14z"/>
				<linearGradient id="SVGID_23_" gradientUnits="userSpaceOnUse" x1="849" y1="650" x2="884" y2="650">
					<stop  offset="0" style="stop-color:#2B3582"/>
					<stop  offset="1" style="stop-color:#150E42"/>
				</linearGradient>
				<path class="st27" d="M884,650.14c0,6-4.86,10.86-10.86,10.86h-13.28c-6,0-10.86-4.86-10.86-10.86v-0.28
					c0-6,4.86-10.86,10.86-10.86h13.28c6,0,10.86,4.86,10.86,10.86V650.14z"/>
				<linearGradient id="SVGID_24_" gradientUnits="userSpaceOnUse" x1="896" y1="650" x2="931" y2="650">
					<stop  offset="0" style="stop-color:#2B3582"/>
					<stop  offset="1" style="stop-color:#150E42"/>
				</linearGradient>
				<path class="st28" d="M931,650.14c0,6-4.86,10.86-10.86,10.86h-13.28c-6,0-10.86-4.86-10.86-10.86v-0.28
					c0-6,4.86-10.86,10.86-10.86h13.28c6,0,10.86,4.86,10.86,10.86V650.14z"/>
			</g>
			<g>
				<linearGradient id="SVGID_25_" gradientUnits="userSpaceOnUse" x1="800" y1="683" x2="835" y2="683">
					<stop  offset="0" style="stop-color:#2B3582"/>
					<stop  offset="1" style="stop-color:#150E42"/>
				</linearGradient>
				<path class="st29" d="M835,683.14c0,6-4.86,10.86-10.86,10.86h-13.28c-6,0-10.86-4.86-10.86-10.86v-0.28
					c0-6,4.86-10.86,10.86-10.86h13.28c6,0,10.86,4.86,10.86,10.86V683.14z"/>
				<linearGradient id="SVGID_26_" gradientUnits="userSpaceOnUse" x1="849" y1="683" x2="884" y2="683">
					<stop  offset="0" style="stop-color:#2B3582"/>
					<stop  offset="1" style="stop-color:#150E42"/>
				</linearGradient>
				<path class="st30" d="M884,683.14c0,6-4.86,10.86-10.86,10.86h-13.28c-6,0-10.86-4.86-10.86-10.86v-0.28
					c0-6,4.86-10.86,10.86-10.86h13.28c6,0,10.86,4.86,10.86,10.86V683.14z"/>
				<linearGradient id="SVGID_27_" gradientUnits="userSpaceOnUse" x1="896" y1="683" x2="931" y2="683">
					<stop  offset="0" style="stop-color:#2B3582"/>
					<stop  offset="1" style="stop-color:#150E42"/>
				</linearGradient>
				<path class="st31" d="M931,683.14c0,6-4.86,10.86-10.86,10.86h-13.28c-6,0-10.86-4.86-10.86-10.86v-0.28
					c0-6,4.86-10.86,10.86-10.86h13.28c6,0,10.86,4.86,10.86,10.86V683.14z"/>
			</g>
			<linearGradient id="SVGID_28_" gradientUnits="userSpaceOnUse" x1="947" y1="667" x2="975" y2="667">
				<stop  offset="0" style="stop-color:#2B3582"/>
				<stop  offset="1" style="stop-color:#150E42"/>
			</linearGradient>
			<path class="st32" d="M975,680.25c0,7.59-6.16,13.75-13.75,13.75h-0.5c-7.59,0-13.75-6.16-13.75-13.75v-26.5
				c0-7.59,6.16-13.75,13.75-13.75h0.5c7.59,0,13.75,6.16,13.75,13.75V680.25z"/>
		</g>
		<g class="st33">
			<path class="st34" d="M956,508.64c0,1.3-1.06,2.36-2.36,2.36h-6.28c-1.3,0-2.36-1.06-2.36-2.36v-0.28c0-1.3,1.06-2.36,2.36-2.36
				h6.28c1.3,0,2.36,1.06,2.36,2.36V508.64z"/>
			<path class="st34" d="M956,540.64c0,1.3-1.06,2.36-2.36,2.36h-6.28c-1.3,0-2.36-1.06-2.36-2.36v-0.28c0-1.3,1.06-2.36,2.36-2.36
				h6.28c1.3,0,2.36,1.06,2.36,2.36V540.64z"/>
			<path class="st34" d="M947,520.64c0,1.3-1.06,2.36-2.36,2.36h-0.28c-1.3,0-2.36-1.06-2.36-2.36v-6.28c0-1.3,1.06-2.36,2.36-2.36
				h0.28c1.3,0,2.36,1.06,2.36,2.36V520.64z"/>
			<path class="st34" d="M947,534.64c0,1.3-1.06,2.36-2.36,2.36h-0.28c-1.3,0-2.36-1.06-2.36-2.36v-6.28c0-1.3,1.06-2.36,2.36-2.36
				h0.28c1.3,0,2.36,1.06,2.36,2.36V534.64z"/>
			<path class="st34" d="M963,520.64c0,1.3-1.06,2.36-2.36,2.36h-0.28c-1.3,0-2.36-1.06-2.36-2.36v-6.28c0-1.3,1.06-2.36,2.36-2.36
				h0.28c1.3,0,2.36,1.06,2.36,2.36V520.64z"/>
			<path class="st34" d="M963,534.64c0,1.3-1.06,2.36-2.36,2.36h-0.28c-1.3,0-2.36-1.06-2.36-2.36v-6.28c0-1.3,1.06-2.36,2.36-2.36
				h0.28c1.3,0,2.36,1.06,2.36,2.36V534.64z"/>
		</g>
	</g>
	<g>
		
			<linearGradient id="SVGID_29_" gradientUnits="userSpaceOnUse" x1="752.9317" y1="200.813" x2="305.035" y2="916.0022" gradientTransform="matrix(0.9996 0.0287 -0.0287 0.9996 -62.5926 6.4878)">
			<stop  offset="0" style="stop-color:#2B3582"/>
			<stop  offset="1" style="stop-color:#150E42"/>
		</linearGradient>
		<path class="st35" d="M365.77,173.13l331.37,6.53c18.28,0.36,33.07,14.98,33.64,33.26l14.99,480.9
			c0.45,14.3-11.04,26.13-25.35,26.11l-379.92-0.58c-13.44-0.02-24.26-11.07-23.99-24.51l9.53-483.51
			C326.46,189.81,344.25,172.7,365.77,173.13z"/>
		<path class="st34" d="M396.19,712.37c-0.01,0-0.02,0-0.03,0l-42.49-1.39c-14.26-0.47-25.63-12.45-25.34-26.71l1.27-64.16
			c0.01-0.55,0.46-0.98,1-0.98c0.01,0,0.01,0,0.02,0c0.55,0.01,0.99,0.47,0.98,1.02l-1.27,64.16
			c-0.26,13.17,10.24,24.24,23.41,24.67l42.49,1.39c0.55,0.02,0.98,0.48,0.97,1.03C397.17,711.94,396.72,712.37,396.19,712.37z"/>
		
			<linearGradient id="SVGID_30_" gradientUnits="userSpaceOnUse" x1="-109.0862" y1="3795.1709" x2="277.4565" y2="3224.8845" gradientTransform="matrix(0.9998 0.0197 -0.0197 0.9998 454.053 -2980.0952)">
			<stop  offset="0" style="stop-color:#A737D5"/>
			<stop  offset="1" style="stop-color:#EF497A"/>
		</linearGradient>
		<path class="st36" d="M366.87,169.25c45.13,7.03,200.36,29.08,329.21,21.74c5.88-0.33,10.88,4.21,11.08,10.09l16.13,483.07
			c0.22,6.62-4.94,12.18-11.57,12.44c-54.17,2.14-277.26,10.12-356.57,0.23c-4.83-0.6-8.42-4.75-8.35-9.61l7.01-506.92
			C353.9,173.4,360.06,168.19,366.87,169.25z"/>
		<path class="st37" d="M371.47,181.87c43.43,6.76,192.82,27.98,316.81,20.92c5.65-0.32,10.47,4.05,10.66,9.71l15.53,464.88
			c0.21,6.37-4.76,11.72-11.13,11.97c-52.13,2.05-266.82,9.74-343.15,0.22c-4.65-0.58-8.1-4.57-8.04-9.25l6.75-487.83
			C358.99,185.86,364.92,180.85,371.47,181.87z"/>
		
			<linearGradient id="SVGID_31_" gradientUnits="userSpaceOnUse" x1="655.8572" y1="37.7361" x2="503.3157" y2="238.4009" gradientTransform="matrix(0.9996 0.0287 -0.0287 0.9996 -62.5926 6.4878)">
			<stop  offset="0" style="stop-color:#2B3582"/>
			<stop  offset="1" style="stop-color:#150E42"/>
		</linearGradient>
		<path class="st38" d="M553.3,111.3c-11.81-8.56-22.22-8.6-29.59-6.59c-6.72,1.84-11.18,8.21-10.68,15.16l2.48,34.55l37.53,4.08
			C553.04,158.5,576.45,128.09,553.3,111.3z M536.22,138.79c-5.18-0.1-9.29-4.38-9.19-9.56c0.1-5.18,4.38-9.29,9.56-9.19
			c5.18,0.1,9.29,4.38,9.19,9.56C545.67,134.78,541.39,138.9,536.22,138.79z"/>
		<path class="st34" d="M518.9,140.82c-0.65-0.25-1.13-0.86-1.18-1.6l-0.39-5.5c-0.07-1.03,0.7-1.92,1.72-1.99
			c1.02-0.08,1.92,0.7,1.99,1.72l0.39,5.5c0.07,1.03-0.7,1.92-1.72,1.99C519.42,140.96,519.15,140.91,518.9,140.82z M518.12,130.03
			c-0.65-0.25-1.13-0.86-1.18-1.6l-0.3-4.18c-0.51-7.08,4.07-13.56,10.88-15.43c4.66-1.28,9.45-1.38,14.21-0.3
			c0.99,0.24,1.63,1.22,1.41,2.23c-0.23,1-1.22,1.63-2.23,1.41c-4.17-0.94-8.34-0.85-12.41,0.26c-5.1,1.4-8.53,6.26-8.15,11.57
			l0.3,4.18c0.07,1.03-0.7,1.92-1.72,1.99C518.65,130.17,518.37,130.13,518.12,130.03z"/>
		
			<linearGradient id="SVGID_32_" gradientUnits="userSpaceOnUse" x1="213.8262" y1="3052.0952" x2="61.3806" y2="3252.6338" gradientTransform="matrix(0.9998 0.0197 -0.0197 0.9998 454.053 -2980.0952)">
			<stop  offset="0" style="stop-color:#2B3582"/>
			<stop  offset="1" style="stop-color:#150E42"/>
		</linearGradient>
		<path class="st39" d="M463.76,175.69l0.34-17.34c0.12-5.99,5.17-10.68,11.15-10.36l119.46,6.45c5.3,0.29,9.52,4.56,9.73,9.86
			l0.67,16.68L463.76,175.69z"/>
		<path class="st34" d="M508.77,155.29c-0.01,0-0.01,0-0.02,0l-5.14-0.1c-0.55-0.01-0.99-0.47-0.98-1.02
			c0.01-0.55,0.51-0.99,1.02-0.98l5.14,0.1c0.55,0.01,0.99,0.47,0.98,1.02C509.76,154.85,509.31,155.29,508.77,155.29z"/>
		<path class="st34" d="M469.68,171.21c-0.71-0.28-1.2-0.97-1.19-1.77l0.14-7.01c0.06-2.88,1.23-5.57,3.31-7.56
			c2.08-2,4.81-3.07,7.69-3.01l18.9,0.37c1.02,0.02,1.85,0.87,1.82,1.9c-0.02,1.03-0.87,1.85-1.9,1.83l-18.9-0.37
			c-3.89-0.08-7.12,3.03-7.2,6.92l-0.14,7.01c-0.02,1.03-0.87,1.85-1.9,1.83C470.09,171.33,469.88,171.28,469.68,171.21z"/>
		
			<linearGradient id="SVGID_33_" gradientUnits="userSpaceOnUse" x1="194.615" y1="3064.3625" x2="89.355" y2="3257.6414" gradientTransform="matrix(0.9998 0.0197 -0.0197 0.9998 454.053 -2980.0952)">
			<stop  offset="0" style="stop-color:#2B3582"/>
			<stop  offset="1" style="stop-color:#150E42"/>
		</linearGradient>
		<path class="st40" d="M426.43,168.61l209.04,4.12c7.52,0.15,13.84,5.68,14.97,13.12l0.16,1.03c1.24,8.14-5.15,15.44-13.38,15.27
			l-214.47-4.23c-4.93-0.1-8.77-4.29-8.44-9.21l0.65-9.59C415.37,173.11,420.41,168.49,426.43,168.61z"/>
		<g class="st41">
			<g>
				<path class="st34" d="M668,230.75c0,3.45-2.8,6.25-6.25,6.25h-246.5c-3.45,0-6.25-2.8-6.25-6.25v-0.5c0-3.45,2.8-6.25,6.25-6.25
					h246.5c3.45,0,6.25,2.8,6.25,6.25V230.75z"/>
				<path class="st34" d="M668,253.75c0,3.45-2.8,6.25-6.25,6.25h-246.5c-3.45,0-6.25-2.8-6.25-6.25v-0.5c0-3.45,2.8-6.25,6.25-6.25
					h246.5c3.45,0,6.25,2.8,6.25,6.25V253.75z"/>
			</g>
			<g>
				<path class="st34" d="M493.63,295c0,3.41-3.58,6-8,6h-89c-4.42,0-8-2.59-8-6l0,0c0-3.41,3.58-6,8-6h89
					C490.05,289,493.63,291.59,493.63,295L493.63,295z"/>
				<path class="st34" d="M533.63,322.5c0,3.18-3.58,5.5-8,5.5h-89c-4.42,0-8-2.32-8-5.5l0,0c0-3.18,3.58-5.5,8-5.5h89
					C530.05,317,533.63,319.32,533.63,322.5L533.63,322.5z"/>
				<path class="st34" d="M533.63,343.5c0,3.18-3.58,5.5-8,5.5h-89c-4.42,0-8-2.32-8-5.5l0,0c0-3.18,3.58-5.5,8-5.5h89
					C530.05,338,533.63,340.32,533.63,343.5L533.63,343.5z"/>
				<path class="st34" d="M533.63,365.5c0,3.18-3.58,5.5-8,5.5h-89c-4.42,0-8-2.32-8-5.5l0,0c0-3.18,3.58-5.5,8-5.5h89
					C530.05,360,533.63,362.32,533.63,365.5L533.63,365.5z"/>
				<path class="st34" d="M658,322.5c0,3.04-2.46,5.5-5.5,5.5h-27c-3.04,0-5.5-2.46-5.5-5.5l0,0c0-3.04,2.46-5.5,5.5-5.5h27
					C655.54,317,658,319.46,658,322.5L658,322.5z"/>
				<path class="st34" d="M658,343.5c0,3.04-2.46,5.5-5.5,5.5h-27c-3.04,0-5.5-2.46-5.5-5.5l0,0c0-3.04,2.46-5.5,5.5-5.5h27
					C655.54,338,658,340.46,658,343.5L658,343.5z"/>
				<path class="st34" d="M658,365.5c0,3.04-2.46,5.5-5.5,5.5h-27c-3.04,0-5.5-2.46-5.5-5.5l0,0c0-3.04,2.46-5.5,5.5-5.5h27
					C655.54,360,658,362.46,658,365.5L658,365.5z"/>
				<path class="st34" d="M673,395c0,1.1-0.9,2-2,2H528c-1.1,0-2-0.9-2-2l0,0c0-1.1,0.9-2,2-2h143C672.1,393,673,393.9,673,395
					L673,395z"/>
			</g>
			<g>
				<path class="st34" d="M493.63,429c0,3.41-3.58,6-8,6h-89c-4.42,0-8-2.59-8-6l0,0c0-3.41,3.58-6,8-6h89
					C490.05,423,493.63,425.59,493.63,429L493.63,429z"/>
				<path class="st34" d="M533.63,456.5c0,3.18-3.58,5.5-8,5.5h-89c-4.42,0-8-2.32-8-5.5l0,0c0-3.18,3.58-5.5,8-5.5h89
					C530.05,451,533.63,453.32,533.63,456.5L533.63,456.5z"/>
				<path class="st34" d="M533.63,477.5c0,3.18-3.58,5.5-8,5.5h-89c-4.42,0-8-2.32-8-5.5l0,0c0-3.18,3.58-5.5,8-5.5h89
					C530.05,472,533.63,474.32,533.63,477.5L533.63,477.5z"/>
				<path class="st34" d="M533.63,499.5c0,3.18-3.58,5.5-8,5.5h-89c-4.42,0-8-2.32-8-5.5l0,0c0-3.18,3.58-5.5,8-5.5h89
					C530.05,494,533.63,496.32,533.63,499.5L533.63,499.5z"/>
				<path class="st34" d="M658,456.5c0,3.04-2.46,5.5-5.5,5.5h-27c-3.04,0-5.5-2.46-5.5-5.5l0,0c0-3.04,2.46-5.5,5.5-5.5h27
					C655.54,451,658,453.46,658,456.5L658,456.5z"/>
				<path class="st34" d="M658,477.5c0,3.04-2.46,5.5-5.5,5.5h-27c-3.04,0-5.5-2.46-5.5-5.5l0,0c0-3.04,2.46-5.5,5.5-5.5h27
					C655.54,472,658,474.46,658,477.5L658,477.5z"/>
				<path class="st34" d="M658,499.5c0,3.04-2.46,5.5-5.5,5.5h-27c-3.04,0-5.5-2.46-5.5-5.5l0,0c0-3.04,2.46-5.5,5.5-5.5h27
					C655.54,494,658,496.46,658,499.5L658,499.5z"/>
				<path class="st34" d="M673,529c0,1.1-0.9,2-2,2H528c-1.1,0-2-0.9-2-2l0,0c0-1.1,0.9-2,2-2h143C672.1,527,673,527.9,673,529
					L673,529z"/>
			</g>
			<g>
				<path class="st34" d="M493.63,561c0,3.41-3.58,6-8,6h-89c-4.42,0-8-2.59-8-6l0,0c0-3.41,3.58-6,8-6h89
					C490.05,555,493.63,557.59,493.63,561L493.63,561z"/>
				<path class="st34" d="M533.63,588.5c0,3.18-3.58,5.5-8,5.5h-89c-4.42,0-8-2.32-8-5.5l0,0c0-3.18,3.58-5.5,8-5.5h89
					C530.05,583,533.63,585.32,533.63,588.5L533.63,588.5z"/>
				<path class="st34" d="M533.63,609.5c0,3.18-3.58,5.5-8,5.5h-89c-4.42,0-8-2.32-8-5.5l0,0c0-3.18,3.58-5.5,8-5.5h89
					C530.05,604,533.63,606.32,533.63,609.5L533.63,609.5z"/>
				<path class="st34" d="M533.63,631.5c0,3.18-3.58,5.5-8,5.5h-89c-4.42,0-8-2.32-8-5.5l0,0c0-3.18,3.58-5.5,8-5.5h89
					C530.05,626,533.63,628.32,533.63,631.5L533.63,631.5z"/>
				<path class="st34" d="M658,590.5c0,3.04-2.46,5.5-5.5,5.5h-27c-3.04,0-5.5-2.46-5.5-5.5l0,0c0-3.04,2.46-5.5,5.5-5.5h27
					C655.54,585,658,587.46,658,590.5L658,590.5z"/>
				<path class="st34" d="M658,611.5c0,3.04-2.46,5.5-5.5,5.5h-27c-3.04,0-5.5-2.46-5.5-5.5l0,0c0-3.04,2.46-5.5,5.5-5.5h27
					C655.54,606,658,608.46,658,611.5L658,611.5z"/>
				<path class="st34" d="M658,633.5c0,3.04-2.46,5.5-5.5,5.5h-27c-3.04,0-5.5-2.46-5.5-5.5l0,0c0-3.04,2.46-5.5,5.5-5.5h27
					C655.54,628,658,630.46,658,633.5L658,633.5z"/>
				<path class="st34" d="M673,663c0,1.1-0.9,2-2,2H528c-1.1,0-2-0.9-2-2l0,0c0-1.1,0.9-2,2-2h143C672.1,661,673,661.9,673,663
					L673,663z"/>
			</g>
		</g>
	</g>
	<g>
		<g>
			<linearGradient id="SVGID_34_" gradientUnits="userSpaceOnUse" x1="111.8827" y1="322.4329" x2="144.9137" y2="284.0934">
				<stop  offset="0" style="stop-color:#FDF53F"/>
				<stop  offset="1" style="stop-color:#D93C65"/>
			</linearGradient>
			<circle class="st42" cx="145.58" cy="283.32" r="24.63"/>
			<linearGradient id="SVGID_35_" gradientUnits="userSpaceOnUse" x1="163.5784" y1="256.1299" x2="65.9048" y2="403.6868">
				<stop  offset="0" style="stop-color:#FDF53F"/>
				<stop  offset="1" style="stop-color:#D93C65"/>
			</linearGradient>
			<circle class="st43" cx="145.58" cy="283.32" r="23.81"/>
			<path class="st34" d="M125.95,274.43c-0.15,0-0.31-0.03-0.45-0.11c-0.49-0.25-0.69-0.85-0.44-1.34
				c3.93-7.79,11.8-12.64,20.52-12.64c1.39,0,2.79,0.13,4.14,0.37c0.54,0.1,0.9,0.62,0.8,1.16c-0.1,0.54-0.62,0.9-1.16,0.8
				c-1.24-0.23-2.51-0.34-3.79-0.34c-7.97,0-15.15,4.42-18.74,11.54C126.67,274.23,126.31,274.43,125.95,274.43z"/>
			<circle class="st44" cx="146.1" cy="283.84" r="20.15"/>
			<g>
				<linearGradient id="SVGID_36_" gradientUnits="userSpaceOnUse" x1="160.6647" y1="260.3579" x2="108.6556" y2="347.6725">
					<stop  offset="0" style="stop-color:#FDF53F"/>
					<stop  offset="1" style="stop-color:#D93C65"/>
				</linearGradient>
				<path class="st45" d="M144.12,298.82v-2.19c-2.29-0.09-4.55-0.63-6.15-1.33c-0.57-0.25-0.87-0.89-0.7-1.5l0.56-2.04
					c0.2-0.75,1.02-1.14,1.74-0.84c1.59,0.67,3.56,1.2,5.68,1.2c2.2,0,3.84-0.75,3.84-2.28c0-1.38-1.27-2.2-4.33-3.02
					c-4.36-1.19-7.5-3.1-7.5-6.94c0-3.47,2.54-6.12,6.94-6.83v-2.19c0-0.71,0.57-1.28,1.28-1.28h1.29c0.71,0,1.28,0.57,1.28,1.28
					v1.97c2.11,0.08,3.65,0.45,4.88,0.88c0.63,0.22,0.97,0.89,0.79,1.53l-0.51,1.89c-0.2,0.73-0.98,1.13-1.68,0.86
					c-1.12-0.43-2.71-0.87-4.78-0.87c-2.61,0-3.36,1.08-3.36,2.05c0,1.19,1.57,2.01,4.96,3.06c4.85,1.45,6.86,3.47,6.86,7.09
					c0,3.32-2.46,6.3-7.24,7.05v2.45c0,0.71-0.57,1.28-1.28,1.28h-1.29C144.69,300.09,144.12,299.52,144.12,298.82z"/>
			</g>
		</g>
		<g>
			<linearGradient id="SVGID_37_" gradientUnits="userSpaceOnUse" x1="157.0161" y1="322.2062" x2="214.5173" y2="255.4638">
				<stop  offset="0" style="stop-color:#FDF53F"/>
				<stop  offset="1" style="stop-color:#D93C65"/>
			</linearGradient>
			<circle class="st46" cx="215.68" cy="254.12" r="42.87"/>
			<linearGradient id="SVGID_38_" gradientUnits="userSpaceOnUse" x1="247.0093" y1="206.7842" x2="76.9765" y2="463.6553">
				<stop  offset="0" style="stop-color:#FDF53F"/>
				<stop  offset="1" style="stop-color:#D93C65"/>
			</linearGradient>
			<circle class="st47" cx="215.68" cy="254.12" r="41.44"/>
			<path class="st34" d="M181.5,237.9c-0.15,0-0.31-0.03-0.45-0.11c-0.49-0.25-0.69-0.85-0.44-1.34
				c6.72-13.32,20.16-21.59,35.07-21.59c2.38,0,4.76,0.21,7.08,0.64c0.54,0.1,0.9,0.62,0.8,1.16c-0.1,0.54-0.61,0.9-1.16,0.8
				c-2.2-0.4-4.46-0.6-6.72-0.6c-14.15,0-26.9,7.85-33.28,20.49C182.22,237.7,181.87,237.9,181.5,237.9z"/>
			<circle class="st44" cx="216.58" cy="255.02" r="35.08"/>
			<g>
				<linearGradient id="SVGID_39_" gradientUnits="userSpaceOnUse" x1="241.9371" y1="214.1443" x2="151.3981" y2="366.1443">
					<stop  offset="0" style="stop-color:#FDF53F"/>
					<stop  offset="1" style="stop-color:#D93C65"/>
				</linearGradient>
				<path class="st48" d="M213.14,281.1v-3.82c-3.98-0.16-7.91-1.1-10.71-2.32c-1-0.44-1.51-1.56-1.22-2.61l0.97-3.55
					c0.36-1.3,1.77-1.98,3.02-1.46c2.77,1.16,6.2,2.08,9.89,2.08c3.83,0,6.69-1.3,6.69-3.96c0-2.4-2.21-3.83-7.53-5.26
					c-7.6-2.08-13.05-5.39-13.05-12.08c0-6.04,4.42-10.65,12.08-11.89v-3.82c0-1.23,1-2.22,2.22-2.22h2.24c1.23,0,2.22,1,2.22,2.22
					v3.43c3.68,0.15,6.36,0.78,8.49,1.52c1.09,0.38,1.68,1.56,1.38,2.67l-0.89,3.29c-0.34,1.27-1.7,1.96-2.93,1.5
					c-1.96-0.74-4.73-1.51-8.32-1.51c-4.55,0-5.84,1.88-5.84,3.57c0,2.08,2.73,3.51,8.64,5.33c8.44,2.53,11.95,6.04,11.95,12.34
					c0,5.78-4.29,10.98-12.6,12.27v4.27c0,1.23-1,2.22-2.22,2.22h-2.24C214.14,283.32,213.14,282.32,213.14,281.1z"/>
			</g>
		</g>
		<g>
			<linearGradient id="SVGID_40_" gradientUnits="userSpaceOnUse" x1="184.881" y1="419.9309" x2="244.0491" y2="351.2538">
				<stop  offset="0" style="stop-color:#FDF53F"/>
				<stop  offset="1" style="stop-color:#D93C65"/>
			</linearGradient>
			<circle class="st49" cx="245.24" cy="349.87" r="44.11"/>
			<linearGradient id="SVGID_41_" gradientUnits="userSpaceOnUse" x1="277.4829" y1="301.1631" x2="102.5213" y2="565.4802">
				<stop  offset="0" style="stop-color:#FDF53F"/>
				<stop  offset="1" style="stop-color:#D93C65"/>
			</linearGradient>
			<circle class="st50" cx="245.24" cy="349.87" r="42.65"/>
			<path class="st34" d="M210.08,333.15c-0.15,0-0.31-0.03-0.45-0.11c-0.49-0.25-0.69-0.85-0.44-1.34
				c6.91-13.69,20.73-22.2,36.06-22.2c2.45,0,4.9,0.22,7.28,0.65c0.54,0.1,0.9,0.62,0.8,1.16c-0.1,0.54-0.62,0.9-1.16,0.8
				c-2.27-0.41-4.6-0.62-6.92-0.62c-14.57,0-27.7,8.09-34.27,21.1C210.8,332.95,210.44,333.15,210.08,333.15z"/>
			
				<ellipse transform="matrix(0.2334 -0.9724 0.9724 0.2334 -152.3831 508.3133)" class="st44" cx="246.17" cy="350.8" rx="36.09" ry="36.09"/>
			<g>
				<linearGradient id="SVGID_42_" gradientUnits="userSpaceOnUse" x1="272.2636" y1="308.7366" x2="179.1001" y2="465.1427">
					<stop  offset="0" style="stop-color:#FDF53F"/>
					<stop  offset="1" style="stop-color:#D93C65"/>
				</linearGradient>
				<path class="st51" d="M242.63,377.63v-3.93c-4.09-0.16-8.14-1.13-11.02-2.39c-1.03-0.45-1.55-1.6-1.26-2.68l1-3.66
					c0.37-1.34,1.83-2.04,3.11-1.5c2.85,1.2,6.38,2.14,10.17,2.14c3.94,0,6.88-1.34,6.88-4.08c0-2.47-2.27-3.94-7.75-5.41
					c-7.82-2.14-13.43-5.55-13.43-12.43c0-6.22,4.54-10.96,12.43-12.23v-3.93c0-1.26,1.02-2.29,2.29-2.29h2.31
					c1.26,0,2.29,1.02,2.29,2.29v3.53c3.79,0.15,6.55,0.8,8.73,1.57c1.12,0.39,1.73,1.6,1.42,2.75l-0.92,3.38
					c-0.35,1.3-1.75,2.02-3.01,1.54c-2.01-0.76-4.86-1.56-8.57-1.56c-4.68,0-6.01,1.94-6.01,3.68c0,2.14,2.81,3.61,8.89,5.48
					c8.69,2.61,12.3,6.21,12.3,12.7c0,5.95-4.41,11.29-12.96,12.63v4.39c0,1.26-1.02,2.29-2.29,2.29h-2.31
					C243.66,379.92,242.63,378.89,242.63,377.63z"/>
			</g>
		</g>
		<g>
			<linearGradient id="SVGID_43_" gradientUnits="userSpaceOnUse" x1="257.6063" y1="341.113" x2="300.9583" y2="290.7937">
				<stop  offset="0" style="stop-color:#FDF53F"/>
				<stop  offset="1" style="stop-color:#D93C65"/>
			</linearGradient>
			<circle class="st52" cx="301.83" cy="289.78" r="32.32"/>
			<linearGradient id="SVGID_44_" gradientUnits="userSpaceOnUse" x1="325.455" y1="254.0927" x2="197.262" y2="447.7558">
				<stop  offset="0" style="stop-color:#FDF53F"/>
				<stop  offset="1" style="stop-color:#D93C65"/>
			</linearGradient>
			<circle class="st53" cx="301.83" cy="289.78" r="31.25"/>
			<path class="st34" d="M276.07,277.8c-0.15,0-0.31-0.03-0.45-0.11c-0.49-0.25-0.69-0.85-0.44-1.34
				c5.11-10.12,15.32-16.41,26.66-16.41c1.81,0,3.62,0.16,5.38,0.48c0.54,0.1,0.9,0.62,0.8,1.16c-0.1,0.54-0.62,0.9-1.16,0.8
				c-1.65-0.3-3.34-0.45-5.02-0.45c-10.57,0-20.1,5.87-24.87,15.31C276.79,277.6,276.43,277.8,276.07,277.8z"/>
			
				<ellipse transform="matrix(0.9264 -0.3766 0.3766 0.9264 -87.1117 135.3054)" class="st44" cx="302.51" cy="290.46" rx="26.45" ry="26.45"/>
			<g>
				<linearGradient id="SVGID_45_" gradientUnits="userSpaceOnUse" x1="321.631" y1="259.6418" x2="253.3708" y2="374.2393">
					<stop  offset="0" style="stop-color:#FDF53F"/>
					<stop  offset="1" style="stop-color:#D93C65"/>
				</linearGradient>
				<path class="st54" d="M299.92,310.12v-2.88c-3-0.12-5.97-0.83-8.07-1.75c-0.75-0.33-1.14-1.17-0.92-1.97l0.73-2.68
					c0.27-0.98,1.34-1.49,2.28-1.1c2.09,0.88,4.67,1.57,7.45,1.57c2.89,0,5.04-0.98,5.04-2.99c0-1.81-1.66-2.89-5.68-3.97
					c-5.73-1.57-9.84-4.06-9.84-9.11c0-4.55,3.33-8.03,9.11-8.96v-2.88c0-0.93,0.75-1.68,1.68-1.68h1.69c0.93,0,1.68,0.75,1.68,1.68
					V276c2.78,0.11,4.8,0.59,6.4,1.15c0.82,0.29,1.27,1.17,1.04,2.01l-0.67,2.48c-0.26,0.96-1.28,1.48-2.21,1.13
					c-1.48-0.56-3.56-1.14-6.28-1.14c-3.43,0-4.41,1.42-4.41,2.69c0,1.57,2.06,2.64,6.51,4.02c6.37,1.91,9.01,4.55,9.01,9.3
					c0,4.36-3.23,8.28-9.5,9.25v3.22c0,0.93-0.75,1.68-1.68,1.68h-1.69C300.67,311.79,299.92,311.04,299.92,310.12z"/>
			</g>
		</g>
	</g>
	<g>
		<linearGradient id="SVGID_46_" gradientUnits="userSpaceOnUse" x1="826.6671" y1="189.556" x2="789.221" y2="366.4559">
			<stop  offset="0" style="stop-color:#53D8FF"/>
			<stop  offset="1" style="stop-color:#3840F7"/>
		</linearGradient>
		<path class="st55" d="M698.16,319.89c-2.3-0.79-1.97-4.15,0.44-4.47c11-1.43,27.12-5.73,32.4-18.64
			c8.28-20.25-8.87-98.31,69.94-112.27c72.7-12.88,113.19,10.12,112.27,77.3C912.33,326.93,807.68,357.46,698.16,319.89z"/>
		<g class="st56">
			<rect x="753.9" y="246.23" class="st34" width="7.41" height="58.01"/>
			<rect x="766.29" y="266.17" class="st34" width="7.41" height="38.07"/>
			<rect x="778.67" y="216.89" class="st34" width="7.41" height="87.35"/>
			<rect x="791.06" y="283.26" class="st34" width="7.41" height="20.98"/>
			<rect x="803.45" y="228.57" class="st34" width="7.41" height="75.67"/>
			<rect x="815.84" y="241.67" class="st34" width="7.41" height="62.57"/>
			<rect x="828.22" y="255.91" class="st34" width="7.41" height="48.33"/>
			<rect x="840.61" y="199.23" class="st34" width="7.41" height="105.01"/>
			<rect x="853" y="210.34" class="st34" width="7.41" height="93.9"/>
			<rect x="865.38" y="227.15" class="st34" width="7.41" height="77.09"/>
			<rect x="877.77" y="285.2" class="st34" width="7.41" height="19.04"/>
		</g>
	</g>
	<g>
		
			<linearGradient id="SVGID_47_" gradientUnits="userSpaceOnUse" x1="11656.833" y1="636.1582" x2="11567.9531" y2="732.8346" gradientTransform="matrix(1 9.500000e-03 -9.500000e-03 1 -11388.6162 -51.5522)">
			<stop  offset="0" style="stop-color:#2B3582"/>
			<stop  offset="1" style="stop-color:#150E42"/>
		</linearGradient>
		<path class="st57" d="M234.01,702.28c0,0-0.97,5.2-1.47,10.36c-0.2,2.01,1.34,3.78,3.36,3.88c6.87,0.35,21.56,1.05,26.83,0.86
			c0.79-0.03,1.32-0.83,1.03-1.57l0,0c-0.24-0.62-0.71-1.12-1.31-1.41l-24.17-11.39L234.01,702.28z"/>
		
			<linearGradient id="SVGID_48_" gradientUnits="userSpaceOnUse" x1="11627.9834" y1="643.3376" x2="11635.8789" y2="643.3376" gradientTransform="matrix(1 9.500000e-03 -9.500000e-03 1 -11388.6162 -51.5522)">
			<stop  offset="0" style="stop-color:#F9B776"/>
			<stop  offset="1" style="stop-color:#F47960"/>
		</linearGradient>
		<path class="st58" d="M233.28,699.21l0.68,6.24c0,0,4.23,2.02,7.16-0.18l-1.69-6.96L233.28,699.21z"/>
		
			<linearGradient id="SVGID_49_" gradientUnits="userSpaceOnUse" x1="11663.8359" y1="526.8202" x2="11588.2031" y2="629.3315" gradientTransform="matrix(1 9.500000e-03 -9.500000e-03 1 -11388.6162 -51.5522)">
			<stop  offset="0" style="stop-color:#FDF53F"/>
			<stop  offset="1" style="stop-color:#D93C65"/>
		</linearGradient>
		<path class="st59" d="M234.96,582.03c-0.33,1.62-2.49,81.21,5.68,116.97c0.13,0.58-0.17,1.18-0.72,1.4
			c-1.31,0.52-3.88,1.27-6.94,1.34c-0.95,0.02-1.8-0.6-2.05-1.52c-2.35-8.3-13.61-49.88-14.75-89.51
			c-1.28-44.28,0.01-1.51,0.01-1.51l1.26-27.35L234.96,582.03z"/>
		
			<linearGradient id="SVGID_50_" gradientUnits="userSpaceOnUse" x1="11636.8945" y1="617.8242" x2="11548.0107" y2="714.5048" gradientTransform="matrix(1 9.500000e-03 -9.500000e-03 1 -11388.6162 -51.5522)">
			<stop  offset="0" style="stop-color:#2B3582"/>
			<stop  offset="1" style="stop-color:#150E42"/>
		</linearGradient>
		<path class="st60" d="M206.06,704.73c0,0-1.49,2.62-2.98,9.59c-0.27,1.26,0.6,2.48,1.88,2.61c2.27,0.24,5.76,0.56,8.55,0.57
			c1.29,0,2.31-1.11,2.16-2.39c-0.29-2.55-1.21-6.75-4.16-10.04L206.06,704.73z"/>
		
			<linearGradient id="SVGID_51_" gradientUnits="userSpaceOnUse" x1="11599.5303" y1="642.9316" x2="11606.3467" y2="642.9316" gradientTransform="matrix(1 9.500000e-03 -9.500000e-03 1 -11388.6162 -51.5522)">
			<stop  offset="0" style="stop-color:#F9B776"/>
			<stop  offset="1" style="stop-color:#F47960"/>
		</linearGradient>
		<path class="st61" d="M204.85,696.7l1.64,9.44c0,0,1.7,1.29,5.09,0.4l-0.73-10.15L204.85,696.7z"/>
		
			<linearGradient id="SVGID_52_" gradientUnits="userSpaceOnUse" x1="11650.3564" y1="516.8749" x2="11574.7236" y2="619.385" gradientTransform="matrix(1 9.500000e-03 -9.500000e-03 1 -11388.6162 -51.5522)">
			<stop  offset="0" style="stop-color:#FDF53F"/>
			<stop  offset="1" style="stop-color:#D93C65"/>
		</linearGradient>
		<path class="st62" d="M201.26,584.15c-7.36,41.93,0.52,103.82,3.26,115.94c0.17,0.74,0.76,1.32,1.51,1.45
			c1.27,0.22,3.37,0.42,5.45-0.17c0.71-0.2,1.22-0.84,1.26-1.58c0.48-9.78,0.36-69.82,7.07-93.49c0.34-1.2,1.08-2.24,2.11-2.95
			l12.67-8.83l1.1-14.45L201.26,584.15z"/>
		<g>
			
				<linearGradient id="SVGID_53_" gradientUnits="userSpaceOnUse" x1="-1584.0986" y1="554.0705" x2="-1528.5988" y2="496.5706" gradientTransform="matrix(-1 0 0 1 -1341.1824 0)">
				<stop  offset="0" style="stop-color:#53D8FF"/>
				<stop  offset="1" style="stop-color:#3840F7"/>
			</linearGradient>
			<path class="st63" d="M246.36,505c-20.85-0.54-43.92,5.06-43.92,5.06c-6.56,36.21-1.83,78.1-1.83,78.1
				c16.1,4.39,34.38-2.26,34.38-2.26c2.83-15.14,15.76-57.68,15.76-57.68c10.2-1.17,18.62-4.03,25.57-7.85
				c-5.21-6.16-7.63-13.96-8.66-18.57C260.26,504.01,252.79,505.16,246.36,505z"/>
			
				<linearGradient id="SVGID_54_" gradientUnits="userSpaceOnUse" x1="11660.4805" y1="437.3674" x2="11700.8154" y2="437.3674" gradientTransform="matrix(1 9.500000e-03 -9.500000e-03 1 -11388.6162 -51.5522)">
				<stop  offset="0" style="stop-color:#F9B776"/>
				<stop  offset="1" style="stop-color:#F47960"/>
			</linearGradient>
			<path class="st64" d="M308.25,474.87c-2.03-2.49-4.63-1.35-4.63-1.35c-3.19,12.93-19.38,23.29-35.97,28.27
				c1.04,4.61,3.45,12.41,8.66,18.57C303.9,505.2,308.25,474.87,308.25,474.87z"/>
		</g>
		<g>
			
				<linearGradient id="SVGID_55_" gradientUnits="userSpaceOnUse" x1="-3755.0957" y1="429.6748" x2="-3728.0303" y2="491.2548" gradientTransform="matrix(-1 -9.500000e-03 -9.500000e-03 1 -3451.8904 24.7792)">
				<stop  offset="0" style="stop-color:#F9B776"/>
				<stop  offset="1" style="stop-color:#F47960"/>
			</linearGradient>
			<path class="st65" d="M307.75,475.49c0.21,0.68-2.28,1.7-3.72-1.1c-0.04-1.34-0.8-7.07,0.01-8.15
				c4.31-5.76,12.62-12.94,12.62-12.94c1.38,1.39,0.22,2.73,0.22,2.73l-4.04,4.13c0.82,1.52,1.83,2.8,2.29,4.64
				c0.35,1.39,0.11,2.87-0.6,4.12c-0.71,1.26-1.69,2.89-2.6,4.17C310.19,475.5,307.75,475.49,307.75,475.49z"/>
			
				<linearGradient id="SVGID_56_" gradientUnits="userSpaceOnUse" x1="11700.6221" y1="410.0989" x2="11711.915" y2="392.7353" gradientTransform="matrix(1 9.500000e-03 -9.500000e-03 1 -11388.6162 -51.5522)">
				<stop  offset="0" style="stop-color:#F9B776"/>
				<stop  offset="1" style="stop-color:#F47960"/>
			</linearGradient>
			<path class="st66" d="M311.07,462.84l-3.67,3.05l-1.17,3.06l3.21,3.63c0,0,1.15-6.09,1.97-7.4
				C312.24,463.87,311.82,463.23,311.07,462.84z"/>
		</g>
		
			<linearGradient id="SVGID_57_" gradientUnits="userSpaceOnUse" x1="-1571.7485" y1="565.991" x2="-1516.2485" y2="508.4908" gradientTransform="matrix(-1 0 0 1 -1341.1824 0)">
			<stop  offset="0" style="stop-color:#53D8FF"/>
			<stop  offset="1" style="stop-color:#3840F7"/>
		</linearGradient>
		<path class="st67" d="M210.25,530.32l-7.81-20.27c0,0-19.61,13.05-22.97,29.8c3.68,0.31,10.37,1.33,16.89,4.7
			C197.88,536.64,210.25,530.32,210.25,530.32z"/>
		
			<linearGradient id="SVGID_58_" gradientUnits="userSpaceOnUse" x1="11572.2178" y1="494.496" x2="11623.2617" y2="494.496" gradientTransform="matrix(1 9.500000e-03 -9.500000e-03 1 -11388.6162 -51.5522)">
			<stop  offset="0" style="stop-color:#F9B776"/>
			<stop  offset="1" style="stop-color:#F47960"/>
		</linearGradient>
		<path class="st68" d="M227.09,549.49c0,0-21.99,12.15-29.27,1.53c-1.51-2.21-1.86-4.39-1.46-6.46c-6.52-3.37-13.21-4.39-16.89-4.7
			c-1.01,5.05-0.55,10.44,2.37,15.9c12.7,23.77,48.09-0.85,48.09-0.85L227.09,549.49z"/>
		
			<linearGradient id="SVGID_59_" gradientUnits="userSpaceOnUse" x1="11611.4141" y1="439.9287" x2="11631.5957" y2="439.9287" gradientTransform="matrix(1 9.500000e-03 -9.500000e-03 1 -11388.6162 -51.5522)">
			<stop  offset="0" style="stop-color:#F9B776"/>
			<stop  offset="1" style="stop-color:#F47960"/>
		</linearGradient>
		<path class="st69" d="M225.4,487.86l-6.82,19.13c-0.11,0.32,0.01,0.67,0.31,0.84c1.8,1.02,8.29,3.97,16.19-0.93
			c0.82-0.51,1.39-1.35,1.52-2.31l2.31-16.59L225.4,487.86z"/>
		<g>
			
				<linearGradient id="SVGID_60_" gradientUnits="userSpaceOnUse" x1="2750.2075" y1="5720.1597" x2="2742.666" y2="5695.2856" gradientTransform="matrix(0.7523 -0.6588 0.6588 0.7523 -5593.7002 -2005.3557)">
				<stop  offset="0" style="stop-color:#F9B776"/>
				<stop  offset="1" style="stop-color:#F47960"/>
			</linearGradient>
			<path class="st70" d="M240,470.23c0,0,7.16,13.79,6.17,19.32c-0.99,5.53-10.01,5.05-17.86,0.47l-5.37-14.86L240,470.23z"/>
			
				<linearGradient id="SVGID_61_" gradientUnits="userSpaceOnUse" x1="2743.4041" y1="5676.8203" x2="2749.7124" y2="5712.8018" gradientTransform="matrix(0.7523 -0.6588 0.6588 0.7523 -5593.7002 -2005.3557)">
				<stop  offset="0" style="stop-color:#2B3582"/>
				<stop  offset="1" style="stop-color:#150E42"/>
			</linearGradient>
			<path class="st71" d="M228.73,482.75c0.32-0.14,0.44-0.53,0.25-0.83c-0.58-0.9-1.65-2.73-1.99-4.32c0,0-1.3-0.85,3.35-1.92
				c4.65-1.07,11.6-2.73,13.09-6.67c1.46-3.84-2.18-13.57-8.2-5.9c-0.23,0.29-0.67,0.29-0.9,0c-0.96-1.28-3.5-3.94-7.08-2.37
				c-3.35,1.46-3.74,3.9-3.71,5.13c0.01,0.36-0.32,0.64-0.67,0.57c-1.68-0.34-5.72-0.65-7.65,3.48c-1.59,3.4-0.59,5.34,0.32,6.3
				c0.3,0.31,0.16,0.81-0.25,0.93c-1.11,0.33-2.55,1.25-2.43,3.85c0.16,3.59,4.18,3.31,5.32,3.16c0.19-0.02,0.38,0.04,0.5,0.18
				c0.97,1.09,5.33,5.73,10.1,6.33c0.41,0.05,0.74-0.35,0.61-0.75l-2.01-6.02c-0.09-0.28,0.04-0.58,0.31-0.7L228.73,482.75z"/>
			
				<linearGradient id="SVGID_62_" gradientUnits="userSpaceOnUse" x1="2742.4983" y1="5720.0435" x2="2735.7131" y2="5697.6641" gradientTransform="matrix(0.7523 -0.6588 0.6588 0.7523 -5593.7002 -2005.3557)">
				<stop  offset="0" style="stop-color:#F9B776"/>
				<stop  offset="1" style="stop-color:#F47960"/>
			</linearGradient>
			<path class="st72" d="M229.56,483.61c0,0-5.15-3.61-5.56-0.62c-0.41,2.99,4.63,4.39,7.14,3.29L229.56,483.61z"/>
		</g>
		<g>
			<g>
				
					<linearGradient id="SVGID_63_" gradientUnits="userSpaceOnUse" x1="11350.1387" y1="520.4469" x2="11378.3047" y2="637.8037" gradientTransform="matrix(1 0 0 1 -11106.5049 0)">
					<stop  offset="0" style="stop-color:#2B3582"/>
					<stop  offset="1" style="stop-color:#150E42"/>
				</linearGradient>
				<path class="st73" d="M222.6,568.69l11.98-41.83c0.14-0.47,0.54-0.82,1.03-0.88c2.17-0.25,8.46-0.96,15.72-1.58
					c8.75-0.74,18.9-1.34,24.97-0.83c0.86,0.07,1.38,0.99,1,1.76c-3.45,6.98-17.65,35.39-24.76,44.69c-0.24,0.31-0.6,0.49-0.99,0.48
					l-27.79-0.26C222.95,570.25,222.37,569.47,222.6,568.69z"/>
				
					<linearGradient id="SVGID_64_" gradientUnits="userSpaceOnUse" x1="11330.8389" y1="551.494" x2="11346.7969" y2="551.494" gradientTransform="matrix(1 0 0 1 -11106.5049 0)">
					<stop  offset="0" style="stop-color:#F9B776"/>
					<stop  offset="1" style="stop-color:#F47960"/>
				</linearGradient>
				<path class="st74" d="M225.49,558.59c0,0-1.67-6.86-1-9.3c0.67-2.43,1.98-5.56,6.32-4.87c4.35,0.7,9.47,2.53,9.47,2.53
					s-0.26,3.17-3.56,2.15l2.05,1.59c0,0-0.29,2.54-3.08,1.18l1.91,2.1c0,0-1.2,2.09-3.25,0.75
					C232.3,553.38,231.31,559.41,225.49,558.59z"/>
			</g>
			<path class="st34" d="M235.96,539.22l2.44-8.27c0.3-1,1.1-1.76,2.11-1.97c7.64-1.59,28.56-1.93,28.77-1.94l-0.02-1
				c-0.86,0.01-21.22,0.34-28.96,1.96c-1.37,0.28-2.46,1.31-2.86,2.66l-2.44,8.27L235.96,539.22z"/>
		</g>
	</g>
	<g>
		<g>
			<path class="st34" d="M205.06,388.67l-2.77,1.08l-0.03,0.01c-0.47,0.18-1-0.05-1.18-0.52c-0.18-0.47,0.05-1,0.52-1.18l0,0
				l2.83-1.09c0.47-0.18,1,0.05,1.18,0.52c0.18,0.47-0.05,1-0.52,1.18L205.06,388.67z"/>
			<path class="st34" d="M194.24,393.53l-2.6,1.44l-0.03,0.01c-0.45,0.25-1.01,0.09-1.26-0.36c-0.25-0.45-0.09-1.01,0.36-1.26l0,0
				l2.65-1.46c0.45-0.25,1.01-0.08,1.26,0.36c0.25,0.45,0.08,1.01-0.36,1.26L194.24,393.53z"/>
			<path class="st34" d="M184.15,399.79l-2.4,1.76l-0.02,0.02c-0.42,0.31-1.01,0.22-1.31-0.2c-0.31-0.42-0.22-1.01,0.2-1.31l0,0
				l2.45-1.79c0.42-0.31,1-0.21,1.31,0.2c0.3,0.42,0.21,1-0.2,1.31L184.15,399.79z"/>
			<path class="st34" d="M174.89,407.24l-2.17,2.03l-0.02,0.02c-0.38,0.36-0.99,0.34-1.34-0.05c-0.36-0.38-0.34-0.99,0.05-1.34l0,0
				l2.22-2.06c0.38-0.36,0.98-0.33,1.34,0.05c0.36,0.38,0.33,0.98-0.05,1.34L174.89,407.24z"/>
			<path class="st34" d="M166.54,415.7l-1.94,2.25l-0.02,0.02c-0.35,0.4-0.95,0.45-1.36,0.1s-0.45-0.96-0.1-1.36l0,0l1.98-2.29
				c0.35-0.4,0.95-0.44,1.35-0.1c0.4,0.35,0.44,0.95,0.1,1.35L166.54,415.7z"/>
			<path class="st34" d="M159.12,425l-1.7,2.44l-0.01,0.02c-0.31,0.44-0.92,0.55-1.36,0.24c-0.44-0.31-0.55-0.92-0.24-1.36l0,0
				l1.74-2.48c0.31-0.44,0.91-0.55,1.35-0.24c0.44,0.31,0.55,0.91,0.24,1.35L159.12,425z"/>
			<path class="st34" d="M152.67,435l-1.46,2.59l-0.01,0.02c-0.27,0.47-0.87,0.64-1.34,0.38c-0.47-0.27-0.64-0.87-0.38-1.34l0,0
				l1.49-2.63c0.27-0.47,0.87-0.64,1.34-0.37c0.47,0.27,0.64,0.87,0.37,1.34L152.67,435z"/>
			<path class="st34" d="M147.2,445.57l-1.21,2.72l-0.01,0.02c-0.22,0.5-0.81,0.73-1.32,0.5c-0.5-0.22-0.73-0.81-0.5-1.32l0,0
				l1.24-2.76c0.22-0.5,0.81-0.73,1.31-0.5c0.5,0.22,0.73,0.81,0.5,1.31L147.2,445.57z"/>
			<path class="st34" d="M142.72,456.6l-0.96,2.82l-0.01,0.02c-0.18,0.53-0.75,0.81-1.28,0.63c-0.53-0.18-0.81-0.75-0.63-1.28l0,0
				l0.98-2.86c0.18-0.53,0.75-0.81,1.28-0.63c0.53,0.18,0.81,0.75,0.63,1.28L142.72,456.6z"/>
			<path class="st34" d="M139.27,467.99l-0.7,2.89l-0.01,0.02c-0.13,0.55-0.68,0.89-1.23,0.75c-0.55-0.13-0.89-0.68-0.75-1.23l0,0
				l0.71-2.94c0.13-0.55,0.68-0.88,1.23-0.75c0.55,0.13,0.88,0.68,0.75,1.23L139.27,467.99z"/>
			<path class="st34" d="M136.88,479.65l-0.43,2.95l0,0.02c-0.08,0.56-0.61,0.96-1.17,0.87c-0.56-0.08-0.96-0.61-0.87-1.17l0,0
				l0.44-2.99c0.08-0.56,0.61-0.95,1.17-0.87c0.56,0.08,0.95,0.61,0.87,1.17L136.88,479.65z"/>
			<path class="st34" d="M135.6,491.48l-0.14,2.97l0,0.03c-0.03,0.58-0.52,1.02-1.09,0.99c-0.58-0.03-1.02-0.52-0.99-1.09v0
				l0.15-3.02c0.03-0.57,0.52-1.02,1.09-0.99c0.57,0.03,1.02,0.52,0.99,1.09L135.6,491.48z"/>
			<path class="st34" d="M135.46,503.37l0.15,2.97l0,0.02c0.03,0.58-0.42,1.08-1,1.11c-0.58,0.03-1.08-0.42-1.11-1l0,0l-0.14-3.02
				c-0.03-0.58,0.42-1.07,1-1.1c0.58-0.03,1.07,0.42,1.1,1L135.46,503.37z"/>
			<path class="st34" d="M136.45,515.23l0.42,2.95l0,0.02c0.08,0.58-0.32,1.12-0.91,1.21c-0.58,0.08-1.12-0.32-1.21-0.91l0,0
				l-0.42-3c-0.08-0.58,0.32-1.12,0.91-1.2c0.58-0.08,1.12,0.32,1.2,0.91L136.45,515.23z"/>
			<path class="st34" d="M138.52,526.95l0.68,2.9l0.01,0.02c0.14,0.58-0.22,1.16-0.8,1.3c-0.58,0.14-1.16-0.22-1.3-0.81l0,0
				l-0.68-2.95c-0.13-0.58,0.23-1.16,0.81-1.29c0.58-0.13,1.16,0.23,1.29,0.81L138.52,526.95z"/>
			<path class="st34" d="M141.61,538.45l0.93,2.83l0.01,0.02c0.19,0.57-0.12,1.19-0.7,1.38c-0.57,0.19-1.19-0.12-1.38-0.7l0,0
				l-0.94-2.87c-0.19-0.57,0.13-1.19,0.7-1.37c0.57-0.19,1.19,0.13,1.37,0.7L141.61,538.45z"/>
			<path class="st34" d="M145.68,549.63l1.16,2.74l0.01,0.02c0.24,0.56-0.02,1.21-0.58,1.45c-0.56,0.24-1.21-0.02-1.45-0.58l0,0
				l-1.18-2.78c-0.24-0.56,0.03-1.21,0.59-1.44c0.56-0.24,1.21,0.03,1.44,0.59L145.68,549.63z"/>
			<path class="st34" d="M150.67,560.44l1.39,2.63l0.01,0.02c0.29,0.54,0.08,1.22-0.47,1.51c-0.54,0.29-1.22,0.08-1.51-0.47l0,0
				l-1.4-2.68c-0.29-0.54-0.08-1.22,0.47-1.5c0.54-0.29,1.22-0.08,1.5,0.47L150.67,560.44z"/>
			<path class="st34" d="M156.54,570.8l1.6,2.51l0.01,0.02c0.33,0.52,0.18,1.22-0.34,1.56c-0.52,0.33-1.22,0.18-1.56-0.34l0,0
				l-1.62-2.55c-0.33-0.52-0.18-1.22,0.35-1.55c0.52-0.33,1.22-0.18,1.55,0.35L156.54,570.8z"/>
			<path class="st34" d="M163.25,580.63l1.8,2.37l0.01,0.02c0.38,0.5,0.28,1.21-0.22,1.6c-0.5,0.38-1.21,0.28-1.6-0.22l0,0
				l-1.82-2.41c-0.38-0.5-0.28-1.21,0.22-1.59c0.5-0.38,1.21-0.28,1.59,0.22L163.25,580.63z"/>
			<path class="st34" d="M170.74,589.88l1.99,2.21l0.02,0.02c0.43,0.47,0.39,1.2-0.09,1.62c-0.47,0.42-1.2,0.39-1.62-0.09l0,0
				l-2.02-2.25c-0.42-0.47-0.38-1.2,0.09-1.62c0.47-0.42,1.2-0.38,1.62,0.09L170.74,589.88z"/>
			<path class="st34" d="M178.98,598.47l2.17,2.03l0.02,0.02c0.47,0.44,0.49,1.17,0.05,1.64c-0.44,0.47-1.17,0.49-1.64,0.05l0,0
				l-2.2-2.07c-0.47-0.44-0.49-1.17-0.05-1.64c0.44-0.47,1.17-0.49,1.64-0.05L178.98,598.47z"/>
			<path class="st34" d="M187.92,606.31l2.34,1.83l0.02,0.02c0.51,0.4,0.6,1.14,0.2,1.65c-0.4,0.51-1.14,0.6-1.65,0.2l0,0
				l-2.38-1.87c-0.51-0.4-0.6-1.14-0.2-1.64c0.4-0.51,1.14-0.6,1.64-0.2L187.92,606.31z"/>
			<path class="st34" d="M197.52,613.32l2.5,1.61l0.02,0.02c0.55,0.35,0.71,1.09,0.35,1.64c-0.35,0.55-1.09,0.71-1.64,0.35l0,0
				l-2.54-1.65c-0.55-0.35-0.7-1.09-0.35-1.64c0.36-0.55,1.09-0.7,1.64-0.35L197.52,613.32z"/>
			<path class="st34" d="M207.73,619.4l2.64,1.37l0.02,0.01c0.59,0.3,0.82,1.03,0.51,1.61c-0.3,0.59-1.03,0.82-1.61,0.51l0,0
				l-2.69-1.4c-0.58-0.3-0.81-1.03-0.51-1.61c0.3-0.58,1.03-0.81,1.61-0.51L207.73,619.4z"/>
			<path class="st34" d="M218.47,624.5l2.75,1.12l0.03,0.01c0.62,0.25,0.92,0.96,0.66,1.57c-0.25,0.62-0.96,0.92-1.57,0.66l0,0
				l-2.8-1.15c-0.62-0.25-0.91-0.96-0.66-1.57c0.25-0.62,0.96-0.91,1.57-0.66L218.47,624.5z"/>
			<path class="st34" d="M229.63,628.61l2.84,0.87l0.03,0.01c0.64,0.2,1.01,0.88,0.81,1.52c-0.2,0.64-0.88,1.01-1.52,0.81l0,0
				l-2.89-0.89c-0.64-0.2-1-0.88-0.81-1.52s0.88-1,1.52-0.81L229.63,628.61z"/>
			<path class="st34" d="M241.1,631.71l2.91,0.62l0.03,0.01c0.67,0.14,1.09,0.8,0.95,1.46c-0.14,0.67-0.8,1.09-1.46,0.95l0,0
				l-2.96-0.63c-0.66-0.14-1.09-0.8-0.94-1.46c0.14-0.66,0.8-1.09,1.46-0.94L241.1,631.71z"/>
			<path class="st34" d="M252.81,633.8l2.95,0.37l0.03,0c0.68,0.08,1.17,0.71,1.08,1.39c-0.08,0.68-0.71,1.17-1.39,1.08l0,0l-3-0.38
				c-0.68-0.09-1.16-0.71-1.08-1.39c0.09-0.68,0.71-1.16,1.39-1.08L252.81,633.8z"/>
			<path class="st34" d="M264.65,634.91l2.97,0.12l0.03,0c0.69,0.03,1.23,0.61,1.2,1.31c-0.03,0.69-0.61,1.23-1.31,1.2h0l-3.02-0.13
				c-0.69-0.03-1.23-0.61-1.2-1.31c0.03-0.69,0.61-1.23,1.31-1.2L264.65,634.91z"/>
			<path class="st34" d="M276.54,635.03l2.97-0.12l0.03,0c0.7-0.03,1.29,0.52,1.32,1.22c0.03,0.7-0.52,1.29-1.22,1.32h0l-3.02,0.11
				c-0.7,0.03-1.28-0.52-1.31-1.22c-0.03-0.7,0.52-1.28,1.22-1.31L276.54,635.03z"/>
			<path class="st34" d="M288.41,634.21l2.95-0.35l0.02,0c0.7-0.08,1.33,0.42,1.41,1.11c0.08,0.7-0.42,1.33-1.11,1.41h0l-3,0.35
				c-0.7,0.08-1.33-0.42-1.41-1.11c-0.08-0.7,0.42-1.33,1.11-1.41L288.41,634.21z"/>
			<path class="st34" d="M300.18,632.47l2.92-0.58l0.02,0c0.69-0.14,1.36,0.31,1.5,1c0.14,0.69-0.31,1.36-1,1.5l0,0l-2.97,0.59
				c-0.69,0.14-1.36-0.31-1.49-1c-0.14-0.69,0.31-1.36,1-1.49L300.18,632.47z"/>
			<path class="st34" d="M311.78,629.83l2.87-0.8l0.02-0.01c0.68-0.19,1.38,0.21,1.57,0.89c0.19,0.68-0.21,1.38-0.89,1.57l0,0
				l-2.91,0.81c-0.68,0.19-1.38-0.21-1.57-0.89c-0.19-0.68,0.21-1.38,0.89-1.57L311.78,629.83z"/>
			<path class="st34" d="M323.15,626.31l2.8-1.01l0.02-0.01c0.66-0.24,1.4,0.1,1.64,0.77c0.24,0.66-0.1,1.4-0.77,1.64l0,0
				l-2.84,1.03c-0.66,0.24-1.4-0.1-1.64-0.77c-0.24-0.66,0.1-1.4,0.77-1.64L323.15,626.31z"/>
			<path class="st34" d="M334.22,621.94l2.71-1.22l0.02-0.01c0.65-0.29,1.4,0,1.69,0.64c0.29,0.64,0,1.4-0.64,1.69l0,0l-2.76,1.24
				c-0.64,0.29-1.4,0-1.69-0.64c-0.29-0.64,0-1.4,0.64-1.69L334.22,621.94z"/>
			<path class="st34" d="M344.94,616.76l2.62-1.41l0.02-0.01c0.62-0.34,1.4-0.1,1.74,0.52c0.34,0.62,0.1,1.4-0.52,1.74l0,0
				l-2.66,1.43c-0.62,0.33-1.4,0.1-1.74-0.52c-0.33-0.62-0.1-1.4,0.52-1.74L344.94,616.76z"/>
			<path class="st34" d="M355.3,610.87l2.53-1.57l0.02-0.01c0.6-0.37,1.4-0.19,1.77,0.41c0.37,0.6,0.19,1.4-0.41,1.77l0,0
				l-2.57,1.59c-0.6,0.37-1.4,0.19-1.77-0.41c-0.37-0.6-0.19-1.4,0.41-1.77L355.3,610.87z"/>
			<path class="st34" d="M365.29,604.36l2.44-1.72l0.01-0.01c0.58-0.41,1.39-0.27,1.8,0.31c0.41,0.58,0.27,1.39-0.31,1.8l0,0
				l-2.47,1.74c-0.58,0.41-1.38,0.27-1.79-0.31c-0.41-0.58-0.27-1.39,0.31-1.79L365.29,604.36z"/>
			<path class="st34" d="M374.9,597.29l2.35-1.85l0.01-0.01c0.56-0.44,1.37-0.34,1.81,0.22c0.44,0.56,0.34,1.37-0.22,1.81l0,0
				l-2.37,1.86c-0.56,0.44-1.37,0.34-1.81-0.22c-0.44-0.56-0.34-1.37,0.22-1.81L374.9,597.29z"/>
			<path class="st34" d="M384.14,589.74l2.26-1.95l0.01-0.01c0.54-0.47,1.36-0.41,1.83,0.13c0.47,0.54,0.41,1.36-0.13,1.83l0,0
				l-2.28,1.97c-0.54,0.47-1.36,0.41-1.82-0.13c-0.47-0.54-0.41-1.36,0.13-1.82L384.14,589.74z"/>
			<path class="st34" d="M393.05,581.78l2.18-2.05l0.01-0.01c0.52-0.49,1.34-0.46,1.83,0.06s0.46,1.34-0.06,1.83l0,0l-2.2,2.06
				c-0.52,0.49-1.34,0.46-1.83-0.06C392.5,583.1,392.52,582.28,393.05,581.78L393.05,581.78z"/>
			<path class="st34" d="M401.65,573.48l2.11-2.12l0.01-0.01c0.51-0.51,1.33-0.51,1.84-0.01c0.51,0.51,0.51,1.33,0.01,1.84l0,0
				l-2.12,2.14c-0.51,0.51-1.33,0.51-1.84,0.01C401.14,574.82,401.14,574,401.65,573.48L401.65,573.48z"/>
			<path class="st34" d="M409.98,564.9l2.04-2.18l0.01-0.01c0.49-0.53,1.32-0.55,1.84-0.06c0.53,0.49,0.55,1.32,0.06,1.84l0,0
				l-2.06,2.2c-0.49,0.52-1.31,0.55-1.84,0.06C409.51,566.25,409.49,565.43,409.98,564.9L409.98,564.9z"/>
			<path class="st34" d="M418.08,556.08l1.99-2.23l0-0.01c0.48-0.54,1.3-0.59,1.84-0.11c0.54,0.48,0.58,1.3,0.11,1.84l0,0l-2,2.24
				c-0.48,0.54-1.3,0.58-1.84,0.1C417.64,557.45,417.59,556.62,418.08,556.08L418.08,556.08z"/>
			<path class="st34" d="M425.98,547.08l1.95-2.27l0,0c0.47-0.55,1.3-0.61,1.84-0.14c0.55,0.47,0.61,1.3,0.14,1.84l0,0l-1.96,2.28
				c-0.47,0.55-1.29,0.61-1.84,0.14C425.56,548.46,425.5,547.63,425.98,547.08L425.98,547.08z"/>
			<path class="st34" d="M433.72,537.94l1.92-2.3c0.46-0.56,1.29-0.64,1.84-0.17c0.56,0.46,0.64,1.29,0.17,1.84l0,0l-1.92,2.31
				c-0.46,0.56-1.29,0.63-1.84,0.17C433.33,539.33,433.26,538.5,433.72,537.94z"/>
			<path class="st34" d="M441.35,528.7l1.9-2.32c0.46-0.56,1.28-0.65,1.85-0.19c0.56,0.46,0.65,1.28,0.19,1.85l0,0l-1.9,2.33
				c-0.46,0.56-1.28,0.64-1.85,0.19C440.98,530.09,440.9,529.26,441.35,528.7z"/>
			<path class="st34" d="M448.91,519.39l1.88-2.33c0.46-0.57,1.28-0.65,1.85-0.2c0.57,0.46,0.65,1.28,0.2,1.85l0,0l-1.89,2.33
				c-0.46,0.56-1.28,0.65-1.85,0.2S448.46,519.96,448.91,519.39z"/>
			<path class="st34" d="M456.44,510.05l1.88-2.34c0.46-0.57,1.29-0.66,1.85-0.2c0.57,0.46,0.66,1.29,0.2,1.85l0,0l-1.88,2.34
				c-0.46,0.57-1.29,0.66-1.85,0.2C456.07,511.45,455.98,510.62,456.44,510.05z"/>
			<path class="st34" d="M463.97,500.71l1.89-2.33c0.46-0.57,1.29-0.65,1.86-0.2c0.57,0.46,0.65,1.29,0.2,1.86l0,0l-1.89,2.33
				c-0.46,0.57-1.29,0.65-1.86,0.2C463.6,502.11,463.52,501.27,463.97,500.71z"/>
			<path class="st34" d="M471.55,491.39l1.91-2.32c0.46-0.56,1.3-0.65,1.86-0.18c0.56,0.46,0.65,1.3,0.18,1.86l0,0l-1.9,2.31
				c-0.46,0.57-1.3,0.65-1.86,0.19C471.17,492.79,471.09,491.96,471.55,491.39z"/>
			<path class="st34" d="M479.22,482.14l1.93-2.3c0.47-0.56,1.31-0.63,1.87-0.16c0.56,0.47,0.63,1.31,0.16,1.87l0,0l-1.93,2.29
				c-0.47,0.56-1.31,0.64-1.87,0.17C478.82,483.54,478.75,482.7,479.22,482.14z"/>
			<path class="st34" d="M487.01,472.99l1.97-2.27c0.48-0.55,1.32-0.61,1.87-0.13c0.55,0.48,0.61,1.32,0.13,1.87l0,0l0,0l-1.97,2.26
				l0,0c-0.48,0.55-1.32,0.61-1.87,0.13C486.59,474.38,486.53,473.54,487.01,472.99z"/>
			<path class="st34" d="M494.97,463.97l2.02-2.23c0.49-0.54,1.34-0.59,1.88-0.09c0.54,0.49,0.59,1.34,0.09,1.88l0,0l-0.01,0.01
				l-2.01,2.22l0,0.01c-0.49,0.54-1.33,0.59-1.88,0.09C494.52,465.35,494.48,464.51,494.97,463.97z"/>
			<path class="st34" d="M503.13,455.13l2.08-2.18c0.51-0.53,1.35-0.55,1.89-0.04c0.53,0.51,0.55,1.35,0.04,1.89l0,0l-0.01,0.01
				l-2.06,2.16l-0.01,0.01c-0.51,0.53-1.35,0.55-1.88,0.04C502.64,456.5,502.62,455.66,503.13,455.13z"/>
			<path class="st34" d="M511.53,446.51l2.14-2.11c0.53-0.52,1.37-0.51,1.89,0.01c0.52,0.53,0.51,1.37-0.01,1.89l0,0l-0.01,0.01
				l-2.13,2.1l-0.01,0.01c-0.53,0.52-1.37,0.51-1.89-0.01C511,447.87,511.01,447.02,511.53,446.51z"/>
			<path class="st34" d="M520.22,438.16l2.22-2.04c0.54-0.5,1.39-0.46,1.89,0.08s0.46,1.39-0.08,1.89l0,0l-0.01,0.01l-2.2,2.02
				l-0.01,0.01c-0.54,0.5-1.39,0.46-1.89-0.08C519.64,439.5,519.67,438.66,520.22,438.16z"/>
			<path class="st34" d="M529.21,430.13l2.3-1.95c0.57-0.48,1.41-0.41,1.89,0.16c0.48,0.57,0.41,1.41-0.16,1.89l0,0l-0.01,0.01
				l-2.28,1.93l-0.01,0.01c-0.57,0.48-1.41,0.41-1.89-0.16C528.58,431.46,528.65,430.61,529.21,430.13z"/>
			<path class="st34" d="M538.55,422.5l2.39-1.84c0.59-0.45,1.43-0.34,1.89,0.25c0.45,0.59,0.34,1.43-0.25,1.89l0,0l-0.01,0.01
				l-2.36,1.82l-0.01,0.01c-0.59,0.45-1.43,0.34-1.88-0.25C537.85,423.79,537.96,422.95,538.55,422.5z"/>
			<path class="st34" d="M548.26,415.33l2.49-1.71c0.61-0.42,1.45-0.27,1.87,0.35c0.42,0.61,0.27,1.45-0.35,1.87l0,0l-0.01,0.01
				l-2.46,1.69l-0.01,0.01c-0.61,0.42-1.45,0.27-1.87-0.35C547.49,416.59,547.65,415.75,548.26,415.33z"/>
			<path class="st34" d="M558.34,408.69l2.58-1.57c0.64-0.39,1.47-0.19,1.86,0.45c0.39,0.64,0.19,1.47-0.45,1.86l0,0l-0.02,0.01
				l-2.54,1.55l-0.02,0.01c-0.64,0.39-1.47,0.19-1.85-0.45C557.51,409.91,557.71,409.08,558.34,408.69z"/>
			<path class="st34" d="M568.77,402.6l2.65-1.44c0.66-0.36,1.48-0.11,1.83,0.55c0.36,0.66,0.11,1.48-0.55,1.83l0,0l-0.02,0.01
				l-2.62,1.42l-0.02,0.01c-0.66,0.35-1.48,0.11-1.83-0.55C567.86,403.78,568.11,402.96,568.77,402.6z"/>
			<path class="st34" d="M579.49,397.07l2.73-1.29c0.68-0.32,1.48-0.03,1.8,0.64c0.32,0.68,0.03,1.48-0.64,1.8l0,0l-0.02,0.01
				l-2.69,1.28l-0.02,0.01c-0.68,0.32-1.48,0.03-1.8-0.64C578.53,398.2,578.82,397.39,579.49,397.07z"/>
			<path class="st34" d="M590.5,392.11l2.79-1.15c0.69-0.29,1.49,0.04,1.77,0.74c0.29,0.69-0.04,1.49-0.74,1.77l0,0l-0.02,0.01
				l-2.76,1.13l-0.02,0.01c-0.69,0.29-1.49-0.05-1.77-0.74C589.47,393.19,589.8,392.4,590.5,392.11z"/>
			<path class="st34" d="M601.74,387.73l2.85-1c0.71-0.25,1.49,0.12,1.73,0.83c0.25,0.71-0.12,1.49-0.83,1.73l0,0l-0.02,0.01
				l-2.81,0.99l-0.02,0.01c-0.71,0.25-1.48-0.12-1.73-0.83C600.67,388.76,601.04,387.98,601.74,387.73z"/>
			<path class="st34" d="M613.2,383.94l2.89-0.86c0.72-0.21,1.48,0.2,1.69,0.92c0.21,0.72-0.2,1.48-0.92,1.69l0,0l-0.02,0.01
				l-2.86,0.84l-0.02,0c-0.72,0.21-1.48-0.2-1.69-0.92C612.07,384.91,612.48,384.15,613.2,383.94z"/>
			<path class="st34" d="M624.84,380.75l2.93-0.71c0.73-0.18,1.47,0.27,1.65,1.01c0.18,0.73-0.27,1.47-1.01,1.65l0,0l-0.02,0
				l-2.9,0.7l-0.02,0c-0.73,0.18-1.47-0.28-1.65-1.01C623.66,381.66,624.11,380.92,624.84,380.75z"/>
			<path class="st34" d="M636.63,378.15l2.97-0.56c0.74-0.14,1.46,0.35,1.6,1.09c0.14,0.74-0.35,1.46-1.09,1.6l0,0l-0.02,0
				l-2.93,0.55l-0.02,0c-0.74,0.14-1.46-0.35-1.6-1.09C635.4,379,635.88,378.29,636.63,378.15z"/>
			<path class="st34" d="M648.53,376.15l2.99-0.4c0.75-0.1,1.44,0.42,1.54,1.17c0.1,0.75-0.42,1.44-1.17,1.54l0,0l-0.02,0l-2.96,0.4
				l-0.02,0c-0.75,0.1-1.44-0.42-1.54-1.17C647.25,376.94,647.78,376.25,648.53,376.15z"/>
			<path class="st34" d="M660.52,374.76l3.01-0.25c0.76-0.06,1.42,0.5,1.48,1.25c0.06,0.76-0.5,1.42-1.25,1.48l0,0l-0.02,0
				l-2.97,0.25l-0.02,0c-0.76,0.06-1.42-0.5-1.48-1.25C659.2,375.49,659.76,374.82,660.52,374.76z"/>
			<path class="st34" d="M672.56,373.98l3.02-0.1c0.76-0.03,1.4,0.57,1.42,1.33c0.03,0.76-0.57,1.4-1.33,1.42l0,0l-0.02,0l-2.98,0.1
				l-0.02,0c-0.76,0.02-1.39-0.57-1.42-1.33C671.2,374.64,671.8,374,672.56,373.98z"/>
			<path class="st34" d="M684.62,373.81l3.02,0.05c0.76,0.01,1.37,0.64,1.35,1.4s-0.64,1.37-1.4,1.35h0l-0.02,0l-2.98-0.05l-0.02,0
				c-0.76-0.01-1.37-0.64-1.35-1.4C683.24,374.4,683.86,373.79,684.62,373.81z"/>
			<path class="st34" d="M696.68,374.24l3.01,0.2c0.76,0.05,1.34,0.71,1.28,1.47c-0.05,0.76-0.71,1.34-1.47,1.28l0,0l-0.02,0
				l-2.98-0.2l-0.02,0c-0.76-0.05-1.33-0.71-1.28-1.47C695.27,374.76,695.92,374.19,696.68,374.24z"/>
			<path class="st34" d="M708.71,375.29l3,0.36c0.76,0.09,1.3,0.78,1.21,1.54c-0.09,0.76-0.78,1.3-1.54,1.21l0,0l-0.02,0l-2.96-0.35
				l-0.02,0c-0.76-0.09-1.3-0.78-1.21-1.54C707.26,375.74,707.95,375.2,708.71,375.29z"/>
			<path class="st34" d="M720.66,376.95l2.97,0.51c0.75,0.13,1.26,0.85,1.13,1.6c-0.13,0.75-0.85,1.26-1.6,1.13l0,0l-0.02,0
				l-2.94-0.51l-0.02,0c-0.75-0.13-1.26-0.85-1.13-1.6C719.19,377.33,719.91,376.82,720.66,376.95z"/>
			<path class="st34" d="M732.52,379.22l2.94,0.66c0.75,0.17,1.22,0.91,1.05,1.66c-0.17,0.75-0.91,1.22-1.66,1.05l0,0l-0.02,0
				l-2.91-0.66l-0.02,0c-0.75-0.17-1.22-0.91-1.05-1.66C731.03,379.52,731.77,379.05,732.52,379.22z"/>
			<path class="st34" d="M744.24,382.1l2.91,0.81c0.74,0.21,1.17,0.98,0.96,1.72c-0.21,0.74-0.98,1.17-1.72,0.96l0,0l-0.02,0
				l-2.87-0.81l-0.02,0c-0.74-0.21-1.17-0.98-0.96-1.72C742.73,382.32,743.5,381.89,744.24,382.1z"/>
			<path class="st34" d="M755.79,385.59l2.86,0.97c0.73,0.25,1.12,1.04,0.88,1.77c-0.25,0.73-1.04,1.12-1.77,0.87l0,0l-0.02-0.01
				l-2.82-0.96l-0.02-0.01c-0.73-0.25-1.12-1.04-0.87-1.77C754.27,385.73,755.06,385.34,755.79,385.59z"/>
			<path class="st34" d="M767.15,389.68l2.8,1.12c0.72,0.29,1.07,1.1,0.78,1.81c-0.29,0.72-1.1,1.07-1.81,0.78l0,0l-0.02-0.01
				l-2.77-1.1l-0.02-0.01c-0.72-0.29-1.07-1.1-0.78-1.81C765.62,389.74,766.44,389.39,767.15,389.68z"/>
			<path class="st34" d="M778.28,394.36l2.74,1.26c0.7,0.32,1.01,1.15,0.69,1.86c-0.32,0.7-1.15,1.01-1.86,0.69l0,0l-0.02-0.01
				l-2.71-1.25l-0.02-0.01c-0.7-0.32-1.01-1.15-0.68-1.86C776.75,394.34,777.58,394.04,778.28,394.36z"/>
			<path class="st34" d="M789.14,399.63l2.67,1.41c0.68,0.36,0.95,1.21,0.59,1.89c-0.36,0.68-1.21,0.95-1.89,0.59l0,0l-0.02-0.01
				l-2.64-1.39l-0.02-0.01c-0.68-0.36-0.95-1.21-0.58-1.89C787.61,399.53,788.46,399.27,789.14,399.63z"/>
			<path class="st34" d="M799.7,405.48l2.59,1.55c0.67,0.4,0.88,1.26,0.48,1.93c-0.4,0.67-1.26,0.88-1.93,0.48l0,0l-0.02-0.01
				l-2.56-1.53l-0.02-0.01c-0.67-0.4-0.88-1.26-0.48-1.93C798.17,405.3,799.04,405.08,799.7,405.48z"/>
			<path class="st34" d="M809.93,411.9l2.5,1.69c0.64,0.44,0.81,1.31,0.38,1.95c-0.44,0.64-1.31,0.81-1.95,0.38l0,0l-0.02-0.01
				l-2.47-1.67l-0.02-0.01c-0.64-0.44-0.81-1.31-0.38-1.95C808.42,411.63,809.29,411.46,809.93,411.9z"/>
			<path class="st34" d="M819.81,418.81l2.43,1.78c0.63,0.46,0.76,1.34,0.3,1.97c-0.46,0.63-1.34,0.76-1.97,0.3l0,0l-0.01-0.01
				l-2.41-1.77l-0.01-0.01c-0.63-0.46-0.76-1.34-0.3-1.97C818.3,418.48,819.19,418.35,819.81,418.81z"/>
			<path class="st34" d="M829.43,426.04l2.38,1.84c0.62,0.48,0.73,1.36,0.25,1.98c-0.48,0.62-1.36,0.73-1.98,0.25l0,0l0,0
				l-2.37-1.83l0,0c-0.62-0.48-0.73-1.36-0.25-1.98C827.93,425.68,828.82,425.57,829.43,426.04z"/>
			<path class="st34" d="M838.91,433.43l2.36,1.85c0.61,0.48,0.72,1.37,0.24,1.99c-0.48,0.61-1.37,0.72-1.99,0.24l0,0l-2.36-1.86
				c-0.61-0.48-0.72-1.37-0.24-1.99C837.4,433.05,838.29,432.95,838.91,433.43z"/>
			<path class="st34" d="M848.34,440.83l2.37,1.84c0.62,0.48,0.74,1.37,0.26,1.99c-0.48,0.62-1.37,0.74-1.99,0.26l0,0l-2.37-1.84
				c-0.62-0.48-0.73-1.37-0.25-1.99C846.83,440.46,847.73,440.35,848.34,440.83z"/>
			<path class="st34" d="M857.85,448.11l2.4,1.78l0.01,0.01c0.63,0.47,0.76,1.36,0.29,1.99c-0.47,0.63-1.36,0.76-1.99,0.29l0,0
				l-2.42-1.8c-0.63-0.47-0.76-1.36-0.29-1.99C856.32,447.77,857.21,447.64,857.85,448.11L857.85,448.11z"/>
			<path class="st34" d="M867.53,455.12l2.46,1.69l0.01,0.01c0.65,0.45,0.81,1.33,0.37,1.98c-0.45,0.65-1.33,0.81-1.98,0.37l0,0
				l-2.48-1.71c-0.65-0.45-0.81-1.33-0.37-1.98c0.45-0.65,1.33-0.81,1.98-0.37L867.53,455.12z"/>
			<path class="st34" d="M877.48,461.69l2.54,1.55l0.02,0.01c0.67,0.41,0.88,1.29,0.47,1.96c-0.41,0.67-1.29,0.89-1.96,0.47l0,0
				l-2.58-1.58c-0.67-0.41-0.88-1.29-0.47-1.96c0.41-0.67,1.29-0.88,1.96-0.47L877.48,461.69z"/>
			<path class="st34" d="M887.8,467.62l2.64,1.35l0.03,0.01c0.7,0.36,0.98,1.22,0.62,1.92c-0.36,0.7-1.22,0.98-1.92,0.62l0,0
				l-2.7-1.38c-0.7-0.36-0.98-1.22-0.62-1.92c0.36-0.7,1.22-0.98,1.92-0.62L887.8,467.62z"/>
			<path class="st34" d="M898.54,472.65l2.75,1.09l0.04,0.01c0.74,0.29,1.1,1.12,0.81,1.86c-0.29,0.74-1.12,1.1-1.86,0.81l0,0
				l-2.83-1.12c-0.73-0.29-1.1-1.12-0.8-1.86c0.29-0.73,1.12-1.1,1.86-0.8L898.54,472.65z"/>
			<path class="st34" d="M909.72,476.52l2.86,0.75l0.04,0.01c0.77,0.2,1.22,0.99,1.02,1.75c-0.2,0.77-0.99,1.22-1.75,1.02l0,0
				l-2.95-0.78c-0.77-0.2-1.22-0.99-1.02-1.75c0.2-0.77,0.99-1.22,1.75-1.02L909.72,476.52z"/>
			<path class="st34" d="M921.26,478.94l2.93,0.35l0.05,0.01c0.79,0.1,1.35,0.81,1.25,1.6c-0.1,0.79-0.81,1.35-1.6,1.25l0,0
				l-3.03-0.37c-0.79-0.1-1.35-0.81-1.25-1.6c0.1-0.79,0.81-1.35,1.6-1.25L921.26,478.94z"/>
			<path class="st34" d="M933.01,479.69l2.94-0.1l0.06,0c0.79-0.03,1.46,0.59,1.49,1.39c0.03,0.79-0.59,1.46-1.39,1.49h0l-3.06,0.11
				c-0.79,0.03-1.46-0.59-1.49-1.39c-0.03-0.79,0.59-1.46,1.39-1.49L933.01,479.69z"/>
			<path class="st34" d="M944.72,478.59l2.89-0.56l0.05-0.01c0.78-0.15,1.54,0.36,1.69,1.14c0.15,0.78-0.36,1.54-1.14,1.69l0,0
				l-3,0.58c-0.78,0.15-1.54-0.36-1.69-1.14c-0.15-0.78,0.36-1.54,1.14-1.69L944.72,478.59z"/>
			<path class="st34" d="M956.14,475.72l2.78-0.97l0.05-0.02c0.75-0.26,1.58,0.14,1.84,0.89c0.26,0.75-0.14,1.58-0.89,1.84l0,0
				l-2.88,1c-0.75,0.26-1.58-0.14-1.84-0.89c-0.26-0.75,0.14-1.58,0.89-1.84L956.14,475.72z"/>
			<path class="st34" d="M967.07,471.28l2.63-1.33l0.04-0.02c0.71-0.36,1.58-0.08,1.95,0.64c0.36,0.71,0.08,1.58-0.64,1.95l0,0
				l-2.72,1.38c-0.71,0.36-1.58,0.08-1.94-0.64c-0.36-0.71-0.08-1.58,0.64-1.94L967.07,471.28z"/>
			<path class="st34" d="M977.35,465.45l2.46-1.65l0.04-0.02c0.66-0.45,1.57-0.27,2.01,0.4c0.45,0.66,0.27,1.57-0.4,2.01l0,0
				l-2.53,1.69c-0.66,0.45-1.57,0.27-2.01-0.4c-0.45-0.66-0.27-1.56,0.4-2.01L977.35,465.45z"/>
			<path class="st34" d="M986.88,458.45l2.26-1.92l0.03-0.03c0.61-0.52,1.53-0.44,2.05,0.17c0.52,0.61,0.44,1.53-0.17,2.05l0,0
				l-2.32,1.97c-0.61,0.52-1.53,0.44-2.05-0.17c-0.52-0.61-0.44-1.53,0.17-2.05L986.88,458.45z"/>
			<path class="st34" d="M995.58,450.42l2.04-2.15l0.03-0.03c0.55-0.58,1.47-0.61,2.06-0.05c0.58,0.55,0.61,1.48,0.05,2.06l0,0
				l-2.09,2.2c-0.55,0.58-1.47,0.6-2.06,0.05c-0.58-0.55-0.6-1.47-0.05-2.06L995.58,450.42z"/>
			<path class="st34" d="M1003.41,441.53l1.81-2.34l0.02-0.03c0.49-0.64,1.41-0.75,2.05-0.26c0.64,0.49,0.75,1.41,0.26,2.05l0,0
				l-1.86,2.4c-0.49,0.64-1.41,0.75-2.04,0.26c-0.64-0.49-0.75-1.41-0.26-2.04L1003.41,441.53z"/>
			<path class="st34" d="M1010.32,431.9l1.57-2.51l0.02-0.03c0.43-0.68,1.33-0.89,2.01-0.46c0.68,0.43,0.89,1.33,0.46,2.01l0,0
				l-1.61,2.57c-0.43,0.68-1.33,0.89-2.01,0.46c-0.68-0.43-0.89-1.33-0.46-2.01L1010.32,431.9z"/>
			<path class="st34" d="M1016.24,421.64l1.32-2.65l0.02-0.03c0.36-0.72,1.24-1.02,1.96-0.66c0.72,0.36,1.02,1.24,0.66,1.96l0,0
				l-1.35,2.72c-0.36,0.72-1.24,1.02-1.96,0.66c-0.72-0.36-1.02-1.24-0.66-1.96L1016.24,421.64z"/>
			<path class="st34" d="M1021.11,410.84l1.05-2.77l0.01-0.03c0.29-0.76,1.13-1.14,1.89-0.85c0.76,0.29,1.14,1.13,0.85,1.89l0,0
				l-1.08,2.84c-0.29,0.76-1.13,1.14-1.89,0.85c-0.76-0.29-1.14-1.13-0.85-1.89L1021.11,410.84z"/>
			<path class="st34" d="M1024.88,399.6l0.76-2.87l0.01-0.03c0.21-0.78,1.01-1.25,1.8-1.04c0.78,0.21,1.25,1.01,1.04,1.8l0,0
				l-0.78,2.93c-0.21,0.78-1.01,1.25-1.8,1.04c-0.78-0.21-1.25-1.01-1.04-1.8L1024.88,399.6z"/>
			<path class="st34" d="M1027.55,388.04l0.51-2.92l0.01-0.03c0.14-0.8,0.9-1.34,1.7-1.2s1.34,0.9,1.2,1.7l0,0l-0.52,2.99
				c-0.14,0.8-0.9,1.34-1.7,1.2c-0.8-0.14-1.33-0.9-1.2-1.7L1027.55,388.04z"/>
			<path class="st34" d="M1029.22,376.29l0.26-2.96l0-0.03c0.07-0.81,0.79-1.41,1.6-1.34c0.81,0.07,1.41,0.79,1.34,1.6v0l-0.27,3.02
				c-0.07,0.81-0.79,1.41-1.6,1.34c-0.81-0.07-1.41-0.79-1.34-1.6L1029.22,376.29z"/>
			<path class="st34" d="M1029.91,364.43l0.03-2.97l0-0.03c0.01-0.82,0.67-1.47,1.49-1.46c0.82,0.01,1.47,0.67,1.46,1.49v0
				l-0.03,3.03c-0.01,0.81-0.67,1.47-1.49,1.46c-0.81-0.01-1.47-0.67-1.46-1.49L1029.91,364.43z"/>
			<path class="st34" d="M1029.67,352.55l-0.2-2.97l0-0.03c-0.05-0.82,0.56-1.52,1.38-1.58c0.81-0.05,1.52,0.56,1.58,1.38v0
				l0.2,3.02c0.05,0.81-0.56,1.52-1.38,1.57c-0.81,0.05-1.52-0.56-1.57-1.38L1029.67,352.55z"/>
			<path class="st34" d="M1028.55,340.71l-0.41-2.94l0-0.03c-0.11-0.81,0.45-1.56,1.26-1.67c0.81-0.11,1.56,0.45,1.67,1.26v0l0.42,3
				c0.11,0.81-0.45,1.56-1.26,1.67c-0.81,0.11-1.56-0.45-1.67-1.26L1028.55,340.71z"/>
			<path class="st34" d="M1026.58,328.98l-0.62-2.91l-0.01-0.02c-0.17-0.8,0.34-1.59,1.14-1.76c0.8-0.17,1.59,0.34,1.76,1.14v0
				l0.63,2.96c0.17,0.8-0.34,1.59-1.14,1.76c-0.8,0.17-1.59-0.34-1.76-1.14L1026.58,328.98z"/>
			<path class="st34" d="M1023.82,317.41l-0.81-2.86l-0.01-0.02c-0.22-0.79,0.24-1.61,1.03-1.84c0.79-0.22,1.61,0.24,1.84,1.03l0,0
				l0.82,2.91c0.22,0.79-0.24,1.61-1.03,1.83c-0.79,0.22-1.61-0.24-1.83-1.03L1023.82,317.41z"/>
			<path class="st34" d="M1020.3,306.04l-0.99-2.8l-0.01-0.02c-0.27-0.78,0.13-1.63,0.91-1.9c0.78-0.27,1.63,0.13,1.9,0.91l0,0
				l1.01,2.85c0.27,0.78-0.13,1.63-0.91,1.9c-0.78,0.27-1.63-0.13-1.9-0.91L1020.3,306.04z"/>
			<path class="st34" d="M1016.06,294.92l-1.17-2.74l-0.01-0.02c-0.32-0.76,0.03-1.63,0.78-1.96c0.76-0.32,1.63,0.03,1.96,0.78l0,0
				l1.19,2.78c0.32,0.76-0.03,1.63-0.79,1.96c-0.76,0.32-1.63-0.03-1.96-0.79L1016.06,294.92z"/>
			<path class="st34" d="M1011.12,284.09l-1.34-2.66l-0.01-0.02c-0.37-0.74-0.08-1.64,0.66-2.01c0.74-0.37,1.64-0.08,2.01,0.66l0,0
				l1.36,2.7c0.37,0.74,0.08,1.64-0.66,2.01c-0.74,0.37-1.64,0.08-2.01-0.66L1011.12,284.09z"/>
			<path class="st34" d="M1005.5,273.59l-1.51-2.57l-0.01-0.02c-0.42-0.71-0.18-1.63,0.53-2.05c0.71-0.42,1.63-0.18,2.05,0.53l0,0
				l1.53,2.61c0.42,0.71,0.18,1.63-0.53,2.05c-0.71,0.42-1.63,0.18-2.05-0.53L1005.5,273.59z"/>
			<path class="st34" d="M999.22,263.48l-1.67-2.46l-0.02-0.03c-0.46-0.68-0.29-1.62,0.4-2.08c0.69-0.46,1.62-0.29,2.08,0.4l1.7,2.5
				c0.47,0.68,0.29,1.62-0.4,2.08c-0.68,0.47-1.62,0.29-2.08-0.4l0,0L999.22,263.48z"/>
			<path class="st34" d="M992.26,253.85l-1.85-2.33l-0.01-0.02c-0.51-0.64-0.4-1.57,0.23-2.07c0.64-0.51,1.56-0.41,2.07,0.23
				l1.89,2.36c0.51,0.64,0.41,1.57-0.23,2.08c-0.64,0.51-1.57,0.41-2.08-0.23l0,0L992.26,253.85z"/>
			<path class="st34" d="M984.64,244.7l-1.98-2.23l-0.01-0.01c-0.53-0.6-0.48-1.52,0.12-2.05c0.6-0.53,1.52-0.49,2.05,0.11
				l2.01,2.24c0.54,0.6,0.49,1.52-0.11,2.06c-0.6,0.54-1.52,0.49-2.06-0.11l0,0L984.64,244.7z"/>
			<path class="st34" d="M976.55,235.92l-2.08-2.15l-0.01-0.01c-0.55-0.57-0.53-1.48,0.03-2.03c0.57-0.55,1.47-0.54,2.02,0.03
				l2.1,2.16c0.55,0.57,0.54,1.48-0.03,2.03c-0.57,0.55-1.48,0.54-2.03-0.03L976.55,235.92L976.55,235.92z"/>
			<path class="st34" d="M968.14,227.44l-2.15-2.08l-0.01-0.01c-0.56-0.54-0.57-1.44-0.03-2c0.54-0.56,1.43-0.58,1.99-0.04
				l2.17,2.09c0.56,0.54,0.58,1.44,0.04,2c-0.54,0.56-1.44,0.58-2,0.04L968.14,227.44L968.14,227.44z"/>
			<path class="st34" d="M959.46,219.21l-2.21-2.02l-0.01-0.01c-0.57-0.52-0.6-1.4-0.09-1.96c0.52-0.57,1.39-0.61,1.96-0.09
				l2.23,2.02c0.57,0.52,0.61,1.4,0.09,1.97c-0.52,0.57-1.4,0.61-1.97,0.09L959.46,219.21L959.46,219.21z"/>
			<path class="st34" d="M950.56,211.21l-2.25-1.97l-0.01-0.01c-0.57-0.5-0.63-1.36-0.13-1.93c0.5-0.57,1.36-0.63,1.93-0.13
				l2.27,1.97c0.57,0.5,0.64,1.36,0.14,1.94C952.01,211.65,951.14,211.71,950.56,211.21L950.56,211.21L950.56,211.21z"/>
			<path class="st34" d="M941.48,203.41l-2.29-1.92l-0.01,0c-0.56-0.47-0.63-1.31-0.16-1.87c0.47-0.56,1.3-0.63,1.85-0.17l2.32,1.91
				c0.57,0.47,0.65,1.31,0.18,1.89c-0.47,0.57-1.31,0.65-1.89,0.18L941.48,203.41L941.48,203.41z"/>
			<path class="st34" d="M932.25,195.78l-2.33-1.88l-0.01,0c-0.54-0.44-0.63-1.23-0.19-1.77c0.43-0.54,1.22-0.63,1.76-0.2l2.36,1.86
				c0.55,0.44,0.65,1.24,0.21,1.79c-0.44,0.55-1.24,0.65-1.79,0.21L932.25,195.78L932.25,195.78z"/>
			<path class="st34" d="M922.87,188.34l-2.37-1.83l0,0c-0.52-0.4-0.62-1.16-0.22-1.68c0.4-0.52,1.15-0.62,1.67-0.22l2.4,1.81
				c0.54,0.4,0.64,1.17,0.24,1.7c-0.4,0.54-1.17,0.64-1.7,0.24L922.87,188.34L922.87,188.34z"/>
			<path class="st34" d="M913.33,181.1l-2.41-1.78l0,0c-0.5-0.37-0.61-1.09-0.24-1.59c0.37-0.5,1.08-0.61,1.58-0.25l2.44,1.76
				c0.52,0.37,0.63,1.09,0.26,1.61c-0.37,0.52-1.09,0.63-1.61,0.26L913.33,181.1L913.33,181.1z"/>
			<path class="st34" d="M903.64,174.06l-2.45-1.73l-0.01,0c-0.48-0.34-0.6-1.01-0.26-1.5c0.34-0.48,1-0.6,1.49-0.26l2.47,1.71
				c0.5,0.34,0.62,1.02,0.28,1.52c-0.34,0.5-1.02,0.62-1.52,0.28L903.64,174.06L903.64,174.06z"/>
			<path class="st34" d="M893.81,167.22l-2.48-1.67l-0.01,0c-0.45-0.3-0.57-0.91-0.26-1.36c0.3-0.44,0.9-0.56,1.35-0.27l2.52,1.64
				c0.47,0.3,0.6,0.93,0.3,1.39c-0.3,0.47-0.93,0.6-1.39,0.3C893.83,167.23,893.82,167.23,893.81,167.22L893.81,167.22z"/>
			<path class="st34" d="M883.82,160.62l-2.53-1.6l-0.01,0c-0.41-0.26-0.53-0.8-0.27-1.22c0.26-0.41,0.79-0.53,1.2-0.28l2.57,1.57
				c0.43,0.26,0.56,0.82,0.3,1.25c-0.26,0.43-0.82,0.56-1.25,0.3c0,0-0.01,0-0.01-0.01L883.82,160.62z"/>
			<path class="st34" d="M873.63,154.34l-2.58-1.51l-0.01,0c-0.37-0.22-0.5-0.7-0.28-1.07c0.22-0.37,0.69-0.49,1.06-0.29l2.62,1.47
				c0.39,0.22,0.53,0.71,0.31,1.1c-0.22,0.39-0.71,0.53-1.1,0.31c0,0-0.01,0-0.01,0L873.63,154.34z"/>
			<path class="st34" d="M863.2,148.46l-2.65-1.38l-0.01,0c-0.32-0.17-0.44-0.56-0.27-0.88c0.16-0.31,0.55-0.44,0.86-0.28l2.7,1.33
				c0.34,0.17,0.48,0.58,0.31,0.91c-0.17,0.34-0.58,0.48-0.91,0.31c0,0-0.01,0-0.01-0.01L863.2,148.46z"/>
		</g>
		<g>
			
				<linearGradient id="SVGID_65_" gradientUnits="userSpaceOnUse" x1="11635.7061" y1="-4151.7324" x2="11555.3867" y2="-4200.4111" gradientTransform="matrix(0.9972 0.0743 -0.2459 0.8948 -11726.6025 3014.2732)">
				<stop  offset="0" style="stop-color:#A737D5"/>
				<stop  offset="1" style="stop-color:#EF497A"/>
			</linearGradient>
			<polygon class="st75" points="852.76,120.99 848.5,138.64 838.38,128.16 			"/>
			
				<linearGradient id="SVGID_66_" gradientUnits="userSpaceOnUse" x1="11591.1279" y1="-4169.7305" x2="11499.2139" y2="-4266.918" gradientTransform="matrix(0.9972 0.0743 -0.2459 0.8948 -11726.6025 3014.2732)">
				<stop  offset="0" style="stop-color:#A737D5"/>
				<stop  offset="1" style="stop-color:#EF497A"/>
			</linearGradient>
			<path class="st76" d="M775.84,91.7l37.57,53.31c0.72,1.02,1.82,1.7,3.06,1.89c1.23,0.19,2.49-0.13,3.49-0.89l52.11-39.74
				c0.6-0.46,0.86-1.23,0.66-1.95c-0.2-0.72-0.81-1.26-1.56-1.34L775.84,91.7z"/>
			
				<linearGradient id="SVGID_67_" gradientUnits="userSpaceOnUse" x1="11629.8418" y1="-4152.5425" x2="11554.8115" y2="-4198.0156" gradientTransform="matrix(0.9972 0.0743 -0.2459 0.8948 -11726.6025 3014.2732)">
				<stop  offset="0" style="stop-color:#A737D5"/>
				<stop  offset="1" style="stop-color:#EF497A"/>
			</linearGradient>
			<polygon class="st77" points="852.76,120.99 775.84,91.7 844.37,127.43 843.39,132.37 			"/>
			
				<linearGradient id="SVGID_68_" gradientUnits="userSpaceOnUse" x1="-14710.9619" y1="-3716.9331" x2="-14676.6758" y2="-3726.8633" gradientTransform="matrix(-0.9972 -0.0743 -0.0743 0.9972 -14085.0078 2751.928)">
				<stop  offset="0" style="stop-color:#A737D5"/>
				<stop  offset="1" style="stop-color:#EF497A"/>
			</linearGradient>
			<polygon class="st78" points="839.36,131.21 848.5,138.64 844.37,127.43 			"/>
		</g>
	</g>
	<g>
		
			<linearGradient id="SVGID_69_" gradientUnits="userSpaceOnUse" x1="11612.1582" y1="462.5529" x2="11553.0957" y2="496.2649" gradientTransform="matrix(-1 0 0 1 12397.9824 0)">
			<stop  offset="0" style="stop-color:#F9B776"/>
			<stop  offset="1" style="stop-color:#F47960"/>
		</linearGradient>
		<path class="st79" d="M794.8,517.51c0.07-0.03,37.53-65.63,42.59-71.81c0.85-1.04,2.17-1.57,3.5-1.41l10.46,1.25l12.28,26.58
			l-20.46-11.92c2.02,14.01-24.27,34.82-33.28,42.41c-0.92,0.77-0.99,2.15-0.16,3.02l3.6,3.77c-5.91,5.99-12.73,9.84-20.43,11.62
			L794.8,517.51z"/>
		
			<linearGradient id="SVGID_70_" gradientUnits="userSpaceOnUse" x1="-4360.9219" y1="-3215.8875" x2="-4365.4561" y2="-3146.366" gradientTransform="matrix(0.8974 -0.4412 0.4412 0.8974 6125.8867 1458.1592)">
			<stop  offset="0" style="stop-color:#CB236D"/>
			<stop  offset="1" style="stop-color:#4C246D"/>
		</linearGradient>
		<path class="st80" d="M811.25,507.36c0,0,2.3,0.74,3.08,2.79c0.37,0.98-0.03,2.09-0.88,2.7c-3.78,2.71-16.26,11.46-22.02,13.17
			c-0.47,0.14-0.92-0.29-0.81-0.77c0.3-1.34,1.25-4.01,4.33-7.92l-0.28,0.56c-0.35,0.71,0.42,1.44,1.11,1.06
			C799.62,516.78,807.47,512.02,811.25,507.36z"/>
		
			<linearGradient id="SVGID_71_" gradientUnits="userSpaceOnUse" x1="11606.4443" y1="470.9604" x2="11808.5283" y2="344.4531" gradientTransform="matrix(-1 0 0 1 12397.9824 0)">
			<stop  offset="0" style="stop-color:#F9B776"/>
			<stop  offset="1" style="stop-color:#F47960"/>
		</linearGradient>
		<path class="st81" d="M809.4,533.61c0.06-0.04,5.68-13.58,5.75-13.62c5.15-31.38,17.73-58.25,21.43-65.32
			c0.62-1.19,1.81-1.97,3.15-2.09l10.49-0.9l17.41,23.54l-22.45-7.53c4.82,13.31-16.72,39.01-24.01,48.27
			c-0.74,0.94-0.53,2.31,0.45,2.99l4.29,2.96c-4.58,7.06-10.47,12.21-17.65,15.51L809.4,533.61z"/>
		
			<linearGradient id="SVGID_72_" gradientUnits="userSpaceOnUse" x1="-3324.1904" y1="-4612.5742" x2="-3328.7241" y2="-4543.0576" gradientTransform="matrix(0.7895 -0.6137 0.6137 0.7895 6259.0488 2114.6309)">
			<stop  offset="0" style="stop-color:#CB236D"/>
			<stop  offset="1" style="stop-color:#4C246D"/>
		</linearGradient>
		<path class="st82" d="M823.45,520.35c0,0,2.4,0.26,3.58,2.11c0.56,0.88,0.39,2.05-0.32,2.82c-3.16,3.42-13.61,14.51-18.9,17.36
			c-0.43,0.23-0.96-0.09-0.95-0.59c0.02-1.37,0.41-4.18,2.64-8.63l-0.16,0.6c-0.2,0.76,0.7,1.33,1.3,0.81
			C813.97,531.92,820.69,525.67,823.45,520.35z"/>
		<g>
			
				<linearGradient id="SVGID_73_" gradientUnits="userSpaceOnUse" x1="2775.1934" y1="2154.3557" x2="2726.5591" y2="2244.1423" gradientTransform="matrix(-1 0 0 1 4566.2827 0)">
				<stop  offset="0" style="stop-color:#A737D5"/>
				<stop  offset="1" style="stop-color:#EF497A"/>
			</linearGradient>
			<path class="st83" d="M899.33,446.73c0,0,9.49,14.12,10.27,20.56c0.78,6.44-2.62,8.67-12.56,9.49
				c-29.56,2.44-44.14-6.42-44.14-6.42c-2.02-12.89-3.46-16.17-20.35-23.19c0,0,21.36,1.7,25.66,0.03
				C862.51,445.53,899.33,446.73,899.33,446.73z"/>
		</g>
		<g>
			
				<linearGradient id="SVGID_74_" gradientUnits="userSpaceOnUse" x1="-7756.6265" y1="-7.0927" x2="-7742.1025" y2="29.3395" gradientTransform="matrix(0.9446 -0.3283 0.3283 0.9446 8180.5957 -2191.7957)">
				<stop  offset="0" style="stop-color:#2B3582"/>
				<stop  offset="1" style="stop-color:#150E42"/>
			</linearGradient>
			<path class="st84" d="M861.48,367.63c0,0,6.61-7.82,13.64,1.77c1.27,1.74,6.16,0.3,7.95,3.94c0.93,1.88,2.92,2.95,4.98,2.57
				c5.13-0.95,13.51-1.03,17.65,7.01c3.16,6.13,0.72,9.72-2.44,11.77c-2.32,1.5-3.15,4.56-1.74,6.94c1.35,2.28,1.6,5.38-1.88,9.1
				c-7.78,8.34-23.19-5.29-23.19-5.29l-12.23-28.91L861.48,367.63z"/>
			
				<linearGradient id="SVGID_75_" gradientUnits="userSpaceOnUse" x1="7316.3755" y1="-5334.3286" x2="7343.3755" y2="-5297.3286" gradientTransform="matrix(-1 0 0 1 12397.9824 0)">
				<stop  offset="0" style="stop-color:#A737D5"/>
				<stop  offset="1" style="stop-color:#EF497A"/>
			</linearGradient>
			<path class="st85" d="M873.66,444.86c0,0-11.05-10.52-16.49-17.5c-2.94-3.77-3.86-8.73-2.5-13.31c2.48-8.37,6.9-17.04,7.3-18.39
				c0.62-2.07,13.01-1.98,13.01-1.98s24.39,15.83,33.97,42.64l-10.76,3.35c0,0-6.37-10.68-12.66-17.48c0,0,10.89,14.38,11.27,20.27
				L873.66,444.86z"/>
			
				<linearGradient id="SVGID_76_" gradientUnits="userSpaceOnUse" x1="-5622.249" y1="443.1209" x2="-5563.4141" y2="443.1209" gradientTransform="matrix(1 0 0 1 6511.52 0)">
				<stop  offset="0" style="stop-color:#F9B776"/>
				<stop  offset="1" style="stop-color:#F47960"/>
			</linearGradient>
			<path class="st86" d="M852.6,449.01l8.31-9.04l9.59,2.58c0,0,11.18,1.73,17.58,0c6.4-1.73,6.4-1.73,6.4-1.73l14.46-4.5l2.27,6.42
				c0.58,1.63,0,3.44-1.41,4.44c-1.25,0.89-2.72,1.87-3.65,2.28c-1.9,0.83-43.88,0.26-43.88,0.26L852.6,449.01z"/>
			
				<linearGradient id="SVGID_77_" gradientUnits="userSpaceOnUse" x1="-7423.1904" y1="-128.8199" x2="-7420.3145" y2="-149.8607" gradientTransform="matrix(0.9974 -0.0717 0.0717 0.9974 8278.4512 11.2429)">
				<stop  offset="0" style="stop-color:#F9B776"/>
				<stop  offset="1" style="stop-color:#F47960"/>
			</linearGradient>
			<path class="st87" d="M866.46,378.79l8.33,15.49c-0.55,3.38-9.07,3.48-10.38,1.46c-0.13-0.21-0.21-0.44-0.26-0.68l-4.98-10.35
				c-0.21-1.01,2.55-4.41,3.46-4.89l3.31-1.76C867.21,377.37,861.89,377.31,866.46,378.79z"/>
			<g>
				
					<linearGradient id="SVGID_78_" gradientUnits="userSpaceOnUse" x1="-8411.9795" y1="-1132.5267" x2="-8384.8994" y2="-1180.7205" gradientTransform="matrix(0.5458 -0.8379 0.8379 0.5458 6407.5293 -6033.1948)">
					<stop  offset="0" style="stop-color:#F9B776"/>
					<stop  offset="1" style="stop-color:#F47960"/>
				</linearGradient>
				<path class="st88" d="M849.6,375.15c0,0-0.94,5.23,3.17,11.89c4.11,6.65,8.21,6.35,10.29,3.98c2.08-2.37,4.57-6.32,3.44-12.96
					C865.37,371.42,851.02,368.48,849.6,375.15z"/>
				
					<linearGradient id="SVGID_79_" gradientUnits="userSpaceOnUse" x1="-8406.1562" y1="-1174.4958" x2="-8392.6162" y2="-1140.5311" gradientTransform="matrix(0.5458 -0.8379 0.8379 0.5458 6407.5293 -6033.1948)">
					<stop  offset="0" style="stop-color:#2B3582"/>
					<stop  offset="1" style="stop-color:#150E42"/>
				</linearGradient>
				<path class="st89" d="M861.52,378.78c0,0-6.66-8.75-11.77-1.12l0.09,2.63c0,0-6.65-0.31-5.93-6.44
					c0.72-6.13,6.15-10.32,13.68-8.22c7.53,2.09,11.92,4.48,12.77,9.7c0.85,5.23-3.42,4.37-3.42,4.37s-1.63-3.61-3.6-3.85
					c-1.97-0.25-1.26,2.61-1.26,2.61L861.52,378.78z"/>
				
					<linearGradient id="SVGID_80_" gradientUnits="userSpaceOnUse" x1="-8406.2148" y1="-1129.2883" x2="-8379.1348" y2="-1177.4812" gradientTransform="matrix(0.5458 -0.8379 0.8379 0.5458 6407.5293 -6033.1948)">
					<stop  offset="0" style="stop-color:#F9B776"/>
					<stop  offset="1" style="stop-color:#F47960"/>
				</linearGradient>
				<path class="st90" d="M863.05,378.54c0,0-3.45-4.48-0.31-5.41c3.14-0.93,3.02,4.39,2.82,6.36L863.05,378.54z"/>
			</g>
		</g>
		<g>
			
				<linearGradient id="SVGID_81_" gradientUnits="userSpaceOnUse" x1="697.063" y1="-35.5616" x2="670.7297" y2="-34.2283" gradientTransform="matrix(0.9988 -0.0494 0.0494 0.9988 6540.4219 -118.7758)">
				<stop  offset="0" style="stop-color:#2B3582"/>
				<stop  offset="1" style="stop-color:#150E42"/>
			</linearGradient>
			<path class="st91" d="M880.09,452.59c-0.03,0-0.06,0-0.09,0l-38.2-0.04c-0.94,0-1.71-0.77-1.71-1.71c0-0.94,0.77-1.73,1.71-1.71
				l38.2,0.04c0.94,0,1.71,0.77,1.71,1.71C881.71,451.8,881,452.55,880.09,452.59z"/>
			
				<linearGradient id="SVGID_82_" gradientUnits="userSpaceOnUse" x1="5846.2798" y1="437.4871" x2="6123.1001" y2="414.197" gradientTransform="matrix(1 0 0 1 -5039.5898 0)">
				<stop  offset="0" style="stop-color:#2B3582"/>
				<stop  offset="1" style="stop-color:#150E42"/>
			</linearGradient>
			<path class="st92" d="M807.46,417.91h31.81c2.35,0,4.48,1.35,5.48,3.48l14.71,31.19h-39.54c-1.51,0-2.87-0.92-3.43-2.33
				l-11.4-28.86C804.44,419.71,805.67,417.91,807.46,417.91z"/>
		</g>
	</g>
</g>
</svg>
