<?xml version="1.0" encoding="utf-8"?>
<!-- Generator: Adobe Illustrator 25.2.1, SVG Export Plug-In . SVG Version: 6.00 Build 0)  -->
<svg version="1.1" xmlns="http://www.w3.org/2000/svg" xmlns:xlink="http://www.w3.org/1999/xlink" x="0px" y="0px"
	 viewBox="0 0 3710 3710" style="enable-background:new 0 0 3710 3710;" xml:space="preserve">
<style type="text/css">
	.st0{fill:#FFFFFF;}
	.st1{opacity:0.3;fill:url(#SVGID_1_);}
	.st2{fill:url(#SVGID_2_);}
	.st3{fill:url(#SVGID_3_);}
	.st4{fill:url(#SVGID_4_);}
	.st5{fill:url(#SVGID_5_);}
	.st6{fill:url(#SVGID_6_);}
	.st7{opacity:0.39;fill:#FFFFFF;}
	.st8{opacity:0.55;fill:#FFFFFF;}
	.st9{opacity:0.42;fill:#FFFFFF;}
	.st10{fill:url(#SVGID_7_);}
	.st11{opacity:0.2;}
	.st12{fill:url(#SVGID_8_);}
	.st13{fill:url(#SVGID_9_);}
	.st14{opacity:0.8;fill:#FFFFFF;}
	.st15{fill:url(#SVGID_10_);}
	.st16{fill:url(#SVGID_11_);}
	.st17{fill:url(#SVGID_12_);}
	.st18{fill:url(#SVGID_13_);}
	.st19{fill:url(#SVGID_14_);}
	.st20{opacity:0.8;}
	.st21{fill:url(#SVGID_15_);}
	.st22{fill:url(#SVGID_16_);}
	.st23{fill:url(#SVGID_17_);}
	.st24{fill:url(#SVGID_18_);}
	.st25{opacity:0.78;fill:#FFFFFF;}
	.st26{fill:url(#SVGID_19_);}
	.st27{fill:url(#SVGID_20_);}
	.st28{fill:url(#SVGID_21_);}
	.st29{fill:url(#SVGID_22_);}
	.st30{fill:url(#SVGID_23_);}
	.st31{fill:url(#SVGID_24_);}
	.st32{fill:url(#SVGID_25_);}
	.st33{fill:url(#SVGID_26_);}
	.st34{fill:url(#SVGID_27_);}
	.st35{fill:url(#SVGID_28_);}
	.st36{fill:url(#SVGID_29_);}
	.st37{fill:url(#SVGID_30_);}
	.st38{fill:url(#SVGID_31_);}
	.st39{fill:url(#SVGID_32_);}
	.st40{fill:url(#SVGID_33_);}
	.st41{fill:url(#SVGID_34_);}
	.st42{fill:url(#SVGID_35_);}
	.st43{fill:url(#SVGID_36_);}
	.st44{fill:url(#SVGID_37_);}
	.st45{fill:url(#SVGID_38_);}
	.st46{fill:url(#SVGID_39_);}
	.st47{fill:url(#SVGID_40_);}
	.st48{fill:url(#SVGID_41_);}
	.st49{fill:url(#SVGID_42_);}
	.st50{fill:url(#SVGID_43_);}
	.st51{fill:url(#SVGID_44_);}
	.st52{fill:url(#SVGID_45_);}
	.st53{fill:url(#SVGID_46_);}
	.st54{fill:url(#SVGID_47_);}
	.st55{fill:url(#SVGID_48_);}
	.st56{fill:url(#SVGID_49_);}
	.st57{fill:url(#SVGID_50_);}
	.st58{fill:url(#SVGID_51_);}
	.st59{fill:url(#SVGID_52_);}
	.st60{fill:url(#SVGID_53_);}
	.st61{fill:url(#SVGID_54_);}
	.st62{fill:url(#SVGID_55_);}
	.st63{fill:url(#SVGID_56_);}
	.st64{fill:url(#SVGID_57_);}
	.st65{fill:url(#SVGID_58_);}
	.st66{fill:url(#SVGID_59_);}
	.st67{fill:url(#SVGID_60_);}
	.st68{fill:url(#SVGID_61_);}
	.st69{fill:url(#SVGID_62_);}
	.st70{fill:url(#SVGID_63_);}
	.st71{fill:url(#SVGID_64_);}
	.st72{fill:url(#SVGID_65_);}
	.st73{fill:url(#SVGID_66_);}
	.st74{fill:url(#SVGID_67_);}
	.st75{fill:url(#SVGID_68_);}
	.st76{fill:url(#SVGID_69_);}
	.st77{fill:url(#SVGID_70_);}
</style>
<g id="Background">
	<g>
		<g>
			<rect class="st0" width="3710" height="3710"/>
		</g>
	</g>
</g>
<g id="Illustration">
	<g>
		<linearGradient id="SVGID_1_" gradientUnits="userSpaceOnUse" x1="3574.6462" y1="4037.7146" x2="1118.999" y2="987.9546">
			<stop  offset="0" style="stop-color:#B37CFF"/>
			<stop  offset="1" style="stop-color:#F895E7"/>
		</linearGradient>
		<path class="st1" d="M2899.08,2835c-56.41,59.38-109.78,97.68-151.94,127.93c-495.66,355.64-1082.16,251.97-1206.81,226.66
			c-184.07-37.38-539.86-109.65-797.09-412.15c-389.17-457.66-328.57-1178.69-26.7-1654.65c55.22-87.06,346.89-570.27,939.7-647.76
			c358.77-46.9,776.97,47.69,1079.82,301.42C3371.78,1309.05,3326.52,2385.01,2899.08,2835z"/>
		<g>
			
				<linearGradient id="SVGID_2_" gradientUnits="userSpaceOnUse" x1="-938.5711" y1="2831.8057" x2="-383.2591" y2="1165.8649" gradientTransform="matrix(-1 0 0 1 1155.7772 0)">
				<stop  offset="0" style="stop-color:#2B3582"/>
				<stop  offset="1" style="stop-color:#150E42"/>
			</linearGradient>
			<path class="st2" d="M660.49,2892.24c0,23.89,19.57,43.44,43.48,43.44h2351.24c23.91,0,43.48-19.55,43.48-43.44l19.56-1351.19
				c0-23.89-28.15-70.53-79.73-67.03l-2297.89-59.46c-30.01-0.78-59.02,10.77-80.26,31.95c-21.25,21.18-32.87,50.14-32.17,80.11
				L660.49,2892.24z"/>
			<linearGradient id="SVGID_3_" gradientUnits="userSpaceOnUse" x1="2806.729" y1="1353.1857" x2="781.3643" y2="3131.4099">
				<stop  offset="0" style="stop-color:#A737D5"/>
				<stop  offset="1" style="stop-color:#EF497A"/>
			</linearGradient>
			<path class="st3" d="M703.41,2850.57c0,22.62,18.51,41.14,41.14,41.14h2253.96c22.62,0,41.14-18.51,41.14-41.14l18.46-1226.63
				c-2.17-73.82-66.89-100.35-106.12-98.78l-2202.32-59.08c-21.08-0.57-41.46,7.56-56.39,22.45
				c-14.93,14.89-23.14,35.27-22.61,56.35L703.41,2850.57z"/>
			<g>
				<path class="st0" d="M3015.29,2267.83c-0.03,0-0.06,0-0.09,0c-3.33-0.05-5.99-2.79-5.94-6.12l1.46-99.48
					c0.05-3.3,2.74-5.94,6.02-5.94c0.03,0,0.06,0,0.09,0c3.33,0.05,5.99,2.79,5.94,6.12l-1.46,99.48
					C3021.26,2265.19,3018.57,2267.83,3015.29,2267.83z"/>
				<path class="st0" d="M3018.87,2024.06c-0.03,0-0.06,0-0.09,0c-3.33-0.05-5.99-2.79-5.94-6.12l5.59-381
					c-0.11-22.63-6.97-40.7-20.42-53.58c-25.1-24.05-64.94-22.82-66.62-22.74l-703.91-18.88c-3.33-0.08-5.95-2.86-5.86-6.19
					c0.09-3.33,2.64-6.16,6.19-5.86l703.49,18.88c4.38-0.26,46.8-0.99,75.06,26.08c15.89,15.23,24.01,36.21,24.14,62.35l-5.6,381.12
					C3024.84,2021.42,3022.15,2024.06,3018.87,2024.06z"/>
			</g>
			
				<linearGradient id="SVGID_4_" gradientUnits="userSpaceOnUse" x1="353.9706" y1="2732.1194" x2="-2119.8037" y2="3333.8479" gradientTransform="matrix(-1 0 0 1 1155.7772 0)">
				<stop  offset="0" style="stop-color:#2B3582"/>
				<stop  offset="1" style="stop-color:#150E42"/>
			</linearGradient>
			<path class="st4" d="M475.4,3047.85h2760.71c3.11,0,5.65-2.54,5.65-5.65v-107.41c0-3.11-2.54-5.65-5.65-5.65H475.4
				c-3.11,0-5.65,2.54-5.65,5.65v107.41C469.74,3045.3,472.29,3047.85,475.4,3047.85z"/>
		</g>
		<g>
			<linearGradient id="SVGID_5_" gradientUnits="userSpaceOnUse" x1="2084.7212" y1="13.6085" x2="1349.0227" y2="5368.5596">
				<stop  offset="0" style="stop-color:#53D8FF"/>
				<stop  offset="0.2057" style="stop-color:#4DB9FD"/>
				<stop  offset="1" style="stop-color:#3840F7"/>
			</linearGradient>
			<path class="st5" d="M2611.7,479.47l-1631.59-9.99c-53.62-0.33-96.51,44.46-93.85,98.02l112.25,2318.09h1815.65L2914.97,814.5
				L2611.7,479.47z"/>
			<linearGradient id="SVGID_6_" gradientUnits="userSpaceOnUse" x1="2894.594" y1="462.428" x2="3527.7791" y2="-417.9997">
				<stop  offset="0" style="stop-color:#53D8FF"/>
				<stop  offset="0.2057" style="stop-color:#4DB9FD"/>
				<stop  offset="1" style="stop-color:#3840F7"/>
			</linearGradient>
			<path class="st6" d="M2679.54,804.57c-53.15-1.87-94.01-47.68-89.82-100.69l17.49-221.35l308.08,330.62L2679.54,804.57z"/>
			<g>
				<path class="st7" d="M2619.31,1656.18H1203.96c-42.7,0-77.68-19.51-78.98-44.06l-29.57-558.27
					c-1.36-25.63,34.4-46.83,78.98-46.83h1444.93c43.64,0,79.02,20.35,79.02,45.44v558.27
					C2698.33,1635.83,2662.95,1656.18,2619.31,1656.18z"/>
				<path class="st0" d="M2617.04,1661.17H1201.68c-45.64,0-82.52-21.43-83.97-48.79l-29.57-558.27
					c-0.5-9.47,3.28-18.74,10.92-26.81c14.79-15.59,42.78-25.28,73.04-25.28h1444.93c47.11,0,84.01,22.15,84.01,50.44v558.27
					C2701.05,1639.02,2664.15,1661.17,2617.04,1661.17z M1172.11,1012.01c-27.62,0-52.83,8.49-65.8,22.16
					c-5.8,6.11-8.55,12.64-8.2,19.41l29.57,558.27c1.15,21.69,34.34,39.33,73.99,39.33h1415.36c40.12,0,74.02-18.52,74.02-40.45
					v-558.27c0-21.93-33.9-40.45-74.02-40.45H1172.11z"/>
				
					<rect x="1183.05" y="1324.38" transform="matrix(4.886490e-03 -1 1 4.886490e-03 173.1181 2832.7148)" class="st0" width="653.62" height="9.99"/>
				
					<rect x="2015.27" y="1324.38" transform="matrix(4.886490e-03 -1 1 4.886490e-03 1001.2778 3664.9312)" class="st0" width="653.62" height="9.99"/>
				
					<rect x="2098.78" y="595.57" transform="matrix(4.897240e-03 -1 1 4.897240e-03 905.6222 3285.7927)" class="st0" width="9.99" height="1184.59"/>
				<rect x="1508.22" y="1436.73" class="st0" width="1187.72" height="9.99"/>
			</g>
			<g>
				<path class="st7" d="M2621.74,2741.39H1206.38c-42.7,0-77.68-19.51-78.98-44.06l-29.57-558.27
					c-1.36-25.63,34.4-46.83,78.98-46.83h1444.93c43.64,0,79.02,20.35,79.02,45.44v558.27
					C2700.75,2721.05,2665.38,2741.39,2621.74,2741.39z"/>
				<path class="st0" d="M2619.46,2746.39H1204.11c-45.64,0-82.52-21.43-83.97-48.79l-29.57-558.27
					c-0.5-9.47,3.28-18.74,10.92-26.81c14.79-15.59,42.78-25.28,73.04-25.28h1444.93c47.11,0,84.01,22.15,84.01,50.44v558.27
					C2703.47,2724.23,2666.57,2746.39,2619.46,2746.39z M1174.53,2097.23c-27.62,0-52.83,8.49-65.8,22.16
					c-5.8,6.11-8.55,12.64-8.2,19.41l29.57,558.27c1.15,21.69,34.34,39.33,73.99,39.33h1415.36c40.13,0,74.02-18.52,74.02-40.45
					v-558.27c0-21.93-33.9-40.45-74.02-40.45H1174.53z"/>
				
					<rect x="1185.47" y="2409.59" transform="matrix(4.886490e-03 -1 1 4.886490e-03 -909.6713 3915.0461)" class="st0" width="653.62" height="9.99"/>
				
					<rect x="2017.69" y="2409.59" transform="matrix(4.886490e-03 -1 1 4.886490e-03 -81.5117 4747.2627)" class="st0" width="653.62" height="9.99"/>
				
					<rect x="2101.2" y="1680.78" transform="matrix(4.897155e-03 -1 1 4.897155e-03 -177.167 4368.1128)" class="st0" width="9.99" height="1184.59"/>
				<rect x="1510.64" y="2521.94" class="st0" width="1187.72" height="9.99"/>
			</g>
			<path class="st8" d="M2541.15,896.59H1218.45c-4.28,0-7.76-3.47-7.76-7.76v-99.38c0-4.28,3.47-7.76,7.76-7.76h1322.69
				c4.28,0,7.76,3.47,7.76,7.76v99.38C2548.9,893.11,2545.43,896.59,2541.15,896.59z"/>
			<path class="st9" d="M2671.49,1850.97H1136.05c-3.81,0-6.9-3.09-6.9-6.9v-72.75c0-3.81,3.09-6.9,6.9-6.9h1535.45
				c3.81,0,6.9,3.09,6.9,6.9v72.75C2678.39,1847.88,2675.3,1850.97,2671.49,1850.97z"/>
			<path class="st9" d="M2666.99,1984.12H1131.55c-3.81,0-6.9-3.09-6.9-6.9v-72.75c0-3.81,3.09-6.9,6.9-6.9h1535.44
				c3.81,0,6.9,3.09,6.9,6.9v72.75C2673.89,1981.03,2670.8,1984.12,2666.99,1984.12z"/>
		</g>
		<g>
			
				<linearGradient id="SVGID_7_" gradientUnits="userSpaceOnUse" x1="718.5382" y1="2019.1362" x2="861.728" y2="1589.5658" gradientTransform="matrix(0.9994 -0.0353 0.0353 0.9994 1148.4005 -306.2733)">
				<stop  offset="0" style="stop-color:#2C759E"/>
				<stop  offset="1" style="stop-color:#051042"/>
			</linearGradient>
			<path class="st10" d="M2303.74,1336.6l3.56,304.99l0.55,47.22c0.22,6.16-4.66,11.38-10.81,11.6l-605.92,21.39
				c-6.16,0.22-11.39-4.65-11.61-10.81l-2.35-47.16l-14.98-300.86c-0.22-6.16,6.62-18.44,19.94-18l591.63-36.23
				c7.72-0.47,15.31,2.24,20.98,7.51C2300.39,1321.51,2303.65,1328.87,2303.74,1336.6z"/>
			<g class="st11">
				
					<linearGradient id="SVGID_8_" gradientUnits="userSpaceOnUse" x1="721.8969" y1="2011.7521" x2="856.4739" y2="1608.02" gradientTransform="matrix(0.9994 -0.0353 0.0353 0.9994 1148.4005 -306.2733)">
					<stop  offset="0" style="stop-color:#9CFFFB"/>
					<stop  offset="1" style="stop-color:#9BFFFA"/>
				</linearGradient>
				<path class="st12" d="M2292.69,1679.81c0.2,5.75-4.43,10.62-10.3,10.82l-577.21,20.38c-5.87,0.21-10.84-4.32-11.04-10.07
					l-16.27-324.78c-0.2-5.75,6.31-17.21,19-16.81l563.6-34.21c7.36-0.45,14.58,2.08,19.98,6.99c5.4,4.91,8.5,11.77,8.58,18.99
					L2292.69,1679.81z"/>
			</g>
			<path class="st0" d="M2217.47,1697.47c-1.65,0-3.01-1.31-3.07-2.97c-0.06-1.7,1.27-3.12,2.96-3.18l64.62-2.28
				c3.39-0.12,6.9-1.87,9.62-4.81c2.72-2.94,4.21-6.58,4.09-9.98l-6.98-197.63c-0.06-1.7,1.27-3.12,2.96-3.18
				c1.73-0.04,3.12,1.27,3.18,2.96l6.98,197.63c0.37,10.51-9.17,20.79-19.64,21.16l-64.62,2.28
				C2217.55,1697.47,2217.51,1697.47,2217.47,1697.47z"/>
			<path class="st0" d="M1682.63,1501.09c-1.65,0-3.01-1.31-3.07-2.97l-4.18-118.46c-0.22-6.32,1.97-12.77,6.03-17.71
				c4.31-5.26,10.17-8.27,16.49-8.5l51.33-1.81c1.73-0.1,3.12,1.27,3.18,2.96c0.06,1.7-1.27,3.12-2.96,3.18l-51.33,1.81
				c-4.53,0.16-8.78,2.38-11.95,6.25c-3.12,3.8-4.81,8.76-4.64,13.6l4.18,118.46c0.06,1.7-1.27,3.12-2.96,3.18
				C1682.7,1501.09,1682.67,1501.09,1682.63,1501.09z"/>
			<g>
				
					<linearGradient id="SVGID_9_" gradientUnits="userSpaceOnUse" x1="785.5036" y1="1758.2389" x2="536.6203" y2="1852.9468" gradientTransform="matrix(0.9994 -0.0353 0.0353 0.9994 1148.4005 -306.2733)">
					<stop  offset="0" style="stop-color:#E92556"/>
					<stop  offset="1" style="stop-color:#F9C342"/>
				</linearGradient>
				<path class="st13" d="M1828.2,1483.6c-0.22-6.19-5.41-11.03-11.61-10.81l-74.84,2.64c-6.19,0.22-11.03,5.41-10.81,11.61
					l2.01,56.93c0.22,6.19,5.41,11.03,11.61,10.81l74.84-2.64c6.19-0.22,11.03-5.41,10.81-11.61L1828.2,1483.6z"/>
				<g>
					<path class="st14" d="M1766.43,1531.44c-3.47,0-6.35-2.76-6.47-6.25l-0.66-18.79c-0.13-3.57,2.68-6.58,6.25-6.71l21.35-0.75
						c3.64-0.14,6.58,2.68,6.71,6.25l0,0l0.66,18.79c0.13,3.57-2.68,6.58-6.25,6.71l-21.35,0.75
						C1766.59,1531.44,1766.51,1531.44,1766.43,1531.44z M1787.11,1505.09C1787.11,1505.09,1787.11,1505.09,1787.11,1505.09
						l-21.35,0.75c-0.18,0.01-0.33,0.16-0.32,0.34l0.66,18.79c0,0.18,0.12,0.32,0.34,0.32l21.35-0.75c0.18-0.01,0.33-0.16,0.32-0.34
						l-0.66-18.79C1787.44,1505.26,1787.27,1505.09,1787.11,1505.09z"/>
					<g>
						<path class="st0" d="M1731.8,1514.73c-1.65,0-3.01-1.31-3.07-2.97c-0.06-1.7,1.27-3.12,2.96-3.18l30.71-1.08
							c1.78-0.04,3.12,1.27,3.18,2.96c0.06,1.7-1.27,3.12-2.96,3.18l-30.71,1.08C1731.88,1514.73,1731.84,1514.73,1731.8,1514.73z"
							/>
						<path class="st0" d="M1732.07,1522.41c-1.65,0-3.01-1.31-3.07-2.97c-0.06-1.7,1.27-3.12,2.96-3.18l30.71-1.08
							c1.74-0.06,3.12,1.27,3.18,2.96c0.06,1.7-1.27,3.12-2.96,3.18l-30.71,1.08C1732.15,1522.41,1732.11,1522.41,1732.07,1522.41z"
							/>
					</g>
					<g>
						<path class="st0" d="M1795.79,1512.47c-1.65,0-3.01-1.31-3.07-2.97c-0.06-1.7,1.27-3.12,2.96-3.18l33.27-1.17
							c1.75-0.06,3.12,1.27,3.18,2.96c0.06,1.7-1.27,3.12-2.96,3.18l-33.27,1.17C1795.86,1512.47,1795.83,1512.47,1795.79,1512.47z"
							/>
						<path class="st0" d="M1796.06,1520.15c-1.65,0-3.01-1.31-3.07-2.97c-0.06-1.7,1.27-3.12,2.96-3.18l33.27-1.18
							c1.79-0.09,3.12,1.27,3.18,2.96c0.06,1.7-1.27,3.12-2.96,3.18l-33.27,1.18C1796.14,1520.15,1796.1,1520.15,1796.06,1520.15z"
							/>
					</g>
					<g>
						<g>
							<path class="st0" d="M1769.24,1505.84c-1.35,0-2.59-0.9-2.96-2.26l-7.58-27.62c-0.45-1.64,0.51-3.33,2.15-3.78
								c1.64-0.45,3.33,0.51,3.78,2.15l7.58,27.62c0.45,1.64-0.51,3.33-2.15,3.78C1769.78,1505.81,1769.51,1505.84,1769.24,1505.84z
								"/>
							<path class="st0" d="M1787.08,1505.21c-0.21,0-0.42-0.02-0.63-0.07c-1.66-0.35-2.73-1.97-2.38-3.64l5.86-28.1
								c0.35-1.66,1.98-2.72,3.64-2.38c1.66,0.35,2.73,1.97,2.38,3.64l-5.86,28.1C1789.78,1504.21,1788.51,1505.21,1787.08,1505.21z
								"/>
						</g>
						<g>
							<path class="st0" d="M1764.48,1558.12c-0.2,0-0.4-0.02-0.61-0.06c-1.66-0.33-2.75-1.95-2.41-3.62l5.61-28.09
								c0.33-1.66,1.96-2.74,3.62-2.41c1.66,0.33,2.75,1.95,2.41,3.62l-5.61,28.09C1767.2,1557.11,1765.92,1558.12,1764.48,1558.12z
								"/>
							<path class="st0" d="M1795.75,1557.01c-1.34,0-2.57-0.88-2.96-2.24l-7.82-27.61c-0.46-1.63,0.49-3.33,2.12-3.8
								c1.64-0.46,3.34,0.49,3.8,2.12l7.82,27.61c0.46,1.63-0.49,3.33-2.12,3.8C1796.31,1556.97,1796.03,1557.01,1795.75,1557.01z"
								/>
						</g>
					</g>
				</g>
			</g>
			
				<linearGradient id="SVGID_10_" gradientUnits="userSpaceOnUse" x1="555.7576" y1="1733.245" x2="338.5688" y2="1925.3738" gradientTransform="matrix(0.9994 -0.0353 0.0353 0.9994 1148.4005 -306.2733)">
				<stop  offset="0" style="stop-color:#53D8FF"/>
				<stop  offset="1" style="stop-color:#3840F7"/>
			</linearGradient>
			<path class="st15" d="M1825.25,1400.21c0.26,7.35-5.49,13.52-12.84,13.78l-83.43,2.95c-7.35,0.26-13.52-5.49-13.78-12.84
				l-0.05-1.53c-0.26-7.35,5.49-13.52,12.84-13.78l83.43-2.95c7.35-0.26,13.52,5.49,13.78,12.84L1825.25,1400.21z"/>
			<g>
				
					<linearGradient id="SVGID_11_" gradientUnits="userSpaceOnUse" x1="497.7822" y1="1982.4683" x2="400.4973" y2="2059.1169" gradientTransform="matrix(0.9994 -0.0353 0.0353 0.9994 1148.4005 -306.2733)">
					<stop  offset="0" style="stop-color:#53D8FF"/>
					<stop  offset="1" style="stop-color:#3840F7"/>
				</linearGradient>
				<path class="st16" d="M1840,1600.19c0.25,7.01-5.24,12.9-12.25,13.15l-92.33,3.26c-7.01,0.25-12.9-5.24-13.15-12.25l-0.01-0.19
					c-0.25-7.01,5.24-12.9,12.25-13.15l92.33-3.26c7.01-0.25,12.9,5.24,13.15,12.25L1840,1600.19z"/>
				
					<linearGradient id="SVGID_12_" gradientUnits="userSpaceOnUse" x1="630.9555" y1="1982.4707" x2="533.6707" y2="2059.1194" gradientTransform="matrix(0.9994 -0.0353 0.0353 0.9994 1148.4005 -306.2733)">
					<stop  offset="0" style="stop-color:#53D8FF"/>
					<stop  offset="1" style="stop-color:#3840F7"/>
				</linearGradient>
				<path class="st17" d="M1973.09,1595.49c0.25,7.01-5.24,12.9-12.25,13.15l-92.33,3.26c-7.01,0.25-12.9-5.24-13.15-12.25
					l-0.01-0.19c-0.25-7.01,5.24-12.9,12.25-13.15l92.33-3.26c7.01-0.25,12.9,5.24,13.15,12.25L1973.09,1595.49z"/>
				
					<linearGradient id="SVGID_13_" gradientUnits="userSpaceOnUse" x1="764.1287" y1="1982.4733" x2="666.8439" y2="2059.1218" gradientTransform="matrix(0.9994 -0.0353 0.0353 0.9994 1148.4005 -306.2733)">
					<stop  offset="0" style="stop-color:#53D8FF"/>
					<stop  offset="1" style="stop-color:#3840F7"/>
				</linearGradient>
				<path class="st18" d="M2106.19,1590.79c0.25,7.01-5.24,12.9-12.25,13.15l-92.33,3.26c-7.01,0.25-12.9-5.24-13.15-12.25
					l-0.01-0.19c-0.25-7.01,5.24-12.9,12.25-13.15l92.33-3.26c7.01-0.25,12.9,5.24,13.15,12.25L2106.19,1590.79z"/>
				
					<linearGradient id="SVGID_14_" gradientUnits="userSpaceOnUse" x1="899.863" y1="1982.4758" x2="802.5781" y2="2059.1245" gradientTransform="matrix(0.9994 -0.0353 0.0353 0.9994 1148.4005 -306.2733)">
					<stop  offset="0" style="stop-color:#53D8FF"/>
					<stop  offset="1" style="stop-color:#3840F7"/>
				</linearGradient>
				<path class="st19" d="M2241.84,1586c0.25,7.01-5.24,12.9-12.25,13.15l-92.33,3.26c-7.01,0.25-12.9-5.24-13.15-12.25l-0.01-0.19
					c-0.25-7.01,5.24-12.9,12.25-13.15l92.33-3.26c7.01-0.25,12.9,5.24,13.15,12.25L2241.84,1586z"/>
			</g>
			<g class="st20">
				
					<linearGradient id="SVGID_15_" gradientUnits="userSpaceOnUse" x1="508.5075" y1="2069.7073" x2="354.4294" y2="2191.1021" gradientTransform="matrix(0.9994 -0.0353 0.0353 0.9994 1148.4005 -306.2733)">
					<stop  offset="0" style="stop-color:#9CFFFB"/>
					<stop  offset="1" style="stop-color:#9BFFFA"/>
				</linearGradient>
				<path class="st21" d="M1929.01,1653.47c0.2,5.58-4.16,10.26-9.74,10.45l-171.76,6.06c-5.58,0.2-10.26-4.16-10.45-9.74
					l-0.01-0.28c-0.2-5.58,4.16-10.26,9.74-10.45l171.76-6.06c5.58-0.2,10.26,4.16,10.46,9.74L1929.01,1653.47z"/>
				
					<linearGradient id="SVGID_16_" gradientUnits="userSpaceOnUse" x1="909.1448" y1="2023.356" x2="830.8677" y2="2085.0288" gradientTransform="matrix(0.9994 -0.0353 0.0353 0.9994 1148.4005 -306.2733)">
					<stop  offset="0" style="stop-color:#9CFFFB"/>
					<stop  offset="1" style="stop-color:#9BFFFA"/>
				</linearGradient>
				<path class="st22" d="M2228.29,1637.78c0.2,5.58-4.17,10.26-9.74,10.46l-74.5,2.63c-5.58,0.2-10.26-4.16-10.45-9.74l-0.01-0.28
					c-0.2-5.58,4.16-10.26,9.74-10.45l74.5-2.63c5.58-0.2,10.26,4.16,10.45,9.74L2228.29,1637.78z"/>
			</g>
		</g>
		<g>
			<g>
				<linearGradient id="SVGID_17_" gradientUnits="userSpaceOnUse" x1="1608.912" y1="1268.7865" x2="1750.9149" y2="1103.962">
					<stop  offset="0" style="stop-color:#FDF53F"/>
					<stop  offset="1" style="stop-color:#D93C65"/>
				</linearGradient>
				<circle class="st23" cx="1753.78" cy="1100.63" r="105.87"/>
				<linearGradient id="SVGID_18_" gradientUnits="userSpaceOnUse" x1="1831.1555" y1="983.745" x2="1411.2494" y2="1618.1035">
					<stop  offset="0" style="stop-color:#FDF53F"/>
					<stop  offset="1" style="stop-color:#D93C65"/>
				</linearGradient>
				<circle class="st24" cx="1753.78" cy="1100.63" r="102.35"/>
				<path class="st0" d="M1669.38,1062.09c-0.6,0-1.21-0.14-1.79-0.43c-1.96-0.99-2.75-3.38-1.76-5.34
					c16.86-33.4,50.55-54.15,87.94-54.15c5.97,0,11.95,0.54,17.76,1.6c2.16,0.39,3.59,2.46,3.2,4.62c-0.39,2.16-2.46,3.59-4.62,3.2
					c-5.34-0.97-10.84-1.47-16.33-1.47c-34.37,0-65.35,19.08-80.85,49.78C1672.24,1061.29,1670.84,1062.09,1669.38,1062.09z"/>
				
					<ellipse transform="matrix(0.7071 -0.7071 0.7071 0.7071 -265.5175 1564.7097)" class="st25" cx="1756.01" cy="1102.86" rx="86.63" ry="86.63"/>
				<g>
					<linearGradient id="SVGID_19_" gradientUnits="userSpaceOnUse" x1="1818.6294" y1="1001.9215" x2="1595.0383" y2="1377.2938">
						<stop  offset="0" style="stop-color:#FDF53F"/>
						<stop  offset="1" style="stop-color:#D93C65"/>
					</linearGradient>
					<path class="st26" d="M1747.51,1167.26v-9.42c-9.82-0.39-19.54-2.71-26.44-5.73c-2.46-1.08-3.72-3.84-3.01-6.44l2.39-8.78
						c0.88-3.22,4.38-4.89,7.46-3.6c6.85,2.87,15.3,5.14,24.42,5.14c9.46,0,16.52-3.21,16.52-9.78c0-5.93-5.45-9.46-18.6-12.99
						c-18.77-5.13-32.24-13.31-32.24-29.83c0-14.92,10.91-26.3,29.83-29.35v-9.43c0-3.03,2.46-5.49,5.49-5.49h5.54
						c3.03,0,5.49,2.46,5.49,5.49v8.46c9.09,0.36,15.71,1.92,20.96,3.76c2.69,0.95,4.16,3.84,3.41,6.6l-2.2,8.12
						c-0.85,3.13-4.2,4.85-7.23,3.7c-4.84-1.83-11.67-3.73-20.56-3.73c-11.23,0-14.43,4.65-14.43,8.82c0,5.13,6.74,8.66,21.33,13.15
						c20.85,6.25,29.51,14.92,29.51,30.47c0,14.27-10.59,27.11-31.11,30.31v10.55c0,3.03-2.46,5.49-5.49,5.49H1753
						C1749.97,1172.75,1747.51,1170.29,1747.51,1167.26z"/>
				</g>
			</g>
			<g>
				<linearGradient id="SVGID_20_" gradientUnits="userSpaceOnUse" x1="1802.9438" y1="1267.8119" x2="2050.1462" y2="980.8811">
					<stop  offset="0" style="stop-color:#FDF53F"/>
					<stop  offset="1" style="stop-color:#D93C65"/>
				</linearGradient>
				<circle class="st27" cx="2055.14" cy="975.09" r="184.3"/>
				<linearGradient id="SVGID_21_" gradientUnits="userSpaceOnUse" x1="2189.8318" y1="771.6041" x2="1458.8478" y2="1875.9125">
					<stop  offset="0" style="stop-color:#FDF53F"/>
					<stop  offset="1" style="stop-color:#D93C65"/>
				</linearGradient>
				<circle class="st28" cx="2055.14" cy="975.09" r="178.17"/>
				<path class="st0" d="M1908.22,905.05c-0.6,0-1.21-0.14-1.79-0.43c-1.96-0.99-2.75-3.38-1.76-5.34
					c28.84-57.14,86.5-92.64,150.47-92.64c10.2,0,20.43,0.92,30.38,2.73c2.16,0.39,3.59,2.46,3.2,4.62
					c-0.39,2.16-2.46,3.58-4.62,3.2c-9.49-1.73-19.23-2.6-28.96-2.6c-60.95,0-115.88,33.82-143.37,88.28
					C1911.07,904.25,1909.67,905.05,1908.22,905.05z"/>
				
					<ellipse transform="matrix(0.7071 -0.7071 0.7071 0.7071 -89.1608 1742.6812)" class="st25" cx="2059.02" cy="978.97" rx="150.8" ry="150.8"/>
				<g>
					<linearGradient id="SVGID_22_" gradientUnits="userSpaceOnUse" x1="2168.0256" y1="803.2459" x2="1778.7917" y2="1456.7051">
						<stop  offset="0" style="stop-color:#FDF53F"/>
						<stop  offset="1" style="stop-color:#D93C65"/>
					</linearGradient>
					<path class="st29" d="M2044.22,1091.07v-16.41c-17.1-0.68-34.02-4.72-46.03-9.98c-4.29-1.88-6.48-6.69-5.24-11.21l4.17-15.28
						c1.53-5.61,7.63-8.51,12.98-6.26c11.92,5,26.63,8.95,42.5,8.95c16.47,0,28.76-5.59,28.76-17.03c0-10.33-9.49-16.47-32.39-22.61
						c-32.67-8.93-56.12-23.17-56.12-51.93c0-25.97,18.99-45.79,51.93-51.09V881.8c0-5.28,4.28-9.56,9.56-9.56h9.64
						c5.28,0,9.56,4.28,9.56,9.56v14.73c15.83,0.63,27.35,3.34,36.49,6.55c4.68,1.65,7.24,6.69,5.94,11.48l-3.83,14.13
						c-1.48,5.45-7.3,8.44-12.58,6.44c-8.42-3.18-20.32-6.5-35.79-6.5c-19.54,0-25.13,8.1-25.13,15.36
						c0,8.93,11.73,15.08,37.13,22.9c36.3,10.89,51.37,25.97,51.37,53.05c0,24.85-18.43,47.19-54.17,52.77v18.36
						c0,5.28-4.28,9.56-9.56,9.56h-9.64C2048.5,1100.63,2044.22,1096.35,2044.22,1091.07z"/>
				</g>
			</g>
			<g>
				<linearGradient id="SVGID_23_" gradientUnits="userSpaceOnUse" x1="1922.7369" y1="1687.9382" x2="2177.1052" y2="1392.6897">
					<stop  offset="0" style="stop-color:#FDF53F"/>
					<stop  offset="1" style="stop-color:#D93C65"/>
				</linearGradient>
				<circle class="st30" cx="2182.24" cy="1386.73" r="189.64"/>
				<linearGradient id="SVGID_24_" gradientUnits="userSpaceOnUse" x1="2320.8398" y1="1177.3458" x2="1568.6663" y2="2313.6658">
					<stop  offset="0" style="stop-color:#FDF53F"/>
					<stop  offset="1" style="stop-color:#D93C65"/>
				</linearGradient>
				<circle class="st31" cx="2182.24" cy="1386.73" r="183.34"/>
				<path class="st0" d="M2031.06,1314.54c-0.6,0-1.21-0.14-1.79-0.43c-1.96-0.99-2.75-3.38-1.76-5.34
					c29.66-58.76,88.95-95.26,154.72-95.26c10.5,0,21.01,0.95,31.25,2.81c2.16,0.39,3.59,2.46,3.2,4.62
					c-0.39,2.16-2.45,3.58-4.62,3.2c-9.77-1.78-19.8-2.68-29.82-2.68c-62.76,0-119.33,34.83-147.63,90.9
					C2033.92,1313.75,2032.52,1314.54,2031.06,1314.54z"/>
				
					<ellipse transform="matrix(0.7071 -0.7071 0.7071 0.7071 -343.0538 1953.2362)" class="st25" cx="2186.24" cy="1390.72" rx="155.17" ry="155.17"/>
				<g>
					<linearGradient id="SVGID_25_" gradientUnits="userSpaceOnUse" x1="2298.4016" y1="1209.905" x2="1897.8844" y2="1882.3073">
						<stop  offset="0" style="stop-color:#FDF53F"/>
						<stop  offset="1" style="stop-color:#D93C65"/>
					</linearGradient>
					<path class="st32" d="M2171.01,1506.08v-16.88c-17.6-0.7-35.01-4.86-47.37-10.27c-4.41-1.93-6.67-6.89-5.4-11.54l4.29-15.72
						c1.57-5.77,7.85-8.75,13.36-6.44c12.26,5.14,27.41,9.21,43.74,9.21c16.95,0,29.59-5.75,29.59-17.53
						c0-10.63-9.77-16.95-33.33-23.27c-33.61-9.19-57.75-23.85-57.75-53.44c0-26.72,19.54-47.12,53.44-52.58v-16.88
						c0-5.43,4.4-9.84,9.84-9.84h9.92c5.43,0,9.84,4.4,9.84,9.84v15.16c16.28,0.65,28.14,3.44,37.55,6.74
						c4.82,1.69,7.45,6.89,6.12,11.82l-3.94,14.54c-1.52,5.61-7.51,8.68-12.95,6.63c-8.66-3.28-20.91-6.69-36.82-6.69
						c-20.11,0-25.86,8.33-25.86,15.8c0,9.19,12.07,15.51,38.21,23.56c37.35,11.2,52.86,26.72,52.86,54.59
						c0,25.57-18.96,48.55-55.74,54.3v18.89c0,5.43-4.4,9.84-9.84,9.84h-9.92C2175.41,1515.91,2171.01,1511.51,2171.01,1506.08z"/>
				</g>
			</g>
			<g>
				<linearGradient id="SVGID_26_" gradientUnits="userSpaceOnUse" x1="2235.3889" y1="1349.0936" x2="2421.7625" y2="1132.7672">
					<stop  offset="0" style="stop-color:#FDF53F"/>
					<stop  offset="1" style="stop-color:#D93C65"/>
				</linearGradient>
				<circle class="st33" cx="2425.53" cy="1128.4" r="138.95"/>
				<linearGradient id="SVGID_27_" gradientUnits="userSpaceOnUse" x1="2527.0757" y1="974.9869" x2="1975.9639" y2="1807.5597">
					<stop  offset="0" style="stop-color:#FDF53F"/>
					<stop  offset="1" style="stop-color:#D93C65"/>
				</linearGradient>
				<circle class="st34" cx="2425.53" cy="1128.4" r="134.33"/>
				<path class="st0" d="M2314.76,1076.57c-0.6,0-1.21-0.14-1.79-0.43c-1.96-0.99-2.75-3.38-1.76-5.34
					c21.91-43.41,65.71-70.38,114.31-70.38c7.76,0,15.53,0.7,23.08,2.08c2.16,0.39,3.59,2.47,3.2,4.62c-0.4,2.16-2.45,3.59-4.63,3.2
					c-7.09-1.29-14.37-1.95-21.66-1.95c-45.58,0-86.66,25.3-107.22,66.02C2317.61,1075.78,2316.21,1076.57,2314.76,1076.57z"/>
				
					<ellipse transform="matrix(0.9612 -0.2757 0.2757 0.9612 -217.781 713.3236)" class="st25" cx="2428.45" cy="1131.32" rx="113.69" ry="113.69"/>
				<g>
					<linearGradient id="SVGID_28_" gradientUnits="userSpaceOnUse" x1="2510.6357" y1="998.8427" x2="2217.1802" y2="1491.5056">
						<stop  offset="0" style="stop-color:#FDF53F"/>
						<stop  offset="1" style="stop-color:#D93C65"/>
					</linearGradient>
					<path class="st35" d="M2417.3,1215.84v-12.37c-12.89-0.52-25.65-3.56-34.71-7.52c-3.23-1.42-4.88-5.05-3.95-8.45l3.14-11.52
						c1.15-4.23,5.75-6.41,9.79-4.72c8.99,3.77,20.08,6.75,32.04,6.75c12.42,0,21.68-4.21,21.68-12.84
						c0-7.79-7.16-12.42-24.42-17.05c-24.63-6.74-42.31-17.47-42.31-39.15c0-19.58,14.31-34.52,39.15-38.52v-12.37
						c0-3.98,3.23-7.21,7.21-7.21h7.27c3.98,0,7.21,3.23,7.21,7.21v11.11c11.93,0.48,20.62,2.52,27.51,4.94
						c3.53,1.24,5.46,5.04,4.48,8.66l-2.89,10.66c-1.11,4.11-5.51,6.36-9.49,4.85c-6.35-2.4-15.32-4.9-26.98-4.9
						c-14.74,0-18.94,6.1-18.94,11.58c0,6.74,8.84,11.37,28,17.26c27.37,8.21,38.73,19.58,38.73,40c0,18.73-13.89,35.57-40.84,39.79
						v13.84c0,3.98-3.23,7.21-7.21,7.21h-7.27C2420.52,1223.05,2417.3,1219.83,2417.3,1215.84z"/>
				</g>
			</g>
		</g>
		<g>
			<linearGradient id="SVGID_29_" gradientUnits="userSpaceOnUse" x1="1062.4983" y1="2571.0317" x2="1104.9755" y2="3448.897">
				<stop  offset="0" style="stop-color:#FDF53F"/>
				<stop  offset="1" style="stop-color:#D93C65"/>
			</linearGradient>
			<path class="st36" d="M1657.32,3221.87H484.99c-9.25,0-16.76-7.5-16.76-16.76v-910.74h1205.84v910.74
				C1674.07,3214.37,1666.57,3221.87,1657.32,3221.87z"/>
			<linearGradient id="SVGID_30_" gradientUnits="userSpaceOnUse" x1="1755.7583" y1="2289.1919" x2="-814.0617" y2="3836.7649">
				<stop  offset="0" style="stop-color:#FDF53F"/>
				<stop  offset="1" style="stop-color:#D93C65"/>
			</linearGradient>
			<path class="st37" d="M1657.32,3155.21H484.99c-9.25,0-16.76-7.5-16.76-16.76v-883.45h1205.84v883.45
				C1674.07,3147.71,1666.57,3155.21,1657.32,3155.21z"/>
			<g>
				<linearGradient id="SVGID_31_" gradientUnits="userSpaceOnUse" x1="2272.47" y1="1799.4625" x2="634.2875" y2="2306.1887">
					<stop  offset="0" style="stop-color:#53D8FF"/>
					<stop  offset="1" style="stop-color:#3840F7"/>
				</linearGradient>
				<rect x="537.65" y="2294.37" class="st38" width="41.52" height="70.58"/>
				<linearGradient id="SVGID_32_" gradientUnits="userSpaceOnUse" x1="2280.6289" y1="1825.8324" x2="642.444" y2="2332.5593">
					<stop  offset="0" style="stop-color:#53D8FF"/>
					<stop  offset="1" style="stop-color:#3840F7"/>
				</linearGradient>
				<rect x="631.06" y="2294.37" class="st39" width="41.52" height="70.58"/>
				<linearGradient id="SVGID_33_" gradientUnits="userSpaceOnUse" x1="2287.8291" y1="1849.1278" x2="649.6467" y2="2355.854">
					<stop  offset="0" style="stop-color:#53D8FF"/>
					<stop  offset="1" style="stop-color:#3840F7"/>
				</linearGradient>
				<rect x="713.58" y="2294.37" class="st40" width="41.52" height="70.58"/>
				<linearGradient id="SVGID_34_" gradientUnits="userSpaceOnUse" x1="2295.9856" y1="1875.4984" x2="657.8032" y2="2382.2246">
					<stop  offset="0" style="stop-color:#53D8FF"/>
					<stop  offset="1" style="stop-color:#3840F7"/>
				</linearGradient>
				<rect x="806.98" y="2294.37" class="st41" width="41.52" height="70.58"/>
				<linearGradient id="SVGID_35_" gradientUnits="userSpaceOnUse" x1="2303.1963" y1="1898.7906" x2="665.0112" y2="2405.5176">
					<stop  offset="0" style="stop-color:#53D8FF"/>
					<stop  offset="1" style="stop-color:#3840F7"/>
				</linearGradient>
				<rect x="889.5" y="2294.37" class="st42" width="41.52" height="70.58"/>
				<linearGradient id="SVGID_36_" gradientUnits="userSpaceOnUse" x1="2311.3503" y1="1925.1619" x2="673.1681" y2="2431.8882">
					<stop  offset="0" style="stop-color:#53D8FF"/>
					<stop  offset="1" style="stop-color:#3840F7"/>
				</linearGradient>
				<rect x="982.91" y="2294.37" class="st43" width="41.52" height="70.58"/>
				<linearGradient id="SVGID_37_" gradientUnits="userSpaceOnUse" x1="2318.5532" y1="1948.4565" x2="680.3708" y2="2455.1829">
					<stop  offset="0" style="stop-color:#53D8FF"/>
					<stop  offset="1" style="stop-color:#3840F7"/>
				</linearGradient>
				<rect x="1065.42" y="2294.37" class="st44" width="41.52" height="70.58"/>
				<linearGradient id="SVGID_38_" gradientUnits="userSpaceOnUse" x1="2326.7095" y1="1974.8271" x2="688.5272" y2="2481.5532">
					<stop  offset="0" style="stop-color:#53D8FF"/>
					<stop  offset="1" style="stop-color:#3840F7"/>
				</linearGradient>
				<rect x="1158.83" y="2294.37" class="st45" width="41.52" height="70.58"/>
				<linearGradient id="SVGID_39_" gradientUnits="userSpaceOnUse" x1="2333.9182" y1="1998.12" x2="695.7358" y2="2504.8462">
					<stop  offset="0" style="stop-color:#53D8FF"/>
					<stop  offset="1" style="stop-color:#3840F7"/>
				</linearGradient>
				<rect x="1241.34" y="2294.37" class="st46" width="41.52" height="70.58"/>
				<linearGradient id="SVGID_40_" gradientUnits="userSpaceOnUse" x1="2342.0745" y1="2024.4906" x2="703.8922" y2="2531.2168">
					<stop  offset="0" style="stop-color:#53D8FF"/>
					<stop  offset="1" style="stop-color:#3840F7"/>
				</linearGradient>
				<rect x="1334.75" y="2294.37" class="st47" width="41.52" height="70.58"/>
				<linearGradient id="SVGID_41_" gradientUnits="userSpaceOnUse" x1="2349.2773" y1="2047.7853" x2="711.0949" y2="2554.5115">
					<stop  offset="0" style="stop-color:#53D8FF"/>
					<stop  offset="1" style="stop-color:#3840F7"/>
				</linearGradient>
				<rect x="1417.26" y="2294.37" class="st48" width="41.52" height="70.58"/>
				<linearGradient id="SVGID_42_" gradientUnits="userSpaceOnUse" x1="2357.4336" y1="2074.1558" x2="719.2513" y2="2580.8821">
					<stop  offset="0" style="stop-color:#53D8FF"/>
					<stop  offset="1" style="stop-color:#3840F7"/>
				</linearGradient>
				<rect x="1510.67" y="2294.37" class="st49" width="41.52" height="70.58"/>
			</g>
			<g>
				<g>
					<rect x="1004.91" y="2401.47" class="st0" width="125.3" height="125.3"/>
					<rect x="1157.2" y="2401.47" class="st0" width="125.3" height="125.3"/>
					<rect x="1307.93" y="2401.47" class="st0" width="125.3" height="125.3"/>
					<rect x="1457.43" y="2401.47" class="st0" width="125.3" height="125.3"/>
				</g>
				<g>
					<rect x="552.54" y="2559.03" class="st0" width="125.3" height="125.3"/>
					<rect x="703.28" y="2559.03" class="st0" width="125.3" height="125.3"/>
					<rect x="852.78" y="2559.03" class="st0" width="125.3" height="125.3"/>
					<rect x="1004.75" y="2559.03" class="st0" width="125.3" height="125.3"/>
					<rect x="1157.04" y="2559.03" class="st0" width="125.3" height="125.3"/>
					<rect x="1307.78" y="2559.03" class="st0" width="125.3" height="125.3"/>
					<rect x="1457.27" y="2559.03" class="st0" width="125.3" height="125.3"/>
				</g>
				<g>
					<rect x="556.26" y="2709.14" class="st0" width="125.3" height="125.3"/>
					<rect x="707" y="2709.14" class="st0" width="125.3" height="125.3"/>
					<linearGradient id="SVGID_43_" gradientUnits="userSpaceOnUse" x1="-611.7341" y1="1640.8733" x2="929.2696" y2="2779.2717">
						<stop  offset="0" style="stop-color:#FDF53F"/>
						<stop  offset="0.6645" style="stop-color:#E57A58"/>
						<stop  offset="1" style="stop-color:#D93C65"/>
					</linearGradient>
					<rect x="856.5" y="2709.14" class="st50" width="125.3" height="125.3"/>
					<rect x="1008.47" y="2709.14" class="st0" width="125.3" height="125.3"/>
					<rect x="1160.76" y="2709.14" class="st0" width="125.3" height="125.3"/>
					<rect x="1311.5" y="2709.14" class="st0" width="125.3" height="125.3"/>
					<rect x="1461" y="2709.14" class="st0" width="125.3" height="125.3"/>
				</g>
				<g>
					<rect x="559.99" y="2857.4" class="st0" width="125.3" height="125.3"/>
					<rect x="710.72" y="2857.4" class="st0" width="125.3" height="125.3"/>
					<rect x="860.22" y="2857.4" class="st0" width="125.3" height="125.3"/>
					<rect x="1012.2" y="2857.4" class="st0" width="125.3" height="125.3"/>
					<rect x="1164.48" y="2857.4" class="st0" width="125.3" height="125.3"/>
					<rect x="1315.22" y="2857.4" class="st0" width="125.3" height="125.3"/>
					<rect x="1464.72" y="2857.4" class="st0" width="125.3" height="125.3"/>
				</g>
				<g>
					<rect x="559.99" y="3005.32" class="st0" width="125.3" height="125.3"/>
					<rect x="710.72" y="3005.32" class="st0" width="125.3" height="125.3"/>
					<rect x="860.22" y="3005.32" class="st0" width="125.3" height="125.3"/>
				</g>
			</g>
			<g>
				<linearGradient id="SVGID_44_" gradientUnits="userSpaceOnUse" x1="1824.4979" y1="2173.2051" x2="-257.9326" y2="2339.7988">
					<stop  offset="0" style="stop-color:#FDF53F"/>
					<stop  offset="0.6645" style="stop-color:#E57A58"/>
					<stop  offset="1" style="stop-color:#D93C65"/>
				</linearGradient>
				<path class="st51" d="M619.62,2238.19h-53.3c-12.27,0-22.31,10.04-22.31,22.31v49.58h16.11v-32.23
					c0-12.27,10.04-22.31,22.31-22.31h53.3c2,0,3.94,0.29,5.79,0.79C639.56,2246.05,630.47,2238.19,619.62,2238.19z"/>
				<linearGradient id="SVGID_45_" gradientUnits="userSpaceOnUse" x1="1825.1581" y1="2181.4365" x2="-257.2744" y2="2348.0303">
					<stop  offset="0" style="stop-color:#FDF53F"/>
					<stop  offset="0.6645" style="stop-color:#E57A58"/>
					<stop  offset="1" style="stop-color:#D93C65"/>
				</linearGradient>
				<path class="st52" d="M723.18,2238.19h-53.3c-12.27,0-22.31,10.04-22.31,22.31v49.58h16.11v-32.23
					c0-12.27,10.04-22.31,22.31-22.31h53.3c2,0,3.94,0.29,5.79,0.79C743.12,2246.05,734.02,2238.19,723.18,2238.19z"/>
				<linearGradient id="SVGID_46_" gradientUnits="userSpaceOnUse" x1="1825.7023" y1="2188.2786" x2="-256.7303" y2="2354.8723">
					<stop  offset="0" style="stop-color:#FDF53F"/>
					<stop  offset="0.6645" style="stop-color:#E57A58"/>
					<stop  offset="1" style="stop-color:#D93C65"/>
				</linearGradient>
				<path class="st53" d="M809.24,2238.19h-53.3c-12.27,0-22.31,10.04-22.31,22.31v49.58h16.11v-32.23
					c0-12.27,10.04-22.31,22.31-22.31h53.3c2,0,3.94,0.29,5.79,0.79C829.18,2246.05,820.09,2238.19,809.24,2238.19z"/>
				<linearGradient id="SVGID_47_" gradientUnits="userSpaceOnUse" x1="1826.2654" y1="2195.3267" x2="-256.165" y2="2361.9204">
					<stop  offset="0" style="stop-color:#FDF53F"/>
					<stop  offset="0.6645" style="stop-color:#E57A58"/>
					<stop  offset="1" style="stop-color:#D93C65"/>
				</linearGradient>
				<path class="st54" d="M897.91,2238.19h-53.3c-12.27,0-22.31,10.04-22.31,22.31v49.58h16.11v-32.23
					c0-12.27,10.04-22.31,22.31-22.31h53.3c2,0,3.94,0.29,5.79,0.79C917.85,2246.05,908.76,2238.19,897.91,2238.19z"/>
				<linearGradient id="SVGID_48_" gradientUnits="userSpaceOnUse" x1="1826.7874" y1="2201.8423" x2="-255.6452" y2="2368.436">
					<stop  offset="0" style="stop-color:#FDF53F"/>
					<stop  offset="0.6645" style="stop-color:#E57A58"/>
					<stop  offset="1" style="stop-color:#D93C65"/>
				</linearGradient>
				<path class="st55" d="M979.88,2238.19h-53.3c-12.27,0-22.31,10.04-22.31,22.31v49.58h16.11v-32.23
					c0-12.27,10.04-22.31,22.31-22.31h53.3c2,0,3.94,0.29,5.79,0.79C999.82,2246.05,990.73,2238.19,979.88,2238.19z"/>
				<linearGradient id="SVGID_49_" gradientUnits="userSpaceOnUse" x1="1827.3516" y1="2208.8904" x2="-255.081" y2="2375.4844">
					<stop  offset="0" style="stop-color:#FDF53F"/>
					<stop  offset="0.6645" style="stop-color:#E57A58"/>
					<stop  offset="1" style="stop-color:#D93C65"/>
				</linearGradient>
				<path class="st56" d="M1068.54,2238.19h-53.3c-12.27,0-22.31,10.04-22.31,22.31v49.58h16.11v-32.23
					c0-12.27,10.04-22.31,22.31-22.31h53.3c2,0,3.94,0.29,5.79,0.79C1088.48,2246.05,1079.39,2238.19,1068.54,2238.19z"/>
				<linearGradient id="SVGID_50_" gradientUnits="userSpaceOnUse" x1="1827.8986" y1="2215.7322" x2="-254.5339" y2="2382.3259">
					<stop  offset="0" style="stop-color:#FDF53F"/>
					<stop  offset="0.6645" style="stop-color:#E57A58"/>
					<stop  offset="1" style="stop-color:#D93C65"/>
				</linearGradient>
				<path class="st57" d="M1154.61,2238.19h-53.3c-12.27,0-22.31,10.04-22.31,22.31v49.58h16.11v-32.23
					c0-12.27,10.04-22.31,22.31-22.31h53.3c2,0,3.94,0.29,5.79,0.79C1174.55,2246.05,1165.46,2238.19,1154.61,2238.19z"/>
				<linearGradient id="SVGID_51_" gradientUnits="userSpaceOnUse" x1="1828.5096" y1="2223.3721" x2="-253.9228" y2="2389.9658">
					<stop  offset="0" style="stop-color:#FDF53F"/>
					<stop  offset="0.6645" style="stop-color:#E57A58"/>
					<stop  offset="1" style="stop-color:#D93C65"/>
				</linearGradient>
				<path class="st58" d="M1250.72,2238.19h-53.3c-12.27,0-22.31,10.04-22.31,22.31v49.58h16.11v-32.23
					c0-12.27,10.04-22.31,22.31-22.31h53.3c2,0,3.94,0.29,5.79,0.79C1270.66,2246.05,1261.57,2238.19,1250.72,2238.19z"/>
				<linearGradient id="SVGID_52_" gradientUnits="userSpaceOnUse" x1="1828.9734" y1="2229.1704" x2="-253.4591" y2="2395.7642">
					<stop  offset="0" style="stop-color:#FDF53F"/>
					<stop  offset="0.6645" style="stop-color:#E57A58"/>
					<stop  offset="1" style="stop-color:#D93C65"/>
				</linearGradient>
				<path class="st59" d="M1333.6,2237.4h-53.3c-12.27,0-22.31,10.04-22.31,22.31v49.58h16.11v-32.23
					c0-12.27,10.04-22.31,22.31-22.31h53.3c2,0,3.94,0.29,5.79,0.79C1353.54,2245.25,1344.45,2237.4,1333.6,2237.4z"/>
				<linearGradient id="SVGID_53_" gradientUnits="userSpaceOnUse" x1="1829.5201" y1="2236.012" x2="-252.9104" y2="2402.6057">
					<stop  offset="0" style="stop-color:#FDF53F"/>
					<stop  offset="0.6645" style="stop-color:#E57A58"/>
					<stop  offset="1" style="stop-color:#D93C65"/>
				</linearGradient>
				<path class="st60" d="M1419.66,2237.4h-53.3c-12.27,0-22.31,10.04-22.31,22.31v49.58h16.11v-32.23
					c0-12.27,10.04-22.31,22.31-22.31h53.3c2,0,3.94,0.29,5.79,0.79C1439.61,2245.25,1430.51,2237.4,1419.66,2237.4z"/>
				<linearGradient id="SVGID_54_" gradientUnits="userSpaceOnUse" x1="1830.7645" y1="2251.5637" x2="-251.666" y2="2418.1572">
					<stop  offset="0" style="stop-color:#FDF53F"/>
					<stop  offset="0.6645" style="stop-color:#E57A58"/>
					<stop  offset="1" style="stop-color:#D93C65"/>
				</linearGradient>
				<path class="st61" d="M1590.12,2239.41h-53.3c-12.27,0-22.31,10.04-22.31,22.31v49.58h16.11v-32.23
					c0-12.27,10.04-22.31,22.31-22.31h53.3c2,0,3.94,0.29,5.79,0.79C1610.06,2247.27,1600.97,2239.41,1590.12,2239.41z"/>
				<linearGradient id="SVGID_55_" gradientUnits="userSpaceOnUse" x1="1830.1323" y1="2243.6519" x2="-252.2982" y2="2410.2456">
					<stop  offset="0" style="stop-color:#FDF53F"/>
					<stop  offset="0.6645" style="stop-color:#E57A58"/>
					<stop  offset="1" style="stop-color:#D93C65"/>
				</linearGradient>
				<path class="st62" d="M1515.78,2237.4h-53.3c-12.27,0-22.31,10.04-22.31,22.31v49.58h16.11v-32.23
					c0-12.27,10.04-22.31,22.31-22.31h53.3c2,0,3.94,0.29,5.79,0.79C1535.72,2245.25,1526.62,2237.4,1515.78,2237.4z"/>
			</g>
		</g>
		<g>
			
				<linearGradient id="SVGID_56_" gradientUnits="userSpaceOnUse" x1="21744.8945" y1="2208.491" x2="21275.6133" y2="2476.3494" gradientTransform="matrix(1 0 0 1 -19663.6602 0)">
				<stop  offset="0" style="stop-color:#F9B776"/>
				<stop  offset="1" style="stop-color:#F47960"/>
			</linearGradient>
			<path class="st63" d="M2009.89,2645.16c-0.55-0.21-298.21-521.49-338.44-570.54c-6.77-8.25-17.24-12.45-27.84-11.19l-83.08,9.9
				l-97.6,211.15l162.6-94.7c-16.09,111.28,192.8,276.65,264.44,336.99c7.27,6.12,7.87,17.09,1.3,23.97l-28.6,29.94
				c46.95,47.6,101.14,78.16,162.29,92.29L2009.89,2645.16z"/>
			
				<linearGradient id="SVGID_57_" gradientUnits="userSpaceOnUse" x1="-11256.4609" y1="-5182.9551" x2="-11292.4854" y2="-4630.5742" gradientTransform="matrix(-0.8974 -0.4412 -0.4412 0.8974 -10368.3799 2161.1482)">
				<stop  offset="0" style="stop-color:#CB236D"/>
				<stop  offset="1" style="stop-color:#4C246D"/>
			</linearGradient>
			<path class="st64" d="M1879.22,2564.53c0,0-18.25,5.9-24.43,22.15c-2.96,7.78,0.23,16.59,6.99,21.43
				c30.06,21.53,129.2,91.06,174.95,104.67c3.75,1.12,7.32-2.28,6.47-6.1c-2.35-10.63-9.94-31.85-34.41-62.92l2.2,4.44
				c2.78,5.62-3.34,11.47-8.8,8.39C1971.59,2639.32,1909.26,2601.51,1879.22,2564.53z"/>
			
				<linearGradient id="SVGID_58_" gradientUnits="userSpaceOnUse" x1="21699.4961" y1="2275.2927" x2="23305.1406" y2="1270.135" gradientTransform="matrix(1 0 0 1 -19663.6602 0)">
				<stop  offset="0" style="stop-color:#F9B776"/>
				<stop  offset="1" style="stop-color:#F47960"/>
			</linearGradient>
			<path class="st65" d="M1893.95,2773.1c-0.5-0.32-45.16-107.92-45.66-108.24c-40.95-249.3-140.85-462.81-170.31-518.99
				c-4.96-9.45-14.36-15.68-25-16.59l-83.37-7.12l-138.32,187.03l178.4-59.83c-38.28,105.72,132.82,309.94,190.77,383.54
				c5.88,7.47,4.25,18.33-3.58,23.73l-34.07,23.53c36.35,56.11,83.23,97.01,140.25,123.22L1893.95,2773.1z"/>
			
				<linearGradient id="SVGID_59_" gradientUnits="userSpaceOnUse" x1="-9373.5303" y1="-8022.6099" x2="-9409.5527" y2="-7470.2651" gradientTransform="matrix(-0.7895 -0.6137 -0.6137 0.7895 -10385.9697 3191.1018)">
				<stop  offset="0" style="stop-color:#CB236D"/>
				<stop  offset="1" style="stop-color:#4C246D"/>
			</linearGradient>
			<path class="st66" d="M1782.3,2667.69c0,0-19.07,2.08-28.41,16.75c-4.47,7.02-3.13,16.29,2.51,22.41
				c25.08,27.17,108.1,115.32,150.15,137.91c3.45,1.85,7.63-0.75,7.57-4.66c-0.15-10.88-3.29-33.21-20.96-68.59l1.25,4.79
				c1.58,6.07-5.59,10.56-10.31,6.43C1857.63,2759.63,1804.24,2709.99,1782.3,2667.69z"/>
			<g>
				
					<linearGradient id="SVGID_60_" gradientUnits="userSpaceOnUse" x1="13473.626" y1="1872.1678" x2="13087.6602" y2="2295.1433" gradientTransform="matrix(1 0 0 1 -11831.959 0)">
					<stop  offset="0" style="stop-color:#CB236D"/>
					<stop  offset="1" style="stop-color:#4C246D"/>
				</linearGradient>
				<path class="st67" d="M1179.39,2082.77c0,0-75.42,112.17-81.6,163.34c-6.19,51.17,20.85,68.86,99.79,75.39
					c234.9,19.42,350.69-50.98,350.69-50.98c16.07-102.45,27.5-128.52,161.7-184.22c0,0-169.74,13.48-203.9,0.22
					C1471.91,2073.26,1179.39,2082.77,1179.39,2082.77z"/>
			</g>
			<g>
				
					<linearGradient id="SVGID_61_" gradientUnits="userSpaceOnUse" x1="-14291.5264" y1="-1793.7565" x2="-14176.1289" y2="-1504.2853" gradientTransform="matrix(-0.9446 -0.3283 -0.3283 0.9446 -12528.123 -1699.1722)">
					<stop  offset="0" style="stop-color:#2B3582"/>
					<stop  offset="1" style="stop-color:#150E42"/>
				</linearGradient>
				<path class="st68" d="M1480.12,1454.32c0,0-52.53-62.15-108.37,14.1c-10.11,13.81-48.96,2.42-63.2,31.32
					c-7.35,14.92-23.23,23.4-39.6,20.39c-40.75-7.52-107.35-8.15-140.24,55.71c-25.1,48.74-5.72,77.27,19.37,93.53
					c18.43,11.95,25.01,36.2,13.86,55.12c-10.69,18.15-12.7,42.73,14.9,72.31c61.85,66.29,184.28-42.07,184.28-42.07l97.21-229.71
					L1480.12,1454.32z"/>
				
					<linearGradient id="SVGID_62_" gradientUnits="userSpaceOnUse" x1="21208.6934" y1="1696.9669" x2="20102.4199" y2="2764.0818" gradientTransform="matrix(1 0 0 1 -19663.6602 0)">
					<stop  offset="0" style="stop-color:#FDF53F"/>
					<stop  offset="1" style="stop-color:#D93C65"/>
				</linearGradient>
				<path class="st69" d="M1383.34,2067.93c0,0,87.82-83.62,131.05-139.01c23.37-29.94,30.71-69.35,19.9-105.76
					c-19.74-66.49-54.81-135.36-58.01-146.08c-4.9-16.43-103.37-15.75-103.37-15.75s-193.77,125.76-269.91,338.79l85.5,26.62
					c0,0,50.59-84.88,100.58-138.85c0,0-86.5,114.27-89.55,161.05L1383.34,2067.93z"/>
				
					<linearGradient id="SVGID_63_" gradientUnits="userSpaceOnUse" x1="-12526.5049" y1="2054.0945" x2="-12059.0322" y2="2054.0945" gradientTransform="matrix(-1 0 0 1 -11267.1963 0)">
					<stop  offset="0" style="stop-color:#F9B776"/>
					<stop  offset="1" style="stop-color:#F47960"/>
				</linearGradient>
				<path class="st70" d="M1550.67,2100.93l-65.99-71.8l-76.21,20.52c0,0-88.85,13.77-139.7,0c-50.85-13.77-50.85-13.77-50.85-13.77
					l-114.92-35.78l-18.05,51.01c-4.58,12.95,0.02,27.33,11.22,35.28c9.94,7.06,21.6,14.83,29.02,18.08
					c15.13,6.62,348.61,2.09,348.61,2.09L1550.67,2100.93z"/>
				
					<linearGradient id="SVGID_64_" gradientUnits="userSpaceOnUse" x1="-14469.7324" y1="689.9709" x2="-14446.8809" y2="522.7916" gradientTransform="matrix(-0.9974 -0.0717 -0.0717 0.9974 -12933.0674 105.0094)">
					<stop  offset="0" style="stop-color:#F9B776"/>
					<stop  offset="1" style="stop-color:#F47960"/>
				</linearGradient>
				<path class="st71" d="M1440.59,1542.92l-66.18,123.07c4.37,26.86,72.03,27.62,82.48,11.58c1.06-1.63,1.67-3.52,2.08-5.43
					l39.59-82.23c1.7-8.02-20.28-35.04-27.52-38.89l-26.31-14C1434.6,1531.63,1476.87,1531.21,1440.59,1542.92z"/>
				<g>
					
						<linearGradient id="SVGID_65_" gradientUnits="userSpaceOnUse" x1="-11556.291" y1="-6731.4961" x2="-11341.126" y2="-7114.4175" gradientTransform="matrix(-0.5458 -0.8379 -0.8379 0.5458 -10514.082 -4320.769)">
						<stop  offset="0" style="stop-color:#F9B776"/>
						<stop  offset="1" style="stop-color:#F47960"/>
					</linearGradient>
					<path class="st72" d="M1574.53,1514.04c0,0,7.47,41.58-25.21,94.45c-32.68,52.87-65.22,50.48-81.76,31.63
						c-16.53-18.85-36.34-50.25-27.33-102.98C1449.25,1484.4,1563.24,1461.02,1574.53,1514.04z"/>
					
						<linearGradient id="SVGID_66_" gradientUnits="userSpaceOnUse" x1="-11510.0215" y1="-7064.9609" x2="-11402.4404" y2="-6795.0947" gradientTransform="matrix(-0.5458 -0.8379 -0.8379 0.5458 -10514.082 -4320.769)">
						<stop  offset="0" style="stop-color:#2B3582"/>
						<stop  offset="1" style="stop-color:#150E42"/>
					</linearGradient>
					<path class="st73" d="M1479.8,1542.86c0,0,52.92-69.51,93.55-8.91l-0.69,20.93c0,0,52.83-2.47,47.1-51.16
						c-5.73-48.7-48.86-81.96-108.66-65.32s-94.73,35.58-101.49,77.1c-6.75,41.52,27.15,34.73,27.15,34.73s12.95-28.65,28.58-30.6
						c15.64-1.96,9.99,20.7,9.99,20.7L1479.8,1542.86z"/>
					
						<linearGradient id="SVGID_67_" gradientUnits="userSpaceOnUse" x1="-11510.4893" y1="-6705.7642" x2="-11295.3252" y2="-7088.6826" gradientTransform="matrix(-0.5458 -0.8379 -0.8379 0.5458 -10514.082 -4320.769)">
						<stop  offset="0" style="stop-color:#F9B776"/>
						<stop  offset="1" style="stop-color:#F47960"/>
					</linearGradient>
					<path class="st74" d="M1467.65,1541.01c0,0,27.41-35.57,2.46-42.95c-24.95-7.38-24.02,34.85-22.39,50.57L1467.65,1541.01z"/>
				</g>
			</g>
			<g>
				
					<linearGradient id="SVGID_68_" gradientUnits="userSpaceOnUse" x1="-12594.8613" y1="1483.3223" x2="-12839.4111" y2="1550.3468" gradientTransform="matrix(-0.9988 -0.0494 -0.0494 0.9988 -11225.7275 -55.0328)">
					<stop  offset="0" style="stop-color:#2B3582"/>
					<stop  offset="1" style="stop-color:#150E42"/>
				</linearGradient>
				<path class="st75" d="M1332.24,2129.34c0.23,0.01,0.46,0.02,0.7,0.02l303.52-0.33c7.5-0.01,13.58-6.09,13.57-13.6
					c-0.01-7.51-6.12-13.71-13.6-13.57l-303.52,0.33c-7.5,0.01-13.58,6.1-13.57,13.6
					C1319.35,2123.06,1325.06,2128.99,1332.24,2129.34z"/>
				
					<linearGradient id="SVGID_69_" gradientUnits="userSpaceOnUse" x1="-1631.5363" y1="2009.3318" x2="567.9266" y2="1824.281" gradientTransform="matrix(-1 0 0 1 283.9132 0)">
					<stop  offset="0" style="stop-color:#2B3582"/>
					<stop  offset="1" style="stop-color:#150E42"/>
				</linearGradient>
				<path class="st76" d="M1909.31,1853.76h-252.78c-18.65,0-35.62,10.76-43.57,27.63l-116.86,247.79h314.13
					c12.02,0,22.81-7.34,27.23-18.52l90.62-229.29C1933.32,1868.12,1923.56,1853.76,1909.31,1853.76z"/>
				
					<linearGradient id="SVGID_70_" gradientUnits="userSpaceOnUse" x1="-12983.8262" y1="1936.3793" x2="-13062.5586" y2="2054.9409" gradientTransform="matrix(-1 0 0 1 -11267.1963 0)">
					<stop  offset="0" style="stop-color:#53D8FF"/>
					<stop  offset="1" style="stop-color:#3840F7"/>
				</linearGradient>
				<path class="st77" d="M1731.23,1980.81c-5.48,17.02-1.43,33.55,9.04,36.92c10.47,3.37,23.4-7.69,28.87-24.71
					c5.48-17.02,1.43-33.55-9.04-36.92C1749.64,1952.73,1736.71,1963.79,1731.23,1980.81z"/>
			</g>
		</g>
	</g>
</g>
</svg>
