<?xml version="1.0" encoding="utf-8"?>
<!-- Generator: Adobe Illustrator 25.2.1, SVG Export Plug-In . SVG Version: 6.00 Build 0)  -->
<svg version="1.1" xmlns="http://www.w3.org/2000/svg" xmlns:xlink="http://www.w3.org/1999/xlink" x="0px" y="0px"
	 viewBox="0 0 600 200" style="enable-background:new 0 0 600 200;" xml:space="preserve">
<style type="text/css">
	.st0{fill:#FFFFFF;}
	.st1{fill:#ABEFF4;}
	.st2{fill:#094682;}
	.st3{fill:#011531;}
	.st4{fill:#F94B54;}
	.st5{fill:#FF5715;}
	.st6{fill:#FFC627;}
	.st7{opacity:0.3;}
</style>
<g id="Background">
	<rect class="st0" width="600" height="200"/>
	<rect id="BG" class="st0" width="600" height="200"/>
	<rect id="_x33_" x="400" class="st1" width="200" height="200"/>
	<rect id="_x32_" x="200" class="st0" width="200" height="200"/>
	<rect id="_x31__1_" class="st2" width="200" height="200"/>
</g>
<g id="Scene">
	<g id="_x33__1_">
		<g>
			<path class="st3" d="M475.15,94.04c-0.88,0-1.78-0.04-2.7-0.13c-9.46-0.92-18.94-6.22-24.16-13.5c-6.36-8.87-8.65-23.03-2.05-28
				c2.82-2.13,7.67-2.78,12.06-1.62c4.27,1.12,7.47,3.69,9,7.21c2.81,6.47-0.36,14.56-7.22,18.42c-0.24,0.14-0.54,0.05-0.68-0.19
				c-0.14-0.24-0.05-0.55,0.19-0.68c6.42-3.61,9.41-11.14,6.79-17.15c-1.41-3.24-4.37-5.6-8.34-6.65c-4.11-1.08-8.61-0.5-11.2,1.46
				c-6.05,4.56-3.71,18.29,2.26,26.62c4.98,6.94,14.41,12.2,23.45,13.08c5.89,0.58,10.93-0.78,14.16-3.81
				c4.38-4.11,5.81-11.38,5.3-16.77c-0.42-4.39-2.05-7.77-4.46-9.29c-3.23-2.04-8.56-1.23-11.17,1.69
				c-3.37,3.77-2.78,11.75,3.47,17.63c0.2,0.19,0.21,0.51,0.02,0.71c-0.19,0.2-0.51,0.21-0.71,0.02c-6.68-6.27-7.22-14.9-3.53-19.02
				c2.96-3.31,8.78-4.19,12.45-1.87c2.67,1.68,4.47,5.34,4.92,10.04c0.54,5.63-0.98,13.26-5.61,17.6
				C484.46,92.58,480.18,94.04,475.15,94.04z"/>
		</g>
		<path class="st2" d="M490.98,42.69c-0.52-0.41-1.08-0.66-1.08-0.66c-0.56-0.23-1.33-0.43-2.33-0.41c0.64-0.31,1.82-1,2.82-2.32
			c1.22-1.62,1.46-3.28,1.53-4c0.02,0.48,0.19,2.87,2.12,4.4c0.7,0.56,1.42,0.83,1.95,0.98c-0.27,0.14-0.62,0.35-0.99,0.65
			c0,0-0.64,0.52-1.09,1.19c-0.62,0.92-0.97,2.79-0.51,4.98C493.32,47.14,492.68,44.04,490.98,42.69z"/>
		<path class="st2" d="M464.32,36.59c-0.52-0.41-1.08-0.66-1.08-0.66c-0.56-0.23-1.32-0.43-2.33-0.41c0.64-0.31,1.82-1,2.82-2.32
			c1.22-1.62,1.46-3.28,1.53-4c0.02,0.48,0.19,2.87,2.12,4.4c0.7,0.56,1.42,0.83,1.95,0.98c-0.27,0.14-0.62,0.35-0.99,0.65
			c0,0-0.64,0.52-1.09,1.19c-0.62,0.92-0.97,2.79-0.51,4.98C466.66,41.04,466.02,37.94,464.32,36.59z"/>
		<path class="st2" d="M564.95,104.37c-0.52-0.41-1.08-0.66-1.08-0.66c-0.56-0.23-1.33-0.43-2.33-0.41c0.64-0.31,1.82-1,2.82-2.32
			c1.22-1.62,1.46-3.28,1.53-4c0.02,0.48,0.19,2.87,2.12,4.4c0.7,0.56,1.42,0.83,1.95,0.98c-0.27,0.14-0.62,0.35-0.99,0.65
			c0,0-0.64,0.52-1.09,1.19c-0.62,0.92-0.97,2.79-0.51,4.98C567.3,108.81,566.66,105.72,564.95,104.37z"/>
		<path class="st2" d="M573.9,92.74c-0.3-0.23-0.62-0.38-0.62-0.38c-0.32-0.13-0.76-0.24-1.33-0.23c0.37-0.18,1.04-0.57,1.61-1.32
			c0.69-0.93,0.83-1.87,0.87-2.28c0.01,0.28,0.11,1.64,1.21,2.51c0.4,0.32,0.81,0.47,1.11,0.56c-0.15,0.08-0.35,0.2-0.56,0.37
			c0,0-0.36,0.3-0.62,0.68c-0.36,0.52-0.55,1.59-0.29,2.84C575.24,95.28,574.87,93.51,573.9,92.74z"/>
		<path class="st2" d="M455.88,45.01c-0.26-0.21-0.54-0.33-0.54-0.33c-0.28-0.12-0.66-0.21-1.17-0.2c0.32-0.16,0.91-0.5,1.41-1.16
			c0.61-0.81,0.73-1.65,0.77-2.01c0.01,0.24,0.1,1.44,1.06,2.21c0.35,0.28,0.71,0.42,0.98,0.49c-0.13,0.07-0.31,0.18-0.49,0.33
			c0,0-0.32,0.26-0.55,0.59c-0.31,0.46-0.49,1.4-0.25,2.5C457.05,47.24,456.73,45.69,455.88,45.01z"/>
		<path class="st2" d="M505.56,51.1c-0.16-0.12-0.33-0.2-0.33-0.2c-0.17-0.07-0.4-0.13-0.71-0.12c0.19-0.09,0.55-0.3,0.85-0.7
			c0.37-0.49,0.44-1,0.46-1.21c0.01,0.15,0.06,0.87,0.64,1.34c0.21,0.17,0.43,0.25,0.59,0.3c-0.08,0.04-0.19,0.11-0.3,0.2
			c0,0-0.19,0.16-0.33,0.36c-0.19,0.28-0.29,0.85-0.15,1.51C506.27,52.44,506.08,51.5,505.56,51.1z"/>
		<path class="st2" d="M496.75,55.93c-0.36-0.28-0.75-0.45-0.75-0.45c-0.39-0.16-0.92-0.29-1.61-0.28c0.44-0.22,1.26-0.69,1.95-1.6
			c0.84-1.12,1.01-2.27,1.06-2.77c0.02,0.33,0.13,1.98,1.47,3.04c0.48,0.38,0.98,0.57,1.35,0.67c-0.19,0.1-0.43,0.24-0.68,0.45
			c0,0-0.44,0.36-0.75,0.82c-0.43,0.63-0.67,1.93-0.35,3.44C498.37,59,497.93,56.86,496.75,55.93z"/>
		<g>
			<path class="st2" d="M514.58,83.5c-0.33-0.12-8.06-2.92-9.68-10.6c-1.55-7.33,3.79-12.83,5.47-14.34
				c2.18-1.97,4.92-3.35,7.93-4.01l0.11,0.49c-2.92,0.64-5.59,1.98-7.7,3.89c-1.62,1.47-6.81,6.8-5.31,13.87
				c1.57,7.41,9.04,10.12,9.36,10.24L514.58,83.5z"/>
		</g>
		<path class="st2" d="M563.35,77.38c-2.06,9.8-22.9,12.27-25.33,12.53c-7.05,0.77-14.12,1.54-20.89-2.96
			c-5.75-3.83-11.56-11.65-10.03-18.43c1.08-4.79,4.37-10.07,8.69-13.11c3.22-2.26,6.48-3.08,6.6-5.26c0.14-2.5-4.06-3.76-3.64-5.26
			c0.51-1.77,6.83-2.21,10.51,0.27c3.34,2.25,2.45,5.1,5.39,7.41c4.46,3.51,9.93-1.86,13.88,1.08c3.69,2.74,0.75,8.36,5.12,11.86
			c2.73,2.19,5.01,0.9,7.41,3.37C563.22,71.12,563.9,74.77,563.35,77.38z"/>
		<path class="st4" d="M505.8,78.35c1.09,1.04,2.21,2.09,3.3,3.13c1.93-1.61,4.25-3.87,6.46-6.88c0.21-0.28,0.4-0.57,0.6-0.85
			c0.11-0.16,0.21-0.32,0.32-0.46c0.46-0.7,0.9-1.38,1.28-2.05c0.19-0.32,0.36-0.63,0.54-0.95c1.44-2.61,2.37-4.99,2.99-6.91
			c-1.26-0.87-2.54-1.74-3.78-2.61c-0.55,0.19-1.37,0.55-2.18,1.22c-0.59,0.5-1.14,1.41-2.25,3.23c-0.5,0.82-1.3,2.17-2.17,3.92
			c-0.02,0.03-0.03,0.06-0.05,0.09C509.18,72.28,507.47,75.31,505.8,78.35z"/>
		<path class="st4" d="M529.41,63.79c0.63,1.98,1.6,4.44,3.1,7.13c0.13,0.24,0.27,0.49,0.41,0.73c0.3,0.52,0.62,1.04,0.98,1.58
			c0.19,0.3,0.4,0.62,0.62,0.93c0.21,0.28,0.41,0.57,0.62,0.85c2.21,3,4.52,5.26,6.46,6.88c1.09-1.04,2.2-2.09,3.29-3.13
			c-1.69-3.07-3.4-6.13-5.11-9.2c-0.05-0.08-0.09-0.17-0.14-0.25c-0.66-1.23-1.34-2.43-2.02-3.67c-0.27-0.49-0.87-1.82-2.24-3.03
			c-0.81-0.71-1.61-1.15-2.18-1.42C531.94,62.05,530.68,62.92,529.41,63.79z"/>
		<path class="st4" d="M524.68,93.36c-0.04,0.19-0.08,0.4-0.12,0.58c-0.33,1.58-0.7,3.15-1.03,4.74c-0.84,4.1-1.68,8.29-2.49,12.55
			c-0.11,0.57-0.22,1.14-0.32,1.72c-0.19,1.03-0.31,1.68-0.39,2.11c-0.16,0.88-0.15,0.85-0.27,1.49
			c-1.82,9.01-3.78,11.07-4.74,16.09c-0.08,0.44-0.14,0.86-0.2,1.26c-2.85-0.4-5.69-0.78-8.54-1.16c0.11-1.49,0.24-2.99,0.38-4.51
			c0.55-6.05,1.36-11.75,2.32-17.06c1.23-6.89,2.73-13.14,4.28-18.69c0.03-0.09,0.04-0.2,0.08-0.31c3.13,0.33,6.26,0.67,9.37,0.99
			C523.55,93.25,524.12,93.3,524.68,93.36z"/>
		<path class="st4" d="M534.58,89.7c-0.13,1.8-0.24,3.62-0.31,5.45c-0.27,4.74-0.47,9.59-0.64,14.54c-0.09,2.78-0.05,2.76-0.09,3.32
			c0,0.09,0,0.19-0.01,0.32c-0.04,1.25-0.13,2.38-0.23,3.41c-0.02,0.13-0.03,0.26-0.04,0.39c-0.63,6.18-1.81,8.51-1.97,12.84
			c-0.01,0.44-0.01,0.86,0,1.27c-2.86,0.05-5.7,0.1-8.56,0.15h-0.05c-0.11-1.48-0.22-3-0.31-4.53c-0.26-3.95-0.37-7.77-0.38-11.46
			v-0.16c-0.02-1.71,0-3.42,0.04-5.07c0.16-7.32,0.71-14,1.43-19.96c3.14-0.14,6.28-0.28,9.41-0.44
			C533.45,89.76,534,89.73,534.58,89.7z"/>
		<path class="st4" d="M528.28,59.91l-4.83,0.19l-0.11-2.84l-0.12-3.21l-0.05-1.24c1.44-0.23,2.88-0.46,4.32-0.69
			C527.75,54.71,528.01,57.31,528.28,59.91z"/>
		<path class="st4" d="M534.88,91.5c-0.17,1.35-0.55,2.37-0.79,2.88c-0.32-0.02-0.61-0.03-0.94-0.05c-2.86-0.12-5.73-0.25-8.59-0.38
			c-0.33-0.01-0.67-0.03-1-0.04c-3.33-0.47-6.68-0.94-10.01-1.41c0.1-0.38,1.01-3.74,2.34-6.41c0.34-0.71,0.96-1.84,1.6-2.82
			c0.51-0.8,0.99-1.49,1.47-2.12c0.04-0.56,0.08-1.12,0.11-1.69c0.01-0.2,0.02-0.41,0.03-0.63c0.03-0.45,0.06-0.92,0.1-1.37
			c0.1-1.38,0.18-2.76,0.27-4.15c-0.11,0-2.47-0.1-3.49-1.91c-0.96-1.69-0.41-4.13,1.53-5.52c-0.47-1.47-0.93-2.94-1.39-4.43
			c1.41-0.86,3.55-1.92,6.17-2.37c0.4-0.05,0.78-0.12,1.12-0.15c1.08-0.11,1.83-0.09,2.07-0.06c0.33,0.01,1.33,0.06,2.75,0.4
			c0.15,0.03,0.29,0.05,0.41,0.09c1.35,0.36,3.56,1.07,6.16,2.71c-0.38,3.07-0.98,6.48-1.89,10.14c-0.49,1.99-1.02,3.89-1.6,5.65
			c-0.04,0.14-0.09,0.28-0.13,0.41c-0.33,1.04-0.67,2.03-1.01,2.96c-0.05,0.14-0.1,0.27-0.15,0.4c0.6,0.38,3.89,2.45,4.75,6.63
			C535.01,89.44,535.01,90.55,534.88,91.5z"/>
		<g>
			<path class="st4" d="M556.6,88.35c-1.17,1-2.35,2.01-3.52,3.01c-3.39-2.58-6.78-5.16-10.18-7.74c-1.2-1.31-2.4-2.63-3.6-3.94
				c0.21-0.6,0.6-1.33,1.32-1.75c1.04-0.6,2.71-0.51,6.38,1.79C549.47,81.27,552.99,83.9,556.6,88.35z"/>
		</g>
		<path class="st4" d="M490.14,78.56c0.7-1.38,1.4-2.75,2.1-4.13c4.69,1.2,9.38,2.39,14.07,3.59c1.04,0.64,2.09,1.29,3.13,1.93
			c0.03,0.64-0.04,1.46-0.55,2.12c-0.73,0.96-2.31,1.51-6.58,0.79C499.43,82.37,495.17,81.28,490.14,78.56z"/>
		<path class="st4" d="M528.06,50.54c-0.17,2.03-1.25,4.92-3.72,5.81c-0.32,0.12-1.95,0.63-3.29-0.18c-0.31-0.19-1-0.6-1.14-1.31
			c-0.12-0.6,0.25-0.92,0.02-1.45c-0.23-0.53-0.81-0.68-0.74-0.93c0.05-0.17,0.33-0.1,0.63-0.33c0.44-0.34,0.47-0.98,0.49-1.14
			c0.06-0.53-0.19-0.75-0.3-1.24c-0.22-0.97,0.35-1.88,0.55-2.19c1.01-1.62,3.04-1.73,3.37-1.75c0.41-0.02,2.12-0.13,3.27,1.09
			C528.26,48.07,528.13,49.66,528.06,50.54z"/>
		<path class="st4" d="M496.08,174.18c0.06-0.26,0.18-0.67,0.49-1.05c0.44-0.54,1.02-0.74,1.26-0.83c1.02-0.37,2.96-1.2,5.57-2.32
			c2.26-0.11,4.51-0.21,6.77-0.31c0.06,0,0.12-0.01,0.18-0.01c0.22,0.4,0.79,1.53,0.48,2.89c-0.1,0.42-0.25,0.77-0.41,1.04
			c-2.76,0.15-5.52,0.3-8.28,0.46C500.12,174.09,498.1,174.13,496.08,174.18z"/>
		<g>
			<path class="st3" d="M523.33,56.74c-0.06,0-0.11-0.04-0.12-0.1c-0.01-0.07,0.03-0.13,0.1-0.15c0.15-0.03,0.29-0.08,0.43-0.14
				c0.21-0.09,0.41-0.21,0.58-0.35c0.05-0.04,0.13-0.04,0.18,0.02c0.04,0.05,0.04,0.13-0.02,0.18c-0.2,0.16-0.41,0.29-0.64,0.39
				c-0.16,0.07-0.32,0.12-0.48,0.15C523.34,56.74,523.34,56.74,523.33,56.74z"/>
		</g>
		<path class="st3" d="M521.09,51.19c0,0.27-0.1,0.49-0.23,0.49c-0.13,0-0.23-0.22-0.23-0.49c0-0.27,0.1-0.49,0.23-0.49
			C520.98,50.7,521.09,50.92,521.09,51.19z"/>
		<path class="st0" d="M522.29,53.67c0.11,0.07-0.12,1.21-0.88,1.4c-0.51,0.13-1.09-0.22-1.06-0.37c0.02-0.13,0.48-0.03,1.06-0.33
			C522.02,54.07,522.21,53.62,522.29,53.67z"/>
		<path class="st4" d="M503.4,169.98c2.28,0.03,4.55,0.06,6.81,0.08c0.02-0.13,0.05-0.25,0.08-0.4c0.22-1.3,0.62-3.35,1.2-5.85
			c0.87-3.79,1.77-6.89,2.58-9.58c1.88-6.31,3.21-10.35,2.31-15.73c-0.35-2.12-0.93-3.75-1.26-4.6c-2.84-0.4-5.69-0.77-8.53-1.17
			c-0.54,6.61-1.07,13.2-1.6,19.79c-0.44,5.29-0.87,10.61-1.3,15.9C503.59,168.96,503.49,169.46,503.4,169.98z"/>
		<path class="st4" d="M566.57,123.64c-0.26,0.05-0.68,0.1-1.15-0.04c-0.67-0.19-1.09-0.64-1.26-0.83
			c-0.74-0.79-2.27-2.25-4.33-4.21c-0.99-2.03-1.97-4.06-2.96-6.1c-0.03-0.05-0.05-0.11-0.08-0.16c0.28-0.36,1.09-1.33,2.46-1.58
			c0.42-0.08,0.81-0.07,1.12-0.03c1.23,2.48,2.46,4.95,3.69,7.43C564.89,119.96,565.73,121.8,566.57,123.64z"/>
		<path class="st4" d="M522.63,130.85c-0.01,0.03,0,0.08,0,0.13c-0.02,0.56,0.07,1.79,0.91,2.89c1.63,2.16,4.53,1.82,4.66,1.8
			c6.13-3.37,12.28-6.74,18.42-10.11c4.33-2.38,8.65-4.74,12.98-7.11c0.47-0.22,0.95-0.41,1.44-0.62c-1.23-1.91-2.44-3.82-3.67-5.73
			c-1.17,0.51-3.26,1.39-5.92,2.38c-3.45,1.3-6.4,2.21-8.99,2.99c-2.39,0.73-4.47,1.32-6.35,1.99c-3.26,1.15-5.88,2.44-8.48,4.86
			c-1.57,1.46-2.62,2.85-3.13,3.59C523.87,128.88,523.25,129.88,522.63,130.85z"/>
		<g>
			<path class="st3" d="M512.52,135.06c-0.04,0-0.09-0.02-0.11-0.07c-0.03-0.06-0.01-0.14,0.05-0.17l1.65-0.88
				c0.06-0.03,0.14-0.01,0.17,0.05c0.03,0.06,0.01,0.14-0.05,0.17l-1.65,0.88C512.56,135.05,512.54,135.06,512.52,135.06z"/>
		</g>
		<ellipse class="st4" cx="525.72" cy="51.68" rx="1.22" ry="1.8"/>
		<g>
			<path class="st3" d="M521.64,50.25c-0.04,0-0.08-0.02-0.11-0.06c-0.06-0.09-0.37-0.56-0.9-0.58c-0.23-0.01-0.4,0.06-0.51,0.12
				c-0.06,0.03-0.14,0.01-0.17-0.05c-0.03-0.06-0.01-0.14,0.05-0.17c0.2-0.11,0.43-0.16,0.64-0.15c0.66,0.03,1.03,0.59,1.1,0.71
				c0.04,0.06,0.02,0.14-0.04,0.17C521.69,50.25,521.67,50.25,521.64,50.25z"/>
		</g>
		<path class="st3" d="M498.46,174.45h13.04v-2.96c-0.02-0.55-0.14-1.4-0.72-1.78c-1.16-0.75-2.92,1.2-4.69,0.67
			c-0.67-0.2-1.59-0.83-2.32-2.99c-0.2-0.02-0.78-0.07-1.19,0.3c-0.57,0.51-0.63,1.65,0.1,2.62c-0.98,0.06-2.55,0.29-4.21,1.19
			c-1.11,0.59-2.94,1.85-2.7,2.52C496.01,174.7,498.3,174.47,498.46,174.45z"/>
		<path class="st3" d="M565.9,121.74l-5.59-11.78l-2.68,1.27c-0.48,0.26-1.21,0.73-1.3,1.42c-0.18,1.37,2.34,2.13,2.61,3.95
			c0.11,0.69-0.07,1.79-1.71,3.38c0.06,0.19,0.27,0.74,0.78,0.95c0.7,0.3,1.76-0.14,2.32-1.21c0.48,0.85,1.36,2.18,2.88,3.3
			c1.01,0.75,2.93,1.87,3.43,1.36C567.18,123.84,565.98,121.87,565.9,121.74z"/>
		<g>
			<path class="st0" d="M522.34,104.68c-0.08,0-0.13-0.06-0.12-0.13l0.61-10.32c0-0.02,0.01-0.04,0.02-0.06l1.25-2.04
				c0.04-0.06,0.11-0.08,0.17-0.04c0.06,0.04,0.08,0.11,0.04,0.17l-1.24,2.01l-0.61,10.29C522.46,104.63,522.4,104.68,522.34,104.68
				z"/>
		</g>
		<g>
			<path class="st0" d="M522.95,94.36c-0.05,0-0.09-0.03-0.11-0.07l-0.97-2.06c-0.03-0.06,0-0.14,0.06-0.17
				c0.06-0.03,0.14,0,0.17,0.06l0.97,2.06c0.03,0.06,0,0.14-0.06,0.17C522.99,94.36,522.97,94.36,522.95,94.36z"/>
		</g>
		<path class="st4" d="M483.28,80.26c1.7,0.71,3.4,1.43,5.1,2.14c0.31-0.82,0.5-0.97,0.61-0.95c0.24,0.03,0.27,0.83,0.71,2.39
			c0.3,1.05,0.45,1.25,0.63,1.28c0.4,0.07,0.84-0.77,0.94-0.95c0-1.93,0-3.85,0-5.78c0.32-1.32,0.65-2.64,0.97-3.96
			c-0.82,0.06-2.04,0.24-3.39,0.85c-1.66,0.74-2.76,1.76-3.36,2.42C484.75,78.55,484.01,79.4,483.28,80.26z"/>
		<path class="st4" d="M553.08,91.36c0.08,0.33,0.92,3.75,1.87,3.7c0.63-0.03,1.05-1.58,1.23-2.34c1.69,0.34,3.38,0.67,5.06,1.01
			c0.64,0.8,1.15,1.14,1.53,1.03c0.67-0.2,0.91-1.86,0.72-4.99c-2.34-0.53-4.68-1.06-7.02-1.59
			C555.34,89.25,554.21,90.31,553.08,91.36z"/>
		<g>
			<path class="st0" d="M509.68,172.55c-0.44,0-0.79-0.35-0.79-0.79c0-0.44,0.36-0.79,0.79-0.79s0.79,0.36,0.79,0.79
				C510.47,172.19,510.11,172.55,509.68,172.55z M509.68,171.22c-0.3,0-0.54,0.24-0.54,0.54c0,0.3,0.24,0.54,0.54,0.54
				c0.3,0,0.54-0.24,0.54-0.54C510.22,171.46,509.97,171.22,509.68,171.22z"/>
		</g>
		<g>
			<path class="st0" d="M559.25,113.84c-0.08,0-0.15-0.01-0.23-0.03c-0.27-0.06-0.49-0.22-0.64-0.46c-0.15-0.23-0.19-0.51-0.13-0.77
				c0.06-0.27,0.22-0.49,0.46-0.64c0.23-0.15,0.51-0.19,0.78-0.13c0.55,0.13,0.9,0.68,0.77,1.23
				C560.14,113.52,559.71,113.84,559.25,113.84z M559.25,112.04c-0.35,0-0.67,0.24-0.76,0.6c-0.05,0.2-0.01,0.41,0.1,0.58
				c0.11,0.18,0.28,0.3,0.48,0.34c0.42,0.1,0.83-0.16,0.93-0.58c0.1-0.42-0.17-0.83-0.58-0.93
				C559.36,112.05,559.31,112.04,559.25,112.04z"/>
		</g>
		<g>
			<g>
				<path class="st3" d="M443.56,104.04h54.16v-17c0-5.34-4.33-9.67-9.67-9.67h-44.49V104.04z"/>
				<g>
					<g>
						
							<ellipse transform="matrix(0.7071 -0.7071 0.7071 0.7071 92.5326 359.7289)" class="st3" cx="480.5" cy="68.17" rx="9.21" ry="9.21"/>
						<g>
							<path class="st0" d="M480.5,71.78c-1.99,0-3.61-1.62-3.61-3.61c0-1.99,1.62-3.62,3.61-3.62c1.99,0,3.62,1.62,3.62,3.62
								C484.11,70.16,482.49,71.78,480.5,71.78z M480.5,64.8c-1.86,0-3.36,1.51-3.36,3.37c0,1.86,1.51,3.36,3.36,3.36
								c1.86,0,3.37-1.51,3.37-3.36C483.86,66.31,482.35,64.8,480.5,64.8z"/>
						</g>
					</g>
					<g>
						
							<ellipse transform="matrix(0.9735 -0.2288 0.2288 0.9735 -3.4355 106.7101)" class="st3" cx="458.38" cy="68.17" rx="9.21" ry="9.21"/>
						<g>
							<path class="st0" d="M458.38,71.78c-1.99,0-3.61-1.62-3.61-3.61c0-1.99,1.62-3.62,3.61-3.62c1.99,0,3.62,1.62,3.62,3.62
								C462,70.16,460.38,71.78,458.38,71.78z M458.38,64.8c-1.86,0-3.36,1.51-3.36,3.37c0,1.86,1.51,3.36,3.36,3.36
								s3.37-1.51,3.37-3.36C461.75,66.31,460.24,64.8,458.38,64.8z"/>
						</g>
					</g>
				</g>
				<g>
					<path class="st0" d="M478.25,100.54h-34.69c-0.07,0-0.12-0.06-0.12-0.12V83.26c0-0.07,0.06-0.12,0.12-0.12h34.69
						c0.07,0,0.12,0.06,0.12,0.12v17.15C478.38,100.49,478.32,100.54,478.25,100.54z M443.69,100.29h34.44v-16.9h-34.44V100.29z"/>
				</g>
				<g>
					<path class="st0" d="M492.64,99.81h-13.71c-0.07,0-0.12-0.06-0.12-0.12c0-0.07,0.06-0.12,0.12-0.12h13.71
						c0.07,0,0.12,0.06,0.12,0.12C492.76,99.76,492.71,99.81,492.64,99.81z"/>
				</g>
				<g>
					<path class="st0" d="M480.63,81.5h-25.42c-0.07,0-0.12-0.06-0.12-0.12c0-0.07,0.06-0.12,0.12-0.12h25.42
						c0.07,0,0.12,0.06,0.12,0.12C480.75,81.45,480.7,81.5,480.63,81.5z"/>
				</g>
				<path class="st3" d="M443.22,87.43c1.97-0.05,3.93-0.09,5.9-0.14c0.02,3.03,0.04,6.06,0.06,9.08c-1.99,0.07-3.97,0.13-5.96,0.2
					c-3.37,2.16-6.75,4.32-10.12,6.49v-22.9C436.47,82.58,439.85,85,443.22,87.43z"/>
				<path class="st3" d="M487.31,84.58l4.16,2.4c1.77-3.06,3.54-6.12,5.3-9.19c0.4-0.69,0.79-1.37,1.19-2.06
					c-1.39-0.8-2.77-1.6-4.16-2.4L487.31,84.58z"/>
			</g>
			<g>
				
					<rect x="489.41" y="102.39" transform="matrix(-0.9847 0.1744 -0.1744 -0.9847 996.9775 185.3233)" class="st3" width="1.87" height="68.15"/>
				
					<rect x="487.69" y="126.99" transform="matrix(-0.9847 0.1744 -0.1744 -0.9847 993.6653 173.0163)" class="st3" width="3.09" height="6.37"/>
				
					<rect x="492.66" y="169.19" transform="matrix(-1 -1.224647e-16 1.224647e-16 -1 991.8723 340.13)" class="st3" width="6.55" height="1.75"/>
			</g>
			<g>
				
					<rect x="447.34" y="102.39" transform="matrix(0.9847 0.1744 -0.1744 0.9847 30.6729 -76.093)" class="st3" width="1.87" height="68.15"/>
				
					<rect x="447.84" y="126.99" transform="matrix(0.9847 0.1744 -0.1744 0.9847 29.5934 -76.3879)" class="st3" width="3.09" height="6.37"/>
				<rect x="439.4" y="169.19" class="st3" width="6.55" height="1.75"/>
			</g>
		</g>
		<path class="st3" d="M499.83,82.96c0.5-0.14,0.79-0.66,0.65-1.16l-3.7-13.03c-0.14-0.5-0.66-0.79-1.16-0.65
			c-0.5,0.14-0.79,0.66-0.65,1.16l3.7,13.03C498.8,82.81,499.33,83.1,499.83,82.96z"/>
		<g>
			<g>
				<path class="st3" d="M556,132.85c-6.9,0-12.51,5.61-12.51,12.51c0,6.9,5.61,12.49,12.51,12.49c6.9,0,12.51-5.59,12.51-12.49
					C568.51,138.45,562.9,132.85,556,132.85z M548.2,147.87c-1.39,0-2.51-1.12-2.51-2.51c0-1.39,1.12-2.52,2.51-2.52
					c1.39,0,2.51,1.13,2.51,2.52C550.7,146.75,549.59,147.87,548.2,147.87z M556,155.67c-1.39,0-2.51-1.12-2.51-2.51
					c0-1.39,1.12-2.52,2.51-2.52c1.39,0,2.51,1.13,2.51,2.52C558.51,154.55,557.39,155.67,556,155.67z M554.85,145.36
					c0-0.64,0.5-1.16,1.15-1.16s1.15,0.52,1.15,1.16c0,0.63-0.5,1.15-1.15,1.15S554.85,145.98,554.85,145.36z M556,140.06
					c-1.39,0-2.51-1.12-2.51-2.51s1.12-2.51,2.51-2.51c1.39,0,2.51,1.12,2.51,2.51S557.39,140.06,556,140.06z M563.8,147.87
					c-1.39,0-2.52-1.12-2.52-2.51c0-1.39,1.13-2.52,2.52-2.52c1.39,0,2.51,1.13,2.51,2.52C566.31,146.75,565.19,147.87,563.8,147.87
					z"/>
				<g>
					<path class="st3" d="M556,153.53c-4.62,0-8.38-3.76-8.38-8.38c0-4.62,3.76-8.38,8.38-8.38c4.62,0,8.38,3.76,8.38,8.38
						C564.37,149.77,560.62,153.53,556,153.53z M556,137.52c-4.21,0-7.63,3.42-7.63,7.63c0,4.21,3.42,7.63,7.63,7.63
						c4.21,0,7.63-3.42,7.63-7.63C563.62,140.95,560.2,137.52,556,137.52z"/>
				</g>
			</g>
			<rect x="532.56" y="145.72" class="st5" width="38.72" height="28.73"/>
			<g>
				<path class="st3" d="M535.79,151.19c-6.9,0-12.51,5.61-12.51,12.51c0,6.9,5.61,12.49,12.51,12.49c6.9,0,12.51-5.59,12.51-12.49
					C548.29,156.8,542.69,151.19,535.79,151.19z M527.98,166.21c-1.39,0-2.51-1.12-2.51-2.51c0-1.39,1.12-2.52,2.51-2.52
					c1.39,0,2.51,1.13,2.51,2.52C530.49,165.09,529.38,166.21,527.98,166.21z M535.79,174.01c-1.39,0-2.51-1.12-2.51-2.51
					s1.12-2.52,2.51-2.52c1.39,0,2.51,1.13,2.51,2.52S537.18,174.01,535.79,174.01z M534.64,163.7c0-0.64,0.5-1.16,1.15-1.16
					c0.64,0,1.15,0.52,1.15,1.16c0,0.63-0.5,1.15-1.15,1.15C535.15,164.84,534.64,164.33,534.64,163.7z M535.79,158.41
					c-1.39,0-2.51-1.12-2.51-2.51c0-1.39,1.12-2.51,2.51-2.51c1.39,0,2.51,1.12,2.51,2.51C538.3,157.29,537.18,158.41,535.79,158.41
					z M543.59,166.21c-1.39,0-2.52-1.12-2.52-2.51c0-1.39,1.13-2.52,2.52-2.52c1.39,0,2.51,1.13,2.51,2.52
					C546.1,165.09,544.98,166.21,543.59,166.21z"/>
				<g>
					<path class="st3" d="M535.79,171.87c-4.62,0-8.38-3.76-8.38-8.38c0-4.62,3.76-8.38,8.38-8.38c4.62,0,8.38,3.76,8.38,8.38
						C544.16,168.11,540.41,171.87,535.79,171.87z M535.79,155.86c-4.2,0-7.63,3.42-7.63,7.63c0,4.21,3.42,7.63,7.63,7.63
						c4.21,0,7.63-3.42,7.63-7.63C543.41,159.29,539.99,155.86,535.79,155.86z"/>
				</g>
			</g>
			<g>
				<path class="st3" d="M545.29,177.56c-1.85,0-3.56-0.2-4.99-0.37c-6.29-0.74-10.99-3.46-13.82-5.61
					c-0.17-0.13-0.2-0.36-0.07-0.53c0.13-0.17,0.36-0.2,0.53-0.07c2.76,2.1,7.34,4.75,13.46,5.47c3.56,0.42,8.95,1.05,13.57-1.9
					c1.46-0.93,2.45-1.97,3.32-2.88c1.26-1.32,2.35-2.47,4.26-2.47c2.42,0.02,5.25,1.74,5.49,4.01c0.11,0.99-0.31,2.06-1.08,2.78
					c-1.33,1.25-3.56,1.3-5.42,0.12c-0.17-0.11-0.23-0.34-0.12-0.52c0.11-0.18,0.34-0.23,0.52-0.12c1.58,1,3.43,0.98,4.51-0.04
					c0.59-0.56,0.92-1.4,0.84-2.16c-0.19-1.83-2.73-3.32-4.71-3.34c-1.63,0-2.52,0.94-3.76,2.23c-0.9,0.94-1.92,2.01-3.45,2.99
					C551.4,177.07,548.18,177.56,545.29,177.56z"/>
			</g>
		</g>
		<path class="st3" d="M533.54,113.01c0,0.09,0,0.19-0.01,0.32c-0.04,1.25-0.13,2.38-0.23,3.41c-3.78-0.51-7.55-1-11.32-1.5
			C525.84,114.5,529.7,113.76,533.54,113.01z"/>
		<path class="st6" d="M536.07,115.24h-14.79c-0.33-2.45-0.58-5.06-0.7-7.82c-0.36-8.09,0.44-15.26,1.62-21.2
			c-0.48-0.05-1.26-0.2-2.02-0.72c-1.81-1.23-1.95-3.45-1.96-3.76c1.26,0.47,3.34,1.06,5.96,1.02c2.56-0.04,4.58-0.67,5.81-1.17
			c1.01,0.64,1.8,1.35,2.43,2.06c5.73,6.45,1.99,17.42,1.46,18.92C534.61,106.8,535.34,111.02,536.07,115.24z"/>
		<path class="st3" d="M521.04,111.23c-0.11,0.57-0.22,1.14-0.32,1.72c-0.19,1.03-0.31,1.68-0.39,2.11
			c-3.69-1.3-7.37-2.6-11.06-3.89C513.19,111.2,517.13,111.22,521.04,111.23z"/>
		<path class="st6" d="M521.11,113.82c-4.31-0.96-8.63-1.93-12.94-2.89c0.79-4.27,1.57-7.93,2.22-10.83
			c2.02-8.99,3.27-12.6,5.94-16.12c0.83-1.1,1.6-1.92,2.09-2.43c1.27,1.56,2.53,3.11,3.8,4.67
			C521.84,95.43,521.48,104.62,521.11,113.82z"/>
		<g>
			<path class="st3" d="M531.33,124.03c-0.02,0-0.04,0-0.05-0.01c-0.06-0.03-0.09-0.1-0.06-0.17l1.44-3.08
				c0.03-0.06,0.11-0.09,0.17-0.06c0.06,0.03,0.09,0.1,0.06,0.17l-1.44,3.08C531.42,124,531.37,124.03,531.33,124.03z"/>
		</g>
		<g>
			<path class="st3" d="M521.11,113.95c-0.06,0-0.12-0.05-0.12-0.11c-0.26-2.12-0.43-4.27-0.52-6.4
				c-0.21-5.03,0.07-10.11,0.81-15.12c0.01-0.07,0.06-0.12,0.14-0.11c0.07,0.01,0.12,0.07,0.11,0.14
				c-0.74,4.99-1.01,10.06-0.81,15.07c0.09,2.12,0.26,4.27,0.52,6.38c0.01,0.07-0.04,0.13-0.11,0.14
				C521.12,113.95,521.11,113.95,521.11,113.95z"/>
		</g>
		<path class="st3" d="M531.16,78.24c-0.33,1.04-0.67,2.03-1.01,2.96c-4.51,0.34-8.33-0.64-11.09-1.69v-0.08
			c-0.03-0.68-0.05-1.34-0.09-2.01c0.08,0,0.14,0,0.22,0.01c3.91,0.11,7.83,0.23,11.74,0.35C531,77.93,531.09,78.09,531.16,78.24z"
			/>
		<path class="st0" d="M534.87,79.85c-1.91,0.16-3.95,0.26-6.11,0.27c-4.19,0.01-7.99-0.33-11.32-0.84
			c-0.03-1.49-0.06-2.97-0.09-4.46c-1.65-2.06-2.2-4.57-1.29-6.53c0.21-0.46,0.63-1.15,1.46-1.8c1.8-2.51,3.61-5.02,5.41-7.53
			c2.04,0.16,4.09,0.33,6.13,0.49c1.25,3.51,2.5,7.01,3.75,10.52C533.5,73.26,534.18,76.56,534.87,79.85z"/>
		<path class="st2" d="M525.89,44.9c1.36,0.5,1.8-0.08,2.61,0.54c1.54,1.19,0.01,8.13-0.87,8.07c-0.23-0.02-0.4-0.51-0.46-0.77
			c-0.15-0.75,0.41-1.09,0.29-1.86c-0.05-0.37-0.27-0.88-0.63-0.99c-0.46-0.13-1.15,0.37-1.57,1.35c-0.36-0.47-0.93-1.13-1.8-1.71
			c-1.24-0.83-2.16-0.9-3.1-1.21c-2.56-0.85-4.96-3.75-4.38-5.3c0.46-1.23,2.73-1.62,3.98-1.62c1.21,0.01,2.12,0.43,2.36,0.54
			C524.31,42.88,524.16,44.27,525.89,44.9z"/>
		<g>
			<path class="st2" d="M556.05,82.11c-0.29,0-0.58-0.01-0.88-0.04l0.04-0.5c4.4,0.35,8.51-2.24,9.58-6.02
				c0.97-3.45-0.77-7.13-3-8.69c-1.34-0.93-2.62-1.01-3.86-1.08c-1.33-0.08-2.59-0.15-3.67-1.32c-0.88-0.96-0.93-1.88-1-3.05
				c-0.06-1.05-0.13-2.25-0.8-3.89c-1.16-2.84-2.68-4.72-4.52-5.6c-2.2-1.05-4.29-0.37-6.31,0.28c-2.01,0.65-3.91,1.27-5.71,0.1
				c-1.12-0.73-1.5-1.7-1.91-2.74c-0.42-1.09-0.86-2.21-2.22-3.27c-1.5-1.17-3.48-1.73-5.91-1.7l-0.01-0.5
				c2.54-0.05,4.63,0.56,6.22,1.8c1.47,1.14,1.95,2.39,2.38,3.48c0.39,1,0.72,1.86,1.71,2.5c1.6,1.03,3.31,0.48,5.28-0.16
				c2.01-0.65,4.3-1.39,6.68-0.26c1.96,0.93,3.56,2.9,4.77,5.86c0.71,1.72,0.78,3.02,0.84,4.05c0.06,1.11,0.11,1.91,0.87,2.74
				c0.93,1.02,2.04,1.08,3.32,1.16c1.25,0.07,2.66,0.15,4.11,1.17c2.76,1.92,4.14,5.89,3.2,9.23
				C564.2,79.51,560.4,82.11,556.05,82.11z"/>
		</g>
		<g>
			<path class="st6" d="M528.28,57.31c-1.62,0-2.93-1.31-2.93-2.93c0-0.66,0.23-1.31,0.64-1.83l0.59,0.47
				c-0.31,0.39-0.48,0.86-0.48,1.36c0,1.2,0.98,2.18,2.18,2.18c1.2,0,2.18-0.98,2.18-2.18c0-1.2-0.98-2.18-2.18-2.18
				c-0.32,0-0.63,0.07-0.91,0.2l-0.32-0.68c0.39-0.18,0.8-0.27,1.23-0.27c1.62,0,2.93,1.31,2.93,2.93S529.89,57.31,528.28,57.31z"/>
		</g>
		<g>
			<g>
				<g>
					<path class="st6" d="M561.68,97.07c-2.23-0.24-4.47-0.47-6.7-0.71c0.26-4.54,0.52-9.07,0.77-13.61l7.9,0.84
						C562.99,88.08,562.34,92.58,561.68,97.07z"/>
					
						<rect x="555.05" y="82.97" transform="matrix(0.9944 0.1055 -0.1055 0.9944 11.9472 -58.5484)" class="st3" width="9.2" height="1.47"/>
					
						<rect x="555.59" y="82.24" transform="matrix(0.9944 0.1055 -0.1055 0.9944 11.8715 -58.5645)" class="st3" width="8.28" height="1.47"/>
				</g>
			</g>
			<g>
				<path class="st3" d="M559.59,90.67c-0.5,0.45-0.96,0.95-1.35,1.5c-0.52-0.67-0.37-1.76,0.37-2.54c0.8-0.83,2-0.99,2.67-0.34
					c0.03,0.04,0.07,0.07,0.1,0.11C560.73,89.76,560.14,90.18,559.59,90.67z"/>
				<path class="st3" d="M561.04,91.98c-0.8,0.83-2,0.98-2.67,0.34c-0.01-0.01-0.02-0.02-0.03-0.04c0.39-0.55,0.84-1.06,1.35-1.51
					c0.54-0.49,1.14-0.91,1.77-1.26C561.92,90.19,561.76,91.23,561.04,91.98z"/>
			</g>
			<g>
				<path class="st3" d="M558.11,88.07c0.22,0.3,0.41,0.63,0.56,0.97c0.36-0.3,0.41-0.91,0.09-1.42c-0.34-0.55-0.97-0.77-1.41-0.49
					c-0.02,0.02-0.05,0.03-0.07,0.05C557.6,87.44,557.87,87.74,558.11,88.07z"/>
				<path class="st3" d="M557.17,88.61c0.34,0.55,0.97,0.77,1.41,0.49c-0.12-0.36-0.31-0.69-0.54-0.99
					c-0.24-0.33-0.51-0.62-0.82-0.89C556.9,87.53,556.87,88.12,557.17,88.61z"/>
			</g>
		</g>
		<path class="st4" d="M558.31,93.84c0.02,0.65-1.3,1.25-2.34,1.32c-0.46,0.03-1.23,0.09-1.66-0.43c-0.43-0.51-0.38-1.44,0.19-2.25
			c0.34-0.05,0.86-0.08,1.47,0.02C556.81,92.66,558.3,93.16,558.31,93.84z"/>
		<g>
			<path class="st5" d="M471.84,96.36H464c-1.36,0-2.47-1.11-2.47-2.47v-5.04c0-1.36,1.11-2.47,2.47-2.47h7.84
				c1.36,0,2.47,1.11,2.47,2.47v5.04C474.31,95.24,473.2,96.36,471.84,96.36z"/>
			<path class="st3" d="M470.85,91.4c-1.42,0.88-2.83,1.75-4.25,2.63v-5.34C468.02,89.6,469.44,90.5,470.85,91.4z"/>
		</g>
		<g>
			<g>
				
					<rect x="438.02" y="143.66" transform="matrix(-1 -1.224647e-16 1.224647e-16 -1 919.9518 319.2979)" class="st0" width="43.92" height="31.98"/>
				<g>
					<path class="st3" d="M481.93,176.02h-43.92c-0.21,0-0.38-0.17-0.38-0.38v-31.98c0-0.21,0.17-0.38,0.38-0.38h43.92
						c0.21,0,0.38,0.17,0.38,0.38v31.98C482.31,175.85,482.14,176.02,481.93,176.02z M438.39,175.27h43.17v-31.23h-43.17V175.27z"/>
				</g>
				<g>
					<rect x="438.02" y="143.2" class="st2" width="43.92" height="4.86"/>
					<polygon class="st5" points="474.16,148.06 476.95,148.06 479.18,143.2 476.39,143.2 					"/>
					<polygon class="st5" points="465.31,148.06 468.1,148.06 470.33,143.2 467.54,143.2 					"/>
					<polygon class="st5" points="457.33,148.06 460.12,148.06 462.35,143.2 459.56,143.2 					"/>
					<polygon class="st5" points="448.54,148.06 451.34,148.06 453.57,143.2 450.78,143.2 					"/>
					<polygon class="st5" points="439.78,148.06 442.57,148.06 444.8,143.2 442.01,143.2 					"/>
				</g>
				<g>
					
						<rect x="460.18" y="110.5" transform="matrix(0.3868 -0.9222 0.9222 0.3868 161.5125 507.8173)" class="st2" width="4.86" height="43.92"/>
					<polygon class="st5" points="448.59,129.22 446.02,128.14 445.84,122.79 448.41,123.87 					"/>
					<polygon class="st5" points="456.75,132.64 454.18,131.56 454,126.21 456.57,127.29 					"/>
					<polygon class="st5" points="464.11,135.73 461.54,134.65 461.36,129.3 463.93,130.38 					"/>
					<polygon class="st5" points="472.21,139.12 469.64,138.04 469.46,132.7 472.03,133.78 					"/>
					<polygon class="st5" points="480.3,142.52 477.72,141.44 477.54,136.09 480.12,137.17 					"/>
				</g>
			</g>
			<g>
				<path class="st6" d="M466.25,152.69h9.99c0.18,0,0.33-0.15,0.33-0.33v-0.45c0-0.18-0.15-0.33-0.33-0.33h-9.99
					c-0.18,0-0.33,0.15-0.33,0.33v0.45C465.93,152.54,466.07,152.69,466.25,152.69z"/>
				<path class="st6" d="M462.52,152.69h2.93c0.1,0,0.18-0.08,0.18-0.18v-0.74c0-0.1-0.08-0.18-0.18-0.18h-2.93
					c-0.1,0-0.18,0.08-0.18,0.18v0.74C462.34,152.61,462.42,152.69,462.52,152.69z"/>
				<path class="st6" d="M466.25,154.46h9.99c0.18,0,0.33-0.15,0.33-0.33v-0.45c0-0.18-0.15-0.33-0.33-0.33h-9.99
					c-0.18,0-0.33,0.15-0.33,0.33v0.45C465.93,154.31,466.07,154.46,466.25,154.46z"/>
				<path class="st6" d="M462.52,154.46h2.93c0.1,0,0.18-0.08,0.18-0.18v-0.74c0-0.1-0.08-0.18-0.18-0.18h-2.93
					c-0.1,0-0.18,0.08-0.18,0.18v0.74C462.34,154.37,462.42,154.46,462.52,154.46z"/>
				<path class="st6" d="M466.25,156.48h9.99c0.18,0,0.33-0.15,0.33-0.33v-0.45c0-0.18-0.15-0.33-0.33-0.33h-9.99
					c-0.18,0-0.33,0.15-0.33,0.33v0.45C465.93,156.33,466.07,156.48,466.25,156.48z"/>
				<path class="st6" d="M462.52,156.48h2.93c0.1,0,0.18-0.08,0.18-0.18v-0.74c0-0.1-0.08-0.18-0.18-0.18h-2.93
					c-0.1,0-0.18,0.08-0.18,0.18v0.74C462.34,156.4,462.42,156.48,462.52,156.48z"/>
				<path class="st6" d="M466.25,158.25h9.99c0.18,0,0.33-0.15,0.33-0.33v-0.45c0-0.18-0.15-0.33-0.33-0.33h-9.99
					c-0.18,0-0.33,0.15-0.33,0.33v0.45C465.93,158.1,466.07,158.25,466.25,158.25z"/>
				<path class="st6" d="M462.52,158.25h2.93c0.1,0,0.18-0.08,0.18-0.18v-0.74c0-0.1-0.08-0.18-0.18-0.18h-2.93
					c-0.1,0-0.18,0.08-0.18,0.18v0.74C462.34,158.17,462.42,158.25,462.52,158.25z"/>
			</g>
			<g>
				<path class="st6" d="M445.34,166.5h9.99c0.18,0,0.33-0.15,0.33-0.33v-0.45c0-0.18-0.15-0.33-0.33-0.33h-9.99
					c-0.18,0-0.33,0.15-0.33,0.33v0.45C445.01,166.35,445.16,166.5,445.34,166.5z"/>
				<path class="st6" d="M441.61,166.5h2.93c0.1,0,0.18-0.08,0.18-0.18v-0.74c0-0.1-0.08-0.18-0.18-0.18h-2.93
					c-0.1,0-0.18,0.08-0.18,0.18v0.74C441.43,166.42,441.51,166.5,441.61,166.5z"/>
				<path class="st6" d="M445.34,168.26h9.99c0.18,0,0.33-0.15,0.33-0.33v-0.45c0-0.18-0.15-0.33-0.33-0.33h-9.99
					c-0.18,0-0.33,0.15-0.33,0.33v0.45C445.01,168.12,445.16,168.26,445.34,168.26z"/>
				<path class="st6" d="M441.61,168.26h2.93c0.1,0,0.18-0.08,0.18-0.18v-0.74c0-0.1-0.08-0.18-0.18-0.18h-2.93
					c-0.1,0-0.18,0.08-0.18,0.18v0.74C441.43,168.18,441.51,168.26,441.61,168.26z"/>
				<path class="st6" d="M445.34,170.29h9.99c0.18,0,0.33-0.15,0.33-0.33v-0.45c0-0.18-0.15-0.33-0.33-0.33h-9.99
					c-0.18,0-0.33,0.15-0.33,0.33v0.45C445.01,170.14,445.16,170.29,445.34,170.29z"/>
				<path class="st6" d="M441.61,170.29h2.93c0.1,0,0.18-0.08,0.18-0.18v-0.74c0-0.1-0.08-0.18-0.18-0.18h-2.93
					c-0.1,0-0.18,0.08-0.18,0.18v0.74C441.43,170.21,441.51,170.29,441.61,170.29z"/>
				<path class="st6" d="M445.34,172.06h9.99c0.18,0,0.33-0.15,0.33-0.33v-0.45c0-0.18-0.15-0.33-0.33-0.33h-9.99
					c-0.18,0-0.33,0.15-0.33,0.33v0.45C445.01,171.91,445.16,172.06,445.34,172.06z"/>
				<path class="st6" d="M441.61,172.06h2.93c0.1,0,0.18-0.08,0.18-0.18v-0.74c0-0.1-0.08-0.18-0.18-0.18h-2.93
					c-0.1,0-0.18,0.08-0.18,0.18v0.74C441.43,171.97,441.51,172.06,441.61,172.06z"/>
			</g>
		</g>
	</g>
	<g id="_x32__1_">
		<g class="st7">
			<path class="st6" d="M313.63,155.97c-1.39-16.84-16.2-29.4-33.05-28c-5.42,0.44-10.39,2.29-14.6,5.13v21.13
				c2.3,0.73,4.02,2.77,4.24,5.33c0.24,2.9-1.57,5.49-4.24,6.34v2.54c0,5.12,4.16,9.27,9.26,9.27h3.3
				c-0.11-3.26,2.34-6.06,5.63-6.34c3.4-0.28,6.39,2.26,6.67,5.65c0.02,0.24,0.02,0.46,0.01,0.69h16.08
				C311.71,171.8,314.3,164.13,313.63,155.97z M283.34,161.29c-1.53,0.13-2.9-1-3.03-2.57c-0.13-1.56,1.04-2.9,2.57-3.03
				c1.56-0.13,2.93,1,3.06,2.57C286.06,159.83,284.9,161.16,283.34,161.29z M282.03,145.58c-3.4,0.28-6.35-2.22-6.63-5.62
				c-0.28-3.4,2.22-6.35,5.62-6.63c3.4-0.28,6.38,2.22,6.66,5.62C287.96,142.34,285.43,145.3,282.03,145.58z M302.65,163.04
				c-3.4,0.29-6.36-2.22-6.64-5.62c-0.28-3.4,2.23-6.35,5.63-6.63c3.4-0.28,6.35,2.22,6.63,5.62S306.05,162.76,302.65,163.04z"/>
		</g>
		<g class="st7">
			<path class="st6" d="M348.28,55.27V41.94c-3.59-2.15-7.86-3.22-12.34-2.86c-11.45,0.95-19.95,11.01-19.01,22.45
				c0.94,11.45,10.98,19.98,22.43,19.03c3.26-0.27,6.28-1.27,8.92-2.85V62.22c-1.03-0.67-1.75-1.8-1.85-3.13
				C346.29,57.52,347.05,56.08,348.28,55.27z M325.04,65.06c-2.31,0.18-4.31-1.52-4.51-3.83c-0.18-2.31,1.51-4.31,3.83-4.51
				c2.31-0.18,4.33,1.51,4.53,3.82C329.08,62.85,327.35,64.87,325.04,65.06z M332.41,47.23c-0.18-2.31,1.52-4.32,3.83-4.51
				c2.31-0.19,4.33,1.51,4.53,3.82c0.18,2.31-1.53,4.31-3.85,4.51C334.61,51.24,332.6,49.54,332.41,47.23z M339.56,59.66
				c0.09,1.07-0.7,1.97-1.77,2.06c-1.03,0.09-1.96-0.68-2.05-1.74c-0.1-1.07,0.7-1.97,1.74-2.06
				C338.55,57.84,339.48,58.6,339.56,59.66z M339.06,76.93c-2.31,0.18-4.31-1.52-4.51-3.83c-0.19-2.31,1.51-4.33,3.82-4.53
				c2.31-0.19,4.34,1.53,4.53,3.84C343.09,74.72,341.37,76.73,339.06,76.93z"/>
		</g>
		<path class="st5" d="M256.09,45.31c-0.32-0.26-0.67-0.41-0.67-0.41c-0.35-0.15-0.83-0.27-1.45-0.25c0.4-0.2,1.14-0.62,1.76-1.45
			c0.76-1.01,0.91-2.05,0.95-2.5c0.02,0.3,0.12,1.79,1.32,2.74c0.43,0.35,0.88,0.52,1.21,0.61c-0.17,0.09-0.39,0.22-0.62,0.4
			c0,0-0.4,0.32-0.68,0.74c-0.39,0.57-0.61,1.74-0.32,3.11C257.55,48.08,257.15,46.15,256.09,45.31z"/>
		<path class="st5" d="M373.31,128.67c-0.32-0.26-0.67-0.41-0.67-0.41c-0.35-0.15-0.83-0.27-1.45-0.25c0.4-0.2,1.14-0.62,1.76-1.45
			c0.76-1.01,0.91-2.05,0.95-2.5c0.02,0.3,0.12,1.79,1.32,2.74c0.43,0.35,0.88,0.52,1.21,0.61c-0.17,0.09-0.39,0.22-0.62,0.4
			c0,0-0.4,0.32-0.68,0.74c-0.39,0.57-0.61,1.74-0.32,3.11C374.78,131.44,374.38,129.51,373.31,128.67z"/>
		<path class="st5" d="M368.57,141.86c-0.18-0.14-0.36-0.22-0.36-0.22c-0.19-0.08-0.45-0.14-0.79-0.14
			c0.22-0.11,0.61-0.34,0.95-0.78c0.41-0.55,0.49-1.11,0.52-1.35c0.01,0.16,0.07,0.97,0.72,1.49c0.24,0.19,0.48,0.28,0.66,0.33
			c-0.09,0.05-0.21,0.12-0.33,0.22c0,0-0.21,0.18-0.37,0.4c-0.21,0.31-0.33,0.94-0.17,1.68
			C369.36,143.36,369.15,142.32,368.57,141.86z"/>
		<path class="st5" d="M246.67,38.14c-0.58-0.45-1.2-0.73-1.2-0.73c-0.62-0.26-1.47-0.47-2.58-0.45c0.71-0.35,2.02-1.1,3.12-2.57
			c1.35-1.8,1.62-3.64,1.69-4.44c0.03,0.54,0.22,3.18,2.35,4.88c0.77,0.61,1.57,0.92,2.16,1.08c-0.3,0.16-0.69,0.39-1.09,0.72
			c0,0-0.7,0.58-1.21,1.32c-0.69,1.01-1.08,3.09-0.56,5.52C249.27,43.06,248.56,39.63,246.67,38.14z"/>
		<path class="st5" d="M360.38,49.74c-0.58-0.45-1.2-0.73-1.2-0.73c-0.62-0.26-1.47-0.47-2.58-0.45c0.71-0.35,2.02-1.1,3.12-2.57
			c1.35-1.8,1.62-3.64,1.69-4.44c0.03,0.54,0.22,3.18,2.35,4.88c0.77,0.61,1.57,0.92,2.16,1.08c-0.3,0.16-0.69,0.39-1.09,0.72
			c0,0-0.7,0.58-1.21,1.32c-0.69,1.01-1.08,3.09-0.56,5.52C362.98,54.66,362.27,51.23,360.38,49.74z"/>
		<path class="st5" d="M242.92,108.8c-0.58-0.45-1.2-0.73-1.2-0.73c-0.62-0.26-1.47-0.47-2.58-0.45c0.71-0.35,2.02-1.1,3.12-2.57
			c1.35-1.8,1.62-3.64,1.69-4.44c0.03,0.54,0.22,3.18,2.35,4.88c0.77,0.61,1.57,0.92,2.16,1.08c-0.3,0.16-0.69,0.39-1.09,0.72
			c0,0-0.7,0.58-1.21,1.32c-0.69,1.01-1.08,3.09-0.56,5.52C245.52,113.72,244.81,110.29,242.92,108.8z"/>
		<path class="st5" d="M234.58,122.7c-0.27-0.21-0.55-0.34-0.55-0.34c-0.29-0.12-0.68-0.22-1.19-0.21c0.33-0.16,0.93-0.51,1.44-1.19
			c0.62-0.83,0.75-1.68,0.78-2.04c0.01,0.25,0.1,1.47,1.08,2.25c0.36,0.28,0.72,0.42,1,0.5c-0.14,0.07-0.32,0.18-0.5,0.33
			c0,0-0.32,0.27-0.56,0.61c-0.32,0.47-0.5,1.43-0.26,2.54C235.78,124.97,235.45,123.39,234.58,122.7z"/>
		<path class="st5" d="M367.57,58.76c-0.25-0.19-0.51-0.31-0.51-0.31c-0.27-0.11-0.63-0.2-1.11-0.19c0.3-0.15,0.86-0.47,1.34-1.1
			c0.58-0.77,0.7-1.56,0.73-1.9c0.01,0.23,0.09,1.36,1.01,2.09c0.33,0.26,0.67,0.39,0.93,0.46c-0.13,0.07-0.29,0.17-0.47,0.31
			c0,0-0.3,0.25-0.52,0.56c-0.3,0.43-0.46,1.32-0.24,2.37C368.68,60.87,368.38,59.4,367.57,58.76z"/>
		<path class="st5" d="M341.24,23.24c-0.25-0.19-0.51-0.31-0.51-0.31c-0.27-0.11-0.63-0.2-1.11-0.19c0.3-0.15,0.86-0.47,1.34-1.1
			c0.58-0.77,0.7-1.56,0.73-1.9c0.01,0.23,0.09,1.36,1.01,2.09c0.33,0.26,0.67,0.39,0.93,0.46c-0.13,0.07-0.29,0.17-0.47,0.31
			c0,0-0.3,0.25-0.52,0.56c-0.3,0.43-0.46,1.32-0.24,2.37C342.36,25.35,342.05,23.88,341.24,23.24z"/>
		<path class="st6" d="M297.85,28.04c-0.16-0.12-0.32-0.2-0.32-0.2c-0.17-0.07-0.4-0.13-0.7-0.12c0.19-0.09,0.55-0.3,0.85-0.7
			c0.37-0.49,0.44-0.99,0.46-1.2c0.01,0.15,0.06,0.86,0.64,1.32c0.21,0.17,0.43,0.25,0.59,0.29c-0.08,0.04-0.19,0.11-0.3,0.2
			c0,0-0.19,0.16-0.33,0.36c-0.19,0.28-0.29,0.84-0.15,1.5C298.55,29.38,298.36,28.44,297.85,28.04z"/>
		<path class="st2" d="M264.19,71.16c-0.24,2.22-0.84,7.92-5.2,12.67c-7.82,8.52-22.38,8.2-23.72,5.12
			c-0.51-1.18,1.29-1.95,2.83-6.33c1.57-4.47,0.55-6.09,1.75-9.3c1.25-3.33,3.21-3.86,7.82-8.09c8.07-7.41,8.53-11.74,11.12-11.39
			C262.47,54.36,264.98,63.64,264.19,71.16z"/>
		<g>
			<path class="st4" d="M268.26,65.36v35.42c-0.7,0.09-1.47,0.18-2.28,0.26c-1.38,0.17-2.91,0.33-4.59,0.52
				c-0.04-0.24-0.29-1.58-0.48-3.3c-0.11-1.11-0.2-2.34-0.18-3.5c0-0.79,0.07-2.08,0.22-3.24c0-0.04,0-0.07,0.02-0.11
				c0.07-0.66,0.17-1.27,0.28-1.84c0.02-0.17,0.06-0.31,0.09-0.48c0-0.04,0.02-0.07,0.02-0.11c-0.29-0.72-0.57-1.46-0.88-2.16
				c-0.2-0.48-0.39-0.98-0.57-1.46c-0.5-1.23-0.98-2.45-1.47-3.68c-0.06,0-0.98-1.03-2.19-2.39c-0.26-0.31-0.55-0.64-0.85-0.99
				c-0.5-0.57-0.99-1.14-1.53-1.73c-0.26-0.31-0.5-0.59-0.74-0.87c-1.33-1.51-2.47-2.84-2.86-3.24c0.9-1.4,2.36-3.28,4.53-4.81
				c0.18-0.13,0.37-0.24,0.53-0.37c0.15-0.09,0.28-0.18,0.42-0.26c0.92-0.57,1.6-0.87,1.82-0.96c0.29-0.13,1.14-0.48,2.43-0.77
				c0.07-0.02,0.15-0.04,0.22-0.06c0.17-0.04,0.29-0.07,0.42-0.09c1.49-0.29,3.28-0.42,5.32-0.18
				C266.7,65.03,267.47,65.16,268.26,65.36z"/>
			<g>
				<path class="st4" d="M268.26,98.67v20.74c-0.2,1.18-0.28,1.68-0.33,1.99c-0.04,0.31-0.06,0.44-0.15,0.88
					c-0.04,0.17-0.07,0.33-0.09,0.5c-0.15,0.66-0.28,1.29-0.41,1.9c-0.07,0.29-0.13,0.59-0.2,0.88c-0.37,1.57-0.74,2.87-1.11,4.02
					c-1.11,3.54-2.12,5.58-2.69,8.88c-0.07,0.42-0.13,0.87-0.18,1.25c-2.87-0.35-5.71-0.68-8.57-1.03c0-0.09,0.02-0.2,0.02-0.29
					c0.09-1.4,0.18-2.78,0.29-4.22c0.24-3.32,0.57-6.5,0.98-9.6c0.11-0.94,0.22-1.88,0.37-2.78c0.06-0.48,0.13-0.94,0.2-1.38
					c1.18-8.23,2.8-15.62,4.49-22.09c0-0.02,0.02-0.04,0.02-0.06c0.02-0.09,0.04-0.18,0.06-0.26c1.68,0.15,3.35,0.29,5.01,0.46
					C266.75,98.52,267.51,98.59,268.26,98.67z"/>
				<path class="st4" d="M250.96,175.58c2.21,0.69,4.42,1.38,6.64,2.08c0.06-0.64,0.12-1.28,0.18-1.92
					c0.02-0.13,0.05-0.25,0.08-0.39c0.24-1.29,0.65-3.34,1.26-5.83c0.91-3.78,1.85-6.87,2.68-9.55c1.95-6.29,3.32-10.32,2.48-15.7
					c-0.32-2.12-0.89-3.76-1.21-4.61c-2.84-0.43-5.68-0.84-8.52-1.26c-0.61,6.6-1.22,13.18-1.81,19.77
					c-0.5,5.29-0.98,10.6-1.47,15.88C251.16,174.56,251.06,175.06,250.96,175.58z"/>
				<g>
					<path class="st4" d="M242.41,175.43c0.16-0.22,0.43-0.54,0.86-0.77c0.62-0.32,1.23-0.28,1.49-0.26
						c1.08,0.07,3.19,0.07,6.04,0.08c2.11,0.79,4.23,1.59,6.34,2.39c0.05,0.02,0.11,0.04,0.17,0.06c0.05,0.45,0.12,1.72-0.7,2.84
						c-0.25,0.35-0.54,0.61-0.79,0.79c-2.6-0.95-5.19-1.9-7.79-2.86C246.15,176.95,244.28,176.19,242.41,175.43z"/>
					<path class="st2" d="M244.48,176.62l11.98,5.15l1.17-2.72c0.2-0.51,0.43-1.34,0.04-1.92c-0.77-1.15-3.16-0.06-4.57-1.24
						c-0.53-0.45-1.13-1.39-0.95-3.66c-0.17-0.1-0.69-0.37-1.21-0.2c-0.73,0.24-1.23,1.27-0.94,2.44c-0.44-0.39-2.03-1.71-4.17-1.54
						c-1.74,0.14-3.75,1.25-3.65,2.21C242.27,175.99,243.93,176.47,244.48,176.62z"/>
					<g>
						<path class="st0" d="M255.85,179.37c-0.1,0-0.21-0.02-0.31-0.06c-0.19-0.08-0.34-0.24-0.42-0.43
							c-0.08-0.2-0.08-0.41,0.01-0.61c0.08-0.19,0.24-0.34,0.43-0.42c0.2-0.08,0.41-0.08,0.61,0.01c0.19,0.08,0.34,0.24,0.42,0.43
							c0.08,0.2,0.08,0.41-0.01,0.61C256.45,179.19,256.16,179.37,255.85,179.37z M255.85,178.04c-0.07,0-0.14,0.01-0.2,0.04
							c-0.13,0.05-0.24,0.16-0.3,0.29c-0.06,0.13-0.06,0.28-0.01,0.41c0.05,0.13,0.16,0.24,0.29,0.3c0.27,0.12,0.59-0.01,0.71-0.28
							c0.06-0.13,0.06-0.28,0.01-0.41c-0.05-0.13-0.16-0.24-0.29-0.3C256,178.05,255.93,178.04,255.85,178.04z"/>
					</g>
				</g>
			</g>
			<path class="st4" d="M255.29,67.72c4.85,5.45,6.34,6.52,6.68,6.27c0.38-0.28-0.75-2.14-1.57-6.18c-0.19-0.92-0.31-1.7-0.38-2.25
				l0.01-0.52l0.05-3.11l0.02-1.21c-1.4-0.19-2.79-0.38-4.2-0.57c-0.01,0.13-0.02,0.26-0.04,0.39
				C255.67,62.95,255.47,65.33,255.29,67.72z"/>
			<g>
				<path class="st4" d="M250.27,72.45c-1.3,3.65-2.1,6.42-2.25,7.38c-0.07,0.42-0.12,0.84-0.12,0.84c-0.09,0.59-0.16,1.19-0.2,1.83
					c-0.05,0.36-0.08,0.73-0.1,1.11c0,0.09,0,0.21,0,0.3c-0.01,0.25-0.02,0.5-0.03,0.75c-0.03,1.12-0.02,2.18,0.04,3.18
					c0.12,2.39,0.44,4.49,0.81,6.23c1.5-0.16,3.02-0.3,4.51-0.45c0.42-2.57,0.83-5.13,1.22-7.69c0.14-0.9,0.29-1.81,0.43-2.7
					c0.02-0.08,0.03-0.19,0.03-0.28c0.24-1.38,0.45-2.76,0.68-4.12c0.09-0.56,0.43-1.98,0.1-3.78c-0.2-1.07-0.56-1.91-0.85-2.47
					c-0.72-0.06-1.48-0.11-2.28-0.13C251.58,72.44,250.91,72.44,250.27,72.45z"/>
			</g>
			<path class="st3" d="M267.92,121.4c-0.04,0.31-0.06,0.44-0.15,0.88c-0.17,0.85-0.33,1.64-0.5,2.39c-0.07,0.29-0.13,0.59-0.2,0.88
				c-3.63-1.25-7.24-2.52-10.89-3.78c-0.02,0-0.04-0.02-0.06-0.02h0.06C260.11,121.65,264.02,121.52,267.92,121.4z"/>
			<path class="st6" d="M268.26,87.65v35.18c-0.18-0.02-0.39-0.04-0.57-0.06c-0.57-0.04-1.14-0.09-1.71-0.15
				c-2.05-0.2-8.07-0.66-9.78-0.85c-2.5-0.27-6.06-0.97-10.5-2.92c9.47-10.12,13.43-19.87,15.15-27.37
				c0.15-0.65,0.28-1.29,0.41-1.93c0.02-0.17,0.06-0.31,0.09-0.48c0-0.04,0.02-0.07,0.02-0.11c1.05-0.2,2.12-0.41,3.17-0.61
				c0.2-0.06,0.42-0.09,0.63-0.13c0.29-0.06,0.57-0.11,0.83-0.15C266.73,87.93,267.51,87.78,268.26,87.65z"/>
			<path class="st6" d="M268.26,70.15v17.41c-0.76,0.17-1.53,0.35-2.28,0.52c-0.26,0.06-0.53,0.11-0.79,0.17
				c-0.26,0.06-0.46,0.09-0.68,0.15c-1.05,0.24-2.12,0.46-3.17,0.7c-0.18,0.04-0.35,0.07-0.53,0.11c-0.61-1.09-1.2-2.17-1.79-3.26
				c-1.03-1.84-2.04-3.68-3.04-5.53c-0.26-0.46-0.5-0.88-0.72-1.31c-0.48-0.87-0.94-1.69-1.4-2.54c-0.04-0.04-0.04-0.07-0.06-0.09
				c0.42-0.41,0.96-0.9,1.6-1.42c0.17-0.17,0.33-0.29,0.52-0.44c1.03-0.77,2.25-1.57,3.68-2.28c0.55-0.28,1.14-0.53,1.77-0.76
				c0.29-0.13,0.61-0.24,0.92-0.35c1.31-0.42,2.56-0.7,3.68-0.87C266.81,70.23,267.56,70.17,268.26,70.15z"/>
			<path class="st3" d="M260.07,61.44c-0.2-0.33-0.44-0.61-0.7-0.81c-0.53-0.44-1.16-0.59-1.69-0.37c-0.07,0.04-0.15,0.07-0.22,0.11
				c-0.77,0.48-0.99,1.75-0.48,2.97c0.53,1.33,1.73,2.08,2.67,1.71c0.13-0.06,0.26-0.15,0.37-0.24L260.07,61.44z"/>
			<g>
				<path class="st4" d="M255.73,58.61c0.03,3.33,3.18,6.3,5.05,5.88c0.68-0.16,1.49-0.83,1.98-1.57c0.3-0.46,0.42-0.86,0.57-1.39
					c0.31-1.08,0.37-1.83,0.41-2.81c0.09-2.46,0.65-2.54,0.36-3.36c-0.52-1.47-2.76-2.56-4.68-2.16
					C256.99,53.71,255.71,56.47,255.73,58.61z"/>
				<g>
					<path class="st3" d="M259.62,59.83c0.01,0.25,0.1,0.44,0.22,0.44c0.11,0,0.2-0.2,0.2-0.45c-0.01-0.25-0.1-0.44-0.22-0.44
						C259.7,59.38,259.61,59.58,259.62,59.83z"/>
				</g>
				<g>
					<path class="st3" d="M262.67,59.94c0.01,0.24,0.1,0.44,0.22,0.44c0.11,0,0.2-0.2,0.2-0.45c-0.01-0.25-0.1-0.44-0.22-0.44
						C262.75,59.5,262.66,59.7,262.67,59.94z"/>
				</g>
				<path class="st4" d="M257.63,59.14c0,0.86-0.47,1.56-1.04,1.56c-0.57,0-1.04-0.7-1.04-1.56c0-0.86,0.47-1.56,1.04-1.56
					C257.16,57.58,257.63,58.28,257.63,59.14z"/>
				<path class="st0" d="M262.07,62.7c-0.21,0.57-0.69,0.94-1.14,0.92c-0.61-0.03-1.23-0.79-1.03-1.71
					c0.05,0.09,0.47,0.81,1.29,0.92C261.59,62.89,261.91,62.77,262.07,62.7z"/>
				<g>
					<path class="st3" d="M261.58,62.31c-0.07,0-0.14-0.01-0.19-0.02c-0.07-0.01-0.11-0.08-0.1-0.15c0.01-0.07,0.07-0.11,0.15-0.1
						c0.16,0.03,0.26,0.01,0.27-0.01c0-0.02-0.04-0.13-0.09-0.25c-0.03-0.08-0.05-0.14-0.08-0.2c-0.03-0.1-0.07-0.19-0.11-0.29
						c-0.14-0.3-0.09-0.76,0.15-1.41c0.02-0.06,0.09-0.1,0.16-0.07c0.06,0.02,0.1,0.1,0.07,0.16c-0.21,0.56-0.26,0.98-0.16,1.21
						c0.05,0.1,0.08,0.2,0.12,0.31c0.02,0.06,0.04,0.11,0.06,0.17c0.11,0.27,0.15,0.38,0.08,0.5
						C261.85,62.28,261.71,62.31,261.58,62.31z"/>
				</g>
				<g>
					<path class="st3" d="M260.49,58.74c-0.04,0-0.08-0.02-0.11-0.06c-0.05-0.08-0.18-0.28-0.43-0.34
						c-0.28-0.08-0.59,0.04-0.79,0.29c-0.04,0.05-0.12,0.06-0.18,0.02c-0.05-0.04-0.06-0.12-0.02-0.18
						c0.26-0.33,0.68-0.48,1.05-0.38c0.33,0.09,0.52,0.35,0.58,0.46c0.03,0.06,0.02,0.14-0.04,0.17
						C260.53,58.73,260.51,58.74,260.49,58.74z"/>
				</g>
				<g>
					<path class="st3" d="M263.43,58.95c-0.04,0-0.08-0.02-0.11-0.06c-0.05-0.08-0.18-0.27-0.43-0.34
						c-0.28-0.08-0.59,0.04-0.79,0.29c-0.04,0.05-0.12,0.06-0.18,0.02c-0.05-0.04-0.06-0.12-0.02-0.18
						c0.27-0.33,0.68-0.48,1.05-0.38c0.34,0.09,0.52,0.35,0.58,0.46c0.03,0.06,0.01,0.14-0.04,0.17
						C263.48,58.95,263.46,58.95,263.43,58.95z"/>
				</g>
			</g>
			<g>
				<path class="st4" d="M266.27,86.61c-1.1-1.09-2.19-2.17-3.29-3.26c-3.57,2.33-7.14,4.66-10.71,6.99
					c-1.31,1.14-2.61,2.28-3.92,3.42c0.15,0.69,0.47,1.57,1.23,2.09c0.87,0.6,2.45,0.82,6.49-1.33
					C258.65,93.17,262.36,90.79,266.27,86.61z"/>
			</g>
			<g>
				<path class="st3" d="M252.35,90.81c-0.03,0-0.07-0.01-0.09-0.04c-0.05-0.05-0.05-0.13,0-0.18l1.25-1.21
					c0.05-0.05,0.13-0.05,0.18,0c0.05,0.05,0.05,0.13,0,0.18l-1.25,1.21C252.42,90.8,252.39,90.81,252.35,90.81z"/>
			</g>
		</g>
		<g>
			<path class="st3" d="M261.77,140.49c-0.05,0-0.09-0.03-0.11-0.07c-0.03-0.06-0.01-0.14,0.06-0.17l1.31-0.66
				c0.06-0.03,0.14-0.01,0.17,0.06c0.03,0.06,0.01,0.14-0.06,0.17l-1.31,0.66C261.81,140.48,261.79,140.49,261.77,140.49z"/>
		</g>
		<path class="st3" d="M265.98,88.07c0.76-0.15,1.53-0.29,2.28-0.42v-0.09C267.51,87.72,266.73,87.91,265.98,88.07z M265.98,88.07
			c0.76-0.15,1.53-0.29,2.28-0.42v-0.09C267.51,87.72,266.73,87.91,265.98,88.07z M265.98,88.07c0.76-0.15,1.53-0.29,2.28-0.42
			v-0.09C267.51,87.72,266.73,87.91,265.98,88.07z M346.01,164.92c0,4.83-3.92,8.75-8.77,8.75h-60.23c-4.83,0-8.75-3.92-8.75-8.75
			V44.47c0-4.83,3.92-8.75,8.75-8.75h60.23c4.84,0,8.77,3.92,8.77,8.75V164.92z M265.98,88.07c0.76-0.15,1.53-0.29,2.28-0.42v-0.09
			C267.51,87.72,266.73,87.91,265.98,88.07z M265.98,88.07c0.76-0.15,1.53-0.29,2.28-0.42v-0.09
			C267.51,87.72,266.73,87.91,265.98,88.07z M265.98,88.07c0.76-0.15,1.53-0.29,2.28-0.42v-0.09
			C267.51,87.72,266.73,87.91,265.98,88.07z M339.02,31.69h-63.77c-5.1,0-9.26,4.14-9.26,9.28v127.46c0,5.12,4.16,9.27,9.26,9.27
			h63.77c5.12,0,9.26-4.15,9.26-9.27V40.98C348.28,35.83,344.14,31.69,339.02,31.69z"/>
		<g>
			<g>
				<rect x="275.44" y="60.26" class="st6" width="3.1" height="6.48"/>
				<rect x="278.99" y="60.26" class="st6" width="3.1" height="6.48"/>
				<rect x="282.5" y="60.26" class="st6" width="3.1" height="6.48"/>
				<rect x="286.04" y="60.26" class="st6" width="3.1" height="6.48"/>
				<rect x="289.69" y="60.26" class="st6" width="3.1" height="6.48"/>
				<rect x="293.24" y="60.26" class="st6" width="3.1" height="6.48"/>
				<rect x="296.75" y="60.26" class="st6" width="3.1" height="6.48"/>
				<rect x="300.29" y="60.26" class="st6" width="3.1" height="6.48"/>
			</g>
			<g>
				<rect x="275.44" y="67.89" class="st6" width="3.1" height="6.48"/>
				<rect x="278.99" y="67.89" class="st6" width="3.1" height="6.48"/>
				<rect x="282.5" y="67.89" class="st6" width="3.1" height="6.48"/>
				<rect x="286.04" y="67.89" class="st6" width="3.1" height="6.48"/>
				<rect x="289.69" y="67.89" class="st6" width="3.1" height="6.48"/>
				<rect x="293.24" y="67.89" class="st6" width="3.1" height="6.48"/>
				<rect x="296.75" y="67.89" class="st6" width="3.1" height="6.48"/>
				<rect x="300.29" y="67.89" class="st6" width="3.1" height="6.48"/>
			</g>
			<g>
				<rect x="275.44" y="75.52" class="st6" width="3.1" height="6.48"/>
				<rect x="278.99" y="75.52" class="st6" width="3.1" height="6.48"/>
				<rect x="282.5" y="75.52" class="st6" width="3.1" height="6.48"/>
				<rect x="286.04" y="75.52" class="st6" width="3.1" height="6.48"/>
				<rect x="289.69" y="75.52" class="st6" width="3.1" height="6.48"/>
				<rect x="293.24" y="75.52" class="st6" width="3.1" height="6.48"/>
				<rect x="296.75" y="75.52" class="st6" width="3.1" height="6.48"/>
				<rect x="300.29" y="75.52" class="st6" width="3.1" height="6.48"/>
			</g>
			<g>
				<rect x="275.44" y="83.15" class="st6" width="3.1" height="6.48"/>
				<rect x="278.99" y="83.15" class="st6" width="3.1" height="6.48"/>
				<rect x="282.5" y="83.15" class="st6" width="3.1" height="6.48"/>
				<rect x="286.04" y="83.15" class="st6" width="3.1" height="6.48"/>
				<rect x="289.69" y="83.15" class="st6" width="3.1" height="6.48"/>
				<rect x="293.24" y="83.15" class="st6" width="3.1" height="6.48"/>
				<rect x="296.75" y="83.15" class="st6" width="3.1" height="6.48"/>
				<rect x="300.29" y="83.15" class="st6" width="3.1" height="6.48"/>
			</g>
			<g>
				<rect x="275.44" y="90.57" class="st6" width="3.1" height="6.48"/>
				<rect x="278.99" y="90.57" class="st6" width="3.1" height="6.48"/>
				<rect x="282.5" y="90.57" class="st6" width="3.1" height="6.48"/>
				<rect x="286.04" y="90.57" class="st6" width="3.1" height="6.48"/>
				<rect x="289.69" y="90.57" class="st6" width="3.1" height="6.48"/>
				<rect x="293.24" y="90.57" class="st6" width="3.1" height="6.48"/>
				<rect x="296.75" y="90.57" class="st6" width="3.1" height="6.48"/>
				<rect x="300.29" y="90.57" class="st6" width="3.1" height="6.48"/>
			</g>
			<g>
				<rect x="275.44" y="98.2" class="st6" width="3.1" height="6.48"/>
				<rect x="278.99" y="98.2" class="st6" width="3.1" height="6.48"/>
				<rect x="282.5" y="98.2" class="st6" width="3.1" height="6.48"/>
				<rect x="286.04" y="98.2" class="st6" width="3.1" height="6.48"/>
				<rect x="289.69" y="98.2" class="st6" width="3.1" height="6.48"/>
				<rect x="293.24" y="98.2" class="st6" width="3.1" height="6.48"/>
				<rect x="296.75" y="98.2" class="st6" width="3.1" height="6.48"/>
				<rect x="300.29" y="98.2" class="st6" width="3.1" height="6.48"/>
			</g>
			<g>
				<rect x="275.44" y="105.83" class="st6" width="3.1" height="6.48"/>
				<rect x="278.99" y="105.83" class="st6" width="3.1" height="6.48"/>
				<rect x="282.5" y="105.83" class="st6" width="3.1" height="6.48"/>
				<rect x="286.04" y="105.83" class="st6" width="3.1" height="6.48"/>
				<rect x="289.69" y="105.83" class="st6" width="3.1" height="6.48"/>
				<rect x="293.24" y="105.83" class="st6" width="3.1" height="6.48"/>
				<rect x="296.75" y="105.83" class="st6" width="3.1" height="6.48"/>
				<rect x="300.29" y="105.83" class="st6" width="3.1" height="6.48"/>
			</g>
			<g>
				<rect x="275.44" y="113.46" class="st6" width="3.1" height="6.48"/>
				<rect x="278.99" y="113.46" class="st6" width="3.1" height="6.48"/>
				<rect x="282.5" y="113.46" class="st6" width="3.1" height="6.48"/>
				<rect x="286.04" y="113.46" class="st6" width="3.1" height="6.48"/>
				<rect x="289.69" y="113.46" class="st6" width="3.1" height="6.48"/>
				<rect x="293.24" y="113.46" class="st6" width="3.1" height="6.48"/>
				<rect x="296.75" y="113.46" class="st6" width="3.1" height="6.48"/>
				<rect x="300.29" y="113.46" class="st6" width="3.1" height="6.48"/>
			</g>
		</g>
		<g>
			<g>
				<rect x="309.7" y="60.26" class="st6" width="3.1" height="6.48"/>
				<rect x="313.25" y="60.26" class="st6" width="3.1" height="6.48"/>
				<rect x="316.76" y="60.26" class="st6" width="3.1" height="6.48"/>
				<rect x="320.31" y="60.26" class="st6" width="3.1" height="6.48"/>
				<rect x="323.96" y="60.26" class="st6" width="3.1" height="6.48"/>
				<rect x="327.5" y="60.26" class="st6" width="3.1" height="6.48"/>
				<rect x="331.01" y="60.26" class="st6" width="3.1" height="6.48"/>
				<rect x="334.56" y="60.26" class="st6" width="3.1" height="6.48"/>
			</g>
			<g>
				<rect x="309.7" y="67.89" class="st6" width="3.1" height="6.48"/>
				<rect x="313.25" y="67.89" class="st6" width="3.1" height="6.48"/>
				<rect x="316.76" y="67.89" class="st6" width="3.1" height="6.48"/>
				<rect x="320.31" y="67.89" class="st6" width="3.1" height="6.48"/>
				<rect x="323.96" y="67.89" class="st6" width="3.1" height="6.48"/>
				<rect x="327.5" y="67.89" class="st6" width="3.1" height="6.48"/>
				<rect x="331.01" y="67.89" class="st6" width="3.1" height="6.48"/>
				<rect x="334.56" y="67.89" class="st6" width="3.1" height="6.48"/>
			</g>
			<g>
				<rect x="309.7" y="75.52" class="st6" width="3.1" height="6.48"/>
				<rect x="313.25" y="75.52" class="st6" width="3.1" height="6.48"/>
				<rect x="316.76" y="75.52" class="st6" width="3.1" height="6.48"/>
				<rect x="320.31" y="75.52" class="st6" width="3.1" height="6.48"/>
				<rect x="323.96" y="75.52" class="st6" width="3.1" height="6.48"/>
				<rect x="327.5" y="75.52" class="st6" width="3.1" height="6.48"/>
				<rect x="331.01" y="75.52" class="st6" width="3.1" height="6.48"/>
				<rect x="334.56" y="75.52" class="st6" width="3.1" height="6.48"/>
			</g>
			<g>
				<rect x="309.7" y="83.15" class="st6" width="3.1" height="6.48"/>
				<rect x="313.25" y="83.15" class="st6" width="3.1" height="6.48"/>
				<rect x="316.76" y="83.15" class="st6" width="3.1" height="6.48"/>
				<rect x="320.31" y="83.15" class="st6" width="3.1" height="6.48"/>
				<rect x="323.96" y="83.15" class="st6" width="3.1" height="6.48"/>
				<rect x="327.5" y="83.15" class="st6" width="3.1" height="6.48"/>
				<rect x="331.01" y="83.15" class="st6" width="3.1" height="6.48"/>
				<rect x="334.56" y="83.15" class="st6" width="3.1" height="6.48"/>
			</g>
			<g>
				<rect x="309.7" y="90.57" class="st6" width="3.1" height="6.48"/>
				<rect x="313.25" y="90.57" class="st6" width="3.1" height="6.48"/>
				<rect x="316.76" y="90.57" class="st6" width="3.1" height="6.48"/>
				<rect x="320.31" y="90.57" class="st6" width="3.1" height="6.48"/>
				<rect x="323.96" y="90.57" class="st6" width="3.1" height="6.48"/>
				<rect x="327.5" y="90.57" class="st6" width="3.1" height="6.48"/>
				<rect x="331.01" y="90.57" class="st6" width="3.1" height="6.48"/>
				<rect x="334.56" y="90.57" class="st6" width="3.1" height="6.48"/>
			</g>
			<g>
				<rect x="309.7" y="98.2" class="st6" width="3.1" height="6.48"/>
				<rect x="313.25" y="98.2" class="st6" width="3.1" height="6.48"/>
				<rect x="316.76" y="98.2" class="st6" width="3.1" height="6.48"/>
				<rect x="320.31" y="98.2" class="st6" width="3.1" height="6.48"/>
				<rect x="323.96" y="98.2" class="st6" width="3.1" height="6.48"/>
				<rect x="327.5" y="98.2" class="st6" width="3.1" height="6.48"/>
				<rect x="331.01" y="98.2" class="st6" width="3.1" height="6.48"/>
				<rect x="334.56" y="98.2" class="st6" width="3.1" height="6.48"/>
			</g>
			<g>
				<rect x="309.7" y="105.83" class="st6" width="3.1" height="6.48"/>
				<rect x="313.25" y="105.83" class="st6" width="3.1" height="6.48"/>
				<rect x="316.76" y="105.83" class="st6" width="3.1" height="6.48"/>
				<rect x="320.31" y="105.83" class="st6" width="3.1" height="6.48"/>
				<rect x="323.96" y="105.83" class="st6" width="3.1" height="6.48"/>
				<rect x="327.5" y="105.83" class="st6" width="3.1" height="6.48"/>
				<rect x="331.01" y="105.83" class="st6" width="3.1" height="6.48"/>
				<rect x="334.56" y="105.83" class="st6" width="3.1" height="6.48"/>
			</g>
			<g>
				<rect x="309.7" y="113.46" class="st6" width="3.1" height="6.48"/>
				<rect x="313.25" y="113.46" class="st6" width="3.1" height="6.48"/>
				<rect x="316.76" y="113.46" class="st6" width="3.1" height="6.48"/>
				<rect x="320.31" y="113.46" class="st6" width="3.1" height="6.48"/>
				<rect x="323.96" y="113.46" class="st6" width="3.1" height="6.48"/>
				<rect x="327.5" y="113.46" class="st6" width="3.1" height="6.48"/>
				<rect x="331.01" y="113.46" class="st6" width="3.1" height="6.48"/>
				<rect x="334.56" y="113.46" class="st6" width="3.1" height="6.48"/>
			</g>
		</g>
		<g>
			<g>
				<rect x="280.13" y="128.22" class="st6" width="5.98" height="6.48"/>
				<rect x="286.98" y="128.22" class="st6" width="5.98" height="6.48"/>
				<rect x="293.75" y="128.22" class="st6" width="5.98" height="6.48"/>
				<rect x="300.6" y="128.22" class="st6" width="5.98" height="6.48"/>
				<rect x="307.65" y="128.22" class="st6" width="5.98" height="6.48"/>
				<rect x="314.5" y="128.22" class="st6" width="5.98" height="6.48"/>
				<rect x="321.27" y="128.22" class="st6" width="5.98" height="6.48"/>
				<rect x="328.12" y="128.22" class="st6" width="5.98" height="6.48"/>
			</g>
			<g>
				<rect x="280.13" y="135.85" class="st6" width="5.98" height="6.48"/>
				<rect x="286.98" y="135.85" class="st6" width="5.98" height="6.48"/>
				<rect x="293.75" y="135.85" class="st6" width="5.98" height="6.48"/>
				<rect x="300.6" y="135.85" class="st6" width="5.98" height="6.48"/>
				<rect x="307.65" y="135.85" class="st6" width="5.98" height="6.48"/>
				<rect x="314.5" y="135.85" class="st6" width="5.98" height="6.48"/>
				<rect x="321.27" y="135.85" class="st6" width="5.98" height="6.48"/>
				<rect x="328.12" y="135.85" class="st6" width="5.98" height="6.48"/>
			</g>
		</g>
		<g>
			<path class="st6" d="M289.77,48.5h-2.81v-1.01h6.84v1.01h-2.82v8.2h-1.21V48.5z"/>
			<path class="st6" d="M296.13,47.48v9.21h-1.19v-9.21H296.13z"/>
			<path class="st6" d="M304.77,56.4c-0.44,0.22-1.32,0.44-2.44,0.44c-2.6,0-4.56-1.64-4.56-4.66c0-2.88,1.96-4.84,4.82-4.84
				c1.15,0,1.88,0.25,2.19,0.41l-0.29,0.97c-0.45-0.22-1.1-0.38-1.86-0.38c-2.16,0-3.6,1.38-3.6,3.8c0,2.26,1.3,3.71,3.55,3.71
				c0.73,0,1.47-0.15,1.95-0.38L304.77,56.4z"/>
			<path class="st6" d="M306.37,47.48h1.19v4.44c0.29-0.36,0.53-0.68,0.77-0.98l2.82-3.46h1.48l-3.34,3.91l3.6,5.3h-1.41l-3.04-4.53
				l-0.88,1.01v3.51h-1.19V47.48z"/>
			<path class="st6" d="M318.68,52.38h-3.59v3.32h4v1h-5.19v-9.21h4.99v1h-3.8v2.91h3.59V52.38z"/>
			<path class="st6" d="M322.72,48.5h-2.81v-1.01h6.84v1.01h-2.82v8.2h-1.21V48.5z"/>
		</g>
		<path class="st4" d="M265.67,87.24c-0.94-1.26-1.89-2.53-2.83-3.79c0.01-2.03,0.02-4.06,0.03-6.1c0.36-0.67,2.24-4.2,3.1-3.9
			c0.7,0.24,0.43,2.84,0.29,3.9c0.66,1.95,1.47,5.48-0.06,8.88C266.04,86.58,265.86,86.92,265.67,87.24z"/>
		<g>
			<path class="st4" d="M363.8,104.3c-0.02,0.2-0.02,0.41-0.04,0.59c-0.15,1.62-0.3,3.2-0.44,4.84c-0.37,4.72-0.71,9.58-1,14.51
				c-0.19,3.22-0.13,2.69-0.22,3.64c-0.01,0.16-0.02,0.31-0.04,0.46c-0.05,0.69-0.11,1.35-0.17,1.97c-0.09,0.83-0.18,1.6-0.29,2.31
				c-0.8,5.45-1.92,7.73-2.19,11.83c-0.01,0.44-0.03,0.88-0.04,1.28c-2.88-0.03-5.73-0.06-8.61-0.1c-0.08-1.48-0.13-2.99-0.18-4.52
				c-0.12-3.32-0.14-6.52-0.1-9.65c0-0.29,0.01-0.58,0.01-0.86c0.01-0.78,0.03-1.54,0.06-2.31c0.01-0.35,0.02-0.69,0.03-1.03
				c0.01-0.44,0.03-0.87,0.05-1.3c0.31-7.52,1.03-14.4,1.93-20.51c0.02-0.2,0.05-0.42,0.09-0.63c0.01-0.09,0.01-0.2,0.02-0.31
				c3.16-0.08,6.3-0.14,9.43-0.18C362.66,104.33,363.22,104.31,363.8,104.3z"/>
			<path class="st4" d="M354.72,105.69c-0.03,0.2-0.08,0.41-0.11,0.59c-0.33,1.58-0.7,3.15-1.03,4.73
				c-0.96,4.66-1.91,9.43-2.81,14.27c-0.04,0.25-0.09,0.47-0.13,0.68c-0.3,1.66-0.37,2.01-0.43,2.34c-0.03,0.16-0.05,0.31-0.11,0.59
				c-0.12,0.55-0.23,1.09-0.35,1.58c0,0.04-0.01,0.08-0.02,0.11c-0.28,1.2-0.55,2.27-0.81,3.22c-1.43,5.11-2.8,7.22-3.56,11.17
				c-0.09,0.44-0.15,0.88-0.2,1.27c-2.86-0.39-5.69-0.78-8.54-1.16c0.11-1.49,0.24-3,0.38-4.52c0.38-4.06,0.85-7.99,1.42-11.75
				c0.02-0.13,0.04-0.26,0.06-0.39c1.35-8.85,3.19-16.75,5.11-23.61c0.02-0.1,0.04-0.2,0.08-0.31c2.96,0.31,5.94,0.63,8.89,0.94
				c0.16,0.02,0.32,0.03,0.49,0.05C353.59,105.58,354.17,105.64,354.72,105.69z"/>
			<g>
				<path class="st4" d="M350.11,75.98c-0.64,1.97-1.6,4.44-3.09,7.13c-0.13,0.24-0.28,0.5-0.42,0.74
					c-0.29,0.52-0.61,1.03-0.98,1.57c-0.18,0.31-0.39,0.63-0.61,0.94c-0.06,0.07-0.13,0.17-0.18,0.24c-0.15,0.2-0.29,0.41-0.44,0.61
					c-0.66,0.9-1.33,1.73-1.99,2.49c-1.57,1.81-3.11,3.26-4.48,4.4c-1.09-1.05-2.19-2.1-3.28-3.13c1.25-2.28,2.51-4.55,3.78-6.82
					c0.44-0.79,0.88-1.6,1.33-2.39c0.04-0.07,0.09-0.17,0.15-0.24c0.66-1.23,1.34-2.45,2.01-3.67c0.28-0.5,0.88-1.82,2.25-3.04
					c0.81-0.72,1.62-1.16,2.19-1.42C347.57,74.25,348.84,75.12,350.11,75.98z"/>
				<path class="st3" d="M344.83,86.59c-0.15,0.2-0.29,0.41-0.44,0.61c-0.66,0.9-1.33,1.73-1.99,2.49c-1.34-1.84-2.65-3.7-3.98-5.54
					C340.55,84.97,342.71,85.76,344.83,86.59z"/>
				<path class="st5" d="M345.22,90.1c-2.46-2.15-4.91-4.3-7.37-6.45c0.78-1.67,1.54-3.04,2.14-4.06c2.08-3.52,3.37-4.67,4.07-5.23
					c0.55-0.44,1.04-0.76,1.38-0.96c0.97,2.7,1.94,5.4,2.92,8.1C347.32,84.37,346.27,87.24,345.22,90.1z"/>
			</g>
			<g>
				<path class="st4" d="M364.57,74.46c1.07,1.78,2.31,4.12,3.37,7c0.1,0.25,0.2,0.53,0.28,0.8c0.2,0.56,0.38,1.13,0.55,1.76
					c0.12,0.34,0.22,0.7,0.31,1.07c0.02,0.09,0.04,0.21,0.06,0.3c0.06,0.24,0.11,0.49,0.17,0.73c0.25,1.09,0.44,2.14,0.58,3.13
					c0.34,2.37,0.43,4.49,0.4,6.27c-1.51,0.13-3.02,0.28-4.51,0.43c-0.91-2.44-1.8-4.87-2.68-7.31c-0.31-0.85-0.63-1.72-0.94-2.57
					c-0.03-0.08-0.07-0.18-0.08-0.27c-0.5-1.31-0.97-2.62-1.46-3.92c-0.2-0.53-0.8-1.86-0.83-3.69c-0.01-1.08,0.18-1.99,0.36-2.59
					C361.6,75.25,363.08,74.86,364.57,74.46z"/>
				<path class="st3" d="M369.13,85.4c0.06,0.24,0.11,0.49,0.17,0.73c0.25,1.09,0.44,2.14,0.58,3.13c-2.27-0.19-4.54-0.42-6.8-0.62
					C365.11,87.57,367.12,86.46,369.13,85.4z"/>
				<path class="st5" d="M372.05,87.4c-3.23,0.45-6.46,0.9-9.7,1.35c-0.75-1.69-1.29-3.15-1.66-4.27c-1.3-3.88-1.33-5.61-1.29-6.5
					c0.03-0.7,0.11-1.28,0.18-1.67c1.74-0.64,3.49-1.29,5.24-1.93c1.34,1.32,3.07,3.31,4.59,6.06
					C370.88,83.11,371.64,85.59,372.05,87.4z"/>
			</g>
			<path class="st4" d="M358.31,72.24l-4.83,0.18l-0.09-2.19l-0.02-0.64l-0.09-2.38l-0.04-0.83l-0.04-1.25
				c1.44-0.22,2.87-0.46,4.31-0.68C357.79,67.05,358.05,69.65,358.31,72.24z"/>
			<path class="st3" d="M354.09,70.12c-0.22,0.06-0.46,0.09-0.7,0.11l-0.02-0.64l-0.09-2.38c1.23-1.07,3.15-1.71,3.63-1.14
				C357.5,66.77,356.15,69.55,354.09,70.12z"/>
			<path class="st4" d="M343.58,104.83c3.44,1.22,6.29,2.2,8.39,2.92c1.79,0.62,1.92,0.65,2.23,0.69c3.13,0.37,4.9-1.82,9-1.78
				c0.4,0,0.73,0.03,0.93,0.05c0.24-0.51,0.62-1.53,0.79-2.86c0.13-0.96,0.13-2.07-0.13-3.29c-0.87-4.17-4.16-6.24-4.76-6.62
				c0.44-1.19,0.87-2.45,1.3-3.78c0.57-1.75,1.11-3.65,1.6-5.64c0.9-3.67,1.5-7.08,1.88-10.15c-2.59-1.64-4.8-2.35-6.15-2.7
				c-0.13-0.03-0.27-0.06-0.38-0.09c-1.45-0.33-2.45-0.38-2.78-0.4c-0.24-0.02-1-0.05-2.04,0.06c-0.38,0.03-0.76,0.09-1.15,0.16
				c-2.62,0.44-4.76,1.5-6.16,2.37c0.46,1.49,3.24,11.85,3.35,11.85c-0.11,1.85-0.24,3.68-0.36,5.52c-0.03,0.77-0.09,1.55-0.14,2.32
				c-0.47,0.63-0.96,1.33-1.47,2.12c-0.63,0.98-1.25,2.12-1.6,2.83C344.6,101.08,343.68,104.45,343.58,104.83z"/>
			<g>
				<path class="st4" d="M323.04,82.02c1.32-0.8,2.64-1.61,3.95-2.41c2.94,3.09,5.87,6.18,8.81,9.27c0.98,1.49,1.95,2.98,2.93,4.47
					c-0.31,0.56-0.8,1.22-1.58,1.52c-1.13,0.43-2.76,0.07-6.01-2.78C328.94,90.16,325.88,86.99,323.04,82.02z"/>
			</g>
			<g>
				<path class="st4" d="M360.32,110.91c-1.06-1.12-2.13-2.24-3.19-3.36c2.4-3.52,4.81-7.04,7.21-10.56c1.25-1.27,2.5-2.53,3.75-3.8
					c0.61,0.18,1.36,0.53,1.81,1.23c0.65,1.01,0.65,2.68-1.46,6.46C367.03,103.42,364.57,107.08,360.32,110.91z"/>
			</g>
			<path class="st4" d="M358.1,62.88c-0.17,2.03-1.25,4.92-3.72,5.81c-0.32,0.12-1.95,0.63-3.3-0.18c-0.31-0.19-1-0.6-1.14-1.31
				c-0.12-0.6,0.25-0.92,0.02-1.45c-0.23-0.53-0.81-0.68-0.74-0.93c0.05-0.17,0.33-0.1,0.63-0.33c0.44-0.34,0.47-0.98,0.49-1.14
				c0.06-0.53-0.19-0.75-0.3-1.24c-0.22-0.97,0.35-1.88,0.55-2.19c1.01-1.62,3.04-1.73,3.37-1.75c0.41-0.02,2.12-0.13,3.27,1.09
				C358.3,60.41,358.17,62,358.1,62.88z"/>
			<path class="st4" d="M325.45,185.65c0.06-0.26,0.18-0.67,0.49-1.05c0.44-0.54,1.02-0.74,1.26-0.83c1.02-0.37,2.96-1.2,5.57-2.32
				c2.26-0.11,4.51-0.21,6.77-0.31c0.06,0,0.12-0.01,0.18-0.01c0.22,0.4,0.79,1.53,0.48,2.89c-0.1,0.42-0.25,0.77-0.41,1.04
				c-2.76,0.15-5.52,0.3-8.28,0.46C329.49,185.56,327.47,185.6,325.45,185.65z"/>
			<path class="st3" d="M351.13,63.53c0,0.27-0.1,0.49-0.23,0.49c-0.13,0-0.23-0.22-0.23-0.49c0-0.27,0.1-0.49,0.23-0.49
				C351.02,63.04,351.13,63.26,351.13,63.53z"/>
			<path class="st4" d="M333.44,182.32c2.28,0.03,4.55,0.06,6.81,0.08c0.02-0.13,0.05-0.25,0.08-0.4c0.22-1.3,0.62-3.35,1.2-5.85
				c0.87-3.79,1.77-6.89,2.58-9.58c1.88-6.31,3.21-10.35,2.31-15.73c-0.35-2.12-0.93-3.75-1.26-4.6c-2.84-0.4-5.69-0.77-8.53-1.17
				c-0.54,6.61-1.07,13.2-1.6,19.79c-0.44,5.29-0.87,10.61-1.3,15.9C333.63,181.3,333.53,181.8,333.44,182.32z"/>
			<path class="st4" d="M356.98,64.02c0,0.99-0.55,1.8-1.22,1.8s-1.22-0.8-1.22-1.8c0-0.99,0.55-1.8,1.22-1.8
				S356.98,63.03,356.98,64.02z"/>
			<g>
				<path class="st3" d="M351.68,62.59c-0.04,0-0.09-0.02-0.11-0.06c-0.07-0.12-0.22-0.34-0.51-0.47c-0.27-0.12-0.52-0.11-0.64-0.09
					c-0.08,0.01-0.13-0.04-0.14-0.1c-0.01-0.07,0.04-0.13,0.1-0.14c0.15-0.02,0.46-0.04,0.78,0.11c0.35,0.16,0.54,0.43,0.62,0.57
					c0.03,0.06,0.01,0.14-0.05,0.17C351.73,62.59,351.7,62.59,351.68,62.59z"/>
			</g>
			<path class="st3" d="M327.83,185.92h13.04v-2.96c-0.02-0.55-0.14-1.4-0.72-1.78c-1.16-0.75-2.92,1.2-4.69,0.67
				c-0.67-0.2-1.59-0.83-2.32-2.99c-0.2-0.02-0.78-0.07-1.19,0.3c-0.57,0.51-0.63,1.65,0.1,2.62c-0.31-0.15-2.59-1.22-4.67-0.08
				c-1.57,0.86-2.84,2.87-2.25,3.79C325.64,186.27,327.39,185.99,327.83,185.92z"/>
			<path class="st4" d="M361.86,182.38c2.31-0.24,4.61-0.48,6.92-0.72c-0.2-0.61-0.4-1.22-0.6-1.84c-0.03-0.12-0.05-0.25-0.08-0.4
				c-0.3-1.28-0.72-3.33-1.14-5.86c-0.66-3.84-1.02-7.04-1.31-9.83c-0.69-6.54-1.03-10.79-3.93-15.4c-1.14-1.82-2.3-3.1-2.94-3.76
				c-1.13-0.06-2.5-0.05-4.05,0.15c-1.56,0.21-2.9,0.55-3.97,0.91c-0.08,0.17-0.2,0.48-0.18,0.89c0.01,0.27,0.08,0.48,0.13,0.63
				c0.64,2.5,1.69,6.33,3.22,10.95c0.71,2.15,1.5,3.9,2.68,7.56c1.63,5.06,3.28,10.12,4.93,15.17
				C361.64,181.36,361.75,181.86,361.86,182.38z"/>
			<g>
				<path class="st4" d="M353.95,185.62c0.06-0.26,0.18-0.67,0.49-1.05c0.44-0.54,1.02-0.74,1.26-0.83c1.02-0.37,2.96-1.2,5.57-2.32
					c2.26-0.11,4.51-0.21,6.77-0.31c0.06,0,0.12-0.01,0.18-0.01c0.22,0.4,0.79,1.53,0.48,2.89c-0.1,0.42-0.25,0.77-0.41,1.04
					c-2.76,0.15-5.52,0.3-8.28,0.46C357.99,185.54,355.97,185.58,353.95,185.62z"/>
				<path class="st3" d="M356.32,185.89h13.04v-2.96c-0.02-0.55-0.14-1.4-0.72-1.78c-1.16-0.75-2.92,1.2-4.69,0.67
					c-0.67-0.2-1.59-0.83-2.32-2.99c-0.2-0.02-0.78-0.07-1.19,0.3c-0.57,0.51-0.63,1.65,0.1,2.62c-0.56-0.19-2.54-0.77-4.44,0.23
					c-1.55,0.81-2.95,2.63-2.48,3.48C354.04,186.19,355.76,185.98,356.32,185.89z"/>
			</g>
			<path class="st5" d="M360.6,93.88c-3.87-0.14-7.74-0.28-11.61-0.41c-1.18-6.69-2.36-13.37-3.54-20.06
				c1.22-0.73,7.43-4.26,14.28-1.96c2.22,0.75,3.91,1.91,5.08,2.92c-0.08,1.46-0.22,2.98-0.42,4.56
				C363.65,84.69,362.21,89.71,360.6,93.88z"/>
			<g>
				<path class="st3" d="M350.57,67.15c-0.12,0-0.22-0.02-0.28-0.03c-0.07-0.02-0.11-0.09-0.09-0.15c0.02-0.07,0.08-0.11,0.15-0.09
					c0.09,0.02,0.33,0.06,0.59-0.06c0.25-0.12,0.37-0.31,0.42-0.42c0.03-0.06,0.1-0.09,0.17-0.06c0.06,0.03,0.09,0.1,0.06,0.17
					c-0.06,0.14-0.22,0.39-0.54,0.54C350.87,67.13,350.7,67.15,350.57,67.15z"/>
			</g>
			<g>
				<g>
					<path class="st4" d="M323.74,82.6c-0.74-0.71-1.76-1.73-2.89-3.06c-1.16-1.36-1.34-1.75-1.4-2.13
						c-0.33-2.01,2.47-3.95,3.07-4.35c0.81,0.58,2.01,1.6,3.05,3.17c1.21,1.84,1.65,3.6,1.82,4.64
						C326.17,81.44,324.95,82.02,323.74,82.6z"/>
					<path class="st4" d="M321,74.46c-0.96-0.65-1.91-1.29-2.87-1.94c-0.4-0.14-0.59-0.56-0.47-0.9c0.1-0.28,0.39-0.47,0.71-0.46
						c0.38,0.07,0.77,0.17,1.18,0.31c1.89,0.61,3.25,1.68,4.13,2.55C322.79,74.17,321.9,74.32,321,74.46z"/>
				</g>
				<g>
					<path class="st3" d="M322.44,75.81c-0.03,0-0.06-0.01-0.08-0.03l-1.19-1.01c-0.05-0.04-0.06-0.12-0.01-0.18
						c0.04-0.05,0.12-0.06,0.18-0.01l1.19,1.01c0.05,0.04,0.06,0.12,0.01,0.18C322.51,75.79,322.48,75.81,322.44,75.81z"/>
				</g>
			</g>
			<g>
				<path class="st3" d="M347.36,84.38c-0.1-0.02-0.14-0.09-0.12-0.16l1-3.81c0.02-0.07,0.09-0.1,0.15-0.09
					c0.07,0.02,0.11,0.09,0.09,0.15l-1,3.81C347.47,84.34,347.42,84.38,347.36,84.38z"/>
			</g>
			<g>
				<path class="st3" d="M345.16,146.38c-0.04-0.01-2.22-0.82-2.22-0.82c-0.06-0.02-0.1-0.1-0.07-0.16c0.02-0.06,0.1-0.1,0.16-0.07
					l2.17,0.81c0.06,0.02,0.1,0.1,0.07,0.16C345.26,146.35,345.21,146.38,345.16,146.38z"/>
			</g>
			<g>
				<path class="st3" d="M359.29,146.02c-0.02,0-2.18-0.31-2.18-0.31c-0.07-0.01-0.12-0.07-0.11-0.14c0.01-0.07,0.07-0.12,0.14-0.11
					l2.16,0.31c0.07,0.01,0.12,0.07,0.11,0.14C359.4,145.97,359.35,146.02,359.29,146.02z"/>
			</g>
			<g>
				<path class="st3" d="M336.61,89.95c-0.04,0-0.07-0.01-0.09-0.04l-0.81-0.95c-0.04-0.05-0.04-0.13,0.01-0.18
					c0.05-0.05,0.13-0.04,0.18,0.01l0.81,0.95c0.04,0.05,0.04,0.13-0.01,0.18C336.67,89.94,336.64,89.95,336.61,89.95z"/>
			</g>
			<path class="st3" d="M338.48,128.43c3.91-0.04,7.8-0.08,11.72-0.12c-0.03,0.16-0.05,0.31-0.11,0.59
				c-0.12,0.55-0.23,1.09-0.35,1.58c-3.75-0.68-7.51-1.36-11.27-2.05c-0.02,0-0.05-0.01-0.08-0.01H338.48z"/>
			<path class="st3" d="M362.06,128.35c-0.05,0.69-0.11,1.35-0.17,1.97c-0.09,0.83-0.18,1.6-0.29,2.31
				c-3.71-0.68-7.41-1.35-11.11-2.02c0.01-0.78,0.03-1.54,0.06-2.31c0.38,0,0.77-0.01,1.14-0.01
				C355.15,128.32,358.6,128.33,362.06,128.35z"/>
			<path class="st1" d="M364.08,130.45c-8.56-0.68-17.12-1.35-25.67-2.03c-0.3-6.05,0.13-16.06,5.33-26.54
				c1.63-3.29,3.46-6.09,5.25-8.42c3.87,0.14,7.74,0.28,11.61,0.41c1.04,0.95,2.51,2.51,3.62,4.77c2.38,4.85,1.31,9.25,0.55,16.6
				C364.41,118.8,364.02,123.99,364.08,130.45z"/>
			<path class="st2" d="M357.95,58.5c5.58,2.96,21.56,22.26,15.83,29.82c-2.28,3.01-7.85,3.97-11.96,2.1
				c-3.8-1.73-5.34-5.41-5.76-6.53c-1.3-0.58-3.09-1.64-3.68-3.49c-0.53-1.67,0.22-3.06,1.25-6.01c0.62-1.76,1.41-4.29,2.09-7.48
				c0.42-3.1,0.13-3.86-0.2-3.98c-0.29-0.1-0.5,0.31-1.08,0.4c-1.01,0.17-1.63-0.88-2.97-1.8c-2.1-1.43-3.57-0.8-3.97-1.84
				c-0.31-0.82,0.33-1.94,1.08-2.49c0.85-0.63,1.88-0.56,2.89-0.43C351.95,56.85,355.84,57.38,357.95,58.5z"/>
		</g>
		
			<rect x="253.55" y="69.23" transform="matrix(0.7071 -0.7071 0.7071 0.7071 22.9499 201.102)" class="st6" width="1.35" height="7.23"/>
		<path class="st2" d="M264.83,54.48c0.39,1.03,0.3,2.52-0.45,2.98c-0.39,0.24-0.77,0.08-3.67-0.57c-1.16-0.26-1.38-0.3-1.68-0.17
			c-1.18,0.5-1.33,2.61-1.68,2.56c-0.23-0.03-0.2-0.94-0.57-1.01c-0.23-0.05-0.38,0.29-0.61,0.27c-0.39-0.03-0.71-1.06-0.74-1.72
			c-0.08-2,2.42-4.74,5.29-4.74C262.19,52.08,264.19,52.81,264.83,54.48z"/>
		<g>
			<path class="st2" d="M241.06,89.38c-4.39-0.88-6.63-2.06-6.85-3.62c-0.11-0.81,0.39-1.35,1.02-2.03
				c0.42-0.45,0.94-1.02,1.44-1.82c1.24-1.98,1.24-3.56,1.24-5.25c0-1.51,0-3.07,0.9-4.97c0.9-1.9,2.61-3.22,6-5.84
				c2.58-1.99,5.34-3.75,8.21-5.24l0.23,0.44c-2.85,1.47-5.59,3.22-8.14,5.19c-3.33,2.58-5,3.87-5.86,5.66
				c-0.85,1.8-0.85,3.3-0.85,4.75c0,1.68,0,3.41-1.32,5.51c-0.53,0.84-1.07,1.42-1.5,1.89c-0.6,0.65-0.97,1.05-0.89,1.62
				c0.12,0.9,1.34,2.18,6.45,3.2L241.06,89.38z"/>
		</g>
		<g>
			<path class="st2" d="M368.16,87.11l-0.23-0.44c0.3-0.16,7.26-3.88,7.23-9.66c-0.02-3.01-1.9-5.2-4.07-7.74
				c-2.86-3.34-6.52-5.98-10.87-7.84l0.2-0.46c4.42,1.89,8.14,4.57,11.05,7.97c2.24,2.62,4.17,4.88,4.19,8.07
				C375.69,82.98,368.93,86.7,368.16,87.11z"/>
		</g>
		<g>
			<path class="st0" d="M301.61,21.01l-2.39,0.91l-6.94,2.63l-0.5,0.19l-17.64,6.69l5.1,13.45l18.14-6.88l-2.51-6.63
				c0.63-0.69,1.54-1.5,2.8-2.17c1.38-0.73,2.73-1.04,3.87-1.16l2.78,7.33l18.14-6.88l-5.1-13.45L301.61,21.01z"/>
			<g>
				<path class="st3" d="M279.24,45.12c-0.04,0-0.07-0.01-0.1-0.02c-0.06-0.03-0.11-0.08-0.13-0.14l-5.1-13.45
					c-0.05-0.13,0.02-0.27,0.15-0.32l27.47-10.42l15.74-5.97c0.13-0.05,0.27,0.02,0.32,0.15l5.1,13.45
					c0.02,0.06,0.02,0.13-0.01,0.19c-0.03,0.06-0.08,0.11-0.14,0.13l-18.14,6.88c-0.13,0.05-0.27-0.02-0.32-0.15l-2.71-7.15
					c-1.28,0.15-2.49,0.53-3.59,1.11c-0.97,0.51-1.86,1.19-2.63,2l2.46,6.49c0.02,0.06,0.02,0.13-0.01,0.19
					c-0.03,0.06-0.08,0.11-0.14,0.13l-18.14,6.88C279.3,45.11,279.27,45.12,279.24,45.12z M274.46,31.56l4.92,12.98l17.67-6.7
					l-2.43-6.4c-0.03-0.09-0.01-0.19,0.05-0.26c0.84-0.91,1.81-1.65,2.87-2.22c1.22-0.64,2.55-1.04,3.97-1.19
					c0.11-0.01,0.22,0.05,0.26,0.16l2.69,7.1l17.67-6.7l-4.92-12.98L274.46,31.56z"/>
			</g>
			
				<rect x="277.34" y="28.92" transform="matrix(0.9351 -0.3545 0.3545 0.9351 6.3079 103.4244)" class="st1" width="16.22" height="11.14"/>
			
				<rect x="302.21" y="19.49" transform="matrix(0.9351 -0.3545 0.3545 0.9351 11.2659 111.6285)" class="st5" width="16.22" height="11.14"/>
		</g>
	</g>
	<g id="_x31_">
		<g>
			<g>
				<path class="st1" d="M120.76,92.36c-12.98,0-23.54-10.56-23.54-23.54c0-12.98,10.56-23.54,23.54-23.54s23.54,10.56,23.54,23.54
					C144.3,81.8,133.74,92.36,120.76,92.36z M120.76,46.27c-12.43,0-22.54,10.11-22.54,22.54c0,12.43,10.11,22.54,22.54,22.54
					c12.43,0,22.54-10.11,22.54-22.54C143.3,56.38,133.19,46.27,120.76,46.27z"/>
			</g>
			<path class="st3" d="M120.76,34.05c-19.2,0-34.77,15.56-34.77,34.77c0,19.19,15.56,34.77,34.77,34.77
				c19.2,0,34.77-15.58,34.77-34.77C155.52,49.61,139.96,34.05,120.76,34.05z M137.66,50.22c2.63-1.81,6.21-1.14,8.01,1.48
				c1.81,2.62,1.14,6.21-1.48,8.01c-2.62,1.81-6.21,1.14-8.01-1.48C134.37,55.61,135.04,52.02,137.66,50.22z M103.84,87.41
				c-2.62,1.8-6.2,1.13-8.01-1.5c-1.8-2.62-1.13-6.21,1.5-8.01c2.62-1.8,6.21-1.14,8.01,1.5C107.13,82.02,106.48,85.6,103.84,87.41z
				 M105.34,58.23c-1.8,2.62-5.39,3.29-8.01,1.48c-2.62-1.8-3.29-5.39-1.5-8.01c1.81-2.62,5.39-3.29,8.01-1.48
				C106.48,52.02,107.13,55.61,105.34,58.23z M120.76,99.03c-3.18,0-5.76-2.57-5.76-5.76c0-3.18,2.57-5.76,5.76-5.76
				c3.18,0,5.76,2.57,5.76,5.76C126.52,96.46,123.94,99.03,120.76,99.03z M120.76,74.57c-3.18,0-5.76-2.59-5.76-5.76
				c0-3.18,2.57-5.77,5.76-5.77c3.18,0,5.76,2.59,5.76,5.77C126.52,71.99,123.94,74.57,120.76,74.57z M120.76,50.12
				c-3.18,0-5.76-2.59-5.76-5.77c0-3.17,2.57-5.76,5.76-5.76c3.18,0,5.76,2.59,5.76,5.76C126.52,47.53,123.94,50.12,120.76,50.12z
				 M145.67,85.91c-1.8,2.62-5.38,3.29-8.01,1.5c-2.62-1.81-3.29-5.39-1.48-8.01c1.8-2.63,5.39-3.29,8.01-1.5
				C146.81,79.7,147.48,83.29,145.67,85.91z"/>
		</g>
		<g>
			<polygon class="st1" points="56.72,84.29 59.09,96.81 160.54,79.2 158.16,66.67 			"/>
			<polygon class="st0" points="140.35,69.77 148.12,81.35 156.03,79.98 148.27,68.39 			"/>
			<polygon class="st0" points="127.17,72.05 134.93,83.64 142.86,82.27 135.09,70.68 			"/>
			<polygon class="st0" points="112.92,74.53 120.69,86.12 128.6,84.74 120.83,73.16 			"/>
			<polygon class="st0" points="99.7,76.82 107.47,88.41 115.39,87.03 107.62,75.44 			"/>
			<polygon class="st0" points="86.33,79.14 94.09,90.73 102.01,89.35 94.25,77.76 			"/>
			<polygon class="st0" points="73.15,81.43 80.91,93.02 88.82,91.64 81.07,80.05 			"/>
			<polygon class="st0" points="59.97,83.72 67.74,95.3 75.65,93.93 67.88,82.34 			"/>
		</g>
		<ellipse class="st5" cx="111.55" cy="133.48" rx="15.57" ry="14.9"/>
		<path class="st0" d="M107.5,124.56v17.84c4.06-3.05,8.12-6.09,12.18-9.14C115.62,130.36,111.56,127.46,107.5,124.56z"/>
		<g>
			<path class="st1" d="M161.04,166.81H59.5v-72.5h101.53V166.81z M60.5,165.81h99.53v-70.5H60.5V165.81z"/>
		</g>
		<g>
			<rect x="58.93" y="94.31" class="st1" width="103.1" height="12.73"/>
			<polygon class="st0" points="77.04,94.31 71.54,107.04 63.51,107.04 68.99,94.31 			"/>
			<polygon class="st0" points="90.43,94.31 84.95,107.04 76.9,107.04 82.38,94.31 			"/>
			<polygon class="st0" points="104.91,94.31 99.43,107.04 91.39,107.04 96.87,94.31 			"/>
			<polygon class="st0" points="118.32,94.31 112.84,107.04 104.79,107.04 110.27,94.31 			"/>
			<polygon class="st0" points="131.9,94.31 126.42,107.04 118.37,107.04 123.85,94.31 			"/>
			<polygon class="st0" points="145.3,94.31 139.82,107.04 131.78,107.04 137.25,94.31 			"/>
			<polygon class="st0" points="158.69,94.31 153.21,107.04 145.17,107.04 150.65,94.31 			"/>
		</g>
		<rect x="58.93" y="94.31" class="st1" width="4.57" height="72"/>
		<polygon class="st1" points="63.05,95.65 59.16,96.63 55.75,84.2 59.63,83.23 		"/>
		<path class="st0" d="M145.1,114.52h-12.58c-0.34,0-0.62-0.28-0.62-0.62v-0.2c0-0.34,0.28-0.62,0.62-0.62h12.58
			c0.34,0,0.62,0.28,0.62,0.62v0.2C145.71,114.25,145.44,114.52,145.1,114.52z"/>
		<path class="st0" d="M152.62,114.52h-5.83c-0.24,0-0.43-0.19-0.43-0.43v-0.58c0-0.24,0.19-0.43,0.43-0.43h5.83
			c0.24,0,0.43,0.19,0.43,0.43v0.58C153.05,114.33,152.86,114.52,152.62,114.52z"/>
		<path class="st0" d="M145.34,117.05h-4.32c-0.21,0-0.37-0.17-0.37-0.37v-0.69c0-0.21,0.17-0.37,0.37-0.37h4.32
			c0.21,0,0.37,0.17,0.37,0.37v0.69C145.71,116.88,145.55,117.05,145.34,117.05z"/>
		<path class="st0" d="M139.36,117.05h-6.99c-0.26,0-0.47-0.21-0.47-0.47v-0.5c0-0.26,0.21-0.47,0.47-0.47h6.99
			c0.26,0,0.47,0.21,0.47,0.47v0.5C139.82,116.84,139.61,117.05,139.36,117.05z"/>
		<path class="st0" d="M153.82,117.05h-6.99c-0.26,0-0.47-0.21-0.47-0.47v-0.5c0-0.26,0.21-0.47,0.47-0.47h6.99
			c0.26,0,0.47,0.21,0.47,0.47v0.5C154.28,116.84,154.07,117.05,153.82,117.05z"/>
		<g>
			<path class="st3" d="M69.39,94.43H58.93c-0.07,0-0.12-0.06-0.12-0.12c0-0.07,0.06-0.12,0.12-0.12h10.46
				c0.07,0,0.12,0.06,0.12,0.12C69.52,94.38,69.46,94.43,69.39,94.43z"/>
		</g>
		<path class="st1" d="M67.1,54.05c-0.55,1.45-1.43,1.81-1.27,2.77c0.15,0.93,1.12,1.2,1.05,1.9c-0.05,0.51-0.61,0.87-1.15,1.12
			h-3.77c-0.15-0.35-0.31-0.68-0.45-1.02c-0.03,0.35-0.05,0.69-0.08,1.02H60.5c-0.05-0.22-0.11-0.43-0.17-0.65
			c-0.05,0.22-0.11,0.43-0.16,0.65c-0.86,0.68-8.81,6.8-16.97,3.86c-1.99-0.72-3.58-1.83-4.81-2.96c-0.59-1.07-0.54-1.72-0.36-2.12
			c0.38-0.84,1.37-0.69,2.04-1.67c0.64-0.94,0.03-1.51,0.59-2.31c0.8-1.15,2.36-0.4,3.67-1.68c0.57-0.55,0.59-1,0.96-1.69
			c0.57-1.08,1.81-2.41,4.76-3.28c-0.17-0.91-0.41-2.99,0.72-4.43c1.71-2.16,6.1-2.39,10.06,0.66c1.29,3.79,2.72,4.87,3.84,5.09
			c0.87,0.18,1.48-0.17,2.08,0.35C67.7,50.47,67.67,52.56,67.1,54.05z"/>
		<g>
			<path class="st1" d="M37.95,59.53c-0.03,0-0.06-0.01-0.08-0.03c-0.55-0.49-0.78-0.92-0.72-1.33c0.07-0.41,0.42-0.58,0.83-0.78
				c0.41-0.2,0.88-0.43,1.23-0.94c0.31-0.45,0.31-0.8,0.3-1.17c0-0.35-0.01-0.72,0.29-1.14c0.43-0.61,1.05-0.72,1.71-0.84
				c0.66-0.12,1.34-0.24,1.98-0.85c0.36-0.35,0.49-0.65,0.65-1.03c0.08-0.19,0.17-0.4,0.29-0.63c0.79-1.48,2.38-2.59,4.72-3.31
				c-0.17-0.82-0.17-1.64-0.01-2.43c0.3-1.45,1.16-2.69,2.54-3.69c2.29-1.65,5.81-1.34,8.97,0.79c0.06,0.04,0.07,0.12,0.03,0.17
				c-0.04,0.06-0.12,0.07-0.17,0.03c-3.08-2.08-6.48-2.39-8.68-0.8c-1.33,0.96-2.15,2.15-2.44,3.54c-0.17,0.79-0.16,1.61,0.03,2.44
				c0.01,0.06-0.02,0.13-0.09,0.15c-2.34,0.69-3.92,1.78-4.69,3.22c-0.12,0.23-0.2,0.42-0.28,0.61c-0.16,0.39-0.3,0.72-0.7,1.11
				c-0.69,0.67-1.44,0.8-2.11,0.92c-0.63,0.11-1.18,0.21-1.55,0.74c-0.25,0.36-0.24,0.65-0.24,1c0,0.37,0.01,0.8-0.34,1.32
				c-0.39,0.57-0.91,0.83-1.32,1.03c-0.41,0.2-0.65,0.33-0.7,0.6c-0.05,0.32,0.16,0.68,0.64,1.1c0.05,0.05,0.06,0.12,0.01,0.18
				C38.02,59.51,37.99,59.53,37.95,59.53z"/>
		</g>
		<path class="st6" d="M70.88,36.47c-0.64-0.51-1.33-0.81-1.33-0.81c-0.69-0.29-1.63-0.52-2.87-0.5c0.79-0.39,2.24-1.23,3.47-2.86
			c1.5-2,1.8-4.04,1.88-4.93c0.03,0.6,0.24,3.53,2.61,5.42c0.86,0.68,1.74,1.02,2.4,1.2c-0.33,0.17-0.76,0.43-1.22,0.8
			c0,0-0.78,0.64-1.34,1.46c-0.77,1.13-1.2,3.44-0.63,6.13C73.76,41.94,72.98,38.13,70.88,36.47z"/>
		<path class="st6" d="M84.83,46.23c-0.33-0.26-0.69-0.42-0.69-0.42c-0.36-0.15-0.84-0.27-1.48-0.26c0.41-0.2,1.16-0.64,1.79-1.48
			c0.78-1.03,0.93-2.09,0.97-2.55c0.02,0.31,0.12,1.83,1.35,2.81c0.44,0.35,0.9,0.53,1.24,0.62c-0.17,0.09-0.39,0.22-0.63,0.41
			c0,0-0.4,0.33-0.69,0.76c-0.4,0.58-0.62,1.78-0.32,3.18C86.33,49.06,85.92,47.09,84.83,46.23z"/>
		<path class="st6" d="M75.82,53.8c-0.24-0.19-0.51-0.31-0.51-0.31c-0.26-0.11-0.62-0.2-1.1-0.19c0.3-0.15,0.86-0.47,1.32-1.09
			c0.57-0.76,0.69-1.54,0.72-1.88c0.01,0.23,0.09,1.35,1,2.07c0.33,0.26,0.67,0.39,0.92,0.46c-0.13,0.07-0.29,0.16-0.46,0.31
			c0,0-0.3,0.24-0.51,0.56c-0.29,0.43-0.46,1.31-0.24,2.34C76.92,55.89,76.62,54.43,75.82,53.8z"/>
		<path class="st6" d="M31.12,91.79c-0.22-0.17-0.46-0.28-0.46-0.28c-0.24-0.1-0.56-0.18-0.98-0.17c0.27-0.13,0.77-0.42,1.19-0.98
			c0.51-0.69,0.62-1.39,0.65-1.69c0.01,0.2,0.08,1.21,0.9,1.86c0.29,0.23,0.6,0.35,0.82,0.41c-0.11,0.06-0.26,0.15-0.42,0.27
			c0,0-0.27,0.22-0.46,0.5c-0.26,0.39-0.41,1.18-0.21,2.11C32.11,93.67,31.84,92.36,31.12,91.79z"/>
		<path class="st6" d="M26.48,84.09c-0.32-0.25-0.67-0.41-0.67-0.41c-0.35-0.14-0.82-0.26-1.44-0.25c0.4-0.19,1.13-0.62,1.74-1.44
			c0.75-1.01,0.91-2.03,0.95-2.48c0.02,0.3,0.12,1.78,1.31,2.73c0.43,0.34,0.88,0.51,1.21,0.6c-0.17,0.09-0.38,0.22-0.61,0.4
			c0,0-0.39,0.32-0.68,0.74c-0.39,0.57-0.6,1.73-0.32,3.09C27.93,86.84,27.54,84.92,26.48,84.09z"/>
		<path class="st6" d="M164.88,88.32c-0.32-0.25-0.67-0.41-0.67-0.41c-0.35-0.14-0.82-0.26-1.44-0.25c0.4-0.19,1.13-0.62,1.74-1.44
			c0.75-1.01,0.91-2.03,0.95-2.48c0.02,0.3,0.12,1.78,1.31,2.73c0.43,0.34,0.88,0.51,1.21,0.6c-0.17,0.09-0.38,0.22-0.61,0.4
			c0,0-0.39,0.32-0.68,0.74c-0.39,0.57-0.6,1.73-0.32,3.09C166.34,91.07,165.94,89.15,164.88,88.32z"/>
		<path class="st6" d="M171.03,78.36c-0.44-0.34-0.91-0.55-0.91-0.55c-0.47-0.2-1.11-0.36-1.95-0.34c0.54-0.26,1.53-0.84,2.36-1.95
			c1.02-1.36,1.23-2.75,1.28-3.36c0.02,0.41,0.16,2.41,1.78,3.69c0.59,0.47,1.19,0.7,1.63,0.82c-0.23,0.12-0.52,0.29-0.83,0.54
			c0,0-0.53,0.44-0.91,1c-0.52,0.77-0.82,2.34-0.43,4.18C173,82.09,172.46,79.49,171.03,78.36z"/>
		<path class="st6" d="M167.2,132.21c-0.64-0.5-1.32-0.8-1.32-0.8c-0.68-0.29-1.62-0.52-2.85-0.5c0.78-0.38,2.23-1.22,3.44-2.84
			c1.49-1.99,1.79-4.02,1.87-4.9c0.03,0.59,0.24,3.51,2.59,5.39c0.85,0.68,1.73,1.02,2.38,1.19c-0.33,0.17-0.76,0.43-1.21,0.79
			c0,0-0.78,0.64-1.33,1.45c-0.76,1.12-1.19,3.41-0.62,6.1C170.07,137.65,169.28,133.86,167.2,132.21z"/>
		<path class="st6" d="M164.87,146.3c-0.33-0.26-0.69-0.42-0.69-0.42c-0.35-0.15-0.84-0.27-1.48-0.26c0.41-0.2,1.16-0.63,1.79-1.48
			c0.77-1.03,0.93-2.09,0.97-2.55c0.02,0.31,0.12,1.82,1.35,2.8c0.44,0.35,0.9,0.53,1.24,0.62c-0.17,0.09-0.39,0.22-0.63,0.41
			c0,0-0.4,0.33-0.69,0.75c-0.4,0.58-0.62,1.77-0.32,3.17C166.36,149.12,165.96,147.15,164.87,146.3z"/>
		<path class="st4" d="M27.18,67.43c1.38-0.69,2.76-1.38,4.15-2.07c3.05,3.76,6.1,7.51,9.15,11.27c0.45,1.14,0.91,2.28,1.36,3.42
			c-0.35,0.53-0.9,1.15-1.71,1.37c-1.16,0.33-2.75-0.17-5.75-3.29C32.37,76.04,29.59,72.62,27.18,67.43z"/>
		<path class="st4" d="M89.99,68.7c-1.38-0.69-2.76-1.38-4.15-2.07c-3.05,3.76-6.1,7.51-9.15,11.27c-0.45,1.14-0.91,2.28-1.36,3.42
			c0.35,0.53,0.9,1.15,1.71,1.37c1.16,0.33,2.75-0.17,5.75-3.29C84.8,77.31,87.58,73.89,89.99,68.7z"/>
		<path class="st4" d="M61.29,60.37h-5.58c0.4-2.73,0.8-5.45,1.2-8.18c1.26,0,2.52,0,3.79,0C60.9,54.91,61.09,57.64,61.29,60.37z"/>
		<path class="st4" d="M53.71,62.44c-0.63,1.98-1.6,4.44-3.1,7.13c-0.13,0.24-0.27,0.49-0.41,0.73c-0.3,0.52-0.62,1.04-0.98,1.58
			c-0.19,0.3-0.4,0.62-0.62,0.93c-0.21,0.28-0.41,0.57-0.62,0.85c-2.21,3-4.52,5.26-6.46,6.88c-1.09-1.04-2.2-2.09-3.29-3.13
			c1.69-3.07,3.4-6.13,5.11-9.2c0.05-0.08,0.09-0.17,0.14-0.25c0.66-1.23,1.34-2.43,2.02-3.67c0.15-0.27,1.17-2.03,2.24-3.03
			c2.14-2.01,5.47-1.92,7.44-1.66c-0.3,0.21-0.95,0.75-1.28,1.68C53.75,61.73,53.71,62.14,53.71,62.44z"/>
		<path class="st4" d="M63.23,63.41c0.63,1.98,1.6,4.44,3.1,7.13c0.13,0.24,0.27,0.49,0.41,0.73c0.3,0.52,0.62,1.04,0.98,1.58
			c0.19,0.3,0.4,0.62,0.62,0.93c0.21,0.28,0.41,0.57,0.62,0.85c2.21,3,4.52,5.26,6.46,6.88c1.09-1.04,2.2-2.09,3.29-3.13
			c-1.69-3.07-3.4-6.13-5.11-9.2c-0.05-0.08-0.09-0.17-0.14-0.25c-0.66-1.23-1.34-2.43-2.02-3.67c-0.15-0.27-1.17-2.03-2.24-3.03
			c-2.14-2.01-5.47-1.92-7.44-1.66c0.3,0.21,0.95,0.75,1.28,1.68C63.2,62.7,63.24,63.12,63.23,63.41z"/>
		<path class="st4" d="M58.53,90.09c-0.01,0.19-0.01,0.4-0.04,0.6c-0.06,0.77-0.13,1.53-0.19,2.3c-0.08,0.84-0.15,1.68-0.22,2.52
			c-0.09,1.12-0.17,2.25-0.26,3.4c-0.17,2.3-0.33,4.61-0.47,6.95c-0.09,1.37-0.17,2.75-0.25,4.14c-0.2,3.22-0.14,2.71-0.2,3.68
			c-0.14,2.02-0.34,3.73-0.57,5.17c-0.12,0.86-0.26,1.62-0.39,2.33c-0.02,0.12-0.04,0.23-0.06,0.34c-0.7,3.38-1.44,5.49-1.65,8.68
			c-0.01,0.46-0.03,0.88-0.03,1.28c-2.88-0.03-5.73-0.05-8.61-0.08c-0.08-1.49-0.14-3-0.19-4.51c-0.04-1.14-0.08-2.27-0.09-3.41
			c-0.03-1.39-0.04-2.76-0.03-4.12c0.01-4.76,0.18-9.3,0.49-13.59c0.39-5.47,0.97-10.53,1.65-15.15c0.01-0.11,0.01-0.22,0.03-0.32
			c3.14-0.06,6.28-0.13,9.41-0.19C57.39,90.13,57.97,90.12,58.53,90.09z"/>
		<path class="st4" d="M42.44,167.04c0.54,1.36,1.84,2.24,3.21,2.2c1.61-0.04,3.03-1.33,3.24-3.06c1.71-6.52,3.19-11.55,4.21-14.87
			c0,0,3.17-10.42,2.31-15.71c-0.35-2.12-0.93-3.74-1.26-4.59c-2.84-0.39-5.68-0.77-8.53-1.17c-0.54,6.6-1.07,13.18-1.59,19.77
			c-0.44,5.29-0.87,10.59-1.29,15.88C42.63,166.01,42.53,166.52,42.44,167.04z"/>
		<path class="st4" d="M80.91,130.08c-0.17,0.42-1.09,2.4-3.4,3.35c-2.13,0.87-4.01,0.26-4.47,0.1c-0.22-0.49-0.54-1.23-0.89-2.18
			c-0.12-0.33-0.2-0.57-0.23-0.61c-0.75-1.93-1.56-3.35-2.5-4.92c-0.22-0.36-0.43-0.72-0.66-1.11c-1.23-2.09-2.67-4.65-4.38-8.95
			c-0.34-0.91-0.13-0.41-1.29-3.43c-0.83-2.17-1.65-4.31-2.49-6.45c-0.11-0.28-0.22-0.55-0.32-0.83c-0.82-2.07-1.63-4.11-2.46-6.14
			c-0.01-0.03-0.03-0.08-0.04-0.11c-0.61-1.5-1.25-2.98-1.85-4.47c-0.08-0.17-0.15-0.37-0.24-0.55c0.56-0.16,1.11-0.3,1.63-0.5
			c0.32-0.1,0.66-0.18,0.98-0.28c2.68-0.78,5.37-1.57,8.06-2.36c0.04,0.1,0.08,0.2,0.13,0.29c1.64,3,3.08,5.95,4.33,8.85
			c0.99,2.29,1.88,4.52,2.66,6.67c2.64,7.14,4.34,13.52,5.86,18.44C79.72,126.08,80.27,127.86,80.91,130.08z"/>
		<path class="st4" d="M92.54,168.06c-0.88,0.24-1.74-0.23-2.63-0.69c-0.67-0.34-1.11-0.72-1.3-0.89c-0.05-0.12-0.12-0.23-0.19-0.35
			c-0.6-1.17-1.6-3-2.91-5.21c-1.97-3.35-3.77-6.03-5.34-8.34c-3.69-5.44-6.18-8.89-6.94-14.28c-0.31-2.12-0.24-3.85-0.18-4.76
			c2.59-1.23,5.18-2.45,7.77-3.69c2.54,5.74,5.06,11.87,7.49,18.36c2.28,6.1,4.3,12,6.07,17.66
			C94.32,166.04,93.85,167.7,92.54,168.06z"/>
		<path class="st4" d="M63.17,81.23c0.76,1.21,1.53,2.61,2.24,4.21c1.32,2.98,2.01,5.73,2.39,7.96c-2.13,0.67-5.14,1.35-8.76,1.35
			c-5.29,0.01-9.44-1.42-11.88-2.48c-0.3-1.08-0.9-3.87,0.21-7.1c1.43-4.14,4.68-6.1,5.53-6.59c-1.59-5.87-3.19-11.74-4.78-17.61
			c0.87-0.63,6.83-4.84,13.77-2.83c2.78,0.81,4.73,2.33,5.89,3.42C66.24,68.12,64.7,74.68,63.17,81.23z"/>
		<g>
			<path class="st3" d="M60.87,69.27c-0.06,0-0.11-0.04-0.12-0.1l-0.59-2.47c-0.02-0.07,0.03-0.13,0.09-0.15
				c0.07-0.02,0.14,0.03,0.15,0.09l0.59,2.47c0.02,0.07-0.03,0.13-0.09,0.15C60.89,69.27,60.88,69.27,60.87,69.27z"/>
		</g>
		<g>
			<path class="st3" d="M52.46,132.67c-0.03,0-0.06-0.01-0.08-0.03c-0.05-0.05-0.06-0.12-0.01-0.18l1.41-1.57
				c0.05-0.05,0.13-0.06,0.18-0.01c0.05,0.05,0.06,0.12,0.01,0.18l-1.41,1.57C52.53,132.66,52.5,132.67,52.46,132.67z"/>
		</g>
		<g>
			<path class="st3" d="M74.59,134.01c-0.05-0.01-1.74-0.68-1.74-0.68c-0.06-0.03-0.1-0.1-0.07-0.16c0.02-0.06,0.1-0.1,0.16-0.07
				l1.69,0.67c0.06,0.03,0.1,0.1,0.07,0.16C74.69,133.98,74.64,134.01,74.59,134.01z"/>
		</g>
		<g>
			<path class="st4" d="M49,168.17c-0.05,0.22-0.11,0.44-0.19,0.68c-0.16,0.43-0.38,0.76-0.57,1c-0.44-0.13-2.32-0.6-4.35,0.4
				c-2.13,1.04-2.89,2.97-3.03,3.38c-1.93-0.06-3.86-0.13-5.78-0.17c-0.03-0.47-0.02-1.14,0.4-1.69c0.46-0.6,1.12-0.65,2.18-1.11
				c0.63-0.28,1.07-0.57,1.71-1.03c0.14-0.09,0.3-0.21,0.46-0.33c0.82-0.58,2.02-1.64,3.19-3.43c1.85,0.22,3.76,0.33,5.71,0.32h0.17
				C48.98,166.54,49.16,167.3,49,168.17z"/>
			<path class="st0" d="M48.93,166.02c0.13,0.49,0.36,1.61-0.12,2.83c-0.16,0.41-0.37,0.74-0.57,1c-0.64,0.18-1.33,0.42-2.05,0.73
				c-2.34,1.01-4.05,2.4-5.21,3.56c-0.76,0.16-1.76,0.31-2.94,0.27c-1.26-0.04-2.31-0.27-3.09-0.49c-0.01-0.3,0-0.76,0.15-1.28
				c0.11-0.38,0.18-0.63,0.36-0.88c0.46-0.6,1.12-0.65,2.18-1.11c0.63-0.28,1.07-0.57,1.71-1.03c0.03,0.05,0.08,0.08,0.13,0.11
				c1.28,0.86,3.88-0.51,6.75-2.1C46.89,167.27,47.82,166.73,48.93,166.02z"/>
			<path class="st0" d="M47.3,174.44c-0.16-0.02-0.33-0.04-0.49-0.07c0.04-1.98,0.09-3.96,0.13-5.94l1.42,0.19
				C48.01,170.57,47.66,172.51,47.3,174.44z"/>
		</g>
		<g>
			<path class="st4" d="M88.38,168.17c0.05,0.22,0.11,0.44,0.19,0.68c0.16,0.43,0.38,0.76,0.57,1c0.44-0.13,2.32-0.6,4.35,0.4
				c2.13,1.04,2.89,2.97,3.03,3.38c1.93-0.06,3.86-0.13,5.78-0.17c0.03-0.47,0.02-1.14-0.4-1.69c-0.46-0.6-1.12-0.65-2.18-1.11
				c-0.63-0.28-1.07-0.57-1.71-1.03c-0.14-0.09-0.3-0.21-0.46-0.33c-0.82-0.58-2.02-1.64-3.19-3.43c-1.85,0.22-3.76,0.33-5.71,0.32
				h-0.17C88.4,166.54,88.22,167.3,88.38,168.17z"/>
			<path class="st0" d="M88.45,166.02c-0.13,0.49-0.36,1.61,0.12,2.83c0.16,0.41,0.37,0.74,0.57,1c0.64,0.18,1.33,0.42,2.05,0.73
				c2.34,1.01,4.05,2.4,5.21,3.56c0.76,0.16,1.76,0.31,2.94,0.27c1.26-0.04,2.31-0.27,3.09-0.49c0.01-0.3,0-0.76-0.15-1.28
				c-0.11-0.38-0.18-0.63-0.36-0.88c-0.46-0.6-1.12-0.65-2.18-1.11c-0.63-0.28-1.07-0.57-1.71-1.03c-0.03,0.05-0.08,0.08-0.13,0.11
				c-1.28,0.86-3.88-0.51-6.75-2.1C90.49,167.27,89.56,166.73,88.45,166.02z"/>
			<path class="st0" d="M90.08,174.44c0.16-0.02,0.33-0.04,0.49-0.07c-0.04-1.98-0.09-3.96-0.13-5.94l-1.42,0.19
				C89.37,170.57,89.72,172.51,90.08,174.44z"/>
		</g>
		<path class="st3" d="M60.66,53c0,1.42-0.91,3.09-1.96,3.1c-1.07,0.01-2.04-1.73-1.99-3.22c0.04-1.36,0.95-2.98,1.99-2.97
			C59.77,49.91,60.66,51.6,60.66,53z"/>
		<g>
			<path class="st4" d="M62.97,48.25c-0.31,2.49-1.92,6.27-4.34,6.29c-2.43,0.02-4.11-3.77-4.43-6.29c-0.11-0.86-0.32-2.48,0.6-3.9
				c1.13-1.76,3.17-1.94,3.79-1.95c0.45-0.01,2.34-0.06,3.56,1.46C63.33,45.33,63.08,47.31,62.97,48.25z"/>
			<path class="st4" d="M55.42,49.03c0.17,0.85-0.08,1.62-0.57,1.72c-0.48,0.1-1.02-0.51-1.19-1.37c-0.17-0.85,0.08-1.62,0.57-1.72
				C54.72,47.56,55.25,48.17,55.42,49.03z"/>
			<path class="st4" d="M61.86,49.03c-0.17,0.85,0.08,1.62,0.57,1.72c0.49,0.1,1.02-0.51,1.19-1.37c0.17-0.85-0.08-1.62-0.57-1.72
				C62.56,47.56,62.03,48.17,61.86,49.03z"/>
			<g>
				<g>
					<path class="st3" d="M58.75,52c-0.02,0-0.04,0-0.07,0c-0.07,0-0.12-0.06-0.12-0.13c0-0.07,0.05-0.11,0.13-0.12
						c0.23,0.01,0.39-0.04,0.42-0.1c0.02-0.04-0.06-0.18-0.17-0.37c-0.06-0.1-0.1-0.18-0.14-0.25c-0.07-0.13-0.14-0.26-0.21-0.38
						c-0.24-0.38-0.26-1.01-0.06-1.92c0.01-0.07,0.08-0.11,0.15-0.1c0.07,0.01,0.11,0.08,0.1,0.15c-0.18,0.83-0.17,1.41,0.03,1.73
						c0.08,0.13,0.15,0.26,0.22,0.4c0.04,0.07,0.08,0.15,0.12,0.22c0.19,0.34,0.27,0.47,0.2,0.62C59.25,51.96,58.96,52,58.75,52z"/>
				</g>
				<path class="st0" d="M59.92,52.54c-0.07,0.64-0.65,1.12-1.29,1.08c-0.65-0.04-1.16-0.6-1.14-1.25c0.25,0.12,0.66,0.27,1.19,0.3
					C59.22,52.72,59.65,52.62,59.92,52.54z"/>
				<g>
					<g>
						<path class="st3" d="M57.06,49.55c0,0.29-0.15,0.53-0.33,0.53s-0.33-0.24-0.33-0.53c0-0.29,0.15-0.53,0.33-0.53
							S57.06,49.26,57.06,49.55z"/>
					</g>
					<g>
						<path class="st3" d="M55.48,48.39c-0.04,0-0.07-0.02-0.1-0.05c-0.04-0.05-0.04-0.13,0.02-0.18c0.17-0.14,0.53-0.37,1.03-0.41
							c0.42-0.03,0.76,0.09,0.97,0.2c0.06,0.03,0.08,0.11,0.05,0.17c-0.03,0.06-0.11,0.09-0.17,0.05c-0.18-0.09-0.47-0.2-0.83-0.18
							c-0.43,0.03-0.74,0.23-0.89,0.35C55.53,48.38,55.5,48.39,55.48,48.39z"/>
					</g>
				</g>
				<g>
					<g>
						<path class="st3" d="M60.45,49.59c0,0.29,0.15,0.53,0.33,0.53c0.18,0,0.33-0.24,0.33-0.53c0-0.29-0.15-0.53-0.33-0.53
							C60.6,49.06,60.45,49.3,60.45,49.59z"/>
					</g>
					<g>
						<path class="st3" d="M62.04,48.43c-0.03,0-0.06-0.01-0.08-0.03c-0.15-0.12-0.45-0.32-0.89-0.35
							c-0.36-0.02-0.65,0.08-0.83,0.18c-0.06,0.03-0.14,0.01-0.17-0.05c-0.03-0.06-0.01-0.14,0.05-0.17
							c0.21-0.11,0.55-0.23,0.97-0.2c0.5,0.03,0.86,0.27,1.03,0.41c0.05,0.04,0.06,0.12,0.02,0.18
							C62.11,48.42,62.07,48.43,62.04,48.43z"/>
					</g>
				</g>
			</g>
		</g>
		<path class="st6" d="M74.5,114.1c-10.28-3.5-20.56-6.99-30.84-10.49c-0.03-3.83,0.32-7.01,0.68-9.34
			c0.83-5.35,1.44-9.19,4.4-12.46c1.48-1.63,3.06-2.63,4.16-3.22c-1.1-2.31-2.31-5.42-3.1-9.22c-0.75-3.63-0.9-6.83-0.83-9.31
			c0.56-0.25,1.14-0.5,1.75-0.74c0.74-0.3,1.46-0.56,2.16-0.8c1.28,3.12,2.56,6.24,3.84,9.36c1.42,0.61,2.84,1.23,4.27,1.84
			c1.32-0.55,2.64-1.09,3.96-1.64c0.36-0.07,0.72-0.13,1.08-0.2c0.13,0.19,1.78,2.58,0.73,5.05c-0.46,1.07-1.23,1.71-1.68,2.03
			c-0.46,2.32-0.92,4.65-1.38,6.97c1.4,2.03,2.86,4.43,4.23,7.21c2.31,4.7,3.37,8.55,4.17,11.49
			C73.01,104.05,73.99,108.62,74.5,114.1z"/>
		<path class="st4" d="M31.67,66.21c-1.5,0.4-2.99,0.81-4.49,1.21c-5.34-5.41-6.25-7.15-5.88-7.64c0.08-0.1,0.31-0.28,0.59-0.31
			c0.59-0.07,1.02,0.53,1.68,1.15c0.41,0.38,1.01,0.87,1.88,1.33c2.38,1.01,3.36,0.82,3.8,0.4c0.69-0.65,0.35-2.12,0.94-2.27
			c0.37-0.09,0.76,0.4,0.79,0.44c0.32,0.41,0.34,1.02,0.05,1.53C31.24,63.45,31.46,64.83,31.67,66.21z"/>
		<path class="st4" d="M85.37,67.6c1.5,0.4,2.99,0.81,4.49,1.21c5.34-5.41,6.25-7.15,5.88-7.64c-0.08-0.1-0.31-0.28-0.59-0.31
			c-0.59-0.07-1.02,0.53-1.68,1.15c-0.41,0.38-1.01,0.87-1.88,1.33c-2.38,1.01-3.36,0.82-3.8,0.4c-0.69-0.65-0.35-2.12-0.94-2.27
			c-0.37-0.09-0.76,0.4-0.79,0.44c-0.32,0.41-0.34,1.02-0.05,1.53C85.8,64.83,85.58,66.22,85.37,67.6z"/>
		<path class="st3" d="M45.74,105.79c3.87,0.03,7.73,0.05,11.6,0.08c-0.09,1.37-0.17,2.75-0.25,4.14c-0.2,3.22-0.14,2.71-0.2,3.68
			c-0.14,2.02-0.34,3.73-0.57,5.17c-0.12,0.86-0.26,1.62-0.39,2.33c-0.04-0.11-0.08-0.22-0.11-0.32c-1.92,3.51-5.72,5.01-8.62,3.9
			c-0.78-0.29-1.4-0.74-1.91-1.26c-0.03-1.39-0.04-2.76-0.03-4.12C45.27,114.62,45.44,110.08,45.74,105.79z"/>
		<path class="st3" d="M73.49,106.47c-0.16-0.17-0.31-0.33-0.46-0.5c-4.14-0.03-8.29-0.05-12.43-0.09c0.84,2.13,1.66,4.28,2.49,6.45
			c1.16,3.02,0.95,2.52,1.29,3.43c1.7,4.3,3.15,6.86,4.38,8.95c1.1-1.08,1.92-2.48,2.31-4.09c0.4,0.79,1.79,3.24,4.56,4.14
			c1.19,0.39,2.46,0.44,3.73,0.18L73.49,106.47z"/>
		<path class="st1" d="M63.18,47.84c-0.1,0.04-0.19,0.07-0.29,0.11c-0.08-0.35-0.16-0.7-0.25-1.06c-0.3,0.02-0.73,0.04-1.26,0
			c-2.07-0.14-2.54-0.87-3.42-0.58c-1.17,0.38-0.97,1.85-2.16,2.19c-0.81,0.23-1.64-0.2-2.19-0.57c-0.6-0.4-1.2-0.81-1.8-1.21
			c-0.12-0.35-0.37-1.28-0.04-2.38c0.25-0.85,0.73-1.4,0.99-1.66c0.28-0.36,1.68-2.07,4.04-2.31c2.57-0.26,4.73,1.37,5.67,2.99
			c0.61,1.05,0.8,2.2,0.79,2.39C63.24,46.44,63.21,47.14,63.18,47.84z"/>
		<path class="st6" d="M86.14,117.74c-2.49,4.13-6.94,6.01-10.51,4.85c-2.77-0.9-4.16-3.36-4.56-4.15
			c-0.78,3.23-3.31,5.68-6.35,6.17c-3.75,0.61-7.67-1.86-8.89-5.93c-1.91,3.51-5.72,5.02-8.62,3.91c-2.74-1.05-3.65-4.03-3.77-4.45
			c-0.18,0.22-3.31,3.98-8.22,3.37c-4.48-0.56-6.61-4.28-6.82-4.66c5.09-4.41,10.18-8.83,15.28-13.24
			c9.79,0.06,19.58,0.13,29.37,0.19C77.4,108.45,81.77,113.1,86.14,117.74z"/>
		<g>
			<g>
				<path class="st1" d="M143.18,170c-7.43,0-13.48-6.05-13.48-13.48c0-7.43,6.05-13.48,13.48-13.48c7.43,0,13.48,6.05,13.48,13.48
					C156.66,163.95,150.61,170,143.18,170z M143.18,144.04c-6.88,0-12.48,5.6-12.48,12.48c0,6.88,5.6,12.48,12.48,12.48
					c6.88,0,12.48-5.6,12.48-12.48C155.66,149.64,150.06,144.04,143.18,144.04z"/>
			</g>
			<path class="st3" d="M143.18,136.94c-10.82,0-19.58,8.77-19.58,19.58c0,10.81,8.77,19.58,19.58,19.58s19.58-8.77,19.58-19.58
				C162.76,145.71,154,136.94,143.18,136.94z M152.7,146.05c1.48-1.02,3.5-0.64,4.51,0.84c1.02,1.48,0.64,3.5-0.84,4.51
				c-1.48,1.02-3.5,0.64-4.51-0.84C150.85,149.08,151.22,147.06,152.7,146.05z M133.65,166.99c-1.48,1.01-3.49,0.63-4.51-0.84
				c-1.01-1.48-0.63-3.5,0.84-4.51c1.48-1.01,3.5-0.64,4.51,0.84C135.51,163.96,135.14,165.97,133.65,166.99z M134.49,150.56
				c-1.01,1.48-3.03,1.85-4.51,0.84c-1.48-1.01-1.85-3.03-0.84-4.51c1.02-1.48,3.03-1.85,4.51-0.84
				C135.14,147.06,135.51,149.08,134.49,150.56z M143.18,173.54c-1.79,0-3.24-1.45-3.24-3.24c0-1.79,1.45-3.24,3.24-3.24
				s3.24,1.45,3.24,3.24C146.42,172.09,144.97,173.54,143.18,173.54z M143.18,159.76c-1.79,0-3.24-1.46-3.24-3.24
				c0-1.79,1.45-3.25,3.24-3.25s3.24,1.46,3.24,3.25C146.42,158.31,144.97,159.76,143.18,159.76z M143.18,145.99
				c-1.79,0-3.24-1.46-3.24-3.25c0-1.79,1.45-3.24,3.24-3.24s3.24,1.46,3.24,3.24C146.42,144.53,144.97,145.99,143.18,145.99z
				 M157.21,166.15c-1.01,1.48-3.03,1.85-4.51,0.84c-1.48-1.02-1.85-3.03-0.84-4.51c1.01-1.48,3.03-1.85,4.51-0.84
				C157.85,162.65,158.23,164.67,157.21,166.15z"/>
		</g>
	</g>
</g>
</svg>
