<?xml version="1.0" encoding="utf-8"?>
<!-- Generator: Adobe Illustrator 25.2.1, SVG Export Plug-In . SVG Version: 6.00 Build 0)  -->
<svg version="1.1" id="Ñëîé_1" xmlns="http://www.w3.org/2000/svg" xmlns:xlink="http://www.w3.org/1999/xlink" x="0px" y="0px"
	 viewBox="0 0 4000 2000" style="enable-background:new 0 0 4000 2000;" xml:space="preserve">
<style type="text/css">
	.st0{fill:#C5DDFF;}
	.st1{fill:#9BAEEA;}
	.st2{fill:#7993DB;}
	.st3{fill:#667ECC;}
	.st4{fill:#8A9EDD;}
	.st5{fill:#F3F9FF;}
	.st6{fill:#395B96;}
	.st7{fill:#5279BF;}
	.st8{fill:#234270;}
	.st9{fill:#A9BFF7;}
	.st10{fill:#4867AA;}
	.st11{fill:#EB5648;}
	.st12{fill:#F99370;}
	.st13{fill:#E8C0A6;}
	.st14{fill:#CE3932;}
	.st15{fill:#9358E0;}
	.st16{fill:#7640CC;}
	.st17{fill:#E57D61;}
	.st18{fill:#8C4225;}
	.st19{fill:#C16256;}
	.st20{fill:#0B274F;}
	.st21{fill:#163260;}
	.st22{fill:#CE4ABF;}
	.st23{fill:#3A72AA;}
	.st24{fill:#23659B;}
	.st25{fill:#1D3F70;}
	.st26{fill:#F9F8F3;}
	.st27{fill:#A523A2;}
	.st28{fill:#F4D4BE;}
	.st29{fill:#F49F9F;}
	.st30{fill:#082644;}
	.st31{fill:#39B54A;}
	.st32{fill:#FBB03B;}
	.st33{fill:#FFFFFF;}
	.st34{fill:#397CAA;}
	.st35{fill:#FF7B7B;}
	.st36{fill:#FFCB92;}
	.st37{fill:#2E6999;}
	.st38{fill:#FF6666;}
	.st39{fill:#FFBE71;}
	.st40{fill:#285989;}
	.st41{fill:#F95C58;}
	.st42{fill:#FFB757;}
	.st43{fill:#1F4777;}
	.st44{fill:#103663;}
	.st45{fill:#F7931E;}
	.st46{fill:#B2C0ED;}
	.st47{fill:#E04941;}
	.st48{fill:#7F4AD3;}
	.st49{fill:#173C68;}
	.st50{fill:#FCB4B4;}
	.st51{fill:#EFA3A3;}
	.st52{fill:#D1A68F;}
	.st53{fill:#C92828;}
</style>
<g>
	<g id="_x31_6">
		<rect x="0" y="0" class="st0" width="4000" height="2000"/>
		<rect x="0" y="1633.87" class="st1" width="4000" height="366.13"/>
		<rect x="0" y="1663.99" class="st2" width="4000" height="336.01"/>
	</g>
	<g id="_x31_5">
		<rect x="507.41" y="0" class="st3" width="22.75" height="73.18"/>
		<rect x="1020.2" y="0" class="st3" width="22.75" height="73.18"/>
		<path class="st4" d="M1060.55,83.65c0.1,15.77-13,29.06-28.97,28.97c0,0-512.79,0-512.79,0c-10.95,0-20.48-6.07-25.4-15.03
			c-10.66-18.44,3.8-43.51,25.4-42.92c0,0,512.79,0,512.79,0C1047.57,54.67,1060.55,67.64,1060.55,83.65z"/>
		<path class="st5" d="M1056.98,98.15c-5.06,9.46-14.52,15.56-25.4,15.59H518.79c-10.95,0-20.48-6.3-25.4-15.59
			c5.05-9.47,14.52-15.56,25.4-15.6c0,0,512.79,0,512.79,0C1042.52,82.55,1052.05,88.86,1056.98,98.15z"/>
	</g>
	<g id="_x31_4">
		<rect x="1732.24" y="0" class="st3" width="22.75" height="73.18"/>
		<rect x="2245.02" y="0" class="st3" width="22.75" height="73.18"/>
		<path class="st4" d="M2285.38,83.65c0.1,15.77-13,29.06-28.97,28.97c0,0-512.79,0-512.79,0c-10.95,0-20.48-6.07-25.4-15.03
			c-10.66-18.44,3.8-43.51,25.4-42.92c0,0,512.79,0,512.79,0C2272.4,54.67,2285.38,67.64,2285.38,83.65z"/>
		<path class="st5" d="M2281.81,98.15c-5.06,9.46-14.52,15.56-25.4,15.59h-512.79c-10.95,0-20.48-6.3-25.4-15.59
			c5.05-9.47,14.52-15.56,25.4-15.6c0,0,512.79,0,512.79,0C2267.35,82.55,2276.88,88.86,2281.81,98.15z"/>
	</g>
	<g id="_x31_3">
		<rect x="2957.06" y="0" class="st3" width="22.75" height="73.18"/>
		<rect x="3469.85" y="0" class="st3" width="22.75" height="73.18"/>
		<path class="st4" d="M3510.2,83.65c0.1,15.77-13,29.06-28.97,28.97c0,0-512.79,0-512.79,0c-10.95,0-20.48-6.07-25.4-15.03
			c-10.66-18.44,3.8-43.51,25.4-42.92c0,0,512.79,0,512.79,0C3497.23,54.67,3510.2,67.64,3510.2,83.65z"/>
		<path class="st5" d="M3506.63,98.15c-5.06,9.46-14.52,15.56-25.4,15.59h-512.79c-10.95,0-20.48-6.3-25.4-15.59
			c5.05-9.47,14.51-15.56,25.4-15.6h512.79C3492.18,82.55,3501.71,88.86,3506.63,98.15z"/>
	</g>
	<g id="_x31_2_2_">
		<rect x="1490.53" y="1116.48" class="st6" width="338.2" height="57.43"/>
		<path class="st7" d="M2022.29,1280.26v561.54h-601.96v-684.91h478.59c34.08,0,64.92,13.8,87.23,36.14
			C2008.49,1215.34,2022.29,1246.19,2022.29,1280.26z"/>
		<path class="st6" d="M1543.7,1841.81h-246.74v-596.93c0-48.59,39.39-87.98,87.98-87.98h70.78c48.59,0,87.98,39.39,87.98,87.98
			V1841.81z"/>
		<path class="st7" d="M1990.39,1127.11h-661.52v0c0-31.72,25.71-57.43,57.43-57.43h546.65
			C1964.67,1069.68,1990.39,1095.4,1990.39,1127.11L1990.39,1127.11z"/>
		<path class="st8" d="M1635.22,1341.95h-17.02c-8.89,0-16.75-5.78-19.4-14.27l-29.84-95.47c-4.09-13.09,5.69-26.39,19.4-26.39
			l13.66,0.28C1610.92,1206.1,1648.94,1341.95,1635.22,1341.95z"/>
		<path class="st6" d="M1964.27,1341.95h-323.26c-8.89,0-16.75-5.78-19.4-14.27l-29.84-95.47c-4.09-13.09,5.69-26.39,19.4-26.39
			h323.26c8.89,0,16.75,5.78,19.4,14.27l29.84,95.47C1987.76,1328.65,1977.98,1341.95,1964.27,1341.95z"/>
		<path class="st8" d="M1496.91,1730.02h-153.15c-5.55,0-10.05-4.5-10.05-10.05l0,0c0-5.55,4.5-10.05,10.05-10.05h153.15
			c5.55,0,10.05,4.5,10.05,10.05l0,0C1506.95,1725.53,1502.46,1730.02,1496.91,1730.02z"/>
		<path class="st8" d="M1496.91,1770.21h-153.15c-5.55,0-10.05-4.5-10.05-10.05l0,0c0-5.55,4.5-10.05,10.05-10.05h153.15
			c5.55,0,10.05,4.5,10.05,10.05l0,0C1506.95,1765.71,1502.46,1770.21,1496.91,1770.21z"/>
		<path class="st8" d="M1496.91,1810.4h-153.15c-5.55,0-10.05-4.5-10.05-10.05l0,0c0-5.55,4.5-10.05,10.05-10.05h153.15
			c5.55,0,10.05,4.5,10.05,10.05l0,0C1506.95,1805.9,1502.46,1810.4,1496.91,1810.4z"/>
		<rect x="1624.62" y="1460.11" class="st6" width="338.2" height="211.94"/>
		<circle class="st8" cx="1674.54" cy="1510.03" r="19.91"/>
		<circle class="st8" cx="1674.54" cy="1622.13" r="19.91"/>
		<circle class="st8" cx="1674.54" cy="1566.08" r="19.91"/>
		<path class="st9" d="M1740.68,1312.51h-82.46c-5.83,0-10.98-3.79-12.72-9.36l-16.57-53.23c-2.67-8.57,3.74-17.28,12.72-17.28
			h82.46c5.83,0,10.98,3.79,12.72,9.36l16.57,53.23C1756.06,1303.81,1749.66,1312.51,1740.68,1312.51z"/>
		<path class="st9" d="M1920.84,1312.51h-82.46c-5.83,0-10.98-3.79-12.72-9.36l-16.57-53.23c-2.67-8.57,3.74-17.28,12.72-17.28
			h82.46c5.83,0,10.98,3.79,12.72,9.36l16.57,53.23C1936.22,1303.81,1929.82,1312.51,1920.84,1312.51z"/>
		<path class="st8" d="M1782.38,1245.7h-17.19c-1.22,0-2.29-0.79-2.65-1.95l-3.45-11.1c-0.56-1.79,0.78-3.6,2.65-3.6h17.19
			c1.22,0,2.29,0.79,2.65,1.95l3.45,11.1C1785.58,1243.88,1784.25,1245.7,1782.38,1245.7z"/>
		<path class="st8" d="M1800.98,1309.72h-17.19c-1.22,0-2.29-0.79-2.65-1.95l-3.45-11.1c-0.56-1.79,0.78-3.6,2.65-3.6h17.19
			c1.22,0,2.29,0.79,2.65,1.95l3.45,11.1C1804.19,1307.9,1802.85,1309.72,1800.98,1309.72z"/>
		<path class="st8" d="M1791.26,1277.36h-17.19c-1.22,0-2.29-0.79-2.65-1.95l-3.45-11.1c-0.56-1.79,0.78-3.6,2.65-3.6h17.19
			c1.22,0,2.29,0.79,2.65,1.95l3.45,11.1C1794.46,1275.54,1793.13,1277.36,1791.26,1277.36z"/>
		<path class="st8" d="M1932.82,1515.03h-209.69c-2.76,0-5-2.24-5-5s2.24-5,5-5h209.69c2.76,0,5,2.24,5,5
			S1935.59,1515.03,1932.82,1515.03z"/>
		<path class="st8" d="M1932.82,1534.94h-209.69c-2.76,0-5-2.24-5-5s2.24-5,5-5h209.69c2.76,0,5,2.24,5,5
			S1935.59,1534.94,1932.82,1534.94z"/>
	</g>
	<g id="_x31_1_1_">
		<rect x="398.6" y="1217.97" class="st8" width="302.35" height="302.35"/>
		<rect x="398.6" y="1518.23" class="st7" width="300.48" height="13.87"/>
		<path class="st10" d="M554.2,1785.28c6.17,0,11.17-5.33,11.17-11.91v-218.77c0-6.58-5-11.91-11.17-11.91
			c-6.17,0-11.17,5.33-11.17,11.91v218.77C543.04,1779.95,548.04,1785.28,554.2,1785.28z"/>
		<path class="st10" d="M446.04,1830.07c20.58-0.54,0.43-35.21,38.77-38.55c0,0,141.98,0,141.98,0c15.22,0,27.61,12.31,27.61,27.45
			c0.01,14.5,22.3,14.52,22.33,0c0-27.38-22.4-49.65-49.94-49.65H484.82C449.69,1765.02,415.93,1824.38,446.04,1830.07z"/>
		<path class="st8" d="M532.74,1554.6h42.92c13.55-0.31,17-12.42,15.78-23.81h-74.48C515.75,1542.19,519.19,1554.3,532.74,1554.6z"
			/>
		<path class="st8" d="M527.86,1796.86h52.69c12.29-0.19,11.16-13.37,10.9-22.05c0-5.98-4.88-10.83-10.9-10.83h-52.69
			c-6.02,0-10.9,4.85-10.9,10.83C516.72,1783.49,515.54,1796.66,527.86,1796.86z"/>
		<path class="st8" d="M644.47,1818.97c0.47,27.57,41.73,27.57,42.2,0C686.19,1791.4,644.94,1791.4,644.47,1818.97z"/>
		<path class="st8" d="M424.95,1818.97c0.47,27.57,41.73,27.57,42.19,0C466.67,1791.4,425.42,1791.4,424.95,1818.97z"/>
	</g>
	<g id="_x31_0">
		<path class="st11" d="M846.32,1149.04c-6.84,18.75-15.88,34.36-26.49,47.1l0.02,0.05c-26.44,32-66.53,47-106.11,44.02
			c-16.6-1.1-36.82,9.04-54.63,9.23c-5.51,0.07-10.78-0.82-15.65-3.28c0.56,1.12-61.37-124.61-74.95-154.7
			c100.27-4.8,160.55,124.49,263.93,29.28c0.22,0.22,17.29,17.27,17.5,17.48C848.83,1141.89,847.6,1145.55,846.32,1149.04z"/>
		<path class="st6" d="M819.87,1196.01c-0.42,0.52-0.84,1.04-1.24,1.62c0.42-0.52,0.79-0.97,1.22-1.43l-0.01-0.06
			C819.88,1196.06,819.87,1196.01,819.87,1196.01z"/>
		<path class="st12" d="M856.49,1840.95l-96.78-1.06c0.25-15.47,5.89-74.06,2.49-73.36l6.05-45.61l42.66,0.47l-9.76,71.49
			c-1.16,8.48,3.87,16.57,11.97,19.32c17.78,6.98,38.08,3.95,49.46,17.98C865.55,1834.89,862.05,1841.01,856.49,1840.95z"/>
		<path class="st11" d="M756.87,1830.54c0.36,3.28,1.23,6.47,2.84,9.35l97.72,1.07c4.75,0.05,8.24-4.59,6.72-9.09
			c-3.6-10.52-16.31-25.86-61.33-28.71c0,0-15.78,4.39-40.92-0.44C761.9,1802.72,755.4,1817.25,756.87,1830.54z"/>
		<path class="st13" d="M835.42,1828.11c0.77,0,1.51-0.46,1.83-1.22c3.68-8.79,10.17-11.43,10.44-11.54
			c2.39-0.89,0.96-4.65-1.42-3.7c-0.34,0.13-8.31,3.27-12.67,13.7C833.03,1826.63,834.04,1828.14,835.42,1828.11z"/>
		<path class="st13" d="M820.05,1826.08c0.84,0,1.61-0.54,1.88-1.37c3.28-10.2,12.24-14.83,12.33-14.87c2.3-1.12,0.5-4.73-1.79-3.53
			c-0.43,0.22-10.53,5.44-14.31,17.19C817.74,1824.75,818.74,1826.1,820.05,1826.08z"/>
		<path class="st13" d="M802.57,1823.74c0.81,0,1.57-0.5,1.86-1.31c3.81-10.58,12.41-16.28,12.5-16.33
			c2.17-1.36-0.02-4.75-2.15-3.32c-0.4,0.26-9.79,6.43-14.07,18.31C800.23,1822.35,801.23,1823.76,802.57,1823.74z"/>
		<path class="st14" d="M864.09,1831.72l-107.22-1.18c0.36,3.28,1.23,6.47,2.84,9.35l97.72,1.07
			C862.25,1841.02,865.75,1836.24,864.09,1831.72z"/>
		<path class="st11" d="M668.4,1387.76c-98.4,13.74-244.56,7.62-244.56,7.62c-31.55-139.92,28.33-262.17,104.62-306.67
			c0.01,0.01,40.03,2.73,40.04,2.74c25.52,22.47,58,59.98,75.93,106.17C663.36,1245.4,680.32,1361.17,668.4,1387.76z"/>
		<path class="st14" d="M647.67,1208.05c-0.63,0-1.21-0.43-1.36-1.07c-3.92-19.09-17.63-35.25-15.28-37.79
			c3.43-0.73,12.7,18.95,18,37.14C649.25,1207.19,648.56,1208.06,647.67,1208.05z"/>
		<path class="st15" d="M821.52,1774.42c0,0-31.08,12.94-83.36-3.9c0.33-35.4,2.08-98.6-12.04-149.58
			c-4.43-15.99-10.42-30.78-18.5-43.12c-13.24-21.02-32.33-38.63-54.01-52.3c-33.82-21.34-73.96-33.06-107.98-33.18
			c-44.67-0.95-69.28-48.5-41.76-104.58c0,0,164.52,0,164.52,0.01C849.59,1403.68,833.12,1637.75,821.52,1774.42z"/>
		<path class="st16" d="M726.12,1620.94c-4.43-15.99-10.42-30.78-18.5-43.12c-13.24-21.02-32.33-38.63-54.01-52.3
			c-0.05-0.12-0.09-0.25-0.13-0.37l-36.44-132.13C641.53,1401.02,745.26,1436.46,726.12,1620.94z"/>
		<path class="st12" d="M738.08,1840.9l-96.78-1.06c0.25-15.47,4.37-46.7,1.3-64.35c0,0,7.25-54.62,7.25-54.62l42.66,0.47
			l-4.7,69.08c-1.16,8.48-1.19,18.97,6.91,21.73c17.78,6.98,38.08,3.95,49.46,17.98C747.14,1834.83,743.65,1840.96,738.08,1840.9z"
			/>
		<path class="st11" d="M638.47,1830.48c0.36,3.28,1.23,6.47,2.84,9.35l97.72,1.07c4.75,0.05,8.24-4.59,6.72-9.09
			c-3.6-10.52-12.39-25.86-57.4-28.71c0,0-19.69,4.1-44.83-0.73C643.5,1802.38,636.99,1817.2,638.47,1830.48z"/>
		<path class="st13" d="M717.01,1828.05c0.77,0,1.51-0.46,1.83-1.22c3.68-8.8,10.17-11.43,10.44-11.54c2.39-0.89,0.96-4.65-1.42-3.7
			c-0.34,0.13-8.31,3.27-12.67,13.7C714.62,1826.58,715.64,1828.08,717.01,1828.05z"/>
		<path class="st13" d="M701.65,1826.03c0.84,0,1.61-0.54,1.88-1.37c3.28-10.2,12.24-14.83,12.33-14.87c2.3-1.12,0.5-4.73-1.79-3.53
			c-0.43,0.22-10.53,5.44-14.31,17.19C699.34,1824.69,700.33,1826.05,701.65,1826.03z"/>
		<path class="st13" d="M684.16,1823.68c0.81,0,1.57-0.5,1.86-1.31c3.81-10.58,12.41-16.28,12.5-16.33
			c2.17-1.36-0.02-4.75-2.15-3.32c-0.4,0.26-9.79,6.43-14.07,18.31C681.82,1822.29,682.83,1823.71,684.16,1823.68z"/>
		<path class="st14" d="M745.68,1831.66l-107.22-1.18c0.36,3.28,1.23,6.47,2.84,9.35l97.72,1.07
			C743.84,1840.97,747.35,1836.18,745.68,1831.66z"/>
		<path class="st15" d="M467.14,1479.18c50.07,30.3,107.05,14.29,142.1,85.06c28.2,61.18,19.01,162.95,13.76,212.68
			c52.28,16.84,80.39,0,80.39,0c49.91-294.28,13.14-396.39-286.45-441.89C416.95,1335.02,394.08,1434.97,467.14,1479.18z"/>
		<path class="st16" d="M623,1776.92c52.28,16.84,80.39,0,80.39,0s0,0,2.37-14.22c0,0-31.72,10.3-80.93-4.01L623,1776.92z"/>
		<path class="st16" d="M738.16,1770.52c52.28,16.84,83.37,3.89,83.37,3.89l1.19-14.28c0,0-25.98,11.45-84.41-3.32L738.16,1770.52z"
			/>
		<path class="st12" d="M492.65,1189.9c-27.11,21.82-88.11,67.95-67.49,104.82c26.28,15,73.25,14.35,108.67,19.39
			c10.21,0.72,11.65,16.14,1.92,18.82c-33.38,9.87-68.06,16.05-103.2,14.22c-15.89-1.15-33.23-4.68-45.39-16.43
			c-16.2-16.21-25.66-40.61-23.95-63.71c4.93-55.56,47.61-98.16,90.03-129.32C488.82,1110.39,528.83,1163.46,492.65,1189.9z"/>
		<path class="st11" d="M501.63,1184.37c-67.04,82.24-75.31,95.04,21.08,128.68c-10.44,12.35-3.34,24.43-3.34,24.43
			c-269.86,79.14-182.13-253.47,9.1-248.77C527.13,1109.63,517.48,1162.48,501.63,1184.37z"/>
		<path class="st12" d="M591.19,1336c0,0-11.32-34.29-58.37-21.93l-9.09,21.96L591.19,1336z"/>
		<path class="st17" d="M588.67,1335.33c-1.39-0.04-12.64-12.04-29.4-13.79c-0.72-0.07-1.25-0.72-1.17-1.44
			C566.17,1314.92,597.01,1335.41,588.67,1335.33z"/>
		<path class="st17" d="M576.01,1335.79c-12.65-4.71-13.8-5.43-23.16-7.22c0.08-0.65,0.32-1.95,0.46-2.58
			c9.82,2.03,9.82,2.03,22.91,7.17C577.78,1333.46,577.59,1335.81,576.01,1335.79z"/>
		<path class="st14" d="M508.41,1340.88c3.7-1.1,7.75-2.43,10.97-3.4c0,0-7.1-12.07,3.34-24.42c0,0-5.21-1.69-12.61-4.3
			C510.1,1308.75,497.33,1325.13,508.41,1340.88z"/>
		<path class="st14" d="M510.35,1311.69c2,0.29-63.26-20.88-62.43-48.48c-0.01-32.25,52.79-79.35,55.03-81.34
			c1.33-1.18,3.24,0.88,1.85,2.1c0.11,0.62-76.55,66.48-47.25,94.81C479.39,1300.16,518.33,1308.63,510.35,1311.69z"/>
		<path class="st14" d="M486.84,1346.48c-1.63,0.04-1.91-2.49-0.27-2.77c11.8-2.31,22.49-6.09,22.6-6.13
			C517.07,1339.65,498.94,1343.93,486.84,1346.48z"/>
		<path class="st14" d="M583.68,1117.42c-11.21,27.19-66.57,10.19-75.28-27.96c0,0,8.69-1.73,20.06-0.75
			c0.01,0,40.03,2.73,40.04,2.74c4.87-0.25,9.3-0.11,13.91,0.18C587.31,1098.31,585.97,1111.88,583.68,1117.42z"/>
		<path class="st12" d="M568.51,1091.45c4.73-21.16,4.66-52.41,3.03-65.46c-2.72-25.65-43.53-20.17-39.54,5.18
			c1.37-0.67,0.64,45.22-3.53,57.53C523.29,1107.25,584.19,1131.6,568.51,1091.45z"/>
		<path class="st17" d="M531.84,1029.07c0.02,0.7,0.07,1.42,0.16,2.11c0.99-0.51,0.91,24.84-1,43.04
			c16.28,9.59,35.65,8.21,39.21,7.87c3.63-23.24,3-44.25,1.01-57.8C566.24,1001.12,531.15,1005.43,531.84,1029.07z"/>
		<path class="st16" d="M682.18,1774.4c-0.13,0-0.25-0.01-0.38-0.03c-1.4-0.21-2.36-1.51-2.15-2.91
			c0.27-1.82,26.92-182.55,0.11-260.76c-13.87-40.47-52.74-71.59-82.91-90.58c-32.84-20.67-62.69-31.79-62.99-31.9
			c-1.33-0.49-2-1.96-1.51-3.29c0.49-1.33,1.96-2,3.29-1.51c0.3,0.11,30.66,11.42,63.95,32.37c30.86,19.42,70.66,51.37,85.02,93.25
			c11.44,33.38,14.93,87.83,10.38,161.86c-3.38,55-10.2,100.86-10.27,101.31C684.52,1773.49,683.43,1774.4,682.18,1774.4z"/>
		<path class="st16" d="M800.09,1771.65c-0.06,0-0.12,0-0.18-0.01c-1.41-0.1-2.48-1.32-2.38-2.73c0.08-1.17,7.81-117.81-6.5-213.94
			c-7.39-49.62-35.64-86.28-58.04-108.29c-24.37-23.95-47.3-36.26-47.53-36.38c-1.25-0.66-1.72-2.21-1.06-3.46
			c0.66-1.25,2.21-1.72,3.46-1.06c0.96,0.51,23.71,12.71,48.6,37.14c23.01,22.58,52.03,60.22,59.63,111.3
			c14.39,96.69,6.62,213.87,6.54,215.04C802.55,1770.62,801.43,1771.65,800.09,1771.65z"/>
		<path class="st18" d="M604.51,1006.75c0,0,2.56-20.58-1.84-35.64l-12.56,4.09L604.51,1006.75z"/>
		<path class="st12" d="M596.32,1066.86c-15.96,12.19-38.07,13.16-54.76,7.01c-5.22-1.84-10.07-4.44-14.22-7.92l-0.01,0
			c-1.4-1.18-2.71-2.43-3.94-3.78l-0.02,0c-56.16-75.26,48.15-170.6,75.39-70.61C608.72,1020.03,630.59,1037.65,596.32,1066.86z"/>
		<path class="st19" d="M575.69,1009.38c0.84-1.2,0.55-2.85-0.65-3.69c-1.2-0.84-2.86-0.55-3.7,0.65c-0.84,1.2-0.55,2.85,0.65,3.69
			C573.19,1010.87,574.84,1010.58,575.69,1009.38z"/>
		<path class="st19" d="M598.31,1008.82c0.84-1.2,0.55-2.85-0.65-3.69c-1.2-0.84-2.86-0.55-3.7,0.65c-0.84,1.2-0.55,2.85,0.65,3.69
			C595.81,1010.31,597.47,1010.02,598.31,1008.82z"/>
		<path class="st19" d="M588.23,1030.58c-1.57-0.04-3.13-0.34-4.39-0.96c-0.5-0.24-0.71-0.84-0.47-1.34c0.24-0.5,0.85-0.7,1.34-0.46
			c3.18,1.54,8.14,0.55,9-0.87c0.3-0.5-0.34-1.13-0.93-1.56c-5.2-3.85-7.46-15.05-7.56-15.52c-0.11-0.54,0.25-1.07,0.79-1.18
			c0.56-0.11,1.07,0.25,1.18,0.79c0.02,0.11,2.2,10.91,6.78,14.3c2.5,1.85,1.84,3.56,1.45,4.22
			C594.4,1029.69,591.3,1030.65,588.23,1030.58z"/>
		<path class="st17" d="M596.64,984.61c-13.18-9.53-40-6.36-52.67-8.26c0,0-0.38,22.08-24.48,34.42
			c-4.68,19.69-9.2,27.93,7.85,55.17l-0.01,0c-1.4-1.18-2.71-2.43-3.94-3.78l-0.02,0C469.2,990.32,566.61,894.62,596.64,984.61z"/>
		<path class="st18" d="M613.55,942.91c-5.89-17.29-28.91-29.49-52.68-12.53c-18.3,13.06-35.7,10.47-37.64,26.69
			c-34.44,10.1-23.43,48.01-23.43,48.01l16.49,0.38c20.65-12.36,23.21-34.47,23.21-34.47l0,0c4.1,0.79,8.48,1.23,12.47,0.79
			c12.37-1.36,30.24-0.33,42.99,6.54C607.71,985.16,620.13,962.22,613.55,942.91z"/>
		<path class="st12" d="M495.63,1017.81c0.57,8.57,6.63,15.15,13.54,14.69c6.91-0.46,12.04-7.78,11.47-16.36
			c-0.57-8.57-6.64-15.15-13.54-14.69C500.19,1001.91,495.06,1009.24,495.63,1017.81z"/>
		<path class="st19" d="M513.11,1009.04c-0.25-0.14-6.06-3.38-9.97-0.67c-1,0.69-1.74,1.71-2.26,3.01c0,0,0,0.01,0,0.01
			c-0.05,0.12-0.11,0.23-0.15,0.35c0,0,0,0,0,0.01c0,0,0,0,0,0c-0.85,2.44-0.95,5.84-0.27,10.19c0.08,0.49,0.49,0.84,0.97,0.85
			c0.06,0,0.12,0,0.18-0.01c0.55-0.09,0.92-0.6,0.84-1.15c-0.55-3.53-0.55-6.34-0.05-8.39c5.59,1.84,7.55,8.66,7.57,8.74
			c0.12,0.44,0.51,0.73,0.95,0.74c0.09,0,0.19-0.01,0.28-0.04c0.54-0.14,0.85-0.69,0.71-1.23c-0.09-0.34-2.2-7.96-8.75-10.15
			c0.32-0.53,0.69-0.98,1.14-1.29c2.87-1.99,7.79,0.74,7.84,0.77c0.49,0.27,1.1,0.1,1.37-0.38
			C513.76,1009.92,513.6,1009.31,513.11,1009.04z"/>
		<path class="st19" d="M582.39,1047.4c-2.8-0.39-4.59-3.67-4.06-7.46c0.53-3.79,3.14-6.46,5.94-6.06c2.8,0.39,4.58,3.67,4.06,7.46
			C587.81,1045.13,585.2,1047.79,582.39,1047.4z M583.99,1035.95c-1.59-0.22-3.23,1.74-3.58,4.28c-0.36,2.54,0.69,4.88,2.27,5.1
			c1.59,0.22,3.23-1.74,3.58-4.28C586.62,1038.5,585.58,1036.17,583.99,1035.95z"/>
		<path class="st19" d="M563.21,1002.04c-0.01,0-0.01,0-0.02,0c-0.57-0.09-0.96-0.62-0.87-1.19c0.02-0.11,1.79-10.63,12-12.82
			c0.56-0.12,1.12,0.24,1.24,0.8c0.12,0.56-0.24,1.12-0.8,1.24c-8.79,1.89-10.32,10.73-10.38,11.11
			C564.29,1001.73,563.77,1002.12,563.21,1002.04z"/>
		<path class="st19" d="M598.49,1000.21c-0.41-0.06-0.76-0.35-0.87-0.77c-2.25-8.59-8.75-9.31-8.82-9.32
			c-0.57-0.06-0.99-0.57-0.94-1.14c0.06-0.57,0.57-0.99,1.14-0.94c0.32,0.03,8.02,0.89,10.64,10.87c0.15,0.56-0.19,1.13-0.75,1.28
			C598.77,1000.22,598.63,1000.22,598.49,1000.21z"/>
	</g>
	<g id="_x39_">
		<rect x="290.58" y="1367.94" class="st7" width="674.57" height="44.22"/>
		<polygon class="st6" points="1014.99,1346.39 236.31,1346.39 236.31,1369.56 278.38,1369.56 278.38,1841.81 302.78,1841.81 
			302.78,1369.56 948.52,1369.56 948.52,1841.81 972.92,1841.81 972.92,1369.56 1014.99,1369.56 		"/>
	</g>
	<g id="_x38__1_">
		
			<rect x="753.33" y="1259.99" transform="matrix(-1 -1.224647e-16 1.224647e-16 -1 1601.1492 2605.8284)" class="st20" width="94.48" height="85.85"/>
		
			<rect x="767.14" y="1259.99" transform="matrix(-1 -1.224647e-16 1.224647e-16 -1 1614.9513 2605.8284)" class="st21" width="80.68" height="85.85"/>
		
			<rect x="767.14" y="1259.99" transform="matrix(-1 -1.224647e-16 1.224647e-16 -1 1614.9513 2571.8232)" class="st20" width="80.68" height="51.85"/>
		
			<rect x="519.38" y="1335.33" transform="matrix(-1 -1.224647e-16 1.224647e-16 -1 1265.3521 2682.2815)" class="st20" width="226.6" height="11.63"/>
		
			<rect x="728.62" y="1335.33" transform="matrix(-1 -1.224647e-16 1.224647e-16 -1 1618.2715 2682.2815)" class="st21" width="161.02" height="11.63"/>
		<polygon class="st21" points="971.22,1302.91 627.71,1302.91 673.81,1051.13 1015.24,1051.13 		"/>
		<polygon class="st20" points="678.98,1051.13 666.69,1051.13 621.66,1302.91 632.07,1302.91 		"/>
	</g>
	<g id="_x37__1_">
		<path class="st22" d="M3519.41,1011.53c-1.92,0.99,23.76,0.79,22.1,2.71c-54.05,46.75-134.69,61.55-194.54,16.01v-0.06
			c-17.81-13.03-35.8-33.99-48.3-55.92l14.69-23.82c116.67,71.96,162.86-50.85,257.74-60.42l-18.99,27.73L3519.41,1011.53z"/>
		<path class="st12" d="M3648.96,1834.23l1.78-0.93c0,1.25,1.54,5.57,2.79,5.57l52.64,1.08c1.25,0,2.01-2.35,2.01-3.59l4.49-1.29
			c0-7.88-0.65-10.74-4.13-16.84c-12.8-17.01,2.48-93.09,2.04-112.97c3.16-5.43-55.44-1.17-56.26-2.45c-1.32,0-2.35,1.12-2.25,2.44
			l6.9,86.93C3662.06,1808.69,3649.4,1818.67,3648.96,1834.23z"/>
		<path class="st12" d="M3420.75,1841.8h104.86c9.15-0.37,9.08-9.7,7.4-16.94c-5.77-26.1,4.43-86.02,6.32-112.85
			c0.5-4.91-3.35-9.19-8.29-9.19h-46.28c-5.02,0-8.9,4.4-8.27,9.37l8.42,67.11c4.57,29.16-30.2,34.71-50.03,37.94
			C3421.82,1818.19,3399.99,1836,3420.75,1841.8z"/>
		<path class="st23" d="M3537,1830.93c-0.28,5.14-2.83,11.01-8.79,10.88c0,0-108.77,0-108.77,0c-25.65-9.52,11.2-43.55,61.42-43.34
			c21.83,5.99,35.97,4.16,50.42,2.38C3531.28,1800.84,3538.42,1809.96,3537,1830.93z"/>
		<path class="st23" d="M3704.33,1841.81h-46.49c-22.66-3.09-6.5-43.12,23.24-43.42
			C3710.97,1798.09,3726.97,1838.75,3704.33,1841.81z"/>
		<path class="st24" d="M3411.83,1830.93H3537c-0.46,3.82-1.52,7.53-3.43,10.88h-114.13
			C3413.82,1841.81,3409.84,1836.18,3411.83,1830.93z"/>
		<path class="st24" d="M3704.33,1841.81h-46.49c-5.91,0.01-10.67-4.98-10.31-10.88h67.11
			C3715,1836.83,3710.24,1841.81,3704.33,1841.81z"/>
		<path class="st25" d="M3556.52,770.38c0,0-0.55-33.99,30.17-40.02l16.11,16.71L3556.52,770.38z"/>
		<path class="st11" d="M3717.91,1782.48c0,0-49.58,12.04-75.13-0.9c-13.3-83.38-50.2-315.53-63.06-474.61
			c-0.49,9.28-27.5,383.39-32.64,474.61c-17.64,5.9-53.1,13.02-72.94-1.27c-8.91-96.03-37.54-412.22,5.58-670.45
			c0,0,118.16,13.14,210.44-14.74C3715.56,1177.03,3722.29,1684.18,3717.91,1782.48z"/>
		<path class="st14" d="M3493.22,1772.34c-12.12-276,15.68-513.38,11.51-516.21C3497.45,1256.72,3469.5,1496.21,3493.22,1772.34z"/>
		<path class="st14" d="M3678.9,1772.34c-4.81-283.61-46.96-552.24-53.32-553.27C3620.81,1222.64,3662.24,1488.18,3678.9,1772.34z"
			/>
		<path class="st12" d="M3570.23,889.1c-2.58-22.49,0.94-54.93,4.08-68.27c5.65-26.33,47.4-16.14,40.46,9.74
			c-1.35-0.85-5.65,46.86-2.68,60.1C3651.26,902.41,3533.44,941.06,3570.23,889.1z"/>
		<path class="st17" d="M3615.17,828.39c-0.1,0.73-0.23,1.46-0.4,2.17c-0.97-0.64-3.69,25.68-3.71,44.78
			c-17.95,8.16-37.96,4.57-41.63,3.82c-0.39-24.2,1.83-46.24,5.38-60.09C3582.09,795.65,3618.88,804.19,3615.17,828.39z"/>
		<path class="st12" d="M3643,818.57c-5.94,17.99-15.52,37.8-32.07,47.67l-0.02,0c-6.72,3.97-14.34,5.9-22.21,6.18
			c-44.2,5.96-87.74-54.21-47.97-84.16c6.56-4.67,12.3-11.45,15.78-17.88C3591.96,702.05,3664.63,755.68,3643,818.57z"/>
		<path class="st26" d="M3550.74,825.67l26.2-8.48C3577.08,832.03,3559.58,839.18,3550.74,825.67z"/>
		<path class="st27" d="M3493.54,984.2l-18.2,66.77c-38.98,11.98-80.53,9.26-117.19-13.23c40.3,22.76,95.68,9.93,104.42-3.44
			C3471.77,1020.13,3492.28,986.25,3493.54,984.2z"/>
		<path class="st22" d="M3707.36,1206.61c-4.22,5.13-8.72,10.27-13.49,15.44c0,0-23.22,4.37-41.4-19.82
			c74.14-157.17-69-171.84-40.39-311.58C3707.72,901.95,3840.76,1044.68,3707.36,1206.61z"/>
		<path class="st19" d="M3574.37,795.85c-1.17-3.48,4.32-5.24,5.39-1.73C3580.93,797.6,3575.44,799.37,3574.37,795.85z"/>
		<path class="st19" d="M3551.5,788.13c-1.17-3.48,4.32-5.24,5.39-1.73C3558.07,789.88,3552.58,791.64,3551.5,788.13z"/>
		<path class="st17" d="M3643,818.57c-5.94,17.99-15.52,37.8-32.07,47.67l-0.02,0c-1.37,0.81-2.79,1.54-4.24,2.18
			c12.87-9.23,23.1-31.83,23.1-31.83l0.61-20.43c-15-21.03-4-40.21-4-40.21c-31.31,3.59-38.44-16.52-38.44-16.52
			c-9.67-0.3-18.9-6.95-18.9-6.95C3609.47,708.26,3661.68,771.25,3643,818.57z"/>
		<path class="st19" d="M3550.74,826.75c0.59-0.67,28.57-7.82,27.22-9.88c0.54-2.61-27.02,8.16-27.55,7.79
			C3549.26,824.99,3549.56,826.79,3550.74,826.75z"/>
		<path class="st19" d="M3558.31,814.02c1.84,0.57,3.41-2,1.02-2.22c-3.77,0.71-12-3.17-7.45-5.03
			c6.51-2.22,16.67-17.13,10.73-14.46c-0.06,0.1-5.7,10.43-11.44,12.44C3543.31,808.64,3552.87,814.03,3558.31,814.02z"/>
		<path class="st27" d="M3707.36,1206.61c-4.22,5.13-8.72,10.27-13.49,15.44c0,0-23.64,3.31-41.82-20.88
			c2.67-6.49,5.62-10.7,7.9-17.15C3659.95,1184.03,3673.99,1199.75,3707.36,1206.61z"/>
		<path class="st14" d="M3695.54,1225.16c5.01,1.5,10.27-4.42,3.47-6.14c-36.79,1.61-46.6-22.68-47-23.72
			C3636.07,1186.33,3655.67,1227.37,3695.54,1225.16z"/>
		<path class="st28" d="M3462.55,1220.87c0,0,7.22,30.96,64.97,46.23c16.54,4.37,26.1,2.21,28.53-9.26
			c1.22-5.76,4.36-15.78,10.14-19.5c0,0,12.92,5.58,17.8,13.5c10.69,17.36,26.8,1.59,34.64-16.58c9.7-22.47,37.93-43.8,43.3-62.65
			L3462.55,1220.87z"/>
		<path class="st22" d="M3697.9,1182.6c-1.88,3.33-3,2.8-4.93,0.87c-51.88-38.75-70.46,45.92-126.37,47.43
			c-56.91,5.63-88.57,8.85-104.07-10.04c-27.06-41.94,15.98-229.45,50.8-274.85c15.25-23.61,42.31-44.65,56.87-56.9
			c-0.3,1.23-8.05,33.47,41.88,1.54c2.51,1.06,18.34,16.5,17.34,24.77C3631.97,953.39,3722.04,1139.95,3697.9,1182.6z"/>
		<path class="st25" d="M3553.81,721.94c0,0,14.64-4.03,29.64,1.86c1.72-5.69,5.23-10.94,10.92-15.1
			c2.45,6.92,5.92,13.56,9.89,19.75c1.36-13,9.37-23.55,9.37-23.55c2.14,12.46,19.36,21.42,27.48,34.9c0,0,45.92,15.75,13.14,56.06
			l0,0c-1.35,14.92-8.63,30.01-8.63,30.01c-24.1-22.02-18.91-48.47-7.96-55.35c-19.64,6.97-37.14-1.29-47.02-14.33
			C3576.04,753.77,3558.17,745.82,3553.81,721.94z"/>
		<path class="st27" d="M3667.87,1194.52l-11.38-2.36c45.48-102.38-8.01-145.67-36.3-203.35
			C3685.8,1064.73,3695.73,1106.35,3667.87,1194.52z"/>
		<path class="st12" d="M3653.24,829.78c-7.53,20.22-32.93,10.43-24.95-9.61C3635.82,799.96,3661.22,809.74,3653.24,829.78z"/>
		<path class="st19" d="M3646.05,833.07c4.64-4.86,4.64-13.02,2.52-15.29c-3.86-3.96-11.17-3.49-11.18-1.19
			c0.98,2.32,5.95-1.48,9.5,2.52C3650.72,822.11,3643.06,831.83,3646.05,833.07z"/>
		<path class="st19" d="M3636.41,830c1.64-0.11,4.3-7.54,12.39-7.05c0.58,0.07,1.11-0.38,1.17-0.97
			C3644.69,816.63,3631.63,830.1,3636.41,830z"/>
		<path class="st28" d="M3627.44,893.4c0.27,19.05-48.6,35.86-51.37,35.89l-5.86-17.33c-7.52,1.86-14.14,12.38-14.14,12.38
			c-21.68-20.65-1.29-38.65,14.14-35.25c0,0,0,0.01-0.01,0.02c-0.3,1.23-3.71,29.49,41.69,0.56
			C3617.75,886.97,3627.44,893.4,3627.44,893.4z"/>
		<path class="st14" d="M3547.09,1781.58c0.04-0.07-6.4,2.37-15.31,4.08c0,0,24.91-371.26,28.62-420.81
			c3.71-49.55,19.32-57.88,19.32-57.88S3546.68,1773.57,3547.09,1781.58z"/>
		<path class="st14" d="M3548.07,1763.58c-0.67,10.71-1.03,17.11-0.98,18c-17.64,5.9-53.1,13.02-72.94-1.27
			c0,0-0.63-5.88-1.66-16.73C3472.49,1763.58,3507.25,1779.57,3548.07,1763.58z"/>
		<path class="st14" d="M3717.91,1782.48c0,0-49.58,12.04-75.13-0.9c0,0-1.06-6.45-2.9-18c0,0,34.95,8.77,78.65-1.02
			C3718.73,1773.82,3717.76,1781.55,3717.91,1782.48z"/>
		<path class="st27" d="M3326.24,957.77c-0.07,15.22-20.76,27.49-20.76,27.49c-2.32-3.51-4.63-7.21-6.82-10.99l14.69-23.82
			L3326.24,957.77z"/>
		<path class="st12" d="M3291.78,907.62c-5.69,3.66,3.64,14.91,2.93,21.04c-9.43-4.3-17.69-11.35-17.76-11.34
			c-8.08-9.97-15.61-20.36-22.68-31.09c-17.42-7.98,10.21,31.46,12.29,36.32c-0.05,0.04-0.09,0.09-0.14,0.13
			c-10.46-8.44-20.47-17.48-29.66-27.29c-19.6-4.09,19.91,31.96,23.5,36.25c-0.01,0.03-0.03,0.06-0.04,0.09
			c-11.18-6.28-21.6-13.93-31.07-22.58c-20.1-2.36,22.83,31.16,27.6,34.17c-0.01,0.05-0.02,0.1-0.03,0.15
			c-8.51-1.13-26.01-16.86-31.63-13.06c-5.33,8.63,52.15,39.58,72.29,43.47c7.25,1.99,17.71-16.23,15.93-23.4
			c-1.66-6.72-6.3-14.94-7.89-17.95C3302.93,925.51,3300.12,908.17,3291.78,907.62z"/>
		<path class="st6" d="M3346.9,1030.06c0.6,0.46,1.19,0.93,1.79,1.46c-0.59-0.46-1.12-0.86-1.72-1.26v-0.06
			C3346.9,1030.12,3346.9,1030.06,3346.9,1030.06z"/>
		<path class="st19" d="M3589.68,795.13c-0.55,0-1.05-0.37-1.19-0.93c-0.08-0.32-2.15-7.79-13.56-11.68
			c-0.64-0.22-0.99-0.92-0.77-1.56c0.22-0.64,0.92-0.99,1.56-0.77c12.75,4.35,15.06,13.04,15.15,13.41
			c0.16,0.66-0.24,1.32-0.89,1.49C3589.88,795.12,3589.78,795.13,3589.68,795.13z"/>
		<path class="st19" d="M3552.75,779.24c-0.35,0-0.69-0.15-0.94-0.43c-0.44-0.52-0.38-1.29,0.14-1.73
			c6.13-5.21,14.52-1.03,14.87-0.86c0.6,0.31,0.84,1.04,0.54,1.65c-0.31,0.6-1.04,0.85-1.65,0.54c-0.07-0.04-7.3-3.61-12.17,0.54
			C3553.32,779.14,3553.04,779.24,3552.75,779.24z"/>
	</g>
	<g id="_x36__1_">
		
			<rect x="2503.63" y="43.75" transform="matrix(-1.836970e-16 1 -1 -1.836970e-16 3316.1028 -2245.437)" class="st3" width="554.28" height="983.17"/>
		<rect x="2309.19" y="278.19" class="st9" width="943.17" height="514.28"/>
		<path class="st23" d="M2680.36,471.91c0,9.02-1.16,17.78-3.36,26.12c-6.68-1.36-13.6-2.08-20.67-2.08
			c-30.34,0-57.63,13.14-76.44,34.06c-18.81-20.92-46.1-34.06-76.44-34.06c-8.66,0-17.05,1.07-25.08,3.09
			c-2.37-8.64-3.62-17.74-3.62-27.13c0-56.78,46.02-102.81,102.8-102.81C2634.34,369.1,2680.36,415.13,2680.36,471.91z"/>
		<path class="st25" d="M2579.89,530.01c-10.8,11.99-18.81,26.54-23.01,42.63c-38.01-7.75-68.39-36.5-78.51-73.61
			c8.03-2.01,16.42-3.09,25.08-3.09C2533.79,495.95,2561.08,509.09,2579.89,530.01z"/>
		<path class="st29" d="M2579.89,667.51c-18.83,20.91-46.1,34.06-76.44,34.06c-56.78,0-102.8-46.03-102.8-102.81
			c0-48.13,33.06-88.52,77.73-99.72c10.12,37.1,40.5,65.85,78.51,73.61c-2.2,8.34-3.36,17.09-3.36,26.11
			C2553.52,625.18,2563.49,649.29,2579.89,667.51z"/>
		<path class="st30" d="M2602.64,571.64c-8.03,2.01-16.43,3.09-25.09,3.09c-7.07,0-13.99-0.72-20.67-2.08
			c4.2-16.09,12.21-30.65,23.01-42.63C2590.47,541.75,2598.36,555.95,2602.64,571.64z"/>
		<path class="st31" d="M2677,498.03c-9.45,36.14-38.08,64.51-74.37,73.61c-4.28-15.69-12.17-29.89-22.75-41.63
			c18.81-20.92,46.1-34.06,76.44-34.06C2663.41,495.95,2670.32,496.67,2677,498.03z"/>
		<path class="st11" d="M2606.26,598.76c0,26.42-9.98,50.53-26.37,68.76c-16.39-18.23-26.37-42.33-26.37-68.76
			c0-9.02,1.16-17.77,3.36-26.11c6.68,1.36,13.6,2.08,20.67,2.08c8.65,0,17.06-1.07,25.09-3.09
			C2605,580.27,2606.26,589.37,2606.26,598.76z"/>
		<path class="st32" d="M2759.15,598.76c0,56.78-46.03,102.81-102.81,102.81c-30.34,0-57.62-13.15-76.44-34.06
			c16.39-18.23,26.37-42.33,26.37-68.76c0-9.39-1.26-18.49-3.62-27.12c36.28-9.1,64.91-37.47,74.37-73.61
			C2723.87,507.6,2759.15,549.05,2759.15,598.76z"/>
		<path class="st33" d="M3160.9,373.02h-184.26c-2.17,0-3.92-1.76-3.92-3.92c0-2.17,1.76-3.92,3.92-3.92h184.26
			c2.17,0,3.92,1.76,3.92,3.92C3164.82,371.26,3163.06,373.02,3160.9,373.02z"/>
		<path class="st33" d="M2939.58,373.02h-101.14c-2.17,0-3.92-1.76-3.92-3.92c0-2.17,1.76-3.92,3.92-3.92h101.14
			c2.17,0,3.92,1.76,3.92,3.92C2943.5,371.26,2941.75,373.02,2939.58,373.02z"/>
		<path class="st33" d="M3160.9,409.96h-322.46c-2.17,0-3.92-1.76-3.92-3.92c0-2.17,1.76-3.92,3.92-3.92h322.46
			c2.17,0,3.92,1.76,3.92,3.92C3164.82,408.2,3163.06,409.96,3160.9,409.96z"/>
		<path class="st33" d="M3160.9,705.49h-322.46c-2.17,0-3.92-1.76-3.92-3.92s1.76-3.92,3.92-3.92h322.46c2.17,0,3.92,1.76,3.92,3.92
			S3163.06,705.49,3160.9,705.49z"/>
		<path class="st33" d="M3160.9,668.55h-242.34c-2.17,0-3.92-1.76-3.92-3.92c0-2.17,1.76-3.92,3.92-3.92h242.34
			c2.17,0,3.92,1.76,3.92,3.92C3164.82,666.79,3163.06,668.55,3160.9,668.55z"/>
		<path class="st33" d="M2888.51,668.55h-50.07c-2.17,0-3.92-1.76-3.92-3.92c0-2.17,1.76-3.92,3.92-3.92h50.07
			c2.17,0,3.92,1.76,3.92,3.92C2892.43,666.79,2890.68,668.55,2888.51,668.55z"/>
		<path class="st33" d="M3160.9,631.61h-322.46c-2.17,0-3.92-1.76-3.92-3.92s1.76-3.92,3.92-3.92h322.46c2.17,0,3.92,1.76,3.92,3.92
			S3163.06,631.61,3160.9,631.61z"/>
		<path class="st33" d="M3160.9,594.67h-145.21c-2.17,0-3.92-1.76-3.92-3.92c0-2.17,1.76-3.92,3.92-3.92h145.21
			c2.17,0,3.92,1.76,3.92,3.92C3164.82,592.91,3163.06,594.67,3160.9,594.67z"/>
		<path class="st33" d="M2978.64,594.67h-140.2c-2.17,0-3.92-1.76-3.92-3.92c0-2.17,1.76-3.92,3.92-3.92h140.2
			c2.17,0,3.92,1.76,3.92,3.92C2982.56,592.91,2980.8,594.67,2978.64,594.67z"/>
		<path class="st33" d="M3160.9,557.73h-322.46c-2.17,0-3.92-1.76-3.92-3.92s1.76-3.92,3.92-3.92h322.46c2.17,0,3.92,1.76,3.92,3.92
			S3163.06,557.73,3160.9,557.73z"/>
		<path class="st33" d="M3160.9,520.78h-322.46c-2.17,0-3.92-1.76-3.92-3.92s1.76-3.92,3.92-3.92h322.46c2.17,0,3.92,1.76,3.92,3.92
			S3163.06,520.78,3160.9,520.78z"/>
		<path class="st33" d="M3160.9,483.84h-87.12c-2.17,0-3.92-1.76-3.92-3.92c0-2.17,1.76-3.92,3.92-3.92h87.12
			c2.17,0,3.92,1.76,3.92,3.92C3164.82,482.09,3163.06,483.84,3160.9,483.84z"/>
		<path class="st33" d="M3038.72,483.84h-85.12c-2.17,0-3.92-1.76-3.92-3.92c0-2.17,1.76-3.92,3.92-3.92h85.12
			c2.17,0,3.92,1.76,3.92,3.92C3042.65,482.09,3040.89,483.84,3038.72,483.84z"/>
		<path class="st33" d="M2912.54,483.84h-74.1c-2.17,0-3.92-1.76-3.92-3.92c0-2.17,1.76-3.92,3.92-3.92h74.1
			c2.17,0,3.92,1.76,3.92,3.92C2916.47,482.09,2914.71,483.84,2912.54,483.84z"/>
		<path class="st33" d="M3160.9,446.9h-322.46c-2.17,0-3.92-1.76-3.92-3.92c0-2.17,1.76-3.92,3.92-3.92h322.46
			c2.17,0,3.92,1.76,3.92,3.92C3164.82,445.14,3163.06,446.9,3160.9,446.9z"/>
	</g>
	<g id="_x35__1_">
		
			<rect x="1331.3" y="258.19" transform="matrix(-1.836970e-16 1 -1 -1.836970e-16 2143.7734 -1073.1073)" class="st3" width="554.28" height="554.28"/>
		<rect x="1351.3" y="278.19" class="st9" width="514.28" height="514.28"/>
		<rect x="1397.12" y="319.64" class="st34" width="65.36" height="65.36"/>
		<rect x="1488.62" y="319.64" class="st35" width="65.36" height="65.36"/>
		<rect x="1580.13" y="319.64" class="st36" width="65.36" height="65.36"/>
		<rect x="1684.72" y="337.8" class="st23" width="129.82" height="29.03"/>
		<rect x="1684.72" y="429.31" class="st23" width="129.82" height="29.03"/>
		<rect x="1684.72" y="520.82" class="st23" width="129.82" height="29.03"/>
		<rect x="1684.72" y="612.33" class="st23" width="129.82" height="29.03"/>
		<rect x="1684.72" y="703.83" class="st23" width="129.82" height="29.03"/>
		<rect x="1397.12" y="411.14" class="st37" width="65.36" height="65.36"/>
		<rect x="1488.62" y="411.14" class="st38" width="65.36" height="65.36"/>
		<rect x="1580.13" y="411.14" class="st39" width="65.36" height="65.36"/>
		<rect x="1397.12" y="502.65" class="st40" width="65.36" height="65.36"/>
		<rect x="1488.62" y="502.65" class="st41" width="65.36" height="65.36"/>
		<rect x="1580.13" y="502.65" class="st42" width="65.36" height="65.36"/>
		<rect x="1397.12" y="594.16" class="st43" width="65.36" height="65.36"/>
		<rect x="1488.62" y="594.16" class="st11" width="65.36" height="65.36"/>
		<rect x="1580.13" y="594.16" class="st32" width="65.36" height="65.36"/>
		<rect x="1397.12" y="685.67" class="st44" width="65.36" height="65.36"/>
		<rect x="1488.62" y="685.67" class="st14" width="65.36" height="65.36"/>
		<rect x="1580.13" y="685.67" class="st45" width="65.36" height="65.36"/>
	</g>
	<g id="_x34__1_">
		<path class="st4" d="M942.59,574.73c-2.13,124.58-187.43,124.56-189.54,0C755.17,450.15,940.48,450.17,942.59,574.73z"/>
		<path class="st46" d="M928.53,574.73c-1.81,106.1-159.64,106.08-161.43,0C768.91,468.62,926.73,468.64,928.53,574.73z"/>
		<path class="st4" d="M847.82,578.7c-0.12,2.84-30.1-28.86-30.57-28.92c-1.55-1.55-1.55-4.07,0-5.63c1.55-1.55,4.07-1.55,5.63,0
			l20.96,20.96v-48.91c0-2.2,1.78-3.98,3.98-3.98c2.2,0,3.98,1.78,3.98,3.98v58.52C851.83,576.87,849.96,578.74,847.82,578.7z"/>
	</g>
	<g id="_x33_">
		<polygon class="st11" points="1141.77,1841.81 1074.97,1841.81 1059.47,1593.65 1045.62,1372.21 1098.99,1368.88 1112.14,1368.05 
			1112.16,1368.05 1121.9,1523.98 1121.9,1524 1126.25,1593.65 1135.21,1736.76 1135.21,1736.77 1135.94,1748.58 1135.94,1748.59 
			1138.04,1782.27 1138.32,1786.61 1140.92,1828.29 		"/>
		<polygon class="st47" points="1141.77,1841.81 1122.21,1841.81 1121.01,1822.52 1120.28,1810.7 1119.13,1792.24 1119.13,1792.22 
			1118.6,1783.67 1108.17,1615.73 1108.17,1615.69 1106.8,1593.65 1093.44,1378.67 1098.99,1368.88 1112.14,1368.05 
			1112.16,1368.05 1121.9,1523.98 1121.9,1524 1126.25,1593.65 1135.21,1736.76 1135.21,1736.77 1135.94,1748.58 1135.94,1748.59 
			1138.04,1782.27 1138.32,1786.61 1140.92,1828.29 		"/>
		<path class="st14" d="M1112.15,1368.05c0.36,5.72-14.24,11.3-32.62,12.44c-18.37,1.15-33.55-2.56-33.91-8.29
			c-0.36-5.72,14.24-11.3,32.62-12.44C1096.61,1358.62,1111.79,1362.33,1112.15,1368.05z"/>
		<polygon class="st15" points="1149.73,1788.32 1130.41,1785.43 1083.8,1778.46 1160.02,1269.37 1212.9,1277.28 1225.94,1279.24 		
			"/>
		<polygon class="st48" points="1149.73,1788.32 1130.41,1785.43 1205.42,1285.7 1212.9,1277.28 1225.94,1279.24 		"/>
		
			<ellipse transform="matrix(0.148 -0.989 0.989 0.148 -243.8983 2265.4746)" class="st16" cx="1192.98" cy="1274.3" rx="10.38" ry="33.33"/>
		<polygon class="st25" points="1175.2,1838.22 1156.44,1832.79 1111.17,1819.67 1254.46,1325.25 1305.81,1340.13 1318.48,1343.81 
					"/>
		<polygon class="st49" points="1175.2,1838.22 1156.44,1832.79 1297.28,1347.48 1305.81,1340.13 1318.48,1343.81 		"/>
		<path class="st44" d="M1318.48,1343.81c-1.6,5.51-17.22,5.82-34.9,0.7c-17.68-5.12-30.72-13.74-29.12-19.25
			c1.6-5.51,17.22-5.82,34.9-0.7S1320.08,1338.3,1318.48,1343.81z"/>
		<polygon class="st50" points="1434.85,1432.93 1334.47,1593.65 1179.46,1841.81 1117.79,1841.81 1105.61,1834.2 1114.14,1820.54 
			1120.28,1810.7 1135.59,1786.2 1138.04,1782.27 1150.62,1762.13 1154.61,1755.75 1199.78,1683.43 1199.79,1683.41 1237.6,1622.88 
			1255.87,1593.65 1378.32,1397.61 1423.67,1425.93 		"/>
		<polygon class="st51" points="1434.85,1432.93 1334.47,1593.65 1179.46,1841.81 1156.44,1841.81 1161.21,1834.17 1189.46,1788.97 
			1311.58,1593.65 1413.46,1430.68 1423.67,1425.93 		"/>
		
			<ellipse transform="matrix(0.5298 -0.8481 0.8481 0.5298 -538.9274 1858.4786)" class="st29" cx="1406.59" cy="1415.27" rx="10.39" ry="33.33"/>
		<rect x="1032.46" y="1593.65" class="st13" width="362.48" height="248.16"/>
		<rect x="1032.46" y="1593.65" class="st52" width="118.16" height="248.16"/>
		<polygon class="st52" points="1150.63,1593.65 1117.9,1560.95 1000.46,1561.68 1032.46,1593.65 		"/>
		<polygon class="st13" points="1394.93,1593.65 1428.01,1560.6 1183.17,1561.14 1150.63,1593.65 		"/>
		<rect x="1073.6" y="1770.05" class="st13" width="35.97" height="71.75"/>
		<rect x="1271.33" y="1770.05" class="st52" width="35.97" height="71.75"/>
	</g>
	<g id="_x32__1_">
		<polygon class="st6" points="2330.09,1841.81 2175.17,1841.81 2175.17,1139.49 2330.09,1242.77 		"/>
		<rect x="2330.09" y="1242.77" class="st7" width="1033.31" height="599.03"/>
		<path class="st8" d="M3296.88,1414.91h-900.27c-9.98,0-18.07-8.09-18.07-18.07l0,0c0-9.98,8.09-18.07,18.07-18.07h900.27
			c9.98,0,18.07,8.09,18.07,18.07l0,0C3314.96,1406.82,3306.87,1414.91,3296.88,1414.91z"/>
		<path class="st9" d="M3344.58,1760.59h-756.9l-4.58-3.46c-0.9-0.68-22.29-17-40.72-46.81c-24.51-39.65-32.57-84.86-23.31-130.74
			c8.82-43.7,4.49-82.39-12.89-114.99c-12.66-23.76-28.09-35.61-29.01-36.31l-44.86-31.19l54.87,0.13h757.44l4.8,4.06
			c0.83,0.7,20.56,17.59,38.08,47.95c23.18,40.17,31.95,85.6,25.36,131.38c-5.55,38.57,0.05,75.54,16.64,109.88
			c12.55,25.98,27.04,40.66,27.19,40.81l29.69,29.34L3344.58,1760.59z"/>
		<path class="st33" d="M3295.88,1578.16c14.76-102.57-73.81-180.95-73.81-180.95l-763.69-0.2c0,0,106.5,42.29,77.49,185.97
			c-20.51,101.58,57.55,160.47,57.55,160.47h751.15C3344.58,1743.44,3281.13,1680.74,3295.88,1578.16z"/>
		<polygon class="st6" points="2175.17,1139.49 2330.09,1242.77 3363.4,1242.77 3208.48,1139.49 		"/>
		<path class="st9" d="M3196.03,1429.78h-420.56c-1.93,0-3.5-1.57-3.5-3.5s1.57-3.5,3.5-3.5h420.56c1.93,0,3.5,1.57,3.5,3.5
			S3197.96,1429.78,3196.03,1429.78z"/>
		<path class="st9" d="M3242.76,1483.24h-430.47c-1.93,0-3.5-1.57-3.5-3.5s1.57-3.5,3.5-3.5h430.47c1.93,0,3.5,1.57,3.5,3.5
			S3244.69,1483.24,3242.76,1483.24z"/>
		<path class="st9" d="M3258.08,1536.7h-449.62c-1.93,0-3.5-1.57-3.5-3.5s1.57-3.5,3.5-3.5h449.62c1.93,0,3.5,1.57,3.5,3.5
			S3260.01,1536.7,3258.08,1536.7z"/>
		<path class="st9" d="M3252.71,1590.17H2580.2c-1.93,0-3.5-1.57-3.5-3.5s1.57-3.5,3.5-3.5h672.51c1.93,0,3.5,1.57,3.5,3.5
			S3254.65,1590.17,3252.71,1590.17z"/>
		<path class="st9" d="M3247.35,1643.63h-671.75c-1.93,0-3.5-1.57-3.5-3.5s1.57-3.5,3.5-3.5h671.75c1.93,0,3.5,1.57,3.5,3.5
			S3249.28,1643.63,3247.35,1643.63z"/>
		<path class="st9" d="M3271.86,1697.1h-668.68c-1.93,0-3.5-1.57-3.5-3.5s1.57-3.5,3.5-3.5h668.68c1.93,0,3.5,1.57,3.5,3.5
			S3273.79,1697.1,3271.86,1697.1z"/>
		<path class="st8" d="M2680.25,1280.92h-20.5c-10.71,0-20.18-6.96-23.38-17.19l-35.94-115.02c-4.93-15.77,6.85-31.8,23.38-31.8
			l16.46,0.34C2650.98,1117.25,2696.77,1280.92,2680.25,1280.92z"/>
		<path class="st6" d="M3069.69,1280.92h-389.43c-10.71,0-20.18-6.96-23.38-17.19l-35.94-115.02c-4.93-15.77,6.85-31.8,23.38-31.8
			h389.43c10.71,0,20.18,6.96,23.38,17.19l35.94,115.02C3097.99,1264.89,3086.21,1280.92,3069.69,1280.92z"/>
		<path class="st9" d="M2822.99,1258.12h-125.49c-8.87,0-16.71-5.77-19.35-14.24l-25.22-81.01c-4.06-13.05,5.69-26.29,19.35-26.29
			h125.49c8.87,0,16.71,5.77,19.35,14.24l25.22,81.01C2846.4,1244.88,2836.66,1258.12,2822.99,1258.12z"/>
		<path class="st8" d="M2857.53,1164.96h-20.71c-1.46,0-2.76-0.95-3.19-2.35l-4.16-13.37c-0.67-2.15,0.94-4.34,3.19-4.34h20.71
			c1.46,0,2.76,0.95,3.19,2.35l4.16,13.37C2861.4,1162.78,2859.79,1164.96,2857.53,1164.96z"/>
		<path class="st8" d="M2879.94,1242.09h-20.71c-1.46,0-2.76-0.95-3.19-2.35l-4.16-13.37c-0.67-2.15,0.94-4.34,3.19-4.34h20.71
			c1.46,0,2.76,0.95,3.19,2.35l4.16,13.37C2883.8,1239.9,2882.2,1242.09,2879.94,1242.09z"/>
		<path class="st8" d="M2868.23,1203.1h-20.71c-1.46,0-2.76-0.95-3.19-2.35l-4.16-13.37c-0.67-2.15,0.94-4.34,3.19-4.34h20.71
			c1.46,0,2.76,0.95,3.19,2.35l4.16,13.37C2872.09,1200.92,2870.48,1203.1,2868.23,1203.1z"/>
		<path class="st9" d="M3040.04,1258.12h-125.49c-8.87,0-16.71-5.77-19.35-14.24l-25.22-81.01c-4.06-13.05,5.69-26.29,19.35-26.29
			h125.49c8.87,0,16.71,5.77,19.35,14.24l25.22,81.01C3063.45,1244.88,3053.7,1258.12,3040.04,1258.12z"/>
		<path class="st9" d="M2560.92,1426.07c0,0,22.89,11.56,38.38,41.57c15.49,30.01,0,65.57,0,65.57h155.54
			c0,0,36.77-65.57-29.88-108.3L2560.92,1426.07z"/>
	</g>
	<g id="_x31_">
		<path class="st12" d="M2159.49,1085.2c-50.7,118.55-187.47,168.1-308.84,146.09c-14.2-2.1-15.12-23.6-1.37-27.03
			c110.53-26.43,183.18-46.06,240.18-151.95C2111.18,1006.59,2180.79,1039.32,2159.49,1085.2z"/>
		<path class="st25" d="M2127.48,1098.4c-2.76,15.44-7.09,30.87-12.86,45.59c-13.51,34.41-34.88,64.95-62.45,82.69
			c-0.01,0.01-0.01,0.01-0.03,0.03c-0.01,0.01-0.01,0.01-0.01,0.01c-10.09,6.48-21.01,11.27-32.69,13.9
			c-13.62,3.09-28.28,3.23-43.82-0.25v-0.01c-7.67-3.61-11.35-8.15-11.35-8.15c6.54-33.4-15.53-56.32-15.53-56.32
			c12.12-27.9,39.76-33.56,75.59-64.77c29.14-25.38,32.92-94.83,93.49-102.97c0.17-0.03,0.35-0.05,0.54-0.08
			C2118.35,1008.07,2137.37,1043.03,2127.48,1098.4z"/>
		<path class="st44" d="M1958.53,1160.67c36.52,47.77,17.08,79.69,17.08,79.69c-7.68-3.61-11.35-8.15-11.35-8.15
			c6.54-33.41-15.53-56.33-15.53-56.33C1950.28,1170.03,1954.88,1164.79,1958.53,1160.67z"/>
		<path class="st12" d="M1829.34,1206.75c-15.18,1.39-29.96,6.47-42.53,15.07c-4.05,3.89-15.68,9.02-11.29,15.58
			c1.47,1.44,3.74,1.57,5.34,0.39c13.53-10.59,31.32-15.14,48.31-14.23C1841.24,1224.97,1841.45,1205.56,1829.34,1206.75z"/>
		<path class="st12" d="M1858.96,1230.77c0,0-15.66,16.63-33.51,15.32c-17.86-1.31-24.23-18.86-24.23-18.86
			S1840.47,1205.71,1858.96,1230.77z"/>
		<path class="st12" d="M1843.98,1203.92c0,0-27.14,8.61-40.79,26.6l43.21-9.28L1843.98,1203.92z"/>
		<path class="st12" d="M1801.75,1205.54c1.36,1.82,3.43,3,5.65,3.48c10.62,2.29,22.23,3.91,31.15,10.01
			c12.35,7.71,23.92-11.6,10.03-15.03C1843.34,1201.08,1793.49,1194.46,1801.75,1205.54z"/>
		<path class="st17" d="M1817.84,1228.94c0.02-0.14,0-0.29-0.05-0.43c-0.18-0.45-0.68-0.67-1.13-0.49
			c-9.05,3.56-9.74,8.41-9.73,8.55c-0.06,0.48,0.29,0.91,0.76,0.97c0.47,0.05,0.9-0.28,0.96-0.75c0.01-0.09,0.72-4.03,8.64-7.14
			C1817.6,1229.53,1817.8,1229.25,1817.84,1228.94z"/>
		<path class="st17" d="M1824.35,1236.48c0.02-0.15,0-0.31-0.07-0.46c-0.19-0.44-0.71-0.63-1.15-0.44
			c-6.39,2.87-7.73,6.46-7.78,6.61c-0.16,0.45,0.07,0.95,0.53,1.11c0.45,0.16,0.94-0.07,1.11-0.52c0.03-0.07,1.26-3.1,6.85-5.62
			C1824.13,1237.04,1824.31,1236.77,1824.35,1236.48z"/>
		<path class="st12" d="M2291.81,1840.33l89.02-45.12c-2.74-4.38-13.7-13.82-19.45-33.37c-31.05-105.6-80.25-207.16-87.9-223.49
			l-82.49,17.07l129.74,215.08c4.96,7.35,3.99,17.18-2.28,23.46c-13.27,14.41-32.45,20.79-37.6,38.3
			C2279.79,1838.42,2286.23,1843.15,2291.81,1840.33z"/>
		<path class="st11" d="M2379.18,1785.21c1.17,3.21,1.82,6.57,1.65,9.99l-90.38,45.81c-4.39,2.23-9.77-0.48-10.41-5.37
			c-1.48-11.42,3.31-31.52,43.87-54.82c0,0,16.31-2.97,37.48-19C2361.37,1761.84,2374.46,1772.18,2379.18,1785.21z"/>
		<path class="st13" d="M2305.01,1818.98c-0.72,0.35-1.61,0.26-2.25-0.3c-7.45-6.49-14.69-5.96-15-5.94
			c-2.63,0.27-3.02-3.88-0.38-4.09c0.37-0.04,9.23-0.77,18.07,6.93C2306.57,1816.51,2306.31,1818.37,2305.01,1818.98z"/>
		<path class="st13" d="M2318.37,1810.05c-0.78,0.38-1.74,0.24-2.38-0.42c-7.68-7.93-18.19-8.17-18.29-8.17
			c-8.59-6.38,11.84-5.24,21.24,5.32C2319.92,1807.74,2319.61,1809.47,2318.37,1810.05z"/>
		<path class="st13" d="M2333.56,1799.85c-0.75,0.37-1.69,0.25-2.32-0.37c-8.4-8.09-19.01-9.44-19.11-9.45
			c-7.83-7.28,12.03-3.71,21.96,6.49C2335.11,1797.48,2334.82,1799.26,2333.56,1799.85z"/>
		<path class="st14" d="M2280.01,1835.48l99.17-50.27c1.17,3.21,1.82,6.57,1.65,9.99l-90.38,45.81
			C2285.99,1843.28,2280.54,1840.44,2280.01,1835.48z"/>
		<path class="st12" d="M2008.79,1838.24l101.26-0.28c1.7-5.33-3.98-29.71-2.38-38.55c34.05-187.98,29.21-254.68,29.79-262.12
			l-96.65-7.47l26.67,259.06c1.13,8.8-4.15,17.14-12.57,19.93c-18.76,7.4-41.69,3.38-52.37,19.91
			C2000.4,1833.14,2003.87,1838.26,2008.79,1838.24z"/>
		<path class="st11" d="M2113.07,1828.29c-0.4,3.39-1.33,6.69-3.02,9.67l-101.32,0.28c-4.93,0.01-8.51-4.82-6.89-9.48
			c3.81-10.87,17.12-26.67,63.81-29.24c0,0,15.9,4.68,42.01-0.12C2107.67,1799.41,2114.71,1814.53,2113.07,1828.29z"/>
		<path class="st13" d="M2030.35,1824.62c-3.4-8.26-11.02-13.28-11.3-12.84c-2.47-0.94-0.96-4.82,1.5-3.82
			c0.35,0.14,8.59,3.46,13.03,14.31C2034.44,1824.2,2031.87,1826.01,2030.35,1824.62z"/>
		<path class="st13" d="M2046.29,1822.65c-3.09-9.62-13.04-16.97-13.3-16.48c-2.38-1.18-0.46-4.91,1.89-3.65
			c0.44,0.23,10.87,5.73,14.7,17.94C2050.25,1822.37,2047.75,1823.99,2046.29,1822.65z"/>
		<path class="st13" d="M2064.44,1820.37c-4.71-13.62-15.93-17.45-14.02-20.77c2.79-3.24,11.94,5.56,17.28,18.52
			C2068.45,1820.03,2065.92,1821.73,2064.44,1820.37z"/>
		<path class="st14" d="M2001.91,1828.6l111.16-0.31c-0.4,3.39-1.33,6.69-3.02,9.67l-101.32,0.28
			C2003.74,1838.27,2000.15,1833.28,2001.91,1828.6z"/>
		<path class="st12" d="M2164.48,1026.08c145.13,5.35,296.42,155.77,102.65,235.62c-19.72,7.42-27.66-15.79-11.78-26.75
			c109.52-87.93-21.39-119.31-99.68-132C2105.82,1095.77,2114.41,1021.76,2164.48,1026.08z"/>
		<path class="st25" d="M2361.07,1145.5c-1.08,4.82-2.81,7.33-2.81,7.33c0.73-1.21-47.14-3.82-61.63,15.63
			c-7.23-0.17-20.67-7.06-27.99-16.59c-12.83-14.13-39.61-24.44-51.86-29.01l-62.29-118.62
			C2184.86,992.53,2371.3,1056.83,2361.07,1145.5z"/>
		<path class="st13" d="M2034.19,1529.81c1.09,13.02,1.9,20.62,1.9,20.62c127.63,46.53,250.63,0.63,250.63,0.63
			c-0.15-5.31-0.04-10.74,0.25-16.3c2.86-56.51,25.24-126.17,15.31-196.46c-10.91-77.18-37.86-119.61-37.86-119.61l-212.04,11.34
			C2019.17,1306.09,2029.34,1471.75,2034.19,1529.81z"/>
		<path class="st52" d="M2260.23,1543.49c-0.05-0.51-4.94-52.29,3.53-145.97c8.34-92.24-26.68-176.35-27.03-177.19l7.77-3.29
			c0.36,0.86,36.2,86.91,27.67,181.24c-8.4,92.89-3.58,143.87-3.54,144.38L2260.23,1543.49z"/>
		<path class="st52" d="M2060.04,1548c-20.11-148.5,12.97-320.12,13.3-321.84l8.28,1.62c-0.33,1.7-33.14,171.99-13.22,319.08
			L2060.04,1548z"/>
		<path class="st52" d="M2095.19,1555.69c-7.05-112.22,8.38-323.38,8.54-325.5l8.42,0.62c-0.16,2.11-15.54,212.69-8.53,324.34
			L2095.19,1555.69z"/>
		<path class="st52" d="M2133.12,1555.43c0-0.84-0.17-84.5,6.18-156.44c6.3-71.43,0.06-167.25-0.01-168.21l8.43-0.56
			c0.06,0.97,6.35,97.43-0.01,169.51c-6.31,71.56-6.15,154.84-6.14,155.68L2133.12,1555.43z"/>
		<path class="st52" d="M2186.77,1555.56c-0.03-0.79-2.65-80.14,0-156.35c2.64-75.62-12.5-168.9-12.65-169.83l8.33-1.37
			c0.15,0.94,15.42,95.02,12.76,171.49c-2.64,75.91-0.03,154.98,0,155.77L2186.77,1555.56z"/>
		<path class="st52" d="M2224,1547.96c-3.24-34.59-2.38-69.33-1.2-117.41c0.36-14.73,0.77-31.43,1.11-49.73
			c1.39-76.46-19.46-153.86-19.67-154.63l8.14-2.22c0.21,0.78,21.39,79.31,19.97,157.01c-0.34,18.33-0.75,35.04-1.11,49.79
			c-1.22,49.58-2.03,82.33,1.16,116.42L2224,1547.96z"/>
		
			<rect x="2116.34" y="962.14" transform="matrix(0.9957 -0.0922 0.0922 0.9957 -81.7904 201.0494)" class="st12" width="36.33" height="46.76"/>
		<path class="st12" d="M2180.82,926.33c3.62,71.3-111.28,71.43-106.63-0.94c0.25-14.28,4.44-24.16,4.73-46.92
			c0.66-52.69,74.59-62.34,86.31-8.39C2169.84,891.37,2179.15,906.51,2180.82,926.33z"/>
		<path class="st44" d="M2303.04,1161.66c-2.16,1.6-4.53,4.74-6.41,6.81c0,0-14.42-0.85-27.99-16.59
			c-10.98-12.72-38.15-23.85-48.1-27.63l10.59-33.29c0,0,27.73,25.15,42.01,49.9C2287.06,1165,2302.25,1161.76,2303.04,1161.66z"/>
		<path class="st25" d="M2264.44,1218.7c0,0-81.14,29.97-199.35,13.28c-4.18-0.59-8.42-1.24-12.7-1.95c-0.1-1.07-0.2-2.18-0.26-3.33
			c-2.17-31.16,3.8-89.44,11.36-125.83c5.99-44.84,27.78-78.05,54.32-92.73c46.96-26,108.79,5.94,124.32,133.9
			C2247.76,1175.65,2251.16,1191.01,2264.44,1218.7z"/>
		<path class="st53" d="M2084.25,851.07c0,0-27.37,9.07,1.73,52.87c17.99,27.08-27.89,68.06,8.91,104.81
			c85.4,112.3,329.33,55.25,196.35-65.42c-39.87-21.44-38.14-43.37-51.52-70.93C2221.9,835.69,2141.06,766.67,2084.25,851.07z"/>
		<path class="st44" d="M2361.07,1145.5c-1.08,4.82-2.81,7.33-2.81,7.33c0.73-1.21-47.14-3.82-61.63,15.63c0,0-3.16-0.27-9.92-3.17
			C2286.71,1165.29,2315.28,1127.11,2361.07,1145.5z"/>
		<path class="st52" d="M2034.19,1529.81c1.09,13.02,1.9,20.62,1.9,20.62c127.63,46.53,250.63,0.63,250.63,0.63
			c-0.15-5.31-0.04-10.74,0.25-16.3l-0.02-0.02C2286.95,1534.74,2151.09,1574.63,2034.19,1529.81z"/>
		<path class="st44" d="M2133.12,1101.77c0,0-3.06,31.22-13.99,58.9c-15.49,39.23-54.04,71.32-54.04,71.32
			c-4.18-0.59-8.42-1.24-12.7-1.95c-0.1-1.07-0.2-2.18-0.26-3.33c0.01-0.01,0.01-0.01,0.03-0.03
			C2053.79,1225.25,2113.83,1182.13,2133.12,1101.77z"/>
	</g>
</g>
</svg>
