<?xml version="1.0" encoding="utf-8"?>
<!-- Generator: Adobe Illustrator 25.2.1, SVG Export Plug-In . SVG Version: 6.00 Build 0)  -->
<svg version="1.1" xmlns="http://www.w3.org/2000/svg" xmlns:xlink="http://www.w3.org/1999/xlink" x="0px" y="0px"
	 viewBox="0 0 3000 1500" style="enable-background:new 0 0 3000 1500;" xml:space="preserve">
<style type="text/css">
	.st0{fill-rule:evenodd;clip-rule:evenodd;fill:#F9CB9F;}
	.st1{fill-rule:evenodd;clip-rule:evenodd;fill:#FBE0C5;}
	.st2{fill-rule:evenodd;clip-rule:evenodd;fill:#FCE3CC;}
	.st3{opacity:0.8;fill-rule:evenodd;clip-rule:evenodd;fill:#FEF2E7;}
	.st4{opacity:0.25;fill-rule:evenodd;clip-rule:evenodd;fill:#F6AF6B;}
	.st5{fill-rule:evenodd;clip-rule:evenodd;fill:#F6AF6B;}
	.st6{fill-rule:evenodd;clip-rule:evenodd;fill:#312989;}
	.st7{fill-rule:evenodd;clip-rule:evenodd;fill:#A29DE2;}
	.st8{fill-rule:evenodd;clip-rule:evenodd;fill:#FFFFFF;}
	.st9{fill-rule:evenodd;clip-rule:evenodd;fill:#91B7E2;}
	.st10{fill:#A29DE2;}
	.st11{fill-rule:evenodd;clip-rule:evenodd;fill:#F8C390;}
	.st12{fill:#F6AF6B;}
	.st13{fill:#FFFFFF;}
	.st14{fill-rule:evenodd;clip-rule:evenodd;fill:#FEF2E7;}
	.st15{fill-rule:evenodd;clip-rule:evenodd;fill:#7C75D6;}
	.st16{fill:#F9CB9F;}
	.st17{fill-rule:evenodd;clip-rule:evenodd;fill:#6A62D0;}
	.st18{fill:#FBE0C5;}
	.st19{fill-rule:evenodd;clip-rule:evenodd;fill:#5E95D4;}
	.st20{fill-rule:evenodd;clip-rule:evenodd;fill:#8F89DC;}
	.st21{fill-rule:evenodd;clip-rule:evenodd;fill:#86B0DF;}
	.st22{fill-rule:evenodd;clip-rule:evenodd;fill:#91523B;}
	.st23{fill-rule:evenodd;clip-rule:evenodd;fill:#C4856E;}
	.st24{fill-rule:evenodd;clip-rule:evenodd;fill:#F1AB7A;}
	.st25{fill-rule:evenodd;clip-rule:evenodd;fill:#6B62D0;}
	.st26{fill-rule:evenodd;clip-rule:evenodd;fill:#F07D0F;}
	.st27{fill:#EEC190;}
	.st28{fill:#312989;}
	.st29{fill:#F07D0F;}
	.st30{fill-rule:evenodd;clip-rule:evenodd;fill:#EE995D;}
	.st31{fill-rule:evenodd;clip-rule:evenodd;fill:#F6B16F;}
	.st32{fill:#7971D4;}
	.st33{fill-rule:evenodd;clip-rule:evenodd;fill:#7971D4;}
	.st34{fill-rule:evenodd;clip-rule:evenodd;fill:#F9CAB8;}
	.st35{fill-rule:evenodd;clip-rule:evenodd;fill:#7F4834;}
	.st36{fill-rule:evenodd;clip-rule:evenodd;fill:#367BC9;}
	.st37{fill:#9ABDE4;}
	.st38{fill-rule:evenodd;clip-rule:evenodd;fill:#9ABDE4;}
	.st39{fill-rule:evenodd;clip-rule:evenodd;fill:#D8710D;}
	.st40{fill:#F25327;}
	.st41{fill:#443AC5;}
</style>
<g id="_x31_0" xmlns:serif="http://www.serif.com/">
	<rect class="st0" width="3000" height="1500"/>
</g>
<g id="_x39_">
	<g transform="matrix(1,0,0,1,-3.41736,-8.51614)">
		<g transform="matrix(0.351283,0,0,0.351283,512.891,181.753)">
			<path class="st1" d="M4987.8,1732c574.7,9.8,574.7,864.7,0,874.5C4413.1,2596.6,4413.2,1741.7,4987.8,1732z"/>
		</g>
		<g transform="matrix(0.451044,0,0,0.451044,555.527,182.546)">
			<path class="st1" d="M4369.2,1440.7c574.7,9.8,574.7,864.7,0,874.5C3794.5,2305.4,3794.6,1450.4,4369.2,1440.7z"/>
		</g>
		<g transform="matrix(0.16704,0,0,0.16704,679.31,202.268)">
			<path class="st1" d="M12310.8,3564.6c574.7,9.8,574.7,864.7,0,874.5C11736,4429.2,11736.1,3574.3,12310.8,3564.6z"/>
		</g>
		<g transform="matrix(0.108855,0,0,0.108855,651.992,176.78)">
			<path class="st1" d="M17655,4584.2c574.7,9.8,574.7,864.7,0,874.5C17080.3,5448.9,17080.3,4594,17655,4584.2z"/>
		</g>
		<g transform="matrix(0.0544274,0,0,0.0544274,696.826,311.758)">
			<path class="st1" d="M36732.1,15937.6c574.7,9.8,574.7,864.7,0,874.5C36157.4,16802.3,36157.5,15947.4,36732.1,15937.6z"/>
		</g>
		<g transform="matrix(0.16704,0,0,0.16704,597.746,192.4)">
			<path class="st1" d="M10900.8,3394c574.7,9.8,574.7,864.7,0,874.5C10326.1,4258.6,10326.1,3403.7,10900.8,3394z"/>
		</g>
		<g transform="matrix(0.074486,0,0,0.074486,610.816,159.625)">
			<path class="st1" d="M23763.5,5853.5c574.7,9.8,574.7,864.7,0,874.5C23188.8,6718.2,23188.9,5863.3,23763.5,5853.5z"/>
		</g>
		<g transform="matrix(0.0544274,0,0,0.0544274,683.752,170.026)">
			<path class="st1" d="M36038.5,8418.2c574.7,9.8,574.7,864.7,0,874.5C35463.7,9282.8,35463.8,8427.9,36038.5,8418.2z"/>
		</g>
	</g>
	<g transform="matrix(6.12323e-17,-1,1,6.12323e-17,-90.8512,849.526)">
		<g transform="matrix(0.351283,0,0,0.351283,512.891,181.753)">
			<path class="st1" d="M-1726.3,982.3c574.7,9.8,574.7,864.7,0,874.5C-2301,1847-2300.9,992-1726.3,982.3z"/>
		</g>
		<g transform="matrix(0.592975,0,0,0.592975,520.594,168.233)">
			<path class="st1" d="M-595.1,675.9c574.7,9.8,574.7,864.7,0,874.5C-1169.9,1540.5-1169.8,685.6-595.1,675.9z"/>
		</g>
		<g transform="matrix(0.16704,0,0,0.16704,706.823,204.058)">
			<path class="st1" d="M-1333.2,2019c574.7,9.8,574.7,864.7,0,874.5C-1908,2883.6-1907.9,2028.7-1333.2,2019z"/>
		</g>
		<g transform="matrix(0.108855,0,0,0.108855,651.992,176.78)">
			<path class="st1" d="M-4011.8,2165c574.7,9.8,574.7,864.7,0,874.5C-4586.5,3029.6-4586.4,2174.7-4011.8,2165z"/>
		</g>
		<g transform="matrix(0.0544274,0,0,0.0544274,696.826,311.758)">
			<path class="st1" d="M-6601.9,11099.1c574.7,9.8,574.7,864.7,0,874.5C-7176.6,11963.7-7176.5,11108.8-6601.9,11099.1z"/>
		</g>
		<g transform="matrix(0.16704,0,0,0.16704,597.746,192.4)">
			<path class="st1" d="M-3218.8,1817.4c574.7,9.8,574.7,864.7,0,874.5C-3793.6,2682.1-3793.5,1827.2-3218.8,1817.4z"/>
		</g>
		<g transform="matrix(0.074486,0,0,0.074486,582.274,185.908)">
			<path class="st1" d="M-9007.1,3336.9c574.7,9.8,574.7,864.7,0,874.5C-9581.9,4201.5-9581.8,3346.6-9007.1,3336.9z"/>
		</g>
		<g transform="matrix(0.0544274,0,0,0.0544274,699.928,162.583)">
			<path class="st1" d="M-6437.3,3184.7c574.7,9.8,574.7,864.7,0,874.5C-7012,4049.4-7011.9,3194.4-6437.3,3184.7z"/>
		</g>
	</g>
</g>
<g id="_x38_">
	<g transform="matrix(1,0,0,1,0,-19.0005)">
		<g transform="matrix(0.666796,0,0,0.723979,126.593,118.511)">
			<g transform="matrix(1,0,-0.42655,1,180.386,0)">
				<polygon class="st2" points="2403.3,1363.3 2480.2,1363.3 2480.2,1769.9 2403.3,1769.9 				"/>
			</g>
			<g transform="matrix(-1,0,0.42655,1,649.698,0)">
				<polygon class="st2" points="-924.7,1363.3 -847.8,1363.3 -847.8,1769.9 -924.7,1769.9 				"/>
			</g>
		</g>
		<g transform="matrix(1,0,0,1.09559,0,-11.8401)">
			<path class="st3" d="M2273.9,242.8c0.3-15.2-14.4-28.7-31.1-28.4c0,0-1459.9,0-1459.9,0c-16.7-0.3-31.5,13.1-31.1,28.4
				c0,124.8,0,623.8,0,748.5c-0.3,15.2,14.4,28.7,31.1,28.4c211.3-7.8,1276.8,15.1,1481.9-8.3
				C2290.4,880.3,2265.5,379.2,2273.9,242.8z"/>
		</g>
		<g transform="matrix(0.391091,0,0,0.802977,148.597,54.2869)">
			<path class="st4" d="M3285.2,451.5c0-21.4-35.6-38.7-79.5-38.7h-1363c-43.9,0-79.5,17.3-79.5,38.7v727.8
				c0,21.4,35.6,38.7,79.5,38.7h1363c43.9,0,79.5-17.3,79.5-38.7V451.5z"/>
		</g>
		<g transform="matrix(1.0578,1.38778e-17,-1.38778e-17,1.0578,139.133,-318.754)">
			<g transform="matrix(0.90282,0,0,0.90282,-42.9052,200.914)">
				<path class="st5" d="M931.1,649.2v-57.7c0-5.4-4.4-9.8-9.8-9.8h-57.6c-5.4,0-9.8,4.4-9.8,9.8v57.7c0,5.4,4.4,9.8,9.8,9.8h57.6
					C926.7,658.9,931.1,654.6,931.1,649.2z M923.3,591.5c-1.2,1.3,2.6,61.2-2,59.6c0,0-57.7,0-57.7,0c-4.5,1.8-0.9-58.6-2-59.6
					c0-1.1,0.9-2,2-2h57.6C922.4,589.5,923.3,590.4,923.3,591.5z"/>
			</g>
			<g transform="matrix(0.63839,0.63839,-1.18665,1.18665,319.518,4.57877)">
				<path class="st6" d="M939.4,138.9h-27.9c-10.1-0.1-10.1,8.5,0,8.4c0,0,31.8,0,31.8,0c6.4,0,11.7-2.8,11.7-6.3V86.8
					c0.1-5.4-15.7-5.4-15.6,0C939.4,86.8,939.4,138.9,939.4,138.9z"/>
			</g>
		</g>
		<g transform="matrix(1.0578,1.38778e-17,-1.38778e-17,1.0578,139.133,-290.72)">
			<g transform="matrix(0.90282,0,0,0.90282,-42.9052,200.914)">
				<path class="st5" d="M931.1,733.9v-57.7c0-5.4-4.4-9.8-9.8-9.8h-57.6c-5.4,0-9.8,4.4-9.8,9.8v57.7c0,5.4,4.4,9.8,9.8,9.8h57.6
					C926.7,743.7,931.1,739.3,931.1,733.9z M923.3,676.3c-1.2,1.3,2.6,61.2-2,59.6c0,0-57.7,0-57.7,0c-4.5,1.8-0.9-58.6-2-59.6
					c0-1.1,0.9-2,2-2h57.6C922.4,674.3,923.3,675.2,923.3,676.3z"/>
			</g>
			<g transform="matrix(0.63839,0.63839,-1.18665,1.18665,319.518,4.57877)">
				<path class="st6" d="M999.3,171.2h-27.9c-10.1-0.1-10.1,8.5,0,8.4c0,0,31.8,0,31.8,0c6.4,0,11.7-2.8,11.7-6.3v-54.2
					c0.1-5.4-15.7-5.4-15.6,0C999.3,119.1,999.3,171.2,999.3,171.2z"/>
			</g>
		</g>
		<g transform="matrix(1.27532,1.249e-16,-1.249e-16,1.27532,116.544,-403.411)">
			<g transform="matrix(0.748834,0,0,0.748834,-17.8748,276.992)">
				<path class="st5" d="M931.1,818.7v-57.7c0-5.4-4.4-9.8-9.8-9.8h-57.6c-5.4,0-9.8,4.4-9.8,9.8v57.7c0,5.4,4.4,9.8,9.8,9.8h57.6
					C926.7,828.5,931.1,824.1,931.1,818.7z M923.3,761.1c-1.2,1.3,2.6,61.2-2,59.6c0,0-57.7,0-57.7,0c-4.5,1.8-0.9-58.6-2-59.6
					c0-1.1,0.9-2,2-2h57.6C922.4,759.1,923.3,760,923.3,761.1z"/>
			</g>
			<g transform="matrix(0.529506,0.529506,-0.984258,0.984258,282.733,114.143)">
				<path class="st6" d="M1059.2,203.4h-27.9c-10.1-0.1-10.1,8.5,0,8.4c0,0,31.8,0,31.8,0c6.4,0,11.7-2.8,11.7-6.3v-54.2
					c0.1-5.4-15.7-5.4-15.6,0C1059.2,151.3,1059.2,203.4,1059.2,203.4z"/>
			</g>
		</g>
		<g transform="matrix(1.27532,1.249e-16,-1.249e-16,1.27532,116.544,-403.411)">
			<g transform="matrix(0.748834,0,0,0.748834,-17.8748,298.974)">
				<path class="st5" d="M931.1,903.5v-57.7c0-5.4-4.4-9.8-9.8-9.8h-57.6c-5.4,0-9.8,4.4-9.8,9.8v57.7c0,5.4,4.4,9.8,9.8,9.8h57.6
					C926.7,913.2,931.1,908.9,931.1,903.5z M923.3,845.8c-1.2,1.3,2.6,61.2-2,59.6c0,0-57.7,0-57.7,0c-4.5,1.8-0.9-58.6-2-59.6
					c0-1.1,0.9-2,2-2h57.6C922.4,843.8,923.3,844.7,923.3,845.8z"/>
			</g>
			<g transform="matrix(0.529506,0.529506,-0.984258,0.984258,282.733,136.125)">
				<path class="st6" d="M1119.2,235.7h-27.9c-10.1-0.1-10.1,8.5,0,8.4c0,0,31.8,0,31.8,0c6.4,0,11.7-2.8,11.7-6.3v-54.2
					c0.1-5.4-15.7-5.4-15.6,0C1119.2,183.6,1119.2,235.7,1119.2,235.7z"/>
			</g>
		</g>
		<g transform="matrix(1.27532,1.249e-16,-1.249e-16,1.27532,116.544,-403.411)">
			<g transform="matrix(0.748834,0,0,0.748834,-17.8748,320.956)">
				<path class="st5" d="M931.1,988.2v-57.7c0-5.4-4.4-9.8-9.8-9.8h-57.6c-5.4,0-9.8,4.4-9.8,9.8v57.7c0,5.4,4.4,9.8,9.8,9.8h57.6
					C926.7,998,931.1,993.6,931.1,988.2z M923.3,930.6c-1.2,1.3,2.6,61.2-2,59.6c0,0-57.7,0-57.7,0c-4.5,1.8-0.9-58.6-2-59.6
					c0-1.1,0.9-2,2-2h57.6C922.4,928.6,923.3,929.5,923.3,930.6z"/>
			</g>
			<g transform="matrix(0.529506,0.529506,-0.984258,0.984258,282.733,158.107)">
				<path class="st6" d="M1179.1,267.9h-27.9c-10.1-0.1-10.1,8.5,0,8.4c0,0,31.8,0,31.8,0c6.4,0,11.7-2.8,11.7-6.3v-54.2
					c0.1-5.4-15.7-5.4-15.6,0C1179.1,215.8,1179.1,267.9,1179.1,267.9z"/>
			</g>
		</g>
		<g transform="matrix(1.27532,1.249e-16,-1.249e-16,1.27532,121.734,-402.838)">
			<g transform="matrix(0.90282,0,0,0.90282,-44.6222,190.816)">
				<path class="st7" d="M864.9,572.4h249.3c10,0.1,10.1-15.7,0-15.6c0,0-249.3,0-249.3,0C854.8,556.7,854.7,572.6,864.9,572.4z"/>
			</g>
			<g transform="matrix(0.90282,0,0,0.90282,-44.6222,212.842)">
				<path class="st7" d="M864.9,642.9h249.3c10,0.1,10.1-15.7,0-15.6c0,0-249.3,0-249.3,0C854.8,627.2,854.7,643,864.9,642.9z"/>
			</g>
			<g transform="matrix(0.90282,0,0,0.90282,-44.6222,234.867)">
				<path class="st7" d="M864.9,713.3h249.3c10,0.1,10.1-15.7,0-15.6c0,0-249.3,0-249.3,0C854.8,697.6,854.7,713.5,864.9,713.3z"/>
			</g>
			<g transform="matrix(0.90282,0,0,0.90282,-44.6222,256.892)">
				<path class="st7" d="M864.9,783.8h249.3c10,0.1,10.1-15.7,0-15.6c0,0-249.3,0-249.3,0C854.8,768.1,854.7,783.9,864.9,783.8z"/>
			</g>
			<g transform="matrix(0.90282,0,0,0.90282,-44.6222,278.918)">
				<path class="st7" d="M864.9,854.2h249.3c10,0.1,10.1-15.7,0-15.6c0,0-249.3,0-249.3,0C854.8,838.5,854.7,854.3,864.9,854.2z"/>
			</g>
		</g>
		<g transform="matrix(0.940832,0,0,0.0854515,23.865,79.0727)">
			<path class="st7" d="M1121.3,2143.4c0.1-73.3-5.7-137.9-12.4-136.5c-48.6,0-226.2,0-274.8,0c-6.7-1.4-12.5,63.1-12.4,136.5
				c0,148.3,0,384,0,532.3c-0.1,73.3,5.7,137.9,12.4,136.5c53.7-35,232.2,69.4,283.6-39.9C1125.3,2684,1119.6,2282.3,1121.3,2143.4z
				"/>
		</g>
		<g transform="matrix(1.18379,0,0,0.0854515,51.384,79.0727)">
			<path class="st7" d="M1185.4,2143.4c0.1-73.3-4.6-137.9-9.9-136.5c-45.4,0-234.5,0-279.9,0c-5.3-1.4-10,63.2-9.9,136.5
				c0,148.3,0,384,0,532.3c-0.1,73.3,4.6,137.9,9.9,136.5c49.7-35.7,239.1,70.5,286.9-39.9
				C1188.6,2683.6,1184.1,2282.5,1185.4,2143.4z"/>
		</g>
		<g transform="matrix(1.18379,0,0,0.0854515,149.467,79.0727)">
			<path class="st7" d="M1424.6,2143.4c0.1-73.3-4.6-137.9-9.9-136.5c-45.4,0-234.5,0-279.9,0c-5.3-1.4-10,63.2-9.9,136.5
				c0,148.3,0,384,0,532.3c-0.1,73.3,4.6,137.9,9.9,136.5c49.7-35.7,239.1,70.5,286.9-39.9
				C1427.8,2683.6,1423.3,2282.5,1424.6,2143.4z"/>
		</g>
		<g transform="matrix(1.18379,0,0,0.0854515,247.55,79.0727)">
			<path class="st7" d="M1663.9,2143.4c0.1-73.3-4.6-137.9-9.9-136.5c-45.4,0-234.5,0-279.9,0c-5.3-1.4-10,63.2-9.9,136.5
				c0,148.3,0,384,0,532.3c-0.1,73.3,4.6,137.9,9.9,136.5c49.7-35.7,239.1,70.5,286.9-39.9
				C1667.1,2683.6,1662.6,2282.5,1663.9,2143.4z"/>
		</g>
		<g transform="matrix(1,0,0,1,1.44325,-3.90697)">
			<g transform="matrix(1,0,0,1,3.36113,4.4405)">
				<path class="st8" d="M860.7,267.8c24.1,0.4,24.1,36.2,0,36.6C836.6,304,836.6,268.2,860.7,267.8z"/>
			</g>
			<g transform="matrix(1,0,0,1,21.9648,4.4405)">
				<path class="st9" d="M914.4,267.8c24.1,0.4,24.1,36.2,0,36.6C890.4,304,890.4,268.2,914.4,267.8z"/>
			</g>
			<g transform="matrix(1,0,0,1,40.5685,4.4405)">
				<path class="st5" d="M968.1,267.8c24.1,0.4,24.1,36.2,0,36.6C944.1,304,944.1,268.2,968.1,267.8z"/>
			</g>
		</g>
		<g transform="matrix(0.953939,0,0,0.953939,173.547,-47.6013)">
			<g transform="matrix(1,0,0,0.727065,0,48.7627)">
				<path class="st2" d="M2139.1,585.2c0.1-9-5.6-17-12.2-16.8c-88.9,0-635.3,0-724.2,0c-6.5-0.2-12.4,7.8-12.2,16.8
					c0,38.7,0,133.7,0,172.4c-0.1,9,5.6,17,12.2,16.8c95-4.6,640.4,9,732.9-4.9c2.3-3.2,3.6-7.4,3.6-11.9
					C2139.1,718.9,2139.1,623.9,2139.1,585.2z"/>
			</g>
			<g transform="matrix(1,0,0,1,1.43339,0.146001)">
				<g transform="matrix(1,0,0,1,0,0.146001)">
					<g transform="matrix(1,0,0,1,-1.86878,-2.71943)">
						<path class="st8" d="M1523.7,503.3c0-6.8-5.5-12.2-12.2-12.2h-72.1c-6.8,0-12.2,5.5-12.2,12.2v72.1c0,6.8,5.5,12.2,12.2,12.2
							h72.1c6.8,0,12.2-5.5,12.2-12.2V503.3z"/>
					</g>
					<g transform="matrix(1,0,0,1,-32.1733,-6.03634)">
						<path class="st7" d="M1507.5,564.7c-4.9,1,0.5,9.2-3.3,11.7c-0.8,0.3-1.6,0.1-2.2-0.4c-7.8-7.8-26.6-26.6-31.9-31.9
							c-3.4-3.2,27.2-28.4,31.9-34.8c7.3-3,0.2,11,5.5,11.3c3.3,0.9,36.7-2.3,35.2,2c0,7.4,0,32.7,0,40.1
							C1544.3,567,1510.7,563.8,1507.5,564.7z"/>
					</g>
				</g>
				<g transform="matrix(8.15786,0,0,1,-1739.29,-2.57343)">
					<path class="st8" d="M456.7,503.3c0-6.8-0.7-12.2-1.5-12.2c-7.7,0-43,0-50.7,0c-0.8,0-1.5,5.5-1.5,12.2c0,18.5,0,53.6,0,72.1
						c0,6.8,0.7,12.2,1.5,12.2c7.7,0,43,0,50.7,0c0.8,0,1.5-5.5,1.5-12.2C456.7,556.8,456.7,521.8,456.7,503.3z"/>
				</g>
				<g transform="matrix(1,0,0,1,-91.9535,-0.146001)">
					<g transform="matrix(7.46032,0,0,1,-1357.38,-2.42743)">
						<path class="st8" d="M475.9,503.3c0-6.8-0.7-12.2-1.6-12.2c-2.5,0-7.1,0-9.5,0c-0.9,0-1.6,5.5-1.6,12.2v72.1
							c0,6.8,0.7,12.2,1.6,12.2c2.5,0,7.1,0,9.5,0c0.9,0,1.6-5.5,1.6-12.2V503.3z"/>
					</g>
					<g transform="matrix(0.707107,0.707107,-0.707107,0.707107,284.108,-296.311)">
						<g transform="matrix(0.55904,0,0,0.55904,221.222,55.7518)">
							<path class="st10" d="M3045.2-1394.5c-16.9,17.7-47.4,17.7-64.4,0c-28.7-27-7.3-78.9,32.2-77.7l0,0
								C3052.3-1473.6,3074-1421.3,3045.2-1394.5z M2990.7-1449c-29.1,29.1,15.3,73.8,44.7,44.7c20-18.6,4.9-54.9-22.3-53.9l0,0
								C3004.3-1458.3,2996.4-1454.7,2990.7-1449z"/>
						</g>
						<g transform="matrix(0.352791,0,0,0.352791,324.59,106.693)">
							<path class="st10" d="M4485.4-2439.8c-18.2,2.4-37.6,13.2-36.9,34.7c0,3-2.5,5.5-5.5,5.5c-13.7-5.7,0.1-29.1,7.4-36.6
								C4455.6-2444.3,4492.8-2459.4,4485.4-2439.8z"/>
						</g>
						<path class="st10" d="M1907-684.2c-1.1,1.2-3.4,0.3-3.3-1.4c0.9-1-2.1-38.7,1.9-36.7c1.1,0,1.9,0.9,1.9,1.9l0,34.7
							C1907.6-685,1907.4-684.5,1907-684.2z"/>
						<path class="st10" d="M1908.4-682.8c-2.3,2.4-6.8,0.6-6.6-2.7c0,0,0-20.7,0-20.7c0-2.1,1.7-3.9,3.9-3.9c2.1,0,3.9,1.7,3.9,3.9
							C1909.1-704.2,1910.7-683.8,1908.4-682.8z"/>
					</g>
				</g>
			</g>
		</g>
		<g transform="matrix(0.953939,0,0,0.953939,178.266,-47.0567)">
			<g transform="matrix(1,0,0,1,-3.44717,0)">
				<path class="st7" d="M2136.9,660.1c0-9.7-7.8-17.5-17.5-17.5h-713c-9.7,0-17.5,7.8-17.5,17.5c0,56.8,0,397,0,453.8
					c0,9.7,7.8,17.5,17.5,17.5h713c9.7,0,17.5-7.8,17.5-17.5V660.1z M2125.2,660.1v453.8c0,3.2-2.6,5.8-5.8,5.8h-713
					c-3.2,0-5.8-2.6-5.8-5.8V660.1c0-3.2,2.6-5.8,5.8-5.8C1412.3,659.9,2126.4,643.3,2125.2,660.1z"/>
			</g>
			<g transform="matrix(1.04829,0,0,1.04829,-186.874,49.3689)">
				<path class="st7" d="M1735.6,595.7c0.1-5.9-9.3-6.1-9.2,0c4.2,45.2-8.3,371.6,4.6,411.1C1744,967.6,1731.4,640.7,1735.6,595.7z"
					/>
			</g>
			<g transform="matrix(1,0,0,1,0,-1.33136)">
				<g>
					<path class="st11" d="M1502.4,703.7c-6.1-1.2-10.8-11.3-16.9-12.6c-6.3,0-29.9,0-39.5,0c-2.2,0-4.1,1.9-4.1,4.1
						c2,7.4-4.8,90.6,4.1,87.6c10-2.5,130.5,5.5,129.2-4.1c0-13.6,0-57.3,0-70.9c0-2.3-1.8-4.1-4.1-4.1
						C1557.1,703.7,1511.5,703.7,1502.4,703.7z"/>
					<g transform="matrix(0.999962,0,0,0.753247,2.36114,64.5837)">
						<path class="st5" d="M1572.9,858.8c1.3-12.8-119.4-2-129.2-5.4c-2.3,0-4.1,2.4-4.1,5.4c0,17.4,0,71.8,0,89.2
							c0,3,1.8,5.4,4.1,5.4c10-3.3,130.5,7.3,129.2-5.4C1572.9,930.6,1572.9,876.2,1572.9,858.8z"/>
					</g>
					<g transform="matrix(0.999962,0,0,0.102998,2.36114,234.776)">
						<path class="st11" d="M1572.9,5228.6h-133.3c0.1,31.4-0.9,92.6,4.1,91.6c19.8,0,105.4,0,125.1,0
							C1573.8,5325.3,1572.9,5243.6,1572.9,5228.6z"/>
					</g>
				</g>
				<g transform="matrix(1,0,0,1,0,38.9318)">
					<path class="st11" d="M1502.4,816.1c-6.1-1.2-10.8-11.3-16.9-12.6c-6.3,0-29.9,0-39.5,0c-2.2,0-4.1,1.9-4.1,4.1
						c2,7.4-4.8,90.6,4.1,87.6c10-2.5,130.5,5.5,129.2-4.1c0-13.6,0-57.3,0-70.9c0-2.3-1.8-4.1-4.1-4.1
						C1557.1,816.1,1511.5,816.1,1502.4,816.1z"/>
					<g transform="matrix(0.999962,0,0,0.753247,2.36114,64.5837)">
						<path class="st5" d="M1572.9,1008.1c1.3-12.8-119.4-2-129.2-5.4c-2.3,0-4.1,2.4-4.1,5.4c0,17.4,0,71.8,0,89.2
							c0,3,1.8,5.4,4.1,5.4c10-3.3,130.5,7.3,129.2-5.4C1572.9,1079.9,1572.9,1025.5,1572.9,1008.1z"/>
					</g>
					<g transform="matrix(0.999962,0,0,0.102998,2.36114,234.776)">
						<path class="st11" d="M1572.9,6320h-133.3c0.1,31.4-0.9,92.6,4.1,91.6c19.8,0,105.4,0,125.1,0
							C1573.8,6416.8,1572.9,6335.1,1572.9,6320z"/>
					</g>
				</g>
				<g transform="matrix(1,0,0,1,0,77.8637)">
					<path class="st11" d="M1502.4,928.5c-6.1-1.2-10.8-11.3-16.9-12.6c-6.3,0-29.9,0-39.5,0c-2.2,0-4.1,1.9-4.1,4.1
						c2,7.4-4.8,90.6,4.1,87.6c10-2.5,130.5,5.5,129.2-4.1c0-13.6,0-57.3,0-70.9c0-2.3-1.8-4.1-4.1-4.1
						C1557.1,928.5,1511.5,928.5,1502.4,928.5z"/>
					<g transform="matrix(0.999962,0,0,0.753247,2.36114,64.5837)">
						<path class="st5" d="M1572.9,1157.3c1.3-12.8-119.4-2-129.2-5.4c-2.3,0-4.1,2.4-4.1,5.4c0,17.4,0,71.8,0,89.2
							c0,3,1.8,5.4,4.1,5.4c10-3.3,130.5,7.3,129.2-5.4C1572.9,1229.1,1572.9,1174.7,1572.9,1157.3z"/>
					</g>
					<g transform="matrix(0.999962,0,0,0.102998,2.36114,234.776)">
						<path class="st11" d="M1572.9,7411.5h-133.3c0.1,31.4-0.9,92.6,4.1,91.6c19.8,0,105.4,0,125.1,0
							C1573.8,7508.3,1572.9,7426.5,1572.9,7411.5z"/>
					</g>
				</g>
			</g>
			<g>
				<g transform="matrix(1,0,0,1,-14.0616,-1.33136)">
					<g transform="matrix(1,0,0,1,70.4514,0)">
						<path class="st12" d="M1721.9,784.7h-113.1c-1.6,0-3.1-0.6-4.3-1.8c-1.1-1.1-1.8-2.6-1.8-4.3v-83.5c0-1.6,0.6-3.1,1.8-4.3
							c1.1-1.1,2.7-1.8,4.3-1.8h113.1c3.2-0.1,6.1,2.8,6,6c0,0,0,83.5,0,83.5C1728,781.9,1725.2,784.7,1721.9,784.7z M1608.8,693
							c-1.1,0-2.2,1-2.1,2.1c0.6,1.5-1.2,84,0.6,85c3.1,1.3,113,1.2,116.1,0c0.4-0.4,0.6-0.9,0.6-1.5c-0.6-1.5,1.2-84-0.6-85
							C1722,691.8,1610.5,693.7,1608.8,693z"/>
					</g>
					<g transform="matrix(0.907506,0,0,1,93.3356,5.68434e-14)">
						<rect x="1758.7" y="706.5" class="st5" width="102.4" height="60.8"/>
					</g>
					<g transform="matrix(1,0,0,1,-3.39164,0.302835)">
						<path class="st13" d="M1768.2,759.4h-57.9c-1.1,0-1.9-0.9-1.9-1.9c0.9-1-2.1-38.3,1.9-36.3c0,0,14.8,0,14.8,0
							c1-0.8,4.9-7.7,6.5-7.3c0,0,18.9,0,18.9,0c1.8-0.4,5,6.4,6,7.3h11.6c1.1,0,1.9,0.9,1.9,1.9
							C1769.2,724.1,1772.2,761.4,1768.2,759.4z M1712.2,755.5h54V725c-12.1-0.7-10,3.3-16.7-7.3h-16.9c-1,0.8-4.9,7.7-6.5,7.3
							c0,0-13.8,0-13.8,0V755.5z"/>
						<g transform="matrix(1,0,0,1,-0.642958,0.0829457)">
							<path class="st13" d="M1741.8,754c-19.4-0.1-19.4-29.6,0-29.7C1761.3,724.4,1761.3,753.9,1741.8,754z M1741.8,728.2
								c-14.2-0.2-14.2,22.2,0,22C1756.1,750.3,1756.1,728,1741.8,728.2z"/>
						</g>
						<g transform="matrix(0.541336,0,0,0.541336,154.182,114.858)">
							<path class="st8" d="M2931.7,1140.5c16.8-0.2,16.8,26.1,0,25.8C2914.9,1166.6,2914.9,1140.3,2931.7,1140.5z"/>
						</g>
						<g transform="matrix(1.08619,0,0,1,-28.8009,0)">
							<path class="st8" d="M1613.3,720.5c-0.4-3.4-5-1.5-7.2-2c-2.3-0.3-1.8,4.2-1.8,4.9h9V720.5z"/>
						</g>
						<path class="st13" d="M1721.8,753.3c-1.1-0.3-6.3,0.9-6.2-1.2c-0.1-2.1,5.2-0.8,6.2-1.2C1723.3,751,1723.3,753.4,1721.8,753.3
							z"/>
						<g>
							<path class="st13" d="M1728.9,736.6c-0.7-0.5-20.8,1.3-19.8-1.2c-1.1-2.4,19.2-0.7,19.8-1.2
								C1730.4,734.2,1730.4,736.6,1728.9,736.6z"/>
							<g transform="matrix(1,0,0,1,11.1437,0)">
								<path class="st13" d="M1756.9,736.6h-14.5c-0.6,0-1.2-0.5-1.2-1.2c0-0.6,0.5-1.2,1.2-1.2h14.5
									C1758.4,734.2,1758.4,736.6,1756.9,736.6z"/>
							</g>
						</g>
					</g>
				</g>
				<g transform="matrix(1,0,0,1,-14.0616,30.1619)">
					<g transform="matrix(1,0,0,1,70.4514,0)">
						<path class="st12" d="M1721.9,875.6h-113.1c-1.6,0-3.1-0.6-4.3-1.8c-1.1-1.1-1.8-2.6-1.8-4.3v-83.5c0-1.6,0.6-3.1,1.8-4.3
							c1.1-1.1,2.7-1.8,4.3-1.8h113.1c3.2-0.1,6.1,2.8,6,6c0,0,0,83.5,0,83.5C1728,872.8,1725.2,875.7,1721.9,875.6z M1608.8,784
							c-1.1,0-2.2,1-2.1,2.1c0.6,1.5-1.2,84,0.6,85c3.1,1.3,113,1.2,116.1,0c0.4-0.4,0.6-0.9,0.6-1.5c-0.6-1.5,1.2-84-0.6-85
							C1722,782.7,1610.5,784.7,1608.8,784z"/>
					</g>
					<g transform="matrix(0.907506,0,0,1,93.3356,5.68434e-14)">
						<rect x="1758.7" y="797.5" class="st5" width="102.4" height="60.8"/>
					</g>
					<g transform="matrix(1,0,0,1,-3.39164,0.302835)">
						<path class="st13" d="M1768.2,850.3h-57.9c-1.1,0-1.9-0.9-1.9-1.9c0.9-1-2.1-38.3,1.9-36.3c0,0,14.8,0,14.8,0
							c1-0.8,4.9-7.7,6.5-7.3c0,0,18.9,0,18.9,0c1.8-0.4,5,6.4,6,7.3h11.6c1.1,0,1.9,0.9,1.9,1.9
							C1769.2,815,1772.2,852.4,1768.2,850.3z M1712.2,846.5h54V816c-12.1-0.7-10,3.3-16.7-7.3h-16.9c-1,0.8-4.9,7.7-6.5,7.3
							c0,0-13.8,0-13.8,0V846.5z"/>
						<g transform="matrix(1,0,0,1,-0.642958,0.0829457)">
							<path class="st13" d="M1741.8,845c-19.4-0.1-19.4-29.6,0-29.7C1761.3,815.3,1761.3,844.9,1741.8,845z M1741.8,819.1
								c-14.2-0.2-14.2,22.2,0,22C1756.1,841.3,1756.1,818.9,1741.8,819.1z"/>
						</g>
						<g transform="matrix(0.541336,0,0,0.541336,154.182,114.858)">
							<path class="st8" d="M2931.7,1308.5c16.8-0.2,16.8,26.1,0,25.8C2914.9,1334.6,2914.9,1308.3,2931.7,1308.5z"/>
						</g>
						<g transform="matrix(1.08619,0,0,1,-28.8009,0)">
							<path class="st8" d="M1613.3,811.4c-0.4-3.4-5-1.5-7.2-2c-2.3-0.3-1.8,4.2-1.8,4.9h9V811.4z"/>
						</g>
						<path class="st13" d="M1721.8,844.3c-1.1-0.3-6.3,0.9-6.2-1.2c-0.1-2.1,5.2-0.8,6.2-1.2
							C1723.3,841.9,1723.3,844.3,1721.8,844.3z"/>
						<g>
							<path class="st13" d="M1728.9,827.5c-0.7-0.5-20.8,1.3-19.8-1.2c-1.1-2.4,19.2-0.7,19.8-1.2
								C1730.4,825.2,1730.4,827.5,1728.9,827.5z"/>
							<g transform="matrix(1,0,0,1,11.1437,0)">
								<path class="st13" d="M1756.9,827.5h-14.5c-0.6,0-1.2-0.5-1.2-1.2c0-0.6,0.5-1.2,1.2-1.2h14.5
									C1758.4,825.2,1758.4,827.5,1756.9,827.5z"/>
							</g>
						</g>
					</g>
				</g>
				<g transform="matrix(1,0,0,1,25.2656,-1.33136)">
					<g transform="matrix(1,0,0,1,70.4514,0)">
						<path class="st12" d="M1835.5,784.7h-113.1c-1.6,0-3.1-0.6-4.3-1.8c-1.1-1.1-1.8-2.6-1.8-4.3v-83.5c0-1.6,0.6-3.1,1.8-4.3
							c1.1-1.1,2.7-1.8,4.3-1.8h113.1c3.2-0.1,6.1,2.8,6,6c0,0,0,83.5,0,83.5C1841.6,781.9,1838.7,784.7,1835.5,784.7z M1722.3,693
							c-1.1,0-2.2,1-2.1,2.1c0.6,1.5-1.2,84,0.6,85c3.1,1.3,113,1.2,116.1,0c0.4-0.4,0.6-0.9,0.6-1.5c-0.6-1.5,1.2-84-0.6-85
							C1835.6,691.8,1724.1,693.7,1722.3,693z"/>
					</g>
					<g transform="matrix(0.907506,0,0,1,93.3356,5.68434e-14)">
						<rect x="1883.8" y="706.5" class="st5" width="102.4" height="60.8"/>
					</g>
					<g transform="matrix(1,0,0,1,-3.39164,0.302835)">
						<path class="st13" d="M1881.7,759.4h-57.9c-1.1,0-1.9-0.9-1.9-1.9c0.9-1-2.1-38.3,1.9-36.3c0,0,14.8,0,14.8,0
							c1-0.8,4.9-7.7,6.5-7.3c0,0,18.9,0,18.9,0c1.8-0.4,5,6.4,6,7.3h11.6c1.1,0,1.9,0.9,1.9,1.9
							C1882.8,724.1,1885.8,761.4,1881.7,759.4z M1825.8,755.5h54V725c-12.1-0.7-10,3.3-16.7-7.3h-16.9c-1,0.8-4.9,7.7-6.5,7.3
							c0,0-13.8,0-13.8,0V755.5z"/>
						<g transform="matrix(1,0,0,1,-0.642958,0.0829457)">
							<path class="st13" d="M1855.4,754c-19.4-0.1-19.4-29.6,0-29.7C1874.8,724.4,1874.8,753.9,1855.4,754z M1855.4,728.2
								c-14.2-0.2-14.2,22.2,0,22C1869.6,750.3,1869.6,728,1855.4,728.2z"/>
						</g>
						<g transform="matrix(0.541336,0,0,0.541336,154.182,114.858)">
							<path class="st8" d="M3141.5,1140.5c16.8-0.2,16.8,26.1,0,25.8C3124.7,1166.6,3124.7,1140.3,3141.5,1140.5z"/>
						</g>
						<g transform="matrix(1.08619,0,0,1,-28.8009,0)">
							<path class="st8" d="M1717.9,720.5c-0.4-3.4-5-1.5-7.2-2c-2.3-0.3-1.8,4.2-1.8,4.9h9V720.5z"/>
						</g>
						<path class="st13" d="M1835.3,753.3c-1.1-0.3-6.3,0.9-6.2-1.2c-0.1-2.1,5.2-0.8,6.2-1.2C1836.8,751,1836.8,753.4,1835.3,753.3
							z"/>
						<g>
							<path class="st13" d="M1842.4,736.6c-0.7-0.5-20.8,1.3-19.8-1.2c-1.1-2.4,19.2-0.7,19.8-1.2
								C1843.9,734.2,1843.9,736.6,1842.4,736.6z"/>
							<g transform="matrix(1,0,0,1,11.1437,0)">
								<path class="st13" d="M1870.5,736.6H1856c-0.6,0-1.2-0.5-1.2-1.2c0-0.6,0.5-1.2,1.2-1.2h14.5
									C1872,734.2,1872,736.6,1870.5,736.6z"/>
							</g>
						</g>
					</g>
				</g>
				<g transform="matrix(1,0,0,1,25.2656,30.1619)">
					<g transform="matrix(1,0,0,1,70.4514,0)">
						<path class="st12" d="M1835.5,875.6h-113.1c-1.6,0-3.1-0.6-4.3-1.8c-1.1-1.1-1.8-2.6-1.8-4.3v-83.5c0-1.6,0.6-3.1,1.8-4.3
							c1.1-1.1,2.7-1.8,4.3-1.8h113.1c3.2-0.1,6.1,2.8,6,6c0,0,0,83.5,0,83.5C1841.6,872.8,1838.7,875.7,1835.5,875.6z M1722.3,784
							c-1.1,0-2.2,1-2.1,2.1c0.6,1.5-1.2,84,0.6,85c3.1,1.3,113,1.2,116.1,0c0.4-0.4,0.6-0.9,0.6-1.5c-0.6-1.5,1.2-84-0.6-85
							C1835.6,782.7,1724.1,784.7,1722.3,784z"/>
					</g>
					<g transform="matrix(0.907506,0,0,1,93.3356,5.68434e-14)">
						<rect x="1883.8" y="797.5" class="st5" width="102.4" height="60.8"/>
					</g>
					<g transform="matrix(1,0,0,1,-3.39164,0.302835)">
						<path class="st13" d="M1881.7,850.3h-57.9c-1.1,0-1.9-0.9-1.9-1.9c0.9-1-2.1-38.3,1.9-36.3c0,0,14.8,0,14.8,0
							c1-0.8,4.9-7.7,6.5-7.3c0,0,18.9,0,18.9,0c1.8-0.4,5,6.4,6,7.3h11.6c1.1,0,1.9,0.9,1.9,1.9
							C1882.8,815,1885.8,852.4,1881.7,850.3z M1825.8,846.5h54V816c-12.1-0.7-10,3.3-16.7-7.3h-16.9c-1,0.8-4.9,7.7-6.5,7.3
							c0,0-13.8,0-13.8,0V846.5z"/>
						<g transform="matrix(1,0,0,1,-0.642958,0.0829457)">
							<path class="st13" d="M1855.4,845c-19.4-0.1-19.4-29.6,0-29.7C1874.8,815.3,1874.8,844.9,1855.4,845z M1855.4,819.1
								c-14.2-0.2-14.2,22.2,0,22C1869.6,841.3,1869.6,818.9,1855.4,819.1z"/>
						</g>
						<g transform="matrix(0.541336,0,0,0.541336,154.182,114.858)">
							<path class="st8" d="M3141.5,1308.5c16.8-0.2,16.8,26.1,0,25.8C3124.7,1334.6,3124.7,1308.3,3141.5,1308.5z"/>
						</g>
						<g transform="matrix(1.08619,0,0,1,-28.8009,0)">
							<path class="st8" d="M1717.9,811.4c-0.4-3.4-5-1.5-7.2-2c-2.3-0.3-1.8,4.2-1.8,4.9h9V811.4z"/>
						</g>
						<path class="st13" d="M1835.3,844.3c-1.1-0.3-6.3,0.9-6.2-1.2c-0.1-2.1,5.2-0.8,6.2-1.2
							C1836.8,841.9,1836.8,844.3,1835.3,844.3z"/>
						<g>
							<path class="st13" d="M1842.4,827.5c-0.7-0.5-20.8,1.3-19.8-1.2c-1.1-2.4,19.2-0.7,19.8-1.2
								C1843.9,825.2,1843.9,827.5,1842.4,827.5z"/>
							<g transform="matrix(1,0,0,1,11.1437,0)">
								<path class="st13" d="M1870.5,827.5H1856c-0.6,0-1.2-0.5-1.2-1.2c0-0.6,0.5-1.2,1.2-1.2h14.5
									C1872,825.2,1872,827.5,1870.5,827.5z"/>
							</g>
						</g>
					</g>
				</g>
				<g transform="matrix(1,0,0,1,64.5928,-1.33136)">
					<g transform="matrix(1,0,0,1,70.4514,0)">
						<path class="st12" d="M1949,784.7h-113.1c-1.6,0-3.1-0.6-4.3-1.8c-1.1-1.1-1.8-2.6-1.8-4.3v-83.5c0-1.6,0.6-3.1,1.8-4.3
							c1.1-1.1,2.7-1.8,4.3-1.8H1949c3.2-0.1,6.1,2.8,6,6c0,0,0,83.5,0,83.5C1955.1,781.9,1952.3,784.7,1949,784.7z M1835.9,693
							c-1.1,0-2.2,1-2.1,2.1c0.6,1.5-1.2,84,0.6,85c3.1,1.3,113,1.2,116.1,0c0.4-0.4,0.6-0.9,0.6-1.5c-0.6-1.5,1.2-84-0.6-85
							C1949.2,691.8,1837.6,693.7,1835.9,693z"/>
					</g>
					<g transform="matrix(0.907506,0,0,1,93.3356,5.68434e-14)">
						<rect x="2008.9" y="706.5" class="st5" width="102.4" height="60.8"/>
					</g>
					<g transform="matrix(1,0,0,1,-3.39164,0.302835)">
						<path class="st13" d="M1995.3,759.4h-57.9c-1.1,0-1.9-0.9-1.9-1.9c0.9-1-2.1-38.3,1.9-36.3c0,0,14.8,0,14.8,0
							c1-0.8,4.9-7.7,6.5-7.3c0,0,18.9,0,18.9,0c1.8-0.4,5,6.4,6,7.3h11.6c1.1,0,1.9,0.9,1.9,1.9
							C1996.4,724.1,1999.4,761.4,1995.3,759.4z M1939.3,755.5h54V725c-12.1-0.7-10,3.3-16.7-7.3h-16.9c-1,0.8-4.9,7.7-6.5,7.3
							c0,0-13.8,0-13.8,0V755.5z"/>
						<g transform="matrix(1,0,0,1,-0.642958,0.0829457)">
							<path class="st13" d="M1969,754c-19.4-0.1-19.4-29.6,0-29.7C1988.4,724.4,1988.4,753.9,1969,754z M1969,728.2
								c-14.2-0.2-14.2,22.2,0,22C1983.2,750.3,1983.2,728,1969,728.2z"/>
						</g>
						<g transform="matrix(0.541336,0,0,0.541336,154.182,114.858)">
							<path class="st8" d="M3351.2,1140.5c16.8-0.2,16.8,26.1,0,25.8C3334.5,1166.6,3334.5,1140.3,3351.2,1140.5z"/>
						</g>
						<g transform="matrix(1.08619,0,0,1,-28.8009,0)">
							<path class="st8" d="M1822.4,720.5c-0.4-3.4-5-1.5-7.2-2c-2.3-0.3-1.8,4.2-1.8,4.9h9V720.5z"/>
						</g>
						<path class="st13" d="M1948.9,753.3c-1.1-0.3-6.3,0.9-6.2-1.2c-0.1-2.1,5.2-0.8,6.2-1.2C1950.4,751,1950.4,753.4,1948.9,753.3
							z"/>
						<g>
							<path class="st13" d="M1956,736.6c-0.7-0.5-20.8,1.3-19.8-1.2c-1.1-2.4,19.2-0.7,19.8-1.2
								C1957.5,734.2,1957.5,736.6,1956,736.6z"/>
							<g transform="matrix(1,0,0,1,11.1437,0)">
								<path class="st13" d="M1984,736.6h-14.5c-0.6,0-1.2-0.5-1.2-1.2c0-0.6,0.5-1.2,1.2-1.2h14.5
									C1985.6,734.2,1985.6,736.6,1984,736.6z"/>
							</g>
						</g>
					</g>
				</g>
				<g transform="matrix(1,0,0,1,64.5928,30.1619)">
					<g transform="matrix(1,0,0,1,70.4514,0)">
						<path class="st12" d="M1949,875.6h-113.1c-1.6,0-3.1-0.6-4.3-1.8c-1.1-1.1-1.8-2.6-1.8-4.3v-83.5c0-1.6,0.6-3.1,1.8-4.3
							c1.1-1.1,2.7-1.8,4.3-1.8H1949c3.2-0.1,6.1,2.8,6,6c0,0,0,83.5,0,83.5C1955.1,872.8,1952.3,875.7,1949,875.6z M1835.9,784
							c-1.1,0-2.2,1-2.1,2.1c0.6,1.5-1.2,84,0.6,85c3.1,1.3,113,1.2,116.1,0c0.4-0.4,0.6-0.9,0.6-1.5c-0.6-1.5,1.2-84-0.6-85
							C1949.2,782.7,1837.6,784.7,1835.9,784z"/>
					</g>
					<g transform="matrix(0.907506,0,0,1,93.3356,5.68434e-14)">
						<rect x="2008.9" y="797.5" class="st5" width="102.4" height="60.8"/>
					</g>
					<g transform="matrix(1,0,0,1,-3.39164,0.302835)">
						<path class="st13" d="M1995.3,850.3h-57.9c-1.1,0-1.9-0.9-1.9-1.9c0.9-1-2.1-38.3,1.9-36.3c0,0,14.8,0,14.8,0
							c1-0.8,4.9-7.7,6.5-7.3c0,0,18.9,0,18.9,0c1.8-0.4,5,6.4,6,7.3h11.6c1.1,0,1.9,0.9,1.9,1.9
							C1996.4,815,1999.4,852.4,1995.3,850.3z M1939.3,846.5h54V816c-12.1-0.7-10,3.3-16.7-7.3h-16.9c-1,0.8-4.9,7.7-6.5,7.3
							c0,0-13.8,0-13.8,0V846.5z"/>
						<g transform="matrix(1,0,0,1,-0.642958,0.0829457)">
							<path class="st13" d="M1969,845c-19.4-0.1-19.4-29.6,0-29.7C1988.4,815.3,1988.4,844.9,1969,845z M1969,819.1
								c-14.2-0.2-14.2,22.2,0,22C1983.2,841.3,1983.2,818.9,1969,819.1z"/>
						</g>
						<g transform="matrix(0.541336,0,0,0.541336,154.182,114.858)">
							<path class="st8" d="M3351.2,1308.5c16.8-0.2,16.8,26.1,0,25.8C3334.5,1334.6,3334.5,1308.3,3351.2,1308.5z"/>
						</g>
						<g transform="matrix(1.08619,0,0,1,-28.8009,0)">
							<path class="st8" d="M1822.4,811.4c-0.4-3.4-5-1.5-7.2-2c-2.3-0.3-1.8,4.2-1.8,4.9h9V811.4z"/>
						</g>
						<path class="st13" d="M1948.9,844.3c-1.1-0.3-6.3,0.9-6.2-1.2c-0.1-2.1,5.2-0.8,6.2-1.2
							C1950.4,841.9,1950.4,844.3,1948.9,844.3z"/>
						<g>
							<path class="st13" d="M1956,827.5c-0.7-0.5-20.8,1.3-19.8-1.2c-1.1-2.4,19.2-0.7,19.8-1.2
								C1957.5,825.2,1957.5,827.5,1956,827.5z"/>
							<g transform="matrix(1,0,0,1,11.1437,0)">
								<path class="st13" d="M1984,827.5h-14.5c-0.6,0-1.2-0.5-1.2-1.2c0-0.6,0.5-1.2,1.2-1.2h14.5
									C1985.6,825.2,1985.6,827.5,1984,827.5z"/>
							</g>
						</g>
					</g>
				</g>
			</g>
		</g>
	</g>
</g>
<g id="_x37_">
	<g transform="matrix(1,0,0,1,33.2994,-23.5915)">
		<g transform="matrix(0.768914,0,0,0.768914,16.1788,36.8149)">
			<path class="st7" d="M538.3,570c0-8.5-6.9-15.4-15.4-15.4H401.7c-8.5,0-15.4,6.9-15.4,15.4v121.2c0,8.5,6.9,15.4,15.4,15.4h121.2
				c8.5,0,15.4-6.9,15.4-15.4V570z"/>
		</g>
		<g transform="matrix(0.768914,0,0,0.768914,16.1788,77.5023)">
			<path class="st7" d="M538.3,722.8c0-8.5-6.9-15.4-15.4-15.4H401.7c-8.5,0-15.4,6.9-15.4,15.4V844c0,8.5,6.9,15.4,15.4,15.4h121.2
				c8.5,0,15.4-6.9,15.4-15.4V722.8z"/>
		</g>
		<g transform="matrix(0.768914,0,0,0.768914,16.1788,118.19)">
			<path class="st7" d="M538.3,875.6c0-8.5-6.9-15.4-15.4-15.4H401.7c-8.5,0-15.4,6.9-15.4,15.4v121.2c0,8.5,6.9,15.4,15.4,15.4
				h121.2c8.5,0,15.4-6.9,15.4-15.4V875.6z"/>
		</g>
		<g transform="matrix(0.768914,0,0,0.768914,58.0331,36.8149)">
			<path class="st7" d="M695.5,570c0-8.5-6.9-15.4-15.4-15.4H558.9c-8.5,0-15.4,6.9-15.4,15.4v121.2c0,8.5,6.9,15.4,15.4,15.4h121.2
				c8.5,0,15.4-6.9,15.4-15.4V570z"/>
		</g>
		<g transform="matrix(0.768914,0,0,0.768914,58.0331,77.5023)">
			<path class="st7" d="M695.5,722.8c0-8.5-6.9-15.4-15.4-15.4H558.9c-8.5,0-15.4,6.9-15.4,15.4V844c0,8.5,6.9,15.4,15.4,15.4h121.2
				c8.5,0,15.4-6.9,15.4-15.4V722.8z"/>
		</g>
		<g transform="matrix(0.768914,0,0,0.768914,58.0331,118.19)">
			<path class="st7" d="M695.5,875.6c0-8.5-6.9-15.4-15.4-15.4H558.9c-8.5,0-15.4,6.9-15.4,15.4v121.2c0,8.5,6.9,15.4,15.4,15.4
				h121.2c8.5,0,15.4-6.9,15.4-15.4V875.6z"/>
		</g>
		<g transform="matrix(0.768914,0,0,0.768914,99.8875,36.8149)">
			<path class="st7" d="M852.7,570c0-8.5-6.9-15.4-15.4-15.4H716c-8.5,0-15.4,6.9-15.4,15.4v121.2c0,8.5,6.9,15.4,15.4,15.4h121.2
				c8.5,0,15.4-6.9,15.4-15.4V570z"/>
		</g>
		<g transform="matrix(0.768914,0,0,0.768914,99.8875,77.5023)">
			<path class="st7" d="M852.7,722.8c0-8.5-6.9-15.4-15.4-15.4H716c-8.5,0-15.4,6.9-15.4,15.4V844c0,8.5,6.9,15.4,15.4,15.4h121.2
				c8.5,0,15.4-6.9,15.4-15.4V722.8z"/>
		</g>
		<g transform="matrix(0.768914,0,0,0.768914,99.8875,118.19)">
			<path class="st7" d="M852.7,875.6c0-8.5-6.9-15.4-15.4-15.4H716c-8.5,0-15.4,6.9-15.4,15.4v121.2c0,8.5,6.9,15.4,15.4,15.4h121.2
				c8.5,0,15.4-6.9,15.4-15.4V875.6z"/>
		</g>
	</g>
</g>
<g id="_x36_">
	<g transform="matrix(0.536884,2.77556e-17,-2.77556e-17,0.536884,624.212,4.72704)">
		<g transform="matrix(1,0,0,1,0,8.39336)">
			<g transform="matrix(1,0,0,1,-1.92952,-15.9769)">
				<path class="st5" d="M3734.3,406.4c317.6,5.4,317.5,477.8,0,483.2C3416.7,884.2,3416.7,411.8,3734.3,406.4z"/>
			</g>
			<g transform="matrix(0.906016,0,0,0.906016,9.80202,0.933131)">
				<path class="st14" d="M4108.7,454.9c317.6,5.4,317.5,477.8,0,483.2C3791.1,932.7,3791.2,460.3,4108.7,454.9z"/>
			</g>
		</g>
		<g transform="matrix(1,0,0,1,0,8.39336)">
			<g transform="matrix(0.867671,0,0,0.867671,-139.263,-0.347731)">
				<path class="st15" d="M4473.7,726.9l-7-152.8c0-2.6-2.1-4.6-4.6-4.6c-2.6,0-4.6,2.1-4.6,4.6l-7,152.8
					C4450.2,742,4473.9,742,4473.7,726.9z"/>
			</g>
			<g transform="matrix(0.867671,0,0,0.867671,-139.263,-0.347731)">
				<path class="st15" d="M4374.6,660.9l80.2,75.1c11.7,9.6,26.5-8.9,14.6-18.2C4469.4,720.8,4362.1,637.6,4374.6,660.9z"/>
			</g>
			<g transform="matrix(0.0885616,0,0,0.0885616,111.841,148.014)">
				<path class="st7" d="M40881,5223.4c316,1.4,315.9,481.8,0,483.2C40565,5705.2,40565.1,5224.8,40881,5223.4z"/>
			</g>
		</g>
		<g transform="matrix(1,0,0,1,1.73372e-11,0.448756)">
			<g transform="matrix(1.23764,0,0,1.23764,-68.1949,-227.091)">
				<path class="st16" d="M3070.8,569.7c-2.1,0-3.9-1.7-3.9-3.9v-30.1c0-2.1,1.7-3.9,3.9-3.9s3.9,1.7,3.9,3.9v30.1
					C3074.7,567.9,3072.9,569.7,3070.8,569.7z"/>
			</g>
			<g transform="matrix(7.57835e-17,1.23764,-1.23764,7.57835e-17,521.88,-19.1979)">
				<path class="st16" d="M536.5-2758.9v30.1c0.1,5-7.8,5.1-7.8,0c0,0,0-30.1,0-30.1C528.6-2764,536.6-2764,536.5-2758.9z"/>
			</g>
			<g transform="matrix(1.23764,0,0,1.23764,-68.1949,-131.676)">
				<path class="st16" d="M3070.8,792.3c-2.1,0-3.9-1.7-3.9-3.9v-30.1c0-2.1,1.7-3.9,3.9-3.9s3.9,1.7,3.9,3.9v30.1
					C3074.7,790.5,3072.9,792.3,3070.8,792.3z"/>
			</g>
			<g transform="matrix(7.57835e-17,1.23764,-1.23764,7.57835e-17,426.465,-19.1979)">
				<path class="st16" d="M536.5-2536.3v30.1c0.1,5-7.8,5.1-7.8,0c0,0,0-30.1,0-30.1C528.6-2541.4,536.6-2541.4,536.5-2536.3z"/>
			</g>
		</g>
	</g>
</g>
<g id="_x35_">
	<g transform="matrix(1.09635,0,0,1.09635,-11.748,143.294)">
		<g transform="matrix(-1.31401,0.0810334,0.0810334,1.31401,233.662,-57.4974)">
			<g transform="matrix(0.912114,0,0,0.912114,-538.132,-47.4974)">
				<path class="st17" d="M544.2,884.2c-43.6-49.8-86-175.5-56.4-258.4C531,717.5,550.6,773.1,544.2,884.2z"/>
			</g>
			<g transform="matrix(0.912114,0,0,0.912114,-538.132,-47.4974)">
				<path class="st18" d="M536.7,850.4c0.2-14.7-10.7-67.4-15.1-85.2c-10.3-31.1-21.9-65.3-28.7-106.3
					c3.4,41.5,18.4,75.4,27.6,106.6C526,783.2,533.5,836,536.7,850.4z"/>
			</g>
		</g>
		<g transform="matrix(1.31133,0.11655,-0.11655,1.31133,-6.12253,-57.4709)">
			<g transform="matrix(0.912114,0,0,0.912114,-538.132,-47.4974)">
				<path class="st19" d="M959.6,860.8c-43.6-49.8-86-175.5-56.4-258.4C946.4,694.1,966,749.8,959.6,860.8z"/>
			</g>
			<g transform="matrix(0.912114,0,0,0.912114,-538.132,-47.4974)">
				<path class="st18" d="M952.1,827c-3.2-14.4-10.7-67.2-16.3-84.9c-9.1-31.2-24.1-65.2-27.6-106.6c6.8,41.1,18.4,75.2,28.7,106.3
					C941.4,759.6,952.3,812.3,952.1,827z"/>
			</g>
		</g>
		<g transform="matrix(0.971748,-0.236019,0.236019,0.971748,-26.7454,30.4271)">
			<g transform="matrix(0.912114,0,0,0.912114,-538.132,-47.4974)">
				<path class="st17" d="M745.8,1126.4c-43.6-49.8-86-175.5-56.4-258.4C732.6,959.7,752.2,1015.4,745.8,1126.4z"/>
			</g>
			<g transform="matrix(0.912114,0,0,0.912114,-538.132,-47.4974)">
				<path class="st18" d="M738.1,1092.9c-3.1-14.7-10.7-67.2-16.2-85c-8.9-31.1-24.6-65.6-27.4-106.9c7.3,40.7,18.4,75.4,28.9,106.5
					C727.4,1025.2,739.6,1078.9,738.1,1092.9z"/>
			</g>
		</g>
		<g transform="matrix(-0.913256,-0.407386,-0.407386,0.913256,270.833,52.253)">
			<g transform="matrix(0.912114,0,0,0.912114,-538.132,-47.4974)">
				<path class="st20" d="M102.5,889.4c-43.6-49.8-86-175.5-56.4-258.4C89.2,722.7,108.8,778.4,102.5,889.4z"/>
			</g>
			<g transform="matrix(0.912114,0,0,0.912114,-538.132,-47.4974)">
				<path class="st18" d="M94.6,855.8c2-13.5-10.7-67.7-14.6-85.4c-10.5-31-21.6-65.8-28.9-106.5c2.8,41.3,18.5,75.7,27.4,106.9
					C83.9,788.6,91.8,840.9,94.6,855.8z"/>
			</g>
		</g>
		<g transform="matrix(-1.09025,-0.267638,-0.267638,1.09025,262.49,8.26574)">
			<g transform="matrix(0.912114,0,0,0.912114,-538.132,-47.4974)">
				<path class="st21" d="M299.1,897.9c-43.6-49.8-86-175.5-56.4-258.4C285.9,731.2,305.4,786.9,299.1,897.9z"/>
			</g>
			<g transform="matrix(0.912114,0,0,0.912114,-538.132,-47.4974)">
				<path class="st18" d="M291.3,864.3c1.3-14-10.7-67.6-14.8-85.3c-10.4-31-21.7-65.6-28.8-106.4c3,41.4,18.4,75.6,27.5,106.8
					C280.7,797.1,288.4,849.5,291.3,864.3z"/>
			</g>
		</g>
		<g transform="matrix(0.929632,0,0,0.929632,7.32853,11.572)">
			<g transform="matrix(0.60027,0,0,0.523751,-51.6078,-61.2815)">
				<path class="st22" d="M863.3,1913.6c0.2-9.8-7.3-18.4-15.9-18.2c-53.5,0-226.8,0-280.3,0c-8.5-0.2-16.1,8.4-15.9,18.2
					c0,75.1,0,361.6,0,463.7c0,20.1,14.2,36.4,31.8,36.4c59.9,0,188.7,0,248.5,0c17.5,0,31.8-16.3,31.8-36.4
					C863.3,2275.2,863.3,1988.7,863.3,1913.6z"/>
			</g>
			<g transform="matrix(0.843539,0,0,0.678172,19.3522,42.3908)">
				<path class="st23" d="M544.5,1319.2c0-6.2-4.1-11.3-9-11.3c-39,0-192.3,0-231.3,0c-10.9,0.3-9.1,15.8-9,25.3
					c0,6.2,4.1,11.2,9,11.2c39,0,192.3,0,231.3,0C546.4,1344.2,544.5,1328.7,544.5,1319.2z"/>
			</g>
		</g>
	</g>
</g>
<g id="_x34_">
	<g transform="matrix(0.960888,0,0,0.960888,25.7693,16.3811)">
		<g transform="matrix(1,0,0,1,0.0923096,0)">
			<path class="st10" d="M2365.4,1402.3c-4.5,0-8.2-3.9-7.8-8.5c0,0,34-381.2,34-381.2c0.4-4.3,4.1-7.4,8.4-7.1
				c4.3,0.4,7.4,4.2,7.1,8.4l-34,381.2C2372.8,1399.3,2369.4,1402.3,2365.4,1402.3z"/>
			<g transform="matrix(-1,0,0,1,1285.96,0)">
				<path class="st10" d="M-1388.6,1402.3c4,0,7.4-3,7.7-7.1l34-381.2c0.4-4.3-2.8-8.1-7.1-8.4c-4.3-0.4-8.1,2.8-8.4,7.1l-34,381.2
					C-1396.7,1398.4-1393.1,1402.3-1388.6,1402.3z"/>
			</g>
			<g transform="matrix(1,0,0,1,0,14.4937)">
				<path class="st10" d="M2657.6,1197.2h-275.2c-4.3,0-7.8-3.5-7.8-7.8c0-4.3,3.5-7.8,7.8-7.8h275.2
					C2667.6,1181.5,2667.7,1197.4,2657.6,1197.2z"/>
			</g>
		</g>
		<g>
			<path class="st22" d="M2376.7,1395.6l1.5-16.5c0.6-6.4-22.7-8.5-23.2-2.1l-1.5,16.5C2352.2,1408.7,2375.3,1410.8,2376.7,1395.6z"
				/>
			<g transform="matrix(-1,0,0,1,1286.15,0)">
				<path class="st22" d="M-1377.2,1395.6l1.5-16.5c0.6-6.4-22.7-8.5-23.2-2.1l-1.5,16.5
					C-1401.8,1408.7-1378.7,1410.8-1377.2,1395.6z"/>
			</g>
		</g>
		<g transform="matrix(1,0,0,0.82069,-1.59239,47.0881)">
			<path class="st22" d="M2669.7,1138.4c0-13.6-9.1-24.6-20.2-24.6c-54.1,0-201.5,0-255.6,0c-29.3,2-18.2,46.9-20.2,70.7
				c0,13.6,9.1,24.6,20.2,24.6c54.1,0,201.5,0,255.6,0C2678.8,1207.1,2667.7,1162.2,2669.7,1138.4z"/>
		</g>
	</g>
</g>
<g id="_x33_">
	<g transform="matrix(-0.950277,0,0,0.950277,936.39,30.4656)">
		<g transform="matrix(-1.05232,2.92079e-17,0,1.05232,969.666,-36.1496)">
			<path class="st6" d="M2449.9,418.2c3.1,18.7,15.9,61.6,33,90.5c14.6,24.7,87.3,130.4,81.5,147c-6.3,17.8-52.7,38.4-109.4,47.5
				c-70.2,11.3-150.4-0.2-159.1-2c-8.2-25.7-8.7-257.8-4.8-290.9C2291.2,410.2,2427,406.4,2449.9,418.2z"/>
		</g>
		<g transform="matrix(-0.597068,0.488075,0.488075,0.597068,599.335,-269.703)">
			<g transform="matrix(-0.82022,0.572048,0.572048,0.82022,615.893,-164.628)">
				<path class="st24" d="M-2109.2,906c-22.5-14.9-79.9-87.6-100.3-132c-13-28.3-20.1-51-21-73.6c-0.7-15.1,15-25,33.3-32.4
					c26.5-10.8,53.7,10.5,72.5,43.2c11.3,19.6,94.2,136.8,97.9,162.7c2.5,17.2-7,32.7-16.3,41.1
					C-2059.9,930.3-2083.6,922.9-2109.2,906z"/>
			</g>
			<g transform="matrix(-0.82022,0.572048,0.572048,0.82022,615.893,-164.628)">
				<path class="st25" d="M-2075.9,782.4c14.1,22.1-73.9,90.6-95.8,61.2c-6.2-8.3-11.6-17.1-16.5-25.9
					c-8.7-15.6,80.8-86.4,89.3-75.6C-2090.1,753.1-2084.6,768.9-2075.9,782.4z"/>
			</g>
			<g transform="matrix(-0.82022,0.572048,0.572048,0.82022,615.893,-164.628)">
				<path class="st25" d="M-2085.4,755.3c4.2,29.5-72.6,78.7-89.7,75.5c-10.3-1.9-28.4-5.7-40.3-28.9
					c-28.5-61.1-36.3-117.6,15.7-137.1C-2149.6,651.2-2091.9,688-2085.4,755.3z"/>
			</g>
			<g transform="matrix(0.998224,0.0595701,-0.0595701,0.998224,15.5744,-35.3604)">
				<g transform="matrix(-0.784686,0.619893,0.619893,0.784686,591.552,-164.799)">
					<path class="st13" d="M-2174.3,832c19.4-0.1,90.5-41.7,89.9-76.9c-10.8-54.9-24-68.9-62.5-88c-1.3-0.5-2.1,1.5-0.8,2
						c37.8,18.8,50.6,32.3,61.2,86.3c1,33.6-73.5,76.6-88.4,74.3C-2176.9,829.7-2176.1,832.5-2174.3,832z"/>
				</g>
				<g transform="matrix(1.23887,0.572074,-0.572074,1.23887,-91.7397,-373.044)">
					<path class="st13" d="M1739.7-1186.6c0.1,2.9-29.8-20.8-19.1-22.9c5.3-0.2,17.9,13.6,19.3,15.2c0.7,0.7-0.5,1.8-1.2,1
						c-3-3.1-17-18.5-19-13.5C1720.1-1201.8,1735.8-1191.5,1739.7-1186.6z"/>
				</g>
				<g transform="matrix(1.23887,0.572074,-0.572074,1.23887,-91.7397,-373.044)">
					<path class="st13" d="M1770.1-1213.3c-0.3,0.8-1.5,0.6-1.5-0.3c-0.5-7.1-1.1-17.5-3.7-15.3c-4,4.9,0.1,19.8,0.2,19.9
						c0.3,1-1.2,1.4-1.5,0.4C1757.1-1225.7,1768.8-1247.1,1770.1-1213.3z"/>
				</g>
			</g>
			<g transform="matrix(0.125203,-0.683608,0.683608,0.125203,262.693,369.899)">
				<path class="st24" d="M1848.3,3194.9c21.3-3.8,204.7,64.5,254.1,88.5c30.1,14.6,22.5,54.1,12.2,79.1
					c-14.3,34.8-43.9,64.7-84.8,38.7C1988.6,3365.9,1796.6,3267.6,1848.3,3194.9z"/>
			</g>
		</g>
		<g>
			<g transform="matrix(-0.754982,-0.122854,-0.122854,0.754982,911.427,85.1457)">
				<path class="st24" d="M2566,1981c6-36.1,25.3-363.6,26.4-417.1c1-45.3,148.1-32.9,156-4.4c2.6,9.2-24.2,380.5-19.7,432.7
					c1.4,16.7,18.7,97.8,7.2,112.1c-17,21.2-266.6,66-309.4,36.7c-10.2-7-6.9-52.9,18.1-67.8C2481.7,2051,2559,2023,2566,1981z"/>
			</g>
			<g transform="matrix(-0.939222,-0.252412,-0.252412,0.939222,665.393,54.2748)">
				<g transform="matrix(0.782477,0.0794831,-0.0794831,0.782477,-252.548,-35.0026)">
					<path class="st26" d="M2564.6,1981.2c17.3-154.8-26.3-120.7,87.8-114.9c41.1,0.6,84.6-9.1,84.4-2.3
						c-0.3,15.2-7.4,122.7-6.9,129.2c1.4,16.7,17.3,96.8,5.9,111c-9.2,17.1-421.7,113.9-291.3-31
						C2481.7,2051,2557.6,2023.2,2564.6,1981.2z"/>
				</g>
				<g transform="matrix(1,0,0,1,2.63284,-15.5307)">
					<g transform="matrix(1,0,0,1,-0.330423,-0.308818)">
						<path class="st27" d="M1617.2,1682.9c-3.6,0.6,2.7-24.5,2.2-25.8c0.3-2.5,4.3-1.9,3.8,0.6c0,0-3.6,23.6-3.6,23.6
							C1619.5,1682.5,1618.3,1683.3,1617.2,1682.9z"/>
					</g>
					<g transform="matrix(1,0,0,1,3.65855,0.74578)">
						<path class="st27" d="M1628.7,1686c-3.6,0.6,2.7-24.5,2.2-25.8c0.3-2.5,4.3-1.9,3.8,0.6c0,0-3.6,23.6-3.6,23.6
							C1631,1685.5,1629.8,1686.3,1628.7,1686z"/>
					</g>
					<g transform="matrix(1,0,0,1,7.90456,1.65207)">
						<path class="st27" d="M1641,1688.6c-3.6,0.6,2.7-24.5,2.2-25.8c0.3-2.5,4.3-1.9,3.8,0.6c0,0-3.6,23.6-3.6,23.6
							C1643.2,1688.2,1642.1,1688.9,1641,1688.6z"/>
					</g>
					<g transform="matrix(1,0,0,1,12.759,2.44534)">
						<path class="st27" d="M1655,1690.9c-3.6,0.6,2.7-24.5,2.2-25.8c0.3-2.5,4.3-1.9,3.8,0.6c0,0-3.6,23.6-3.6,23.6
							C1657.3,1690.5,1656.1,1691.2,1655,1690.9z"/>
					</g>
					<g transform="matrix(1,0,0,1,17.6214,2.97971)">
						<path class="st27" d="M1669,1692.4c-3.6,0.6,2.7-24.5,2.2-25.8c0.3-2.5,4.3-1.9,3.8,0.6c0,0-3.6,23.6-3.6,23.6
							C1671.3,1692,1670.1,1692.7,1669,1692.4z"/>
					</g>
					<g transform="matrix(1,0,0,1,21.8911,3.10988)">
						<path class="st27" d="M1681.4,1692.8c-3.6,0.6,2.7-24.5,2.2-25.8c0.3-2.5,4.3-1.9,3.8,0.6c0,0-3.6,23.6-3.6,23.6
							C1683.6,1692.4,1682.5,1693.1,1681.4,1692.8z"/>
					</g>
					<g transform="matrix(1,0,0,1,26.7652,3.25849)">
						<path class="st27" d="M1695.4,1693.2c-3.6,0.6,2.7-24.5,2.2-25.8c0.3-2.5,4.3-1.9,3.8,0.6c0,0-3.6,23.6-3.6,23.6
							C1697.7,1692.8,1696.5,1693.6,1695.4,1693.2z"/>
					</g>
				</g>
			</g>
			<g transform="matrix(-0.939222,-0.252412,-0.252412,0.939222,665.393,54.2748)">
				<g transform="matrix(0.782477,0.0794831,-0.0794831,0.782477,-252.548,-35.0026)">
					<path class="st8" d="M2552.9,1998.1c20.2-64.9-6-40,82.5-37.9c76.8-1.7,88.7-1.3,96.8-1.6c5-0.2-0.3,35.6-0.2,36.4
						c1.4,16.7,23.6,105,12.1,119.3c-17,21.2-274.9,55.9-317.6,26.6c-10.2-7-6.9-52.9,18.1-67.8
						C2481.7,2051,2529.4,2033.7,2552.9,1998.1z"/>
				</g>
				<g>
					<path class="st28" d="M1551.5,1792.4c-0.6-0.1-1-0.5-1.3-1.1c-6.2-14.1-17.3-24.5-17.4-24.6c-2.4-11.1,14.5,8,20.9,23
						C1554.5,1791.2,1553,1792.9,1551.5,1792.4z"/>
					<g transform="matrix(1,0,0,1,3.73982,-1.57084)">
						<path class="st28" d="M1562.3,1787.9c-0.6-0.1-1-0.5-1.3-1.1c-6.2-14.1-17.3-24.5-17.4-24.6c-2.4-11.1,14.5,8,20.9,23
							C1565.3,1786.7,1563.8,1788.3,1562.3,1787.9z"/>
					</g>
					<g transform="matrix(1,0,0,1,7.2299,-3.24262)">
						<path class="st28" d="M1572.4,1783.1c-0.6-0.1-1-0.5-1.3-1.1c-6.2-14.1-17.3-24.5-17.4-24.6c-2.4-11.1,14.5,8,20.9,23
							C1575.4,1781.8,1573.9,1783.5,1572.4,1783.1z"/>
					</g>
				</g>
				<g transform="matrix(0.782477,0.0794831,-0.0794831,0.782477,-252.548,-35.0026)">
					<path class="st25" d="M2422.5,2109.7c56.8,25.1,266.9-6,324.2-26.5c2.6,14.5,2.7,46.3-0.9,50.8c-17,21.2-274.9,55.9-317.6,26.6
						C2423,2157.1,2419.7,2124,2422.5,2109.7z"/>
				</g>
			</g>
			<g transform="matrix(-0.645563,0.410291,0.410291,0.645563,668.311,-221.915)">
				<path class="st8" d="M3136.3-153.7C3071.1-101.8,2947.4,9.8,2931-11c-94.4-108.9-20.7-257.9,81.9-329.4
					c-7.2-19.6-26.3-61.1-18.6-62c20.5-2.5,158.5-108.7,216-119.2c22.5-4.1,153.1,39.6,176.4,148.1
					C3403.6-294.2,3212.2-214.1,3136.3-153.7z"/>
			</g>
			<g transform="matrix(-1.05232,0,0,1.05232,992.412,-36.1496)">
				<path class="st29" d="M2110.4,960.3c-22-65.3,56.2-160.6,144.2-166.2c1-0.2,1.3,1.4,0.3,1.5
					C2163,803.7,2095.1,891.9,2110.4,960.3z"/>
			</g>
		</g>
		<g transform="matrix(-0.95314,0.193326,0.193326,0.95314,505.836,-30.2892)">
			<g transform="matrix(0.639205,-0.458262,0.458262,0.639205,-373.446,308.501)">
				<path class="st24" d="M2251.9,2352.6c6-36.1,13-238,14.1-291.6c1-45.3,148.1-32.9,156-4.4c2.6,9.2-11.9,255-7.4,307.2
					c1.4,16.7,18.7,97.8,7.2,112.1c-17,21.2-266.6,66-309.4,36.7c-10.2-7-6.9-52.9,18.1-67.8
					C2167.6,2422.6,2244.9,2394.7,2251.9,2352.6z"/>
			</g>
			<g transform="matrix(1.06043,-0.215089,0.215089,1.06043,-468.602,88.8987)">
				<path class="st28" d="M2205.2,1015.4c-1-0.7-33.4-78.6-32-79.8c2-1,31.7,78.3,32.7,78.7
					C2206.1,1014.8,2205.7,1015.4,2205.2,1015.4z"/>
			</g>
			<g transform="matrix(0.749674,-0.661807,0.661807,0.749674,-160.952,167.603)">
				<g transform="matrix(0.782477,0.0794831,-0.0794831,0.782477,-252.548,-35.0026)">
					<path class="st26" d="M2250.5,2352.8c17.3-154.8-26.3-120.7,87.8-114.9c41.1,0.6,84.6-9.1,84.4-2.3
						c-0.3,15.2-7.4,122.7-6.9,129.2c1.4,16.7,17.3,96.8,5.9,111c-9.2,17.1-421.7,113.9-291.3-31
						C2167.6,2422.6,2243.5,2394.9,2250.5,2352.8z"/>
				</g>
				<g transform="matrix(1,0,0,1,2.63284,-15.5307)">
					<g transform="matrix(1,0,0,1,-0.330423,-0.308818)">
						<path class="st27" d="M1341.4,1948.6c-2.6,0.4,3-24.7,2.7-25.6c0.2-1.1,1.2-1.8,2.2-1.6c1.1,0.2,1.8,1.2,1.6,2.2l-3.6,23.6
							C1344.1,1948.5,1342.6,1949.3,1341.4,1948.6z"/>
					</g>
					<g transform="matrix(1,0,0,1,3.65855,0.74578)">
						<path class="st27" d="M1352.9,1951.6c-2.6,0.4,3-24.7,2.7-25.6c0.2-1.1,1.2-1.8,2.2-1.6c1.1,0.2,1.8,1.2,1.6,2.2l-3.6,23.6
							C1355.6,1951.6,1354.1,1952.3,1352.9,1951.6z"/>
					</g>
					<g transform="matrix(1,0,0,1,7.90456,1.65207)">
						<path class="st27" d="M1365.2,1954.2c-2.6,0.4,3-24.7,2.7-25.6c0.2-1.1,1.2-1.8,2.2-1.6c1.1,0.2,1.8,1.2,1.6,2.2l-3.6,23.6
							C1367.9,1954.2,1366.3,1954.9,1365.2,1954.2z"/>
					</g>
					<g transform="matrix(1,0,0,1,12.759,2.44534)">
						<path class="st27" d="M1379.2,1956.5c-2.6,0.4,3-24.7,2.7-25.6c0.2-1.1,1.2-1.8,2.2-1.6c1.1,0.2,1.8,1.2,1.6,2.2l-3.6,23.6
							C1381.9,1956.5,1380.3,1957.2,1379.2,1956.5z"/>
					</g>
					<g transform="matrix(1,0,0,1,17.6214,2.97971)">
						<path class="st27" d="M1393.2,1958.1c-2.6,0.4,3-24.7,2.7-25.6c0.2-1.1,1.2-1.8,2.2-1.6c1.1,0.2,1.8,1.2,1.6,2.2l-3.6,23.6
							C1396,1958,1394.4,1958.8,1393.2,1958.1z"/>
					</g>
					<g transform="matrix(1,0,0,1,21.8911,3.10988)">
						<path class="st27" d="M1405.6,1958.4c-2.6,0.4,3-24.7,2.7-25.6c0.2-1.1,1.2-1.8,2.2-1.6c1.1,0.2,1.8,1.2,1.6,2.2l-3.6,23.6
							C1408.3,1958.4,1406.7,1959.1,1405.6,1958.4z"/>
					</g>
					<g transform="matrix(1,0,0,1,26.7652,3.25849)">
						<path class="st27" d="M1419.6,1958.9c-2.6,0.4,3-24.7,2.7-25.6c0.2-1.1,1.2-1.8,2.2-1.6c1.1,0.2,1.8,1.2,1.6,2.2l-3.6,23.6
							C1422.4,1958.8,1420.8,1959.6,1419.6,1958.9z"/>
					</g>
				</g>
			</g>
			<g transform="matrix(0.749674,-0.661807,0.661807,0.749674,-160.952,167.603)">
				<g transform="matrix(0.782477,0.0794831,-0.0794831,0.782477,-252.548,-35.0026)">
					<path class="st8" d="M2238.8,2369.8c20.2-64.9-6-40,82.5-37.9c76.8-1.7,88.7-1.3,96.8-1.6c5-0.2-0.3,35.6-0.2,36.4
						c1.4,16.7,23.6,105,12.1,119.3c-17,21.2-274.9,55.9-317.6,26.6c-10.2-7-6.9-52.9,18.1-67.8
						C2167.6,2422.6,2215.3,2405.4,2238.8,2369.8z"/>
				</g>
				<g>
					<path class="st28" d="M1275.7,2058c-6.2-12.8-18-26-18.2-25.5c-2.4-11.1,14.5,8,20.9,23C1279.3,2057.2,1277.3,2059,1275.7,2058
						z"/>
					<g transform="matrix(1,0,0,1,3.73982,-1.57084)">
						<path class="st28" d="M1286.5,2053.5c-6.2-12.8-18-26-18.2-25.5c-2.4-11.1,14.5,8,20.9,23
							C1290.1,2052.7,1288.1,2054.5,1286.5,2053.5z"/>
					</g>
					<g transform="matrix(1,0,0,1,7.2299,-3.24262)">
						<path class="st28" d="M1296.6,2048.7c-6.2-12.8-18-26-18.2-25.5c-2.4-11.1,14.5,8,20.9,23
							C1300.2,2047.9,1298.1,2049.6,1296.6,2048.7z"/>
					</g>
				</g>
				<g transform="matrix(0.782477,0.0794831,-0.0794831,0.782477,-252.548,-35.0026)">
					<path class="st25" d="M2108.4,2481.3c56.8,25.1,266.9-6,324.2-26.5c2.6,14.5,2.7,46.3-0.9,50.8c-17,21.2-274.9,55.9-317.6,26.6
						C2108.9,2528.7,2105.6,2495.7,2108.4,2481.3z"/>
				</g>
			</g>
			<g transform="matrix(0.782477,0.0794831,-0.0794831,0.782477,-252.548,-35.0026)">
				<path class="st8" d="M3180.1,488.3c-69.4,26.8-184.8,78.3-215.4,86.1c-17.6,4.5-34.1-85.5-38.2-105.6
					c-20.9-132.8,109.4-193.7,219.9-190.6c-12.2-48.8-15-76,0.1-83.3c25.9-12.5,162.7-67.8,173.8-61
					c130.7,130.5,120,246.6,60.7,279.8C3307.5,454.9,3246.7,462.6,3180.1,488.3z"/>
			</g>
			<g>
				<g transform="matrix(0.782477,0.0794831,-0.0794831,0.782477,-252.548,-35.0026)">
					<path class="st29" d="M2926.9,413.6c24.6-103.1,111.4-132.7,219.4-136.4C3063.6,285.4,2959.1,298,2926.9,413.6z"/>
				</g>
				<g transform="matrix(0.983724,0.299227,-0.299227,0.983724,-185.465,-129.296)">
					<path class="st29" d="M2403,5.8c-40.1-29.5,156.8-71.5,155.8-128c7.5-64.5-73-127.7-110.1-148.4c-0.9-0.5,0-2,0.9-1.4
						c37.9,21.3,118.3,84.4,110.8,149.8c2.1,48.3-138.3,84.5-161.6,116.8c0.5,3,1.9,6.2,4.4,9.9C2403.5,5.1,2403.4,5.6,2403,5.8z"/>
				</g>
				<g transform="matrix(-0.983693,0.299329,0.299329,0.983693,492.231,-95.5338)">
					<path class="st29" d="M-1593.7,1009.1c27.5-10,51.4-37.3,60.9-85.9c-17.1,66.2-56,84.4-61.2,84.3
						C-1594.9,1007.7-1594.6,1009.2-1593.7,1009.1z"/>
				</g>
				<g transform="matrix(-0.983693,0.299329,0.299329,0.983693,491.218,-91.5227)">
					<path class="st29" d="M-1596.5,1020.6c30.8-7.4,75.2-42.7,75.9-97.8c-5.8,54-43.8,88.8-76.2,96.2
						C-1597.7,1019.2-1597.5,1020.7-1596.5,1020.6z"/>
				</g>
				<g transform="matrix(-1.0188,-0.138929,-0.138929,1.0188,587.103,40.6168)">
					<path class="st29" d="M-1615,322.2c0.4,0.1,0.8,0,1-0.3l0,0c0.1-0.1,5.9-9.3,29.4-19.6c7.4-3.2,8.4-2.5,8.4-2.4
						c0.6,3.6-17.2,15.9-27.3,22.1c9.8-0.8,28.4-18.1,28.9-21.8c-0.4-3.3-2.7-2.6-10.7,0.6C-1609.9,312.3-1616.4,319.9-1615,322.2z"
						/>
				</g>
				<g transform="matrix(-1.0188,-0.138929,-0.138929,1.0188,587.103,40.6168)">
					<path class="st29" d="M-1787.8,201.7c1.5,0.1,27.3-11.9,51.2-17.3c7.8-1.8,9.1-0.5,9.2-0.3c-1,4.9-14.9,11.7-30,11.3
						c-1.1-0.1-1.1,1.6-0.1,1.6c15.2,0.8,29.2-6.9,31.4-11.2c1.4-5.3-3.9-4.2-10.9-3C-1760.4,189-1790.5,199.1-1787.8,201.7z"/>
				</g>
			</g>
		</g>
		<g transform="matrix(0.971799,0.0381726,-0.0381726,0.971799,46.2032,0.840761)">
			<g transform="matrix(-0.572494,-0.11976,-0.11976,0.572494,455.114,-38.67)">
				<path class="st25" d="M3166.2,1822.3c59.6,0.4,163.8,26.5,197,85.2c11.3,18.3,5.7,58.2,4.3,106.4
					c-0.3,10.4-12.2,165.5-18.4,179.8c-26.7,61.5-265.2-14.2-317.6-26.6c-58.1-13.8-118.3-37.1-100.3-76.5
					c13.5-29.7,66.7-166.1,134.7-237.7C3084.7,1833.1,3121.5,1823.1,3166.2,1822.3z"/>
			</g>
			<g>
				<g transform="matrix(-1,0,0,1,546.693,-0.229162)">
					<path class="st13" d="M2021.4,801.9c6.9-44.2,21.9-96.7,22.8-89.4C2043.5,712.2,2032.8,756.4,2021.4,801.9z"/>
				</g>
				<g transform="matrix(-1.02743,0.040358,0.040358,1.02743,725.025,-14.7983)">
					<path class="st13" d="M2284.3,585.9c-16.3-0.2-23.4-14.1-21.6-15c2.5,0.2,7.2,19.2,31.9,11.6c16-5.1,32.6-23,31.5-46.2
						c-0.1-1,1.6-1.1,1.6-0.1C2328.3,564.6,2307,585.1,2284.3,585.9z"/>
				</g>
				<g transform="matrix(-1.02743,0.040358,0.040358,1.02743,725.025,-14.7983)">
					<path class="st13" d="M2233.8,578.6c-22.6-1.4-11.1-25,0.6-30.8c0.4-0.2,0.9-0.1,1.1,0.3c-5,5.5-20,16.7-10,26.2
						c8.6,7,20.8-0.9,29.1-5.1C2252.1,574.9,2240.7,578.3,2233.8,578.6z"/>
				</g>
			</g>
		</g>
		<g transform="matrix(-0.494312,-0.0717412,-0.0717412,0.494312,464.665,-20.9332)">
			<g transform="matrix(1.3727,0.251925,-0.251925,1.3727,-566.059,-57.1535)">
				<path class="st30" d="M3236.1,644.8c3.2,34.8-18.8,85.8,58.3,74.5c35.4-6.2,57.4-19.5,56.9-34.4c-0.3-9.3-1.8-67.3-1.8-67.3
					L3236.1,644.8z"/>
			</g>
			<g transform="matrix(0.945203,0.145653,-0.159913,1.03774,73.9361,-34.2499)">
				<path class="st24" d="M4026,1092.8c-150.2-7.7-171.8-366,50.6-337.7c182.4,12.6,142.5,196.7,128.3,247.1
					C4190.8,1051.8,4167.7,1097.8,4026,1092.8z"/>
			</g>
			<g transform="matrix(1.03478,0.178111,-0.178111,1.03478,61.407,-40.1087)">
				<path class="st6" d="M3627.5,686.7c-44.5,37.8-57.4,103.4-41.7,113.2c4.2,2.6,29,2,35.8,1.5c22.2-1.7,9.3-43.1,27.9-40.9
					c12.3,1.4,3.3,36.9,21.7,41.3c29.5,7,56.2,10.3,90,16.4c16.7,3,39,12.3,40.9,34c0.5,6.1-2.5,52.3,13.5,59.9
					c8.3,3.9,11.3-12,15.9-15.9c131.7,32.6,102.5-160.7,66.4-194.9C3818.6,626.5,3699,633.3,3627.5,686.7z"/>
			</g>
			<g transform="matrix(0.998847,0.0480087,-0.0480087,0.998847,6.24362,-16.7428)">
				<g transform="matrix(1.04213,0.128228,-0.128228,1.04213,39.5604,-30.5608)">
					<path class="st24" d="M3854.4,882.3c13-18.7,44.8-33.8,58.8,0c14.1,34.2-35,93-70.6,82.2
						C3815.6,956.4,3843.6,897.8,3854.4,882.3z"/>
				</g>
				<g transform="matrix(1,1.38778e-17,1.38778e-17,1,-0.310114,2.94637)">
					<g transform="matrix(-1.0261,-0.108,-0.108,1.0261,373.398,158.927)">
						<path class="st28" d="M-3560.9,858c1.3,0,2.1-1.6,1.3-2.6c-24.2-30.2-48.7-23.9-49.2-19.7
							C-3604.9,838.4-3585.5,827.9-3560.9,858z"/>
					</g>
					<g transform="matrix(-1.0261,-0.108,-0.108,1.0261,373.398,158.927)">
						<path class="st28" d="M-3590.2,858c2.1,0,8-11.3,18.7-11.1c2.4,0,2-3.6-0.3-3.2C-3582.4,843.9-3595.8,856.8-3590.2,858z"/>
					</g>
				</g>
			</g>
			<g transform="matrix(-1.00799,-0.220264,-0.220264,1.00799,382.02,177.883)">
				<g transform="matrix(1.86104,0.312714,-0.312714,1.86104,-90.137,-77.8723)">
					<path class="st28" d="M-1705.7,652.4c3.6-0.3,6.2-3.8,5.5-7.3c-1.3-5-1-17-9.2-15.3c-3.4,0.6-5.6,3.9-5,7.3
						C-1713.1,641.8-1713.5,653.4-1705.7,652.4z"/>
				</g>
				<g transform="matrix(1.88557,0.0766778,-0.0766778,1.88557,-87.1685,-47.9723)">
					<path class="st28" d="M-1719.2,417.5c3.6,0.1,6.6-3,6.4-6.6c-0.6-5.1,1.1-16.9-7.2-16.2c-3.4,0.2-6,3.1-5.8,6.6
						C-1725.1,406.2-1727,417.6-1719.2,417.5z"/>
				</g>
				<g transform="matrix(1,1.38778e-17,-1.38778e-17,1,0.335808,-1.34019)">
					<path class="st28" d="M-3403.8,634.4c4.5-0.7,21.6-17.6,7-22.5c-13-5.6-14.2-25.7-14.2-25.9c-6.7-8.1-2.1,23.6,13,28.9
						C-3383.9,621-3411,632-3403.8,634.4z"/>
				</g>
				<g transform="matrix(1.62315,0.962609,-0.962609,1.62315,0.293269,-142.141)">
					<path class="st28" d="M-1403.5,1254.2c2.7-1.8-1.1-5.1,4.1-8.2c6.4-4,7.8,2.5,11,0.3c0.7-0.8,0.7-2-0.1-2.7
						c-5.2-4.7-10.5-2-12.6-1C-1407.8,1246.2-1407.8,1255.7-1403.5,1254.2z"/>
				</g>
				<g transform="matrix(-1.88713,-1.30946e-17,-1.30946e-17,1.88713,393.236,-39.4533)">
					<path class="st28" d="M1995.1,307.6c-0.9,0.1-1.7-0.5-2-1.4c-1.7-4.1-8-3.1-9.1,0.2c-1,2.3-4.6,0.7-3.5-1.6
						c0.1-0.2,2.1-4.5,6.9-5.2C1991.9,298.4,2000.6,305,1995.1,307.6z"/>
				</g>
				<g transform="matrix(0.96863,0.248508,-0.248508,0.96863,41.2227,-26.4123)">
					<path class="st28" d="M-3182.8,1547.3c19.4-2.4,26.5-23.3,18.9-17.8c-11.4,28.2-61.4,12.3-65.1-5.1
						C-3241.1,1519.6-3215.2,1555.6-3182.8,1547.3z"/>
				</g>
			</g>
		</g>
		<g transform="matrix(0.56061,6.93889e-18,-6.93889e-18,0.56061,43.8698,-78.4668)">
			<g transform="matrix(1,0,0,0.714006,0,128.903)">
				<path class="st31" d="M-2297.2,1816.2c0-6-3.5-10.9-7.8-10.9c-67.5,9.9-467.1-19.4-525.1,10.9c-1.6,19.1,1.8,45.3,19.4,44.9
					c87.8,0,406.2,0,494,0C-2299.2,1861.5-2295.4,1835.3-2297.2,1816.2z"/>
			</g>
			<g transform="matrix(1.02338,2.52283e-32,-0.159568,1.04331,56.6673,-19.5219)">
				<path class="st0" d="M-2022.4,1123.6c0.4-18.4-18.3-36.7-37.4-36.2c0,0-381.9,0-381.9,0c-15.8,0-27.6,11.4-27.6,26.7
					c0,58.7,0,199,0,265.6c0,9.1,4.1,18.3,11.3,25.3c-9.1,21.7,401.4,7,408,11c15.8,0,27.6-11.4,27.6-26.7
					C-2022.4,1330.5-2022.4,1190.2-2022.4,1123.6z"/>
			</g>
			<g transform="matrix(1.02338,6.30708e-33,-0.159568,1.04331,60.6695,-19.5219)">
				<path class="st32" d="M-2446.9,1407.4c6.2,0.2-11.2-14-9.1-25.6c0,0,0-263.3,0-263.3c0-13.8,10.3-23.8,24.5-23.8
					c1.1,0,1.8-0.8,1.6-1.9c-0.2-1-1.2-1.9-2.2-1.9c-16.1,0-27.8,11.3-27.8,27C-2454.6,1132-2473.3,1406.8-2446.9,1407.4z"/>
			</g>
			<g transform="matrix(-1,9.55213e-17,9.55213e-17,1,1183.18,-6.17973e-14)">
				<path class="st33" d="M3644.1,1293.7c-8.7,40.9-71.3,34.4-71-7.9c-0.7-26.8,30.6-44.9,53.5-31.3
					C3574.9,1256.7,3608.1,1330.7,3644.1,1293.7z"/>
			</g>
		</g>
		<g transform="matrix(-0.933866,0,-1.11022e-16,0.933866,837.593,18.8399)">
			<g transform="matrix(0.222664,0.490135,-0.490135,0.222664,640.69,-12.8727)">
				<path class="st24" d="M2612.8-2194c14.7,5.8-20.5,125.1-57.1,121.8c-29.4-13.7-91.9-38.9-57.9-68.5c-10.6-8.6-0.4-34.7,14-33.8
					c-6.4-12,9.4-27.6,21.2-24.1C2555.2-2245.5,2584.3-2169,2612.8-2194z"/>
			</g>
			<g transform="matrix(0.222664,0.490135,-0.490135,0.222664,640.69,-12.8727)">
				<path class="st28" d="M2614.2-2193.4c-3.4,2.8-13.5,8.7-20.6,5.9c-13.4-4.1-38.5-36.6-53.3-20.2c-2.3,1.8-3,6-3.9,9.2
					c-6.7,1-15.3,0-20.7,7.8c-4.4,6-4.2,11.9-2.5,15.6c0,4.6-11.9,0.9-16.4,14c-4.9,10.3-0.2,15.1,2.5,20.7
					c-13.4,11.6-15.2,25.6,7.5,40.5c14,8.8,27.4,16.9,49.5,26.3c1.9,0.7,0.6,3.8-1.2,2.9c-30.5-14.3-91.7-38.8-59.6-70.3
					c-8.9-8.5-0.5-33.8,14.2-34.6c-5-12.7,11.7-28.1,24.2-25.4c12.1-35.2,44.4,3.9,61,10.8
					C2600.1-2186.5,2615.7-2200.1,2614.2-2193.4z"/>
			</g>
			<g transform="matrix(0.200816,-0.76709,-0.76709,-0.200816,546.738,746.932)">
				<g transform="matrix(-0.351182,-1.21125,-1.21125,0.351182,917.667,535.338)">
					<path class="st28" d="M2108-282.2c-5.4-1.7-17.4-29.2-9.8-34c-2.8,10.4,3.8,26.1,10,32.8C2108.6-283,2108.5-282.4,2108-282.2z"
						/>
				</g>
				<g transform="matrix(-0.351182,-1.21125,-1.21125,0.351182,917.048,540.54)">
					<path class="st28" d="M2095.3-277.1c-7.6-6-16.3-30.4-11.6-36.9c1.4,3.8-1.2,10.2,4.1,21.6c1.7,4.1,4,9,7.7,14.1
						C2095.8-277.9,2095.7-277.3,2095.3-277.1z"/>
				</g>
				<g transform="matrix(-0.351182,-1.21125,-1.21125,0.351182,915.909,545.071)">
					<path class="st28" d="M2082.9-271.2c-7.5-5.9-15.8-31.2-12.8-34.1c1.8,0.7,0.3,4.7,2.4,10.6c1.5,5.2,4,12.3,10.6,22.3
						C2083.4-271.9,2083.3-271.4,2082.9-271.2z"/>
				</g>
			</g>
		</g>
		<g transform="matrix(-0.700131,-0.3233,-0.3233,0.700131,784.831,195.371)">
			<g transform="matrix(-0.784686,0.619893,0.619893,0.784686,591.552,-164.799)">
				<path class="st24" d="M-300.7,2965.6c-39.7-30.2-121.5-139.9-121.3-205.6c-0.7-15.1,15-25,33.3-32.4
					c26.5-10.8,60.6,10.9,81.8,41.8c25.3,41.9,81.2,112.9,91.6,159C-211.7,2976.9-261.2,2992.5-300.7,2965.6z"/>
			</g>
			<g transform="matrix(-0.784686,0.619893,0.619893,0.784686,591.552,-164.799)">
				<path class="st25" d="M-260.3,2831.6c14.1,22.1-81.1,101-103,71.6c-6.2-8.3-11.6-17.1-16.5-25.9c-8.7-15.6,83.5-94.2,91.9-83.5
					C-279.1,2804.8-269,2818.1-260.3,2831.6z"/>
			</g>
			<g transform="matrix(-0.784686,0.619893,0.619893,0.784686,591.552,-164.799)">
				<path class="st25" d="M-277,2814.9c4.2,29.5-72.6,78.7-89.7,75.5c-10.3-1.9-28.4-5.7-40.3-28.9
					c-28.5-61.1-36.3-117.6,15.7-137.1C-341.2,2710.7-283.5,2747.6-277,2814.9z"/>
			</g>
			<g>
				<g transform="matrix(-0.784686,0.619893,0.619893,0.784686,591.552,-164.799)">
					<path class="st13" d="M-279.2,2829.9c11.6-25.1-14.8-69.4-19.1-74.2c-11.1-13-24.9-23-40.1-29c-1.3-0.5-2.1,1.5-0.8,2
						c37.8,18.8,50.6,32.3,61.2,86.3c1.7,11.7-10,25.6-20.1,35.3c-24.5,24-58.5,39.6-69.6,39.9
						C-352,2897.2-293.5,2857.2-279.2,2829.9z"/>
				</g>
				<g transform="matrix(1.23887,0.572074,-0.572074,1.23887,-91.7397,-373.044)">
					<path class="st13" d="M2485.3,678.7c-2.4-1.3-19.7-14.5-20.8-20.5c2.1-10.5,20.8,11.7,21.7,12.3c0.7,0.7-0.5,1.8-1.2,1
						c-3-3.1-16.9-18.5-19-13.5C2465.4,662.9,2489.9,678.7,2485.3,678.7z"/>
				</g>
				<g transform="matrix(1.23887,0.572074,-0.572074,1.23887,-91.7397,-373.044)">
					<path class="st13" d="M2510.6,656.8c-1.4-0.1-5-16.2-0.6-21.9c6.1-5.3,6,12.5,6.4,16.2c0,1-1.5,1.1-1.6,0.1
						c-0.5-7.1-1.1-17.5-3.7-15.3C2506.3,641.8,2513,656.6,2510.6,656.8z"/>
				</g>
			</g>
			<g transform="matrix(0.649079,0.199062,-0.199062,0.649079,517.66,-97.5228)">
				<path class="st24" d="M3501.5,1794.8c76.8-25.3,261.7,105.4,370.3,152.8c20.9,11.1,44.8,44.2,27.9,84.6
					c-58.3,146.1-246-99.6-290.9-119.9c-7.3-4.9-30.1-5.4-39.4-9.5c-38.9-17.1-81.2-37.2-99.7-57.6
					C3464.7,1839.6,3465.4,1809.7,3501.5,1794.8z"/>
			</g>
			<g transform="matrix(0.906427,0.803016,0.803016,-0.906427,-11.9424,-31.709)">
				<g transform="matrix(0.222664,0.490135,-0.490135,0.222664,640.69,-12.8727)">
					<path class="st24" d="M1854.4-3071.3c14.7,5.8-20.5,125.1-57.1,121.8c-29.4-13.7-91.9-38.9-57.9-68.5
						c-10.6-8.6-0.4-34.7,14-33.8c-6.4-12,9.4-27.6,21.2-24.1C1796.8-3122.8,1825.9-3046.2,1854.4-3071.3z"/>
				</g>
				<g transform="matrix(0.222664,0.490135,-0.490135,0.222664,640.69,-12.8727)">
					<path class="st28" d="M1755.9-3071.3c-5.1,5.6-6.3,13.6-4.6,18.2c-14.6,0.8-23.1,26.1-14.2,34.6c-31.5,31.7,28.6,56,59.6,70.3
						c1.8,0.8,3.1-2.1,1.2-2.9c-28.7-13.9-90.4-37.3-57-66.7c-9.1-10-2.5-32,12.7-32.6c1-0.1,1.7-1.3,1.2-2.2
						c-6-12.1,10-25.6,22.1-22.9c0.8,0,1.6-0.7,1.6-1.5c0-3.4,1.8-6.4,3.4-8.1c13.1-11.8,20.6-0.1,33,7
						c15.9,11.7,25.2,19.3,40.1,8.1c2.2-0.9,0.3-4.2-1.6-2.7c-9.8,5.9-14.6,5.9-16.9,4.9c-16.6-6.9-48.9-46-61-10.8
						C1769-3078.6,1761.4-3077.5,1755.9-3071.3z"/>
				</g>
				<g transform="matrix(0.200816,-0.76709,-0.76709,-0.200816,546.738,746.932)">
					<g transform="matrix(-0.351182,-1.21125,-1.21125,0.351182,917.667,535.338)">
						<path class="st28" d="M2031.1-937c-5.8,7.4,4.5,31.8,10.5,34c0.3-0.3,0.4-0.8,0.1-1.1c-5.2-6.2-13.5-21.6-9.7-31.7
							C2032.4-936.4,2031.8-937.2,2031.1-937z"/>
					</g>
					<g transform="matrix(-0.351182,-1.21125,-1.21125,0.351182,917.048,540.54)">
						<path class="st28" d="M2016.9-934.8c-3.4,8.3,3.8,30,12,36.8c-6-11.7-13.5-25.8-11.1-36
							C2017.9-934.4,2017.4-934.9,2016.9-934.8z"/>
					</g>
					<g transform="matrix(-0.351182,-1.21125,-1.21125,0.351182,915.909,545.071)">
						<path class="st28" d="M2003.5-925.9c-2.4,3.9,5.1,27.7,12.9,34c0.4-0.2,0.5-0.7,0.2-1.1c-6.6-10-9.2-17.2-10.6-22.3
							C2003.9-921.3,2005.6-925.5,2003.5-925.9z"/>
					</g>
				</g>
			</g>
		</g>
	</g>
</g>
<g id="_x32_">
	<g transform="matrix(1.15025,0,0,1.15025,-122.207,0.623001)">
		<g>
			<g transform="matrix(0.73988,0.04252,-0.04252,0.73988,-184.942,-40.7373)">
				<path class="st34" d="M1239.3,1449.5c0.6-32.1,1.8-262.6,3.8-316.2c0.9-25.6,51.7-49.3,100.8-37.4c34,8.2,64.4,21.5,57.2,104.7
					c-11.4,130.9-14,224.4-11.4,255.4c1.4,16.7,17.7,104.6,6.2,118.9c-17,21.2-229.2,49-272,19.7
					C1071.9,1506.5,1242,1507.8,1239.3,1449.5z"/>
			</g>
			<g transform="matrix(0.73988,0.04252,-0.04252,0.73988,-184.942,-40.7373)">
				<path class="st8" d="M1237.1,1453c0.4-8.4-1.7-24.6-2.9-43.9c-1.5-25.6,160-32.4,159.9-24.5c-0.8,58.9-1.5,50.9-0.4,62.8
					c1.4,16.7,18.6,83.2,7.1,97.4c-9.7,17-337.2,105.8-264.6-17.5C1176.4,1492.5,1234.8,1495.6,1237.1,1453z"/>
			</g>
			<g transform="matrix(-0.543926,-0.0809063,-0.0809063,0.543926,372.944,-27.9977)">
				<g transform="matrix(-1.48402,0.0247993,0.0247993,1.48402,1039.25,-24.9197)">
					<path class="st22" d="M1323.9,1308.9c28.9-5.9,103.1-51.6,105.6-30.8c2,16.6,25.6,90.6,14.2,104.8
						c-17,21.2-236.5,67-279.2,37.7c-10.2-7-8.2-48.6,5.1-60.1c20.1-17.4,50.5-28.2,68.9-41c13.4-9.3,23.6-28.9,36.8-31.2
						C1293.8,1285,1312.8,1294.6,1323.9,1308.9z"/>
				</g>
				<g transform="matrix(-1.48402,0.0247993,0.0247993,1.48402,1040.06,-30.3403)">
					<path class="st35" d="M1159.7,1413.9c45.5-7.2,232.9-32.6,287.4-47.5c5.2-0.7,12.8,37.8,3.4,41
						c-46.4,15.6-237.9,46.3-280.2,48.9C1159.8,1456.8,1156.6,1414.6,1159.7,1413.9z"/>
				</g>
			</g>
			<g transform="matrix(-0.724979,0.153741,0.153741,0.724979,711.027,-119.324)">
				<path class="st36" d="M240.4,985.7c2.8,3.9,154.7,563,151.7,574.4c-2.8,10.6-154.4,42.2-156.4,38.4
					c-16.8-32.2-164.9-527-173-565.3C60.3,1021.8,233.1,975.6,240.4,985.7z"/>
			</g>
			<g>
				<g transform="matrix(0.869375,0,0,0.869375,106.244,-0.541622)">
					<path class="st13" d="M717,1219.2c-35.1-0.8-66.8,0.2-68.3-2.1c1.6-1.4,105.8,2.5,133.5-2.2
						C770.9,1219.9,743.4,1218.5,717,1219.2z"/>
				</g>
				<g transform="matrix(0.869375,0,0,0.869375,106.244,-0.541622)">
					<path class="st13" d="M769.5,1234.5c-1.3-4.6,41.8-431,48.1-487.3C814.2,803.8,771.3,1229.8,769.5,1234.5z"/>
				</g>
				<g transform="matrix(0.869375,0,0,0.869375,106.244,-0.541622)">
					<path class="st13" d="M672.8,834c-0.9,0-1.1-1.4-0.1-1.5c32.9-7.2,65-37.6,66.5-96.5c0-1,1.6-1,1.6,0.1
						C739.2,795.8,706.2,826.9,672.8,834z"/>
				</g>
			</g>
		</g>
		<g transform="matrix(-1,0,0,1,599.345,0)">
			<g transform="matrix(0.73988,0.04252,-0.04252,0.73988,-184.942,-40.7373)">
				<path class="st34" d="M-136.4,1528.6c0.6-32.1,1.8-262.6,3.8-316.2c0.9-25.6,51.7-49.3,100.8-37.4c34,8.2,64.4,21.5,57.2,104.7
					c-11.4,130.9-14,224.4-11.4,255.4c1.4,16.7,17.7,104.6,6.2,118.9c-17,21.2-229.2,49-272,19.7
					C-303.8,1585.5-133.7,1586.8-136.4,1528.6z"/>
			</g>
			<g transform="matrix(0.73988,0.04252,-0.04252,0.73988,-184.942,-40.7373)">
				<path class="st8" d="M-138.6,1532c0.4-8.4-1.7-24.6-2.9-43.9c-1.5-25.6,160-32.4,159.9-24.5c-0.8,58.9-1.5,50.9-0.4,62.8
					c1.4,16.7,18.6,83.2,7.1,97.4c-9.7,17-337.2,105.8-264.6-17.5C-199.3,1571.6-140.9,1574.6-138.6,1532z"/>
			</g>
			<g transform="matrix(-0.543926,-0.0809063,-0.0809063,0.543926,372.944,-27.9977)">
				<g transform="matrix(-1.48402,0.0247993,0.0247993,1.48402,1039.25,-24.9197)">
					<path class="st22" d="M89.6,1513.6c28.9-5.9,103.1-51.6,105.6-30.8c2,16.6,25.6,90.6,14.2,104.8c-17,21.2-236.5,67-279.2,37.7
						c-10.2-7-8.2-48.6,5.1-60.1c20.1-17.4,50.5-28.2,68.9-41c13.4-9.3,23.6-28.9,36.8-31.2C59.4,1489.8,78.4,1499.3,89.6,1513.6z"
						/>
				</g>
				<g transform="matrix(-1.48402,0.0247993,0.0247993,1.48402,1040.06,-30.3403)">
					<path class="st35" d="M-74.6,1618.6c45.5-7.2,232.9-32.6,287.4-47.5c5.2-0.7,12.8,37.8,3.4,41
						c-46.4,15.6-237.9,46.3-280.2,48.9C-74.6,1661.6-77.7,1619.3-74.6,1618.6z"/>
				</g>
			</g>
			<g transform="matrix(-0.724979,0.153741,0.153741,0.724979,711.027,-119.324)">
				<path class="st36" d="M1588.4,699.8c2.8,3.9,154.7,563,151.7,574.4c-2.8,10.6-154.4,42.2-156.4,38.4
					c-16.8-32.2-164.9-527-173-565.3C1408.3,736,1581.1,689.7,1588.4,699.8z"/>
			</g>
			<g>
				<g transform="matrix(0.869375,0,0,0.869375,106.244,-0.541622)">
					<path class="st13" d="M-457.6,1219.2c26.4-0.7,53.9,0.7,65.2-4.2c-27.8,4.7-131.9,0.8-133.5,2.2
						C-524.5,1219.5-492.7,1218.5-457.6,1219.2z"/>
				</g>
				<g transform="matrix(0.869375,0,0,0.869375,106.244,-0.541622)">
					<path class="st13" d="M-405.1,1234.5c1.8-4.6,44.7-430.8,48.1-487.3C-363.4,803.6-406.4,1229.8-405.1,1234.5z"/>
				</g>
				<g transform="matrix(0.869375,0,0,0.869375,106.244,-0.541622)">
					<path class="st13" d="M-501.9,834c33.5-7.1,66.4-38.2,67.9-98c0-1-1.5-1.1-1.6-0.1c-1.5,58.8-33.6,89.3-66.5,96.5
						C-502.9,832.6-502.8,834-501.9,834z"/>
				</g>
			</g>
		</g>
		<g transform="matrix(-0.522897,0.442554,0.442554,0.522897,554.316,-262.353)">
			<g transform="matrix(-0.828332,0.560237,0.560237,0.828332,641.841,-167.569)">
				<path class="st8" d="M1041.6,1037.8C976.1,961.5,869.8,798.7,951,769c12.3-4.9,39.1-16.4,69.1,19.7
					c14.4,17.4,102.7,150.5,112.4,168.6c6.8,12.8,13.9,32.3,14.8,43C1150.5,1037.1,1073.8,1072.6,1041.6,1037.8z"/>
			</g>
			<g transform="matrix(0.672972,-0.0896602,0.0896602,0.672972,411.087,-25.4255)">
				<path class="st34" d="M-604.7,1728.1c11.5,40.7,257.9,43.5,257.5,138.9c1.6,42.1-27.4,85.3-73.3,79.2
					c-70.1-12.5-172-79.6-238.7-102.4c-49-20.4-126.8-48.1-133.8-95.1c1.8-8,8.1-9.4,13.4-7.6c-12.2-12.9,0.7-32.2,13.4-23.1
					c-13.3-14.1,2.3-41.2,18.2-23.8c-1.8-15.3,17.2-22.6,27.7-12.7c16.4,14,52.9,36.1,60.9,32.2c5.5-2.6-34-29.8-25.5-41.9
					c10.7-15.3,41.4,1.1,58.1,16.3C-616.8,1697.1-609,1711.8-604.7,1728.1z"/>
			</g>
			<g transform="matrix(0.672972,-0.0896602,0.0896602,0.672972,411.087,-25.4255)">
				<path class="st8" d="M-611.9,1894.7c-18.5-7.1,35-160.7,60.8-167.4c34.8,23.3,215.5,56.2,222.6,143.3
					C-336.9,2017.9-547.3,1909-611.9,1894.7z"/>
			</g>
			<g transform="matrix(1,0,0,1,-4.99048,-5.91751)">
				<g transform="matrix(-1.11426,0.943059,0.943059,1.11426,877.842,-241.233)">
					<path class="st37" d="M936.4,531.6c-0.5,0-0.8-0.5-0.6-0.9c-0.1,1.3,8.4-25.5,29-46.5c-17.6,23.5-28.7,47-27.7,46.9
						C936.9,531.4,936.6,531.6,936.4,531.6z"/>
				</g>
				<g transform="matrix(-1.11426,0.943059,0.943059,1.11426,877.842,-241.233)">
					<path class="st37" d="M939.9,522.5c-0.7-0.2-10.8-4-12.4-9c-1.4-9.6,11.4,0,12.8,1.4c0.3,0.2,0.3,0.7,0.1,1
						c-0.2,0.3-0.7,0.3-1,0.1c-3.2-2.3-11.2-9.2-10.6-2.9C929.2,517.5,943.7,521.5,939.9,522.5z"/>
				</g>
			</g>
			<g transform="matrix(0.672972,-0.0896602,0.0896602,0.672972,411.087,-25.4255)">
				<path class="st38" d="M-618.7,1896.7c-15.1-12.8,44.1-170.9,60.5-174.4c13.2-2.8,41.5,0.9,61.2,7c3.9,7.3-2.6,21.2-8.1,32.8
					c-2.6,5.5-49.7-0.4-71,5.3c11.4,10.8,56.1,34.4,53.1,46.1c-10.5,40.8-26.3,111.7-38,108
					C-587.7,1912.9-608.5,1905.4-618.7,1896.7z"/>
			</g>
			<g>
				<g transform="matrix(0.672972,-0.0896602,0.0896602,0.672972,411.087,-25.4255)">
					<path class="st28" d="M-658.4,1845c-37.5-20-104.5-45-123.2-73.1c-12.2-13.3-15.9-31.7,1.5-29.5c1.4,0.5,2.5-1.2,1.6-2.3
						c-10.4-10.4-1-28.7,10.3-21.5c10.4,4.3-10-14.6,2.1-24.7c5.4-5.8,12.3-5.1,16.9,1c0.8,1.1,2.7,0.4,2.6-0.9
						c-1.5-14.2,15.2-20.6,25.3-11.5c16.6,13.1,55.4,40.2,63.8,30.7c-1.2-8.6-33.7-31.5-26.3-40.7c14.8-14.9,39.7,3.4,55.9,16.5
						c9.4,8.6,17.4,23,21.7,39.4c1.6,5.3,7.6,14.9,13.1,12.3c0.3-0.8-0.1-1.6-0.8-1.9c-4.5-1.8-8.1-6-9.5-11.1
						c-4.5-16.9-12.7-31.8-22.6-40.8c-17.2-14.1-44.4-33.3-60.3-16.1c-8.3,10.9,18.5,31,25.7,41.6c-7.5,2.3-40.9-16.8-58.9-32.2
						c-10.5-9.8-29.1-4.2-30,10.2c-14.3-11.7-30.6,9.4-20.5,24.3c-10.7-4.9-22,13.5-13.1,24.2c-17.8,2.6-13.9,19.8-1,34.8
						C-762.8,1799.7-703.8,1831-658.4,1845z"/>
				</g>
				<g transform="matrix(-0.968714,0.819872,0.819872,0.968714,746.174,-130.832)">
					<path class="st28" d="M1100.8,490.3c-13.4-14-38.6-21.1-38.8-20.8c-0.4-0.1-0.7-0.5-0.6-0.9c0.9-1.8,25.3,5.6,40,20.4
						C1101.9,489.4,1101.5,490.3,1100.8,490.3z"/>
				</g>
				<g transform="matrix(-0.968714,0.819872,0.819872,0.968714,746.174,-130.832)">
					<path class="st28" d="M1054.3,503.8c-0.5,0-0.8-0.4-0.8-0.9c2.9-17.5-3.7-22.3-2.7-24.5
						C1051.6,476.3,1059.1,489.9,1054.3,503.8z"/>
				</g>
				<g transform="matrix(-0.802421,-0.596758,-0.596758,0.802421,1278.52,430.346)">
					<g transform="matrix(-0.351182,-1.21125,-1.21125,0.351182,917.667,535.338)">
						<path class="st28" d="M-508,501.1c0.6,0,1-0.8,0.6-1.2c-8.4-11.2-11.5-28.9-11.5-29C-523,466.1-516.7,492.3-508,501.1z"/>
					</g>
					<g transform="matrix(-0.351182,-1.21125,-1.21125,0.351182,917.048,540.54)">
						<path class="st28" d="M-518.3,506.5c0.6,0,1-0.8,0.6-1.2c-9.4-11.9-11.2-30.2-13.2-30.4C-532.6,475.3-527.4,496.1-518.3,506.5
							z"/>
					</g>
					<g transform="matrix(-0.351182,-1.21125,-1.21125,0.351182,915.909,545.071)">
						<path class="st28" d="M-527.6,513.5c0.6,0,1-0.8,0.6-1.2c-9.4-11.9-11.2-31.8-13.2-31.9C-541.8,480.7-536.7,503-527.6,513.5z"
							/>
					</g>
				</g>
			</g>
		</g>
		<g transform="matrix(1,0,0,1,-11.4633,0)">
			<g transform="matrix(-0.494589,-0.103463,-0.103463,0.494589,454.3,-35.0253)">
				<path class="st8" d="M-993.4,636c331.2,4,337.6,56.1,289.1,416.9c-7.5,79.7-25.8,165-35.4,223.1c-5.3,32.1-4.5,78.8-22.4,108.6
					c-120.7-10.2-358.2-70.6-467.8-132.4c-16.4-9.3,17-98.4,11.3-111.5c-12.4,19.3-28.8,108-40.1,98.2
					C-1302.3,1201-1045.3,685.8-993.4,636z"/>
			</g>
			<g transform="matrix(1,0,0,1,-0.544797,3.97668)">
				<g transform="matrix(1,0,0,1,0.0584009,-1.62208)">
					<path class="st37" d="M702.7,724.3c-0.4,0-0.7-0.3-0.7-0.7c0.6,0.1-0.3-32.4,3.1-49.6c0.4,0,0.7,0.4,0.6,0.7
						C703.6,694.6,704.6,723.4,702.7,724.3z"/>
				</g>
				<g transform="matrix(1,0,0,1,1.49757,1.82027)">
					<path class="st37" d="M725.3,717.2c-2.6,0-14-6.2-14.1-8.6c0.2-0.3,0.7-0.4,1-0.1c5.4,4,12.1,8,13.5,7.3
						c0.6-3.4-10.7-13.6-17.5-19.6C705.6,690.2,734.1,716.8,725.3,717.2z"/>
				</g>
				<g transform="matrix(1,0,0,1,0.969341,0.764647)">
					<path class="st37" d="M899.1,707.8c-3.6,0.8-4.7-12.6-2.1-8.9c0,3.4,0.4,9.9,4,6.5c5.2-4.6,8.2-23.9,8.2-24.1
						C912.9,676.8,906.4,707.8,899.1,707.8z"/>
				</g>
			</g>
		</g>
		<g transform="matrix(1,0,0,1,-11.4633,0)">
			<g transform="matrix(1,0,0,1,0,5.84412)">
				<path class="st39" d="M680.9,658.7c-0.6,49-8.1,43.3,47.6,47c45.1-2.9,189.4,0.3,230.5-23.2c0.3-9.1-3-31.5-3-31.5L680.9,658.7z
					"/>
			</g>
			<g transform="matrix(-0.494589,-0.103463,-0.103463,0.494589,454.3,-35.0253)">
				<path class="st26" d="M-993.4,636c333,4.5,335.7,55.5,289.1,416.9c-4.2,50.5,3.5,172.5-9,228.7c-7.1,31.7-68.9,26.5-78.8,25.2
					c-40.6-4.9-486.5-102.7-467.9-161.3C-1208.2,982.5-1031.5,672.6-993.4,636z"/>
			</g>
			<path class="st40" d="M846.9,441c-15.9-0.4-46.7-16.4-58.5-30.1c15.2,10.5,43.4,30.2,59.9,28.5c17.9-1.7,7.6-24.1,7.3-35.9
				C861.2,415,865.9,441.6,846.9,441z"/>
		</g>
		<g transform="matrix(1,0,0,1,-11.4633,0)">
			<g>
				<path class="st8" d="M774.4,382.9c0,10.7,63.8,57.3,77.2,45.2c2.9-3.5,2.8-16.4-1.4-31.3C849.7,376.9,773.1,358.3,774.4,382.9z"
					/>
				<path class="st8" d="M821.2,422c0,0-8.1,12.4-10.4,13c-2.3,0.6-38.3-37.5-41.3-43.3c-3.1-5.8,1.7-12.9,7.8-16.3L821.2,422z"/>
				<path class="st8" d="M850.6,415.7c0,0,12.1,5.3,13,2.2c0.9-3.1-9-24.9-15-31.5c-8.2-8.9-23.6-14.9-37.7-13.7L850.6,415.7z"/>
			</g>
			<g>
				<path class="st37" d="M817.4,420.8c-1.6-1.4-43.4-28.9-42.5-37.1c2.7,5.7,30.6,27.8,42.9,35.9
					C818.3,419.9,818,420.8,817.4,420.8z"/>
				<path class="st37" d="M853.2,413.4c-0.4,0-0.7-0.3-0.7-0.6c0.1-2.8-2-13.6-9.4-24C852.2,393.6,855,415,853.2,413.4z"/>
			</g>
		</g>
		<g transform="matrix(-0.415771,-0.0437611,-0.0437611,0.415771,409.959,-25.8534)">
			<g transform="matrix(2.05511,0.216306,-0.216306,2.05511,-390.046,28.0972)">
				<path class="st6" d="M-187.4,258.8c23.5,30.6,26.6,92.2,1.2,124.1c-23.8,25-97.7,54.4-146.3,11.7
					c-31.7-27.9-19.8-98.2-12.3-120.5c14.7-52.6,94.4-65.1,139.4-31.7c0.7-4.3,2.5-9.5,6.5-10.3c7-1.3,2.9,17.8,2.9,17.8
					C-181.8,239.2-168.5,249.6-187.4,258.8z"/>
			</g>
			<g transform="matrix(1.3727,0.251925,-0.251925,1.3727,-566.059,-57.1535)">
				<path class="st34" d="M-261.4,660.4c3.3,12.6-11.5,123.3,13.4,122.7c39.4,0.7,98.2-61.5,97-77.2c-1-13.8-6.1-59.1-6.1-59.1
					L-261.4,660.4z"/>
			</g>
			<g transform="matrix(0.936264,0.0985446,-0.109908,1.04422,61.6271,-25.0883)">
				<path class="st34" d="M-1157.4,931c-165.7-13.9-156.6-365.3,60.4-341.1c182.4,12.6,176.7,164.2,172.2,243.9
					C-927.6,885.1-980.7,953.6-1157.4,931z"/>
			</g>
			<g transform="matrix(-1.93638,-0.20381,-0.20381,1.93638,877.414,179.202)">
				<path class="st28" d="M951,444.9c-21.2,1.8-60.7-13.8-68-29.5c-0.6-0.9,0.9-1.8,1.4-0.9c9.5,18.9,54,31.4,70.2,28.6
					c1.1-0.1,1.2,1.6,0.1,1.7C954.7,444.8,953.4,444.9,951,444.9z"/>
			</g>
			<g transform="matrix(2.05511,0.216306,-0.216306,2.05511,-390.046,28.0972)">
				<path class="st6" d="M-262.6,277.6c-0.1,12.4,1,15.7,4.5,17.5c3.3,1.7,23.6-7.9,24.1-14.1c5.9,40.8,15.4,62.9,21.2,71.7
					c3.2,4.9,7.8-2.3,14.6-9.4c20.4-21.3-0.6-61.8-11.2-77.7c-17.8-26.6-48.8-42-74.6-42.2c-16.6-0.1-33.2,6.7-46.7,13.8
					c-43.5,26-45.8,86.8-6.1,36.8c-3.7,12.6-3.1,25.3,2.2,27.1C-327.6,303.5-266.6,292.1-262.6,277.6z"/>
			</g>
			<g transform="matrix(-1.02242,-0.138561,-0.138561,1.02242,374.627,169.091)">
				<g transform="matrix(1.85481,0.34774,-0.34774,1.85481,-84.519,-83.1613)">
					<path class="st28" d="M803.3,268c-8,1.5-7.7-10.4-9-15.3c-0.6-3.4,1.6-6.6,5-7.3c8.2-1.7,7.9,10.3,9.2,15.3
						C809.1,264.2,806.8,267.5,803.3,268z"/>
				</g>
				<g transform="matrix(1.88379,0.112209,-0.112209,1.88379,-80.4977,-54.9367)">
					<path class="st28" d="M820.6,348.3c-8.1,0.5-6.4-11.2-7-16.2c-0.2-3.4,2.4-6.4,5.8-6.6c8.3-0.6,6.6,11.1,7.2,16.2
						C826.8,345.2,824.1,348.2,820.6,348.3z"/>
				</g>
				<path class="st28" d="M1369.6,733.8c-7.3-2.4,20-13.5,5.7-19.6c-15.1-5.3-19.7-36.8-13-28.9c0,0.2,1.2,20.4,14.2,26
					C1391.1,716.2,1374.1,732.9,1369.6,733.8z"/>
				<g transform="matrix(1.70624,0.806213,-0.806213,1.70624,-21.9848,-130.806)">
					<path class="st28" d="M803.3,67.7c-6.7,0.1,0-10.2,4.3-11.7c3.6-2.4,14.5-1.9,13.1,3.7c-0.6,0.9-1.9,1-2.7,0.4
						c-6-4.4-13.1,1.1-13.5,5.8C804.5,66.7,804,67.4,803.3,67.7z"/>
				</g>
				<g transform="matrix(-1.88713,0,0,1.88713,394.551,-41.5318)">
					<path class="st28" d="M-555,357c0.8,0,1.5-0.5,1.8-1.3c2.3-4.3,9.6-6.6,14.9-1.3c0.7,0.8,2,0.8,2.7,0.1
						c2.3-5.3-8.7-7.9-12.5-6.7C-552.4,348.3-560.8,354.7-555,357z"/>
				</g>
				<g transform="matrix(1.28355,0,3.08149e-33,1.28355,-40.6093,-43.9158)">
					<path class="st28" d="M1086.9,633c-24.2,0.2-35.3-19-29.3-20.3c0.9,0.7,51.8,9.1,52,10.8C1109.7,625.7,1103,632.9,1086.9,633z
						 M1058.9,615.4c0.8,13.1,36.1,21,47.2,9.2L1058.9,615.4z"/>
				</g>
			</g>
			<g transform="matrix(1,0,0,1,2.49181,-4.14728)">
				<g transform="matrix(1.04213,0.128228,-0.128228,1.04213,39.277,-27.8676)">
					<path class="st34" d="M-797,804.7c13-18.7,44.8-33.8,58.8,0c14.1,34.2-35,93-70.6,82.2C-835.7,878.7-807.8,820.1-797,804.7z"/>
				</g>
				<g transform="matrix(1,-1.38778e-17,-1.38778e-17,1,-0.593578,5.63953)">
					<g transform="matrix(-1.0261,-0.108,-0.108,1.0261,373.398,158.927)">
						<path class="st28" d="M1170.5,696.1c-25.9-30.7-43.1-19.2-48.1-22.4c0.4-4.8,25.2-10.9,49.6,19.5
							C1172.9,694.3,1171.9,696.2,1170.5,696.1z"/>
					</g>
					<g transform="matrix(-1.0261,-0.108,-0.108,1.0261,373.398,158.927)">
						<path class="st28" d="M1141.2,696.1c-8.4,0.3,14.9-21.1,20.6-12.9c0,1-0.9,1.7-1.9,1.7C1149.1,684.9,1143.6,696,1141.2,696.1z
							"/>
					</g>
				</g>
			</g>
		</g>
		<g transform="matrix(0.674388,0.120315,-0.120315,0.674388,-128.102,-92.9112)">
			<g transform="matrix(-0.951963,0.306214,0.306214,0.951963,758.162,-145.508)">
				<path class="st8" d="M-304.8,1044.6c-65.5-76.3-171.8-239.1-90.6-268.8c12.3-4.9,39.1-16.4,69.1,19.7
					C-311.9,813-223.7,946-214,964.2c6.8,12.8,13.9,32.3,14.8,43C-195.9,1043.9-272.6,1079.4-304.8,1044.6z"/>
			</g>
			<g transform="matrix(-0.357833,-0.576963,-0.576963,0.357833,971.26,242.221)">
				<path class="st34" d="M-1082.5-178.3c14.7,41.5,269.5,48.7,276.1,142.5c1.6,42.1-39.2,83.8-85.1,77.7
					c-71.8-12.3-177.2-80.6-245.5-104.5c-49.7-20.9-126.1-47.4-133.8-95.1c1.8-8,8.1-9.4,13.4-7.6c-12.2-12.9,0.7-32.2,13.4-23.1
					c-13.3-14.1,2.3-41.2,18.2-23.8c-1.8-15.3,17.2-22.6,27.7-12.7c16.4,14,52.9,36.1,60.9,32.2c5.5-2.6-34-29.8-25.5-41.9
					c10.7-15.3,41.4,1.1,58.1,16.3C-1094.6-209.3-1086.8-194.5-1082.5-178.3z"/>
			</g>
			<g transform="matrix(-0.357833,-0.576963,-0.576963,0.357833,971.26,242.221)">
				<path class="st8" d="M-1089.7-11.7c-18.5-7.1,35-160.7,60.8-167.4c34.8,23.3,215.5,56.2,222.6,143.3
					C-814.7,111.5-1025.1,2.6-1089.7-11.7z"/>
			</g>
			<g>
				<g transform="matrix(1.43708,-0.256384,0.256384,1.43708,191.441,103.617)">
					<path class="st37" d="M727,563.9c-7.1-7.5-25.2-24-25.6-24c-0.3-0.2-0.3-0.7-0.1-1c1-1.2,18.7,15.5,26.2,23.8
						C727.9,563.2,727.6,563.9,727,563.9z"/>
				</g>
				<g transform="matrix(1.43708,-0.256384,0.256384,1.43708,191.441,103.617)">
					<path class="st37" d="M713.4,550.2c-1.3-0.1-3.9-14-1.5-18.7c4.4-5.7,5.5,9.3,5.4,10.4c0,0.9-1.4,0.9-1.4,0
						c0-3.6-1.3-10.1-2.4-10.4c-3,3.2-0.4,13.9,0.4,17.8C714.2,549.8,713.8,550.2,713.4,550.2z"/>
				</g>
			</g>
			<g transform="matrix(-0.357833,-0.576963,-0.576963,0.357833,971.26,242.221)">
				<path class="st38" d="M-1096.5-9.7c-15.1-12.8,44.1-170.9,60.5-174.4c13.2-2.8,41.5,0.9,61.2,7c3.9,7.3-2.6,21.2-8.1,32.8
					c-2.6,5.5-49.7-0.4-71,5.3c11.4,10.8,56.1,34.4,53.1,46.1c-10.5,40.8-26.3,111.7-38,108C-1065.5,6.6-1086.3-1-1096.5-9.7z"/>
			</g>
			<g transform="matrix(-0.357833,-0.576963,-0.576963,0.357833,971.26,242.221)">
				<path class="st28" d="M-1271.2-147.5c20.3,38.6,83.7,70.3,135.5,85.4c-41.6-18.8-103.9-44.8-123.8-72.4
					c-13-15.1-15.5-31.5,3.2-30c-2.6-7.5-7.8-13.2-2.7-19.9c6.9-9.9,10.6-1.8,16.1-3.1c0.4-0.5,0.4-1.2,0.1-1.7
					c-7.7-8.1-6.5-26.7,7.5-27.1c3.9-1.3,9.9,9,10.9,4.1c-1.5-14.2,15.2-20.6,25.3-11.5c16,13.7,53.4,36.8,62.5,32.4
					c3.8-3.8-1-6.1-8-14.2c-58.8-57.2,50.1-36.6,60.7,27.7c-1,5.1,16.1,19.3,12.3,10.4c-13-5.4-13.9-38.8-32-51.9
					c-17.2-14.1-44.4-33.3-60.3-16.1c-8.3,10.9,18.5,31,25.7,41.6c-7.5,2.3-40.9-16.8-58.9-32.2c-10.5-9.8-29.1-4.2-30,10.2
					c-14.3-11.7-30.6,9.4-20.5,24.3c-10.7-4.9-22,13.5-13.1,24.2C-1270.9-168.2-1275.1-156.1-1271.2-147.5z"/>
			</g>
			<g transform="matrix(0.97044,0.241344,-0.241344,0.97044,68.5075,-138.847)">
				<g transform="matrix(-0.351182,-1.21125,-1.21125,0.351182,917.667,535.338)">
					<path class="st28" d="M-237.2-548.5c0.3,0.1,3.1,21.8,12.9,30.1c0.3-0.3,0.4-0.7,0.2-1.1c-8.4-11.2-11.5-28.9-11.5-29
						C-235.8-549.4-237.1-549.3-237.2-548.5z"/>
				</g>
				<g transform="matrix(-0.351182,-1.21125,-1.21125,0.351182,917.048,540.54)">
					<path class="st28" d="M-248.2-543.8c0.5,0.6,3.8,22.2,13.7,30.8c0.3-0.3,0.4-0.7,0.2-1.1c-8.4-11.2-12.3-29.6-12.3-29.8
						C-246.8-544.7-248.1-544.6-248.2-543.8z"/>
				</g>
				<g transform="matrix(-0.351182,-1.21125,-1.21125,0.351182,915.909,545.071)">
					<path class="st28" d="M-257.5-538.4c0.3,0,3.8,24,13.7,32.4c0.3-0.3,0.4-0.7,0.2-1.1c-8.4-11.2-12.3-31.1-12.3-31.3
						C-256.1-539.3-257.4-539.3-257.5-538.4z"/>
				</g>
			</g>
		</g>
	</g>
</g>
<g id="_x31_">
	<g transform="matrix(1,0,0,1,-2.54517,11.614)">
		<path class="st41" d="M2841.3,1374.2c-3.9-3.9-2682.4,7.4-2681.5-3.9C156,1366.6,2864,1355.7,2841.3,1374.2z"/>
	</g>
</g>
</svg>
